G04*
G04 #@! TF.GenerationSoftware,Altium Limited,Altium Designer,24.2.2 (26)*
G04*
G04 Layer_Color=65535*
%FSLAX44Y44*%
%MOMM*%
G71*
G04*
G04 #@! TF.SameCoordinates,697C3EBA-3636-4A45-A11A-30362066544D*
G04*
G04*
G04 #@! TF.FilePolarity,Positive*
G04*
G01*
G75*
%ADD10C,0.2500*%
%ADD11C,0.6000*%
%ADD12C,0.2000*%
%ADD13C,0.2540*%
%ADD14C,0.4000*%
%ADD15C,0.1270*%
%ADD16C,0.0635*%
%ADD17C,0.1016*%
%ADD18C,0.0712*%
%ADD19C,0.1651*%
%ADD20C,0.0953*%
G36*
X1273244Y437678D02*
X1275451D01*
Y437433D01*
X1276676D01*
Y437188D01*
X1277657D01*
Y436943D01*
X1278393D01*
Y436698D01*
X1279128D01*
Y436452D01*
X1279864D01*
Y436207D01*
X1280599D01*
Y435962D01*
X1281089D01*
Y435717D01*
X1281580D01*
Y435472D01*
X1282070D01*
Y435227D01*
X1282561D01*
Y434981D01*
X1283051D01*
Y434736D01*
X1283541D01*
Y434491D01*
X1283786D01*
Y434246D01*
X1284277D01*
Y434001D01*
X1284522D01*
Y433755D01*
X1285012D01*
Y433510D01*
X1285258D01*
Y433265D01*
X1285748D01*
Y433020D01*
X1285993D01*
Y432775D01*
X1286238D01*
Y432530D01*
X1286483D01*
Y432284D01*
X1286974D01*
Y432039D01*
X1287219D01*
Y431794D01*
X1287464D01*
Y431549D01*
X1287709D01*
Y431304D01*
X1287954D01*
Y431059D01*
X1288200D01*
Y430813D01*
X1288445D01*
Y430568D01*
X1288690D01*
Y430323D01*
X1288935D01*
Y430078D01*
X1280599D01*
Y430323D01*
X1280109D01*
Y430568D01*
X1279619D01*
Y430813D01*
X1279128D01*
Y431059D01*
X1278638D01*
Y431304D01*
X1277902D01*
Y431549D01*
X1277412D01*
Y431794D01*
X1276676D01*
Y432039D01*
X1275696D01*
Y432284D01*
X1274470D01*
Y432530D01*
X1272018D01*
Y432775D01*
X1270792D01*
Y432530D01*
X1268341D01*
Y432284D01*
X1267115D01*
Y432039D01*
X1266134D01*
Y431794D01*
X1265398D01*
Y431549D01*
X1264908D01*
Y431304D01*
X1264173D01*
Y431059D01*
X1263682D01*
Y430813D01*
X1263192D01*
Y430568D01*
X1262701D01*
Y430323D01*
X1262211D01*
Y430078D01*
X1253875D01*
Y430323D01*
X1254120D01*
Y430568D01*
X1254366D01*
Y430813D01*
X1254611D01*
Y431059D01*
X1254856D01*
Y431304D01*
X1255101D01*
Y431549D01*
X1255346D01*
Y431794D01*
X1255592D01*
Y432039D01*
X1255837D01*
Y432284D01*
X1256327D01*
Y432530D01*
X1256572D01*
Y432775D01*
X1256817D01*
Y433020D01*
X1257063D01*
Y433265D01*
X1257553D01*
Y433510D01*
X1257798D01*
Y433755D01*
X1258288D01*
Y434001D01*
X1258534D01*
Y434246D01*
X1259024D01*
Y434491D01*
X1259269D01*
Y434736D01*
X1259759D01*
Y434981D01*
X1260250D01*
Y435227D01*
X1260740D01*
Y435472D01*
X1261230D01*
Y435717D01*
X1261721D01*
Y435962D01*
X1262211D01*
Y436207D01*
X1262947D01*
Y436452D01*
X1263682D01*
Y436698D01*
X1264418D01*
Y436943D01*
X1265153D01*
Y437188D01*
X1266134D01*
Y437433D01*
X1267360D01*
Y437678D01*
X1269566D01*
Y437923D01*
X1273244D01*
Y437678D01*
D02*
G37*
G36*
X1289425Y424439D02*
X1290161D01*
Y424194D01*
X1290406D01*
Y423949D01*
X1290896D01*
Y423703D01*
X1291142D01*
Y423458D01*
X1291387D01*
Y423213D01*
X1291632D01*
Y422968D01*
X1291877D01*
Y422477D01*
X1292122D01*
Y421987D01*
X1292368D01*
Y421252D01*
X1292613D01*
Y415613D01*
X1292368D01*
Y414632D01*
X1292122D01*
Y414142D01*
X1291877D01*
Y413896D01*
X1291632D01*
Y413406D01*
X1291387D01*
Y413161D01*
X1291142D01*
Y412916D01*
X1290651D01*
Y412671D01*
X1290406D01*
Y412425D01*
X1289671D01*
Y412180D01*
X1288445D01*
Y411935D01*
X1284032D01*
Y403599D01*
X1279864D01*
Y424684D01*
X1289425D01*
Y424439D01*
D02*
G37*
G36*
X1277657Y420516D02*
X1269321D01*
Y416103D01*
X1269566D01*
Y416348D01*
X1273489D01*
Y416103D01*
X1274960D01*
Y415858D01*
X1275451D01*
Y415613D01*
X1275941D01*
Y415367D01*
X1276186D01*
Y415122D01*
X1276431D01*
Y414877D01*
X1276676D01*
Y414632D01*
X1276922D01*
Y414387D01*
X1277167D01*
Y413896D01*
X1277412D01*
Y413161D01*
X1277657D01*
Y406541D01*
X1277412D01*
Y406051D01*
X1277167D01*
Y405560D01*
X1276922D01*
Y405315D01*
Y405070D01*
X1276676D01*
Y404825D01*
X1276431D01*
Y404580D01*
X1276186D01*
Y404335D01*
X1275696D01*
Y404090D01*
X1275205D01*
Y403844D01*
X1274470D01*
Y403599D01*
X1265153D01*
Y407767D01*
X1273489D01*
Y412180D01*
X1273244D01*
Y411935D01*
X1269321D01*
Y412180D01*
X1267850D01*
Y412425D01*
X1267360D01*
Y412671D01*
X1266870D01*
Y412916D01*
X1266624D01*
Y413161D01*
X1266379D01*
Y413406D01*
X1266134D01*
Y413651D01*
X1265889D01*
Y413896D01*
X1265644D01*
Y414387D01*
X1265398D01*
Y415122D01*
X1265153D01*
Y421742D01*
X1265398D01*
Y422232D01*
X1265644D01*
Y422723D01*
X1265889D01*
Y423213D01*
X1266134D01*
Y423458D01*
X1266379D01*
Y423703D01*
X1266624D01*
Y423949D01*
X1267115D01*
Y424194D01*
X1267605D01*
Y424439D01*
X1268341D01*
Y424684D01*
X1277657D01*
Y420516D01*
D02*
G37*
G36*
X1262947D02*
X1254366D01*
Y416348D01*
X1262947D01*
Y411935D01*
X1254366D01*
Y407767D01*
X1262947D01*
Y403599D01*
X1250198D01*
Y415858D01*
Y416103D01*
Y424684D01*
X1262947D01*
Y420516D01*
D02*
G37*
G36*
X1288935Y397960D02*
X1288690D01*
Y397715D01*
X1288445D01*
Y397470D01*
X1288200D01*
Y397225D01*
X1287954D01*
Y396979D01*
X1287709D01*
Y396734D01*
X1287464D01*
Y396489D01*
X1287219D01*
Y396244D01*
X1286974D01*
Y395999D01*
X1286483D01*
Y395754D01*
X1286238D01*
Y395508D01*
X1285993D01*
Y395263D01*
X1285748D01*
Y395018D01*
X1285258D01*
Y394773D01*
X1285012D01*
Y394528D01*
X1284522D01*
Y394282D01*
X1284277D01*
Y394037D01*
X1283786D01*
Y393792D01*
X1283541D01*
Y393547D01*
X1283051D01*
Y393302D01*
X1282561D01*
Y393057D01*
X1282070D01*
Y392812D01*
X1281580D01*
Y392566D01*
X1281089D01*
Y392321D01*
X1280599D01*
Y392076D01*
X1279864D01*
Y391831D01*
X1279128D01*
Y391586D01*
X1278393D01*
Y391340D01*
X1277657D01*
Y391095D01*
X1276676D01*
Y390850D01*
X1275451D01*
Y390605D01*
X1273244D01*
Y390360D01*
X1269566D01*
Y390605D01*
X1267360D01*
Y390850D01*
X1266134D01*
Y391095D01*
X1265153D01*
Y391340D01*
X1264418D01*
Y391586D01*
X1263682D01*
Y391831D01*
X1262947D01*
Y392076D01*
X1262211D01*
Y392321D01*
X1261721D01*
Y392566D01*
X1261230D01*
Y392812D01*
X1260740D01*
Y393057D01*
X1260250D01*
Y393302D01*
X1259759D01*
Y393547D01*
X1259269D01*
Y393792D01*
X1259024D01*
Y394037D01*
X1258534D01*
Y394282D01*
X1258288D01*
Y394528D01*
X1257798D01*
Y394773D01*
X1257553D01*
Y395018D01*
X1257063D01*
Y395263D01*
X1256817D01*
Y395508D01*
X1256572D01*
Y395754D01*
X1256327D01*
Y395999D01*
X1255837D01*
Y396244D01*
X1255592D01*
Y396489D01*
X1255346D01*
Y396734D01*
X1255101D01*
Y396979D01*
X1254856D01*
Y397225D01*
X1254611D01*
Y397470D01*
X1254366D01*
Y397715D01*
X1254120D01*
Y397960D01*
X1253875D01*
Y398205D01*
X1262211D01*
Y397960D01*
X1262701D01*
Y397715D01*
X1263192D01*
Y397470D01*
X1263682D01*
Y397225D01*
X1264173D01*
Y396979D01*
X1264908D01*
Y396734D01*
X1265398D01*
Y396489D01*
X1266134D01*
Y396244D01*
X1267115D01*
Y395999D01*
X1268341D01*
Y395754D01*
X1270792D01*
Y395508D01*
X1272018D01*
Y395754D01*
X1274470D01*
Y395999D01*
X1275696D01*
Y396244D01*
X1276676D01*
Y396489D01*
X1277412D01*
Y396734D01*
X1277902D01*
Y396979D01*
X1278638D01*
Y397225D01*
X1279128D01*
Y397470D01*
X1279619D01*
Y397715D01*
X1280109D01*
Y397960D01*
X1280599D01*
Y398205D01*
X1288935D01*
Y397960D01*
D02*
G37*
G36*
X1294084Y436207D02*
X1294329D01*
Y435962D01*
X1294574D01*
Y435717D01*
X1294819D01*
Y435472D01*
X1295064D01*
Y435227D01*
X1295310D01*
Y434981D01*
X1295555D01*
Y434491D01*
X1295800D01*
Y434246D01*
X1296045D01*
Y434001D01*
X1296290D01*
Y433755D01*
X1296535D01*
Y433265D01*
X1296781D01*
Y433020D01*
X1297026D01*
Y432775D01*
X1297271D01*
Y432284D01*
X1297516D01*
Y432039D01*
X1297761D01*
Y431549D01*
X1298006D01*
Y431304D01*
X1298252D01*
Y430813D01*
X1298497D01*
Y430568D01*
X1298742D01*
Y430078D01*
X1298987D01*
Y429588D01*
X1299232D01*
Y429097D01*
X1299478D01*
Y428607D01*
X1299723D01*
Y428116D01*
X1299968D01*
Y427626D01*
X1300213D01*
Y427136D01*
X1300458D01*
Y426645D01*
X1300703D01*
Y425910D01*
X1300949D01*
Y425420D01*
X1301194D01*
Y424684D01*
X1301439D01*
Y423949D01*
X1301684D01*
Y423213D01*
X1301929D01*
Y422232D01*
X1302175D01*
Y421252D01*
X1302420D01*
Y420271D01*
X1302665D01*
Y420026D01*
Y419781D01*
Y418800D01*
X1302910D01*
Y416348D01*
X1303155D01*
Y411935D01*
X1302910D01*
Y409483D01*
X1302665D01*
Y408012D01*
X1302420D01*
Y407032D01*
X1302175D01*
Y406051D01*
X1301929D01*
Y405070D01*
X1301684D01*
Y404335D01*
X1301439D01*
Y403599D01*
X1301194D01*
Y402864D01*
X1300949D01*
Y402373D01*
X1300703D01*
Y401638D01*
X1300458D01*
Y401147D01*
X1300213D01*
Y400657D01*
X1299968D01*
Y400167D01*
X1299723D01*
Y399676D01*
X1299478D01*
Y399186D01*
X1299232D01*
Y398696D01*
X1298987D01*
Y398205D01*
X1298742D01*
Y397715D01*
X1298497D01*
Y397470D01*
X1298252D01*
Y396979D01*
X1298006D01*
Y396734D01*
X1297761D01*
Y396244D01*
X1297516D01*
Y395999D01*
X1297271D01*
Y395508D01*
X1297026D01*
Y395263D01*
X1296781D01*
Y395018D01*
X1296535D01*
Y394528D01*
X1296290D01*
Y394282D01*
X1296045D01*
Y394037D01*
X1295800D01*
Y393792D01*
X1295555D01*
Y393302D01*
X1295310D01*
Y393057D01*
X1295064D01*
Y392812D01*
X1294819D01*
Y392566D01*
X1294574D01*
Y392321D01*
X1294329D01*
Y392076D01*
X1294084D01*
Y391831D01*
X1293593D01*
Y392076D01*
X1293348D01*
Y392321D01*
X1293103D01*
Y392566D01*
X1292858D01*
Y392812D01*
X1292613D01*
Y393057D01*
X1292368D01*
Y393302D01*
X1292122D01*
Y393547D01*
X1291877D01*
Y393792D01*
X1291632D01*
Y394037D01*
X1291387D01*
Y394282D01*
X1291142D01*
Y394773D01*
X1291387D01*
Y395018D01*
X1291632D01*
Y395263D01*
X1291877D01*
Y395508D01*
X1292122D01*
Y395754D01*
X1292368D01*
Y395999D01*
X1292613D01*
Y396489D01*
X1292858D01*
Y396734D01*
X1293103D01*
Y396979D01*
X1293348D01*
Y397225D01*
X1293593D01*
Y397715D01*
X1293839D01*
Y397960D01*
X1294084D01*
Y398205D01*
X1294329D01*
Y398696D01*
X1294574D01*
Y398941D01*
X1294819D01*
Y399431D01*
X1295064D01*
Y399921D01*
X1295310D01*
Y400167D01*
X1295555D01*
Y400657D01*
X1295800D01*
Y401147D01*
X1296045D01*
Y401638D01*
X1296290D01*
Y402128D01*
X1296535D01*
Y402618D01*
X1296781D01*
Y403109D01*
X1297026D01*
Y403599D01*
X1297271D01*
Y404335D01*
X1297516D01*
Y404825D01*
X1297761D01*
Y405560D01*
X1298006D01*
Y406541D01*
X1298252D01*
Y407277D01*
X1298497D01*
Y408503D01*
X1298742D01*
Y409728D01*
X1298987D01*
Y411690D01*
X1299232D01*
Y416593D01*
X1298987D01*
Y418555D01*
X1298742D01*
Y419781D01*
X1298497D01*
Y421006D01*
X1298252D01*
Y421742D01*
X1298006D01*
Y422723D01*
X1297761D01*
Y423213D01*
X1297516D01*
Y423949D01*
X1297271D01*
Y424684D01*
X1297026D01*
Y425174D01*
X1296781D01*
Y425665D01*
X1296535D01*
Y426155D01*
X1296290D01*
Y426645D01*
X1296045D01*
Y427136D01*
X1295800D01*
Y427626D01*
X1295555D01*
Y428116D01*
X1295310D01*
Y428362D01*
X1295064D01*
Y428852D01*
X1294819D01*
Y429342D01*
X1294574D01*
Y429588D01*
X1294329D01*
Y430078D01*
X1294084D01*
Y430323D01*
X1293839D01*
Y430568D01*
X1293593D01*
Y431059D01*
X1293348D01*
Y431304D01*
X1293103D01*
Y431549D01*
X1292858D01*
Y431794D01*
X1292613D01*
Y432284D01*
X1292368D01*
Y432530D01*
X1292122D01*
Y432775D01*
X1291877D01*
Y433020D01*
X1291632D01*
Y433265D01*
X1291387D01*
Y433510D01*
X1291142D01*
Y434001D01*
X1291387D01*
Y434246D01*
X1291632D01*
Y434491D01*
X1291877D01*
Y434736D01*
X1292122D01*
Y434981D01*
X1292368D01*
Y435227D01*
X1292613D01*
Y435472D01*
X1292858D01*
Y435717D01*
X1293103D01*
Y435962D01*
X1293348D01*
Y436207D01*
X1293593D01*
Y436452D01*
X1294084D01*
Y436207D01*
D02*
G37*
G36*
X1249217D02*
X1249462D01*
Y435962D01*
X1249707D01*
Y435717D01*
X1249952D01*
Y435472D01*
X1250198D01*
Y435227D01*
X1250443D01*
Y434981D01*
X1250688D01*
Y434736D01*
X1250933D01*
Y434491D01*
X1251178D01*
Y434246D01*
X1251423D01*
Y434001D01*
X1251669D01*
Y433510D01*
X1251423D01*
Y433265D01*
X1251178D01*
Y433020D01*
X1250933D01*
Y432775D01*
X1250688D01*
Y432530D01*
X1250443D01*
Y432284D01*
X1250198D01*
Y431794D01*
X1249952D01*
Y431549D01*
X1249707D01*
Y431304D01*
X1249462D01*
Y431059D01*
X1249217D01*
Y430568D01*
X1248972D01*
Y430323D01*
X1248727D01*
Y430078D01*
X1248481D01*
Y429588D01*
X1248236D01*
Y429342D01*
X1247991D01*
Y428852D01*
X1247746D01*
Y428362D01*
X1247501D01*
Y428116D01*
X1247256D01*
Y427626D01*
X1247010D01*
Y427136D01*
X1246765D01*
Y426645D01*
X1246520D01*
Y426155D01*
X1246275D01*
Y425665D01*
X1246030D01*
Y425174D01*
X1245785D01*
Y424684D01*
X1245539D01*
Y423949D01*
X1245294D01*
Y423213D01*
X1245049D01*
Y422723D01*
X1244804D01*
Y421742D01*
X1244559D01*
Y421006D01*
X1244314D01*
Y419781D01*
X1244068D01*
Y418555D01*
X1243823D01*
Y416593D01*
X1243578D01*
Y411690D01*
X1243823D01*
Y409728D01*
X1244068D01*
Y408503D01*
X1244314D01*
Y407277D01*
X1244559D01*
Y406541D01*
X1244804D01*
Y405560D01*
X1245049D01*
Y404825D01*
X1245294D01*
Y404335D01*
X1245539D01*
Y403599D01*
X1245785D01*
Y403109D01*
X1246030D01*
Y402618D01*
X1246275D01*
Y402128D01*
X1246520D01*
Y401638D01*
X1246765D01*
Y401147D01*
X1247010D01*
Y400657D01*
X1247256D01*
Y400167D01*
X1247501D01*
Y399921D01*
X1247746D01*
Y399431D01*
X1247991D01*
Y398941D01*
X1248236D01*
Y398696D01*
X1248481D01*
Y398205D01*
X1248727D01*
Y397960D01*
X1248972D01*
Y397715D01*
X1249217D01*
Y397225D01*
X1249462D01*
Y396979D01*
X1249707D01*
Y396734D01*
X1249952D01*
Y396489D01*
X1250198D01*
Y395999D01*
X1250443D01*
Y395754D01*
X1250688D01*
Y395508D01*
X1250933D01*
Y395263D01*
X1251178D01*
Y395018D01*
X1251423D01*
Y394773D01*
X1251669D01*
Y394282D01*
X1251423D01*
Y394037D01*
X1251178D01*
Y393792D01*
X1250933D01*
Y393547D01*
X1250688D01*
Y393302D01*
X1250443D01*
Y393057D01*
X1250198D01*
Y392812D01*
X1249952D01*
Y392566D01*
X1249707D01*
Y392321D01*
X1249462D01*
Y392076D01*
X1249217D01*
Y391831D01*
X1248727D01*
Y392076D01*
X1248481D01*
Y392321D01*
X1248236D01*
Y392566D01*
X1247991D01*
Y392812D01*
X1247746D01*
Y393057D01*
X1247501D01*
Y393302D01*
X1247256D01*
Y393792D01*
X1247010D01*
Y394037D01*
X1246765D01*
Y394282D01*
X1246520D01*
Y394528D01*
X1246275D01*
Y395018D01*
X1246030D01*
Y395263D01*
X1245785D01*
Y395508D01*
X1245539D01*
Y395999D01*
X1245294D01*
Y396244D01*
X1245049D01*
Y396734D01*
X1244804D01*
Y396979D01*
X1244559D01*
Y397470D01*
X1244314D01*
Y397715D01*
X1244068D01*
Y398205D01*
X1243823D01*
Y398696D01*
X1243578D01*
Y399186D01*
X1243333D01*
Y399431D01*
Y399676D01*
X1243088D01*
Y400167D01*
X1242842D01*
Y400657D01*
X1242597D01*
Y401147D01*
X1242352D01*
Y401638D01*
X1242107D01*
Y402373D01*
X1241862D01*
Y402864D01*
X1241617D01*
Y403599D01*
X1241371D01*
Y404335D01*
X1241126D01*
Y405070D01*
X1240881D01*
Y406051D01*
X1240636D01*
Y407032D01*
X1240391D01*
Y408012D01*
X1240145D01*
Y409483D01*
X1239900D01*
Y411935D01*
X1239655D01*
Y416348D01*
X1239900D01*
Y418800D01*
X1240145D01*
Y420271D01*
X1240391D01*
Y421252D01*
X1240636D01*
Y422232D01*
X1240881D01*
Y423213D01*
X1241126D01*
Y423949D01*
X1241371D01*
Y424684D01*
X1241617D01*
Y425420D01*
X1241862D01*
Y425910D01*
X1242107D01*
Y426645D01*
X1242352D01*
Y427136D01*
X1242597D01*
Y427626D01*
X1242842D01*
Y428116D01*
X1243088D01*
Y428607D01*
X1243333D01*
Y429097D01*
X1243578D01*
Y429588D01*
X1243823D01*
Y430078D01*
X1244068D01*
Y430568D01*
X1244314D01*
Y430813D01*
X1244559D01*
Y431304D01*
X1244804D01*
Y431549D01*
X1245049D01*
Y432039D01*
X1245294D01*
Y432284D01*
X1245539D01*
Y432775D01*
X1245785D01*
Y433020D01*
X1246030D01*
Y433265D01*
X1246275D01*
Y433755D01*
X1246520D01*
Y434001D01*
X1246765D01*
Y434246D01*
X1247010D01*
Y434491D01*
X1247256D01*
Y434981D01*
X1247501D01*
Y435227D01*
X1247746D01*
Y435472D01*
X1247991D01*
Y435717D01*
X1248236D01*
Y435962D01*
X1248481D01*
Y436207D01*
X1248727D01*
Y436452D01*
X1249217D01*
Y436207D01*
D02*
G37*
G36*
X1231847Y336892D02*
X1233654D01*
Y336666D01*
X1234557D01*
Y336440D01*
X1235234D01*
Y336214D01*
X1235686D01*
Y335988D01*
X1236137D01*
Y335763D01*
X1236589D01*
Y335537D01*
X1236814D01*
Y335311D01*
X1237266D01*
Y335085D01*
X1237492D01*
Y334860D01*
X1237718D01*
Y334634D01*
X1237943D01*
Y334408D01*
X1238395D01*
Y333956D01*
X1238621D01*
Y333731D01*
X1238846D01*
Y333505D01*
X1239072D01*
Y333279D01*
X1239298D01*
Y332827D01*
X1239524D01*
Y332602D01*
X1239750D01*
Y332150D01*
X1239975D01*
Y331699D01*
X1240201D01*
Y331021D01*
X1240427D01*
Y330344D01*
X1240653D01*
Y329441D01*
X1240878D01*
Y325603D01*
X1240653D01*
Y324700D01*
X1240427D01*
Y324022D01*
X1240201D01*
Y323345D01*
X1239975D01*
Y322893D01*
X1239750D01*
Y322442D01*
X1239524D01*
Y322216D01*
X1239298D01*
Y321764D01*
X1239072D01*
Y321539D01*
X1238846D01*
Y321313D01*
X1238621D01*
Y321087D01*
X1238395D01*
Y320635D01*
X1237943D01*
Y320410D01*
X1237718D01*
Y320184D01*
X1237492D01*
Y319958D01*
X1237266D01*
Y319732D01*
X1236814D01*
Y319507D01*
X1236589D01*
Y319281D01*
X1236137D01*
Y319055D01*
X1235686D01*
Y318829D01*
X1235234D01*
Y318603D01*
X1234557D01*
Y318378D01*
X1233654D01*
Y318152D01*
X1231847D01*
Y317926D01*
X1211979D01*
Y318152D01*
X1210398D01*
Y318378D01*
X1209495D01*
Y318603D01*
X1209044D01*
Y318829D01*
X1208366D01*
Y319055D01*
X1207915D01*
Y319281D01*
X1207463D01*
Y319507D01*
X1207238D01*
Y319732D01*
X1207012D01*
Y319958D01*
X1206560D01*
Y320184D01*
X1206334D01*
Y320410D01*
X1206109D01*
Y320635D01*
X1205883D01*
Y320861D01*
X1205657D01*
Y321087D01*
X1205431D01*
Y321313D01*
X1205206D01*
Y321539D01*
X1204980D01*
Y321764D01*
X1204754D01*
Y322216D01*
X1204528D01*
Y322442D01*
X1204302D01*
Y322893D01*
X1204077D01*
Y323345D01*
X1203851D01*
Y323796D01*
X1203625D01*
Y324474D01*
X1203399D01*
Y325151D01*
X1203174D01*
Y326506D01*
X1202948D01*
Y328538D01*
X1203174D01*
Y329892D01*
X1203399D01*
Y330570D01*
X1203625D01*
Y331247D01*
X1203851D01*
Y331699D01*
X1204077D01*
Y332150D01*
X1204302D01*
Y332602D01*
X1204528D01*
Y332827D01*
X1204754D01*
Y333279D01*
X1204980D01*
Y333505D01*
X1205206D01*
Y333731D01*
X1205431D01*
Y333956D01*
X1205657D01*
Y334182D01*
X1205883D01*
Y334408D01*
X1206109D01*
Y334634D01*
X1206334D01*
Y334860D01*
X1206560D01*
Y335085D01*
X1206786D01*
Y335311D01*
X1207238D01*
Y335537D01*
X1207463D01*
Y335763D01*
X1207915D01*
Y335988D01*
X1208366D01*
Y336214D01*
X1209044D01*
Y336440D01*
X1209495D01*
Y336666D01*
X1210398D01*
Y336892D01*
X1211979D01*
Y337117D01*
X1231847D01*
Y336892D01*
D02*
G37*
G36*
X1489278Y308420D02*
X1488432D01*
Y308589D01*
X1485892D01*
Y308758D01*
X1483860D01*
Y310621D01*
X1484537D01*
Y310790D01*
X1487585D01*
Y310960D01*
X1489278D01*
Y308420D01*
D02*
G37*
G36*
Y301477D02*
Y301308D01*
Y301138D01*
X1488093D01*
Y301308D01*
X1485553D01*
Y301477D01*
X1483860D01*
Y303340D01*
X1485045D01*
Y303509D01*
X1488262D01*
Y303678D01*
X1489278D01*
Y301477D01*
D02*
G37*
G36*
Y293857D02*
X1487754D01*
Y294026D01*
X1485045D01*
Y294196D01*
X1483860D01*
Y295042D01*
Y295212D01*
Y296058D01*
X1485384D01*
Y296228D01*
X1488770D01*
Y296397D01*
X1489278D01*
Y293857D01*
D02*
G37*
G36*
Y286576D02*
X1487416D01*
Y286745D01*
X1484706D01*
Y286914D01*
X1483860D01*
Y288777D01*
X1485892D01*
Y288946D01*
X1488940D01*
Y289116D01*
X1489278D01*
Y286576D01*
D02*
G37*
G36*
X1080682Y282061D02*
X1080999D01*
Y281743D01*
X1081317D01*
Y281426D01*
X1081634D01*
Y281108D01*
X1081952D01*
Y280791D01*
X1082269D01*
Y280473D01*
X1082587D01*
Y280156D01*
X1082904D01*
Y279838D01*
X1083222D01*
Y279521D01*
X1083539D01*
Y279203D01*
X1083857D01*
Y278886D01*
X1084174D01*
Y278568D01*
X1084492D01*
Y278251D01*
X1084809D01*
Y277933D01*
X1085126D01*
Y277616D01*
X1085444D01*
Y277298D01*
X1085761D01*
Y276981D01*
X1086079D01*
Y276663D01*
X1086396D01*
Y276346D01*
X1086714D01*
Y276028D01*
X1087031D01*
Y275711D01*
X1087349D01*
Y275393D01*
X1087666D01*
Y275076D01*
X1087984D01*
Y274758D01*
X1088301D01*
Y274441D01*
X1088619D01*
Y274123D01*
X1094969D01*
Y275393D01*
X1095286D01*
Y276346D01*
X1095604D01*
Y276981D01*
X1095921D01*
Y277298D01*
X1096239D01*
Y277933D01*
X1096556D01*
Y278251D01*
X1096874D01*
Y278568D01*
X1097191D01*
Y278886D01*
X1097509D01*
Y279203D01*
X1097827D01*
Y279521D01*
X1098462D01*
Y279838D01*
X1099097D01*
Y280156D01*
X1099732D01*
Y280473D01*
X1100684D01*
Y280791D01*
X1104494D01*
Y280473D01*
X1105446D01*
Y280156D01*
X1106081D01*
Y279838D01*
X1106717D01*
Y279521D01*
X1107034D01*
Y279203D01*
X1107352D01*
Y278886D01*
X1107987D01*
Y278568D01*
X1108304D01*
Y277933D01*
X1108622D01*
Y277616D01*
X1108939D01*
Y276981D01*
X1109257D01*
Y276663D01*
X1109574D01*
Y275711D01*
X1107669D01*
Y276346D01*
X1107352D01*
Y276663D01*
X1107034D01*
Y277298D01*
X1106399D01*
Y277616D01*
X1106081D01*
Y277933D01*
X1105764D01*
Y278251D01*
X1105129D01*
Y278568D01*
X1104494D01*
Y278886D01*
X1103224D01*
Y279203D01*
X1101954D01*
Y278886D01*
X1100684D01*
Y278568D01*
X1099732D01*
Y278251D01*
X1099414D01*
Y277933D01*
X1098779D01*
Y277616D01*
X1098462D01*
Y277298D01*
X1098144D01*
Y276981D01*
X1097827D01*
Y276346D01*
X1097509D01*
Y276028D01*
X1097191D01*
Y275393D01*
X1096874D01*
Y273806D01*
X1096556D01*
Y272536D01*
X1096874D01*
Y270948D01*
X1097191D01*
Y270313D01*
X1097509D01*
Y269996D01*
X1097827D01*
Y269361D01*
X1098144D01*
Y269043D01*
X1098462D01*
Y268726D01*
X1098779D01*
Y268408D01*
X1099414D01*
Y268091D01*
X1100049D01*
Y267773D01*
X1100684D01*
Y267456D01*
X1104176D01*
Y267773D01*
X1105129D01*
Y268091D01*
X1105764D01*
Y268408D01*
X1106081D01*
Y268726D01*
X1106399D01*
Y269043D01*
X1106717D01*
Y269361D01*
X1107034D01*
Y269678D01*
X1107352D01*
Y270313D01*
X1107669D01*
Y270631D01*
X1109574D01*
Y269996D01*
X1109257D01*
Y269361D01*
X1108939D01*
Y268726D01*
X1108622D01*
Y268408D01*
X1108304D01*
Y268091D01*
X1107987D01*
Y267773D01*
X1107669D01*
Y267456D01*
X1107352D01*
Y267138D01*
X1107034D01*
Y266821D01*
X1106399D01*
Y266503D01*
X1106081D01*
Y266186D01*
X1105129D01*
Y265868D01*
X1103859D01*
Y265551D01*
X1101002D01*
Y265868D01*
X1099732D01*
Y266186D01*
X1099097D01*
Y266503D01*
X1098462D01*
Y266821D01*
X1098144D01*
Y267138D01*
X1097509D01*
Y267456D01*
X1097191D01*
Y267773D01*
X1096874D01*
Y268091D01*
X1096556D01*
Y268726D01*
X1096239D01*
Y269043D01*
X1095921D01*
Y269678D01*
X1095604D01*
Y270313D01*
X1095286D01*
Y271266D01*
X1094969D01*
Y272218D01*
X1088936D01*
Y271901D01*
X1088619D01*
Y271583D01*
X1088301D01*
Y271266D01*
X1087984D01*
Y270948D01*
X1087666D01*
Y270631D01*
X1087349D01*
Y270313D01*
X1087031D01*
Y269996D01*
X1086714D01*
Y269678D01*
X1086396D01*
Y269361D01*
X1086079D01*
Y269043D01*
X1085761D01*
Y268726D01*
X1085444D01*
Y268408D01*
X1085126D01*
Y268091D01*
X1084809D01*
Y267773D01*
X1084492D01*
Y267456D01*
X1084174D01*
Y267138D01*
X1083857D01*
Y266821D01*
X1083539D01*
Y266503D01*
X1083222D01*
Y266186D01*
X1082904D01*
Y265868D01*
X1082587D01*
Y265551D01*
X1082269D01*
Y265233D01*
X1081952D01*
Y264916D01*
X1081634D01*
Y264598D01*
X1081317D01*
Y264281D01*
X1080999D01*
Y263963D01*
X1080682D01*
Y263646D01*
X1080046D01*
Y263963D01*
X1079729D01*
Y264281D01*
X1079411D01*
Y264598D01*
X1079094D01*
Y264916D01*
X1078776D01*
Y265233D01*
X1078459D01*
Y265551D01*
X1078141D01*
Y265868D01*
X1077824D01*
Y266186D01*
X1077506D01*
Y266503D01*
X1077189D01*
Y266821D01*
X1076871D01*
Y267138D01*
X1076554D01*
Y267456D01*
X1076236D01*
Y267773D01*
X1075919D01*
Y268408D01*
X1075602D01*
Y268726D01*
X1075284D01*
Y269043D01*
X1074967D01*
Y269361D01*
X1074649D01*
Y269678D01*
X1074332D01*
Y269996D01*
X1074014D01*
Y270313D01*
X1073697D01*
Y270631D01*
X1073379D01*
Y270948D01*
X1073062D01*
Y271266D01*
X1072744D01*
Y271583D01*
X1072427D01*
Y271901D01*
X1072109D01*
Y272218D01*
X1071792D01*
Y272536D01*
X1071474D01*
Y272853D01*
X1071156D01*
Y273488D01*
X1071474D01*
Y273806D01*
X1071792D01*
Y274123D01*
X1072109D01*
Y274441D01*
X1072427D01*
Y274758D01*
X1072744D01*
Y275076D01*
X1073062D01*
Y275393D01*
X1073379D01*
Y275711D01*
X1073697D01*
Y276028D01*
X1074014D01*
Y276346D01*
X1074332D01*
Y276663D01*
X1074649D01*
Y276981D01*
X1074967D01*
Y277298D01*
X1075284D01*
Y277616D01*
X1075602D01*
Y277933D01*
X1075919D01*
Y278251D01*
X1076236D01*
Y278568D01*
X1076554D01*
Y278886D01*
X1076871D01*
Y279203D01*
X1077189D01*
Y279521D01*
X1077506D01*
Y279838D01*
X1077824D01*
Y280156D01*
X1078141D01*
Y280473D01*
X1078459D01*
Y280791D01*
X1078776D01*
Y281108D01*
X1079094D01*
Y281426D01*
X1079411D01*
Y281743D01*
X1079729D01*
Y282061D01*
X1080046D01*
Y282378D01*
X1080682D01*
Y282061D01*
D02*
G37*
G36*
X1125132Y282378D02*
X1125449D01*
Y282061D01*
X1125767D01*
Y281743D01*
X1126084D01*
Y281426D01*
X1126402D01*
Y281108D01*
X1126719D01*
Y280791D01*
X1127037D01*
Y280473D01*
X1127354D01*
Y280156D01*
X1127672D01*
Y279838D01*
X1127989D01*
Y279521D01*
X1128307D01*
Y279203D01*
X1128624D01*
Y278886D01*
X1128941D01*
Y278568D01*
X1129259D01*
Y278251D01*
X1129576D01*
Y277933D01*
X1129894D01*
Y277616D01*
X1130211D01*
Y277298D01*
X1130529D01*
Y276981D01*
X1130846D01*
Y276663D01*
X1131164D01*
Y276346D01*
X1131481D01*
Y276028D01*
X1131799D01*
Y275711D01*
X1132116D01*
Y275393D01*
X1132434D01*
Y275076D01*
X1132751D01*
Y274758D01*
X1133069D01*
Y274441D01*
X1133387D01*
Y274123D01*
X1133704D01*
Y273806D01*
X1134022D01*
Y273488D01*
X1134339D01*
Y272853D01*
X1134022D01*
Y272536D01*
X1133704D01*
Y272218D01*
X1133387D01*
Y271901D01*
X1133069D01*
Y271583D01*
X1132751D01*
Y271266D01*
X1132434D01*
Y270948D01*
X1132116D01*
Y270631D01*
X1131799D01*
Y270313D01*
X1131481D01*
Y269996D01*
X1131164D01*
Y269678D01*
X1130846D01*
Y269361D01*
X1130529D01*
Y269043D01*
X1130211D01*
Y268726D01*
X1129894D01*
Y268408D01*
X1129576D01*
Y268091D01*
X1129259D01*
Y267773D01*
X1128941D01*
Y267456D01*
X1128624D01*
Y267138D01*
X1128307D01*
Y266821D01*
X1127989D01*
Y266503D01*
X1127672D01*
Y266186D01*
X1127354D01*
Y265868D01*
X1127037D01*
Y265551D01*
X1126719D01*
Y265233D01*
X1126402D01*
Y264916D01*
X1126084D01*
Y264598D01*
X1125767D01*
Y264281D01*
X1125449D01*
Y263963D01*
X1124497D01*
Y264281D01*
X1124179D01*
Y264598D01*
X1123861D01*
Y264916D01*
X1123544D01*
Y265233D01*
X1123226D01*
Y265551D01*
X1122909D01*
Y265868D01*
X1122591D01*
Y266186D01*
X1122274D01*
Y266503D01*
X1121956D01*
Y266821D01*
X1121639D01*
Y267138D01*
X1121321D01*
Y267456D01*
X1121004D01*
Y267773D01*
X1120686D01*
Y268091D01*
X1120369D01*
Y268408D01*
X1120051D01*
Y268726D01*
X1119734D01*
Y269043D01*
X1119417D01*
Y269361D01*
X1119099D01*
Y269678D01*
X1118782D01*
Y269996D01*
X1118464D01*
Y270313D01*
X1118147D01*
Y270631D01*
X1117829D01*
Y270948D01*
X1117512D01*
Y271266D01*
X1117194D01*
Y271583D01*
X1116877D01*
Y271901D01*
X1116559D01*
Y272218D01*
X1105764D01*
Y271583D01*
X1105446D01*
Y271266D01*
X1105129D01*
Y270631D01*
X1104494D01*
Y270313D01*
X1104176D01*
Y269996D01*
X1102589D01*
Y269678D01*
X1102271D01*
Y269996D01*
X1101002D01*
Y270313D01*
X1100684D01*
Y270631D01*
X1100049D01*
Y271266D01*
X1099732D01*
Y271583D01*
X1099414D01*
Y272536D01*
X1099097D01*
Y274123D01*
X1099414D01*
Y274758D01*
X1099732D01*
Y275393D01*
X1100049D01*
Y275711D01*
X1100367D01*
Y276028D01*
X1101002D01*
Y276346D01*
X1101637D01*
Y276663D01*
X1103224D01*
Y276346D01*
X1104176D01*
Y276028D01*
X1104811D01*
Y275711D01*
X1105129D01*
Y275393D01*
X1105446D01*
Y274758D01*
X1105764D01*
Y274123D01*
X1116242D01*
Y274441D01*
X1116559D01*
Y274758D01*
X1116877D01*
Y275076D01*
X1117194D01*
Y275393D01*
X1117512D01*
Y275711D01*
X1117829D01*
Y276028D01*
X1118147D01*
Y276346D01*
X1118464D01*
Y276663D01*
X1118782D01*
Y276981D01*
X1119099D01*
Y277298D01*
X1119417D01*
Y277616D01*
X1119734D01*
Y277933D01*
X1120051D01*
Y278251D01*
X1120369D01*
Y278568D01*
X1120686D01*
Y278886D01*
X1121004D01*
Y279203D01*
X1121321D01*
Y279521D01*
X1121639D01*
Y279838D01*
X1121956D01*
Y280156D01*
X1122274D01*
Y280473D01*
X1122591D01*
Y280791D01*
X1122909D01*
Y281108D01*
X1123226D01*
Y281426D01*
X1123544D01*
Y281743D01*
X1123861D01*
Y282061D01*
X1124179D01*
Y282378D01*
X1124497D01*
Y282696D01*
X1125132D01*
Y282378D01*
D02*
G37*
G36*
X1744642Y626904D02*
X1745150D01*
Y626735D01*
X1745319D01*
Y626566D01*
X1745489D01*
Y624534D01*
Y624364D01*
Y618268D01*
X1745319D01*
Y617929D01*
X1744981D01*
Y617760D01*
X1744473D01*
Y617591D01*
X1743287D01*
Y617760D01*
X1742779D01*
Y617929D01*
X1742441D01*
Y618268D01*
X1742271D01*
Y626566D01*
X1742441D01*
Y626735D01*
X1742610D01*
Y626904D01*
X1743118D01*
Y627074D01*
X1744642D01*
Y626904D01*
D02*
G37*
G36*
X1747351Y622671D02*
X1748029D01*
Y622501D01*
X1748706D01*
Y622332D01*
X1755649D01*
Y622163D01*
X1756326D01*
Y621993D01*
X1756665D01*
Y621824D01*
X1756834D01*
Y621655D01*
X1757173D01*
Y621485D01*
X1757342D01*
Y621316D01*
X1757511D01*
Y620978D01*
X1757681D01*
Y620808D01*
X1757850D01*
Y620300D01*
X1758019D01*
Y619792D01*
X1758189D01*
Y618946D01*
X1758358D01*
Y618099D01*
X1758527D01*
Y617252D01*
X1758697D01*
Y616405D01*
X1758866D01*
Y615559D01*
X1759035D01*
Y614712D01*
X1759205D01*
Y613866D01*
X1759374D01*
Y613019D01*
X1759543D01*
Y612172D01*
X1759713D01*
Y602520D01*
X1759543D01*
Y602012D01*
X1759374D01*
Y601674D01*
X1759205D01*
Y601335D01*
X1759035D01*
Y601166D01*
X1758866D01*
Y600996D01*
X1758697D01*
Y600827D01*
X1758527D01*
Y600658D01*
X1758189D01*
Y600488D01*
X1757850D01*
Y600319D01*
X1757342D01*
Y600149D01*
X1730418D01*
Y600319D01*
X1729910D01*
Y600488D01*
X1729571D01*
Y600658D01*
X1729233D01*
Y600827D01*
X1729063D01*
Y600996D01*
X1728894D01*
Y601166D01*
X1728725D01*
Y601335D01*
X1728555D01*
Y601674D01*
X1728386D01*
Y602012D01*
X1728217D01*
Y602520D01*
X1728047D01*
Y612172D01*
X1728217D01*
Y613019D01*
X1728386D01*
Y613866D01*
X1728555D01*
Y614712D01*
X1728725D01*
Y615559D01*
X1728894D01*
Y616405D01*
X1729063D01*
Y617252D01*
X1729233D01*
Y618099D01*
X1729402D01*
Y618946D01*
X1729571D01*
Y619792D01*
X1729741D01*
Y620470D01*
X1729910D01*
Y620808D01*
X1730079D01*
Y620978D01*
X1730249D01*
Y621316D01*
X1730418D01*
Y621485D01*
X1730587D01*
Y621655D01*
X1730926D01*
Y621824D01*
X1731095D01*
Y621993D01*
X1731434D01*
Y622163D01*
X1732111D01*
Y622332D01*
X1739054D01*
Y622501D01*
X1739731D01*
Y622671D01*
X1740409D01*
Y622840D01*
X1740747D01*
Y619623D01*
X1740239D01*
Y619454D01*
X1739731D01*
Y619284D01*
X1739393D01*
Y619115D01*
X1739054D01*
Y618946D01*
X1738715D01*
Y618776D01*
X1738377D01*
Y618607D01*
X1738207D01*
Y618438D01*
X1738038D01*
Y618268D01*
X1737869D01*
Y618099D01*
X1737699D01*
Y617929D01*
X1737530D01*
Y617252D01*
X1737699D01*
Y617083D01*
X1737869D01*
Y616913D01*
X1738038D01*
Y616744D01*
X1738207D01*
Y616575D01*
X1738377D01*
Y616405D01*
X1738715D01*
Y616236D01*
X1738885D01*
Y616067D01*
X1739223D01*
Y615897D01*
X1739562D01*
Y615728D01*
X1740070D01*
Y615559D01*
X1740578D01*
Y615390D01*
X1741255D01*
Y615220D01*
X1742271D01*
Y615051D01*
X1745489D01*
Y615220D01*
X1746505D01*
Y615390D01*
X1747182D01*
Y615559D01*
X1747859D01*
Y615728D01*
X1748198D01*
Y615897D01*
X1748706D01*
Y616067D01*
X1749045D01*
Y616236D01*
X1749214D01*
Y616405D01*
X1749553D01*
Y616575D01*
X1749722D01*
Y616744D01*
X1749891D01*
Y616913D01*
X1750061D01*
Y617083D01*
X1750230D01*
Y617760D01*
X1750061D01*
Y618099D01*
X1749891D01*
Y618268D01*
X1749722D01*
Y618438D01*
X1749383D01*
Y618607D01*
X1749214D01*
Y618776D01*
X1748875D01*
Y618946D01*
X1748537D01*
Y619115D01*
X1748029D01*
Y619284D01*
X1747521D01*
Y619454D01*
X1747013D01*
Y622840D01*
X1747351D01*
Y622671D01*
D02*
G37*
G36*
X1753447Y595408D02*
X1734313D01*
Y598456D01*
X1753447D01*
Y595408D01*
D02*
G37*
G36*
X1742754Y401471D02*
X1743346D01*
Y401274D01*
X1743544D01*
Y401076D01*
X1743741D01*
Y398706D01*
Y398508D01*
Y391396D01*
X1743544D01*
Y391001D01*
X1743149D01*
Y390803D01*
X1742556D01*
Y390606D01*
X1741173D01*
Y390803D01*
X1740581D01*
Y391001D01*
X1740186D01*
Y391396D01*
X1739988D01*
Y401076D01*
X1740186D01*
Y401274D01*
X1740383D01*
Y401471D01*
X1740976D01*
Y401669D01*
X1742754D01*
Y401471D01*
D02*
G37*
G36*
X1745915Y396533D02*
X1746705D01*
Y396335D01*
X1747495D01*
Y396138D01*
X1755595D01*
Y395940D01*
X1756385D01*
Y395742D01*
X1756780D01*
Y395545D01*
X1756978D01*
Y395347D01*
X1757373D01*
Y395150D01*
X1757570D01*
Y394952D01*
X1757768D01*
Y394557D01*
X1757966D01*
Y394360D01*
X1758163D01*
Y393767D01*
X1758361D01*
Y393174D01*
X1758558D01*
Y392186D01*
X1758756D01*
Y391199D01*
X1758953D01*
Y390211D01*
X1759151D01*
Y389223D01*
X1759348D01*
Y388235D01*
X1759546D01*
Y387248D01*
X1759743D01*
Y386260D01*
X1759941D01*
Y385272D01*
X1760139D01*
Y384284D01*
X1760336D01*
Y373023D01*
X1760139D01*
Y372431D01*
X1759941D01*
Y372036D01*
X1759743D01*
Y371641D01*
X1759546D01*
Y371443D01*
X1759348D01*
Y371245D01*
X1759151D01*
Y371048D01*
X1758953D01*
Y370850D01*
X1758558D01*
Y370653D01*
X1758163D01*
Y370455D01*
X1757570D01*
Y370258D01*
X1726159D01*
Y370455D01*
X1725566D01*
Y370653D01*
X1725171D01*
Y370850D01*
X1724776D01*
Y371048D01*
X1724579D01*
Y371245D01*
X1724381D01*
Y371443D01*
X1724184D01*
Y371641D01*
X1723986D01*
Y372036D01*
X1723788D01*
Y372431D01*
X1723591D01*
Y373023D01*
X1723393D01*
Y384284D01*
X1723591D01*
Y385272D01*
X1723788D01*
Y386260D01*
X1723986D01*
Y387248D01*
X1724184D01*
Y388235D01*
X1724381D01*
Y389223D01*
X1724579D01*
Y390211D01*
X1724776D01*
Y391199D01*
X1724974D01*
Y392186D01*
X1725171D01*
Y393174D01*
X1725369D01*
Y393964D01*
X1725566D01*
Y394360D01*
X1725764D01*
Y394557D01*
X1725961D01*
Y394952D01*
X1726159D01*
Y395150D01*
X1726357D01*
Y395347D01*
X1726752D01*
Y395545D01*
X1726949D01*
Y395742D01*
X1727344D01*
Y395940D01*
X1728135D01*
Y396138D01*
X1736234D01*
Y396335D01*
X1737025D01*
Y396533D01*
X1737815D01*
Y396730D01*
X1738210D01*
Y392977D01*
X1737617D01*
Y392779D01*
X1737025D01*
Y392581D01*
X1736629D01*
Y392384D01*
X1736234D01*
Y392186D01*
X1735839D01*
Y391989D01*
X1735444D01*
Y391791D01*
X1735247D01*
Y391594D01*
X1735049D01*
Y391396D01*
X1734852D01*
Y391199D01*
X1734654D01*
Y391001D01*
X1734456D01*
Y390211D01*
X1734654D01*
Y390013D01*
X1734852D01*
Y389816D01*
X1735049D01*
Y389618D01*
X1735247D01*
Y389421D01*
X1735444D01*
Y389223D01*
X1735839D01*
Y389025D01*
X1736037D01*
Y388828D01*
X1736432D01*
Y388630D01*
X1736827D01*
Y388433D01*
X1737420D01*
Y388235D01*
X1738012D01*
Y388038D01*
X1738803D01*
Y387840D01*
X1739988D01*
Y387643D01*
X1743741D01*
Y387840D01*
X1744927D01*
Y388038D01*
X1745717D01*
Y388235D01*
X1746507D01*
Y388433D01*
X1746902D01*
Y388630D01*
X1747495D01*
Y388828D01*
X1747890D01*
Y389025D01*
X1748088D01*
Y389223D01*
X1748483D01*
Y389421D01*
X1748680D01*
Y389618D01*
X1748878D01*
Y389816D01*
X1749075D01*
Y390013D01*
X1749273D01*
Y390803D01*
X1749075D01*
Y391199D01*
X1748878D01*
Y391396D01*
X1748680D01*
Y391594D01*
X1748285D01*
Y391791D01*
X1748088D01*
Y391989D01*
X1747693D01*
Y392186D01*
X1747298D01*
Y392384D01*
X1746705D01*
Y392581D01*
X1746112D01*
Y392779D01*
X1745520D01*
Y396730D01*
X1745915D01*
Y396533D01*
D02*
G37*
G36*
X1753027Y364726D02*
X1730703D01*
Y368282D01*
X1753027D01*
Y364726D01*
D02*
G37*
G36*
X1514340Y310790D02*
X1517557D01*
Y310621D01*
X1518065D01*
Y308758D01*
X1516033D01*
Y308589D01*
X1513493D01*
Y308420D01*
X1512646D01*
Y310960D01*
X1514340D01*
Y310790D01*
D02*
G37*
G36*
X1512138Y311806D02*
X1511969D01*
Y307573D01*
X1512138D01*
Y307404D01*
X1509090D01*
Y310452D01*
Y310621D01*
Y311976D01*
X1512138D01*
Y311806D01*
D02*
G37*
G36*
X1493173Y310113D02*
Y309944D01*
Y307404D01*
X1489956D01*
Y311976D01*
X1493173D01*
Y310113D01*
D02*
G37*
G36*
X1513662Y303509D02*
X1516880D01*
Y303340D01*
X1518065D01*
Y301477D01*
X1516372D01*
Y301308D01*
X1513832D01*
Y301138D01*
X1512646D01*
Y301646D01*
Y301816D01*
Y303678D01*
X1513662D01*
Y303509D01*
D02*
G37*
G36*
X1512138Y304525D02*
X1511969D01*
Y303340D01*
Y303170D01*
Y300292D01*
X1512138D01*
Y300122D01*
X1509090D01*
Y304694D01*
X1512138D01*
Y304525D01*
D02*
G37*
G36*
X1493173D02*
Y300122D01*
X1489956D01*
Y304694D01*
X1493173D01*
Y304525D01*
D02*
G37*
G36*
Y292841D02*
X1489956D01*
Y296058D01*
Y296228D01*
Y297413D01*
X1493173D01*
Y292841D01*
D02*
G37*
G36*
X1514170Y294873D02*
X1514001D01*
Y294534D01*
X1513832D01*
Y294196D01*
X1513662D01*
Y293857D01*
X1513493D01*
Y293518D01*
X1513324D01*
Y293180D01*
X1513154D01*
Y292672D01*
X1512985D01*
Y292333D01*
X1512816D01*
Y291994D01*
X1512646D01*
Y291656D01*
X1512477D01*
Y291317D01*
X1512308D01*
Y290978D01*
X1512138D01*
Y290470D01*
X1511969D01*
Y290132D01*
X1511800D01*
Y289793D01*
X1511630D01*
Y289454D01*
X1511461D01*
Y289116D01*
X1511292D01*
Y288946D01*
Y288777D01*
X1511122D01*
Y288269D01*
X1510953D01*
Y287930D01*
X1510784D01*
Y287592D01*
X1510614D01*
Y287253D01*
X1510445D01*
Y286914D01*
X1510276D01*
Y286576D01*
X1510106D01*
Y286068D01*
X1509937D01*
Y285729D01*
X1509768D01*
Y285390D01*
X1509598D01*
Y285052D01*
X1509429D01*
Y284713D01*
X1509260D01*
Y284374D01*
X1509090D01*
Y283866D01*
X1508921D01*
Y283528D01*
X1508752D01*
Y283358D01*
X1508582D01*
Y283697D01*
X1508413D01*
Y284036D01*
X1508244D01*
Y284544D01*
X1508074D01*
Y284882D01*
X1507905D01*
Y285221D01*
X1507736D01*
Y285560D01*
X1507566D01*
Y286068D01*
X1507397D01*
Y286406D01*
X1507228D01*
Y286745D01*
X1507058D01*
Y287084D01*
X1506889D01*
Y287592D01*
X1506720D01*
Y287930D01*
X1506550D01*
Y288269D01*
X1506381D01*
Y288608D01*
X1506212D01*
Y288946D01*
X1506042D01*
Y289454D01*
X1505873D01*
Y289793D01*
X1505704D01*
Y290132D01*
X1505534D01*
Y290470D01*
X1505365D01*
Y290978D01*
X1505196D01*
Y291317D01*
X1505026D01*
Y291656D01*
X1504857D01*
Y291994D01*
X1504688D01*
Y292502D01*
X1504518D01*
Y292841D01*
X1504349D01*
Y293180D01*
X1504180D01*
Y293518D01*
X1504010D01*
Y294026D01*
X1503841D01*
Y294365D01*
X1503672D01*
Y294704D01*
X1503502D01*
Y295042D01*
X1506212D01*
Y294873D01*
X1506381D01*
Y294534D01*
X1506550D01*
Y294196D01*
X1506720D01*
Y293688D01*
X1506889D01*
Y293349D01*
X1507058D01*
Y292841D01*
X1507228D01*
Y292502D01*
X1507397D01*
Y292164D01*
X1507566D01*
Y291656D01*
X1507736D01*
Y291317D01*
X1507905D01*
Y290978D01*
X1508074D01*
Y290470D01*
X1508244D01*
Y290132D01*
X1508413D01*
Y289624D01*
X1508582D01*
Y289285D01*
X1508752D01*
Y289454D01*
X1508921D01*
Y289962D01*
X1509090D01*
Y290301D01*
X1509260D01*
Y290640D01*
X1509429D01*
Y291148D01*
X1509598D01*
Y291486D01*
X1509768D01*
Y291825D01*
X1509937D01*
Y292164D01*
X1510106D01*
Y292672D01*
X1510276D01*
Y293010D01*
X1510445D01*
Y293349D01*
X1510614D01*
Y293688D01*
X1510784D01*
Y294196D01*
X1510953D01*
Y294534D01*
X1511122D01*
Y294873D01*
X1511292D01*
Y295042D01*
X1514170D01*
Y294873D01*
D02*
G37*
G36*
X1507228Y314346D02*
X1507736D01*
Y314177D01*
X1507905D01*
Y314008D01*
X1508074D01*
Y313838D01*
X1508244D01*
Y313669D01*
X1508413D01*
Y296566D01*
X1498084D01*
Y296397D01*
X1497914D01*
Y296058D01*
X1497745D01*
Y295550D01*
X1497576D01*
Y295212D01*
X1497406D01*
Y294704D01*
X1497237D01*
Y294365D01*
X1497068D01*
Y294026D01*
X1496898D01*
Y293518D01*
X1496729D01*
Y293180D01*
X1496560D01*
Y292672D01*
X1496390D01*
Y292333D01*
X1496221D01*
Y291825D01*
X1496052D01*
Y291486D01*
X1495882D01*
Y290978D01*
X1495713D01*
Y290640D01*
X1495544D01*
Y290132D01*
X1495374D01*
Y289793D01*
X1495205D01*
Y289285D01*
X1495036D01*
Y288946D01*
X1494866D01*
Y288608D01*
X1494697D01*
Y288100D01*
X1494528D01*
Y287761D01*
X1494358D01*
Y287253D01*
X1494189D01*
Y286914D01*
X1494020D01*
Y286406D01*
X1493850D01*
Y313669D01*
X1494020D01*
Y314008D01*
X1494189D01*
Y314177D01*
X1494528D01*
Y314346D01*
X1495036D01*
Y314516D01*
X1507228D01*
Y314346D01*
D02*
G37*
G36*
X1519758Y294873D02*
X1520436D01*
Y294704D01*
X1520774D01*
Y294534D01*
X1520944D01*
Y294365D01*
X1521113D01*
Y294196D01*
X1521282D01*
Y294026D01*
X1521452D01*
Y293857D01*
X1521621D01*
Y293518D01*
X1521790D01*
Y293010D01*
X1521960D01*
Y291825D01*
X1521790D01*
Y291317D01*
X1521621D01*
Y290978D01*
X1521452D01*
Y290640D01*
X1521282D01*
Y290470D01*
X1521113D01*
Y290301D01*
X1520944D01*
Y290132D01*
X1520774D01*
Y289962D01*
X1520436D01*
Y289793D01*
X1520266D01*
Y289624D01*
X1519758D01*
Y289454D01*
X1519250D01*
Y289285D01*
X1518912D01*
Y288777D01*
X1519081D01*
Y288269D01*
X1519250D01*
Y287761D01*
X1519420D01*
Y287422D01*
X1519589D01*
Y286914D01*
X1519758D01*
Y286406D01*
X1519928D01*
Y285898D01*
X1520097D01*
Y285560D01*
X1517218D01*
Y285898D01*
X1517049D01*
Y286576D01*
X1516880D01*
Y287253D01*
X1516710D01*
Y287930D01*
X1516541D01*
Y288438D01*
X1516372D01*
Y288946D01*
X1515694D01*
Y288777D01*
X1515525D01*
Y288438D01*
X1515356D01*
Y288100D01*
X1515186D01*
Y287761D01*
X1515017D01*
Y287253D01*
X1514848D01*
Y286914D01*
X1514678D01*
Y286576D01*
X1514509D01*
Y286237D01*
X1514340D01*
Y285729D01*
X1514170D01*
Y285560D01*
X1511292D01*
Y285729D01*
X1511461D01*
Y286068D01*
X1511630D01*
Y286406D01*
X1511800D01*
Y286914D01*
X1511969D01*
Y287253D01*
X1512138D01*
Y287592D01*
X1512308D01*
Y287930D01*
X1512477D01*
Y288438D01*
X1512646D01*
Y288777D01*
X1512816D01*
Y289116D01*
X1512985D01*
Y289454D01*
X1513154D01*
Y289962D01*
X1513324D01*
Y290301D01*
X1513493D01*
Y290640D01*
X1513662D01*
Y290978D01*
X1513832D01*
Y291486D01*
X1514001D01*
Y291825D01*
X1514170D01*
Y292164D01*
X1514340D01*
Y292672D01*
X1514509D01*
Y293010D01*
X1514678D01*
Y293349D01*
X1514848D01*
Y293688D01*
X1515017D01*
Y294196D01*
X1515186D01*
Y294534D01*
X1515356D01*
Y294704D01*
Y294873D01*
X1515525D01*
Y295042D01*
X1519758D01*
Y294873D01*
D02*
G37*
G36*
X1501978Y294704D02*
X1502148D01*
Y294365D01*
X1502317D01*
Y294026D01*
X1502486D01*
Y293688D01*
X1502656D01*
Y293349D01*
X1502825D01*
Y292841D01*
X1502994D01*
Y292502D01*
X1503164D01*
Y292164D01*
X1503333D01*
Y291825D01*
X1503502D01*
Y291486D01*
X1503672D01*
Y290978D01*
X1503841D01*
Y290640D01*
X1504010D01*
Y290301D01*
X1504180D01*
Y289962D01*
X1504349D01*
Y289454D01*
X1504518D01*
Y289116D01*
X1504688D01*
Y288777D01*
X1504857D01*
Y288438D01*
X1505026D01*
Y288100D01*
X1505196D01*
Y287592D01*
X1505365D01*
Y287253D01*
X1505534D01*
Y286914D01*
X1505704D01*
Y286576D01*
X1505873D01*
Y286237D01*
X1506042D01*
Y285729D01*
X1506212D01*
Y285560D01*
X1503333D01*
Y285898D01*
X1503164D01*
Y286237D01*
X1502994D01*
Y286576D01*
X1502825D01*
Y287084D01*
X1498592D01*
Y286745D01*
X1498422D01*
Y286406D01*
X1498253D01*
Y286068D01*
X1498084D01*
Y285560D01*
X1495205D01*
Y285729D01*
X1495374D01*
Y286237D01*
X1495544D01*
Y286576D01*
X1495713D01*
Y287084D01*
X1495882D01*
Y287422D01*
X1496052D01*
Y287761D01*
X1496221D01*
Y288269D01*
X1496390D01*
Y288608D01*
X1496560D01*
Y289116D01*
X1496729D01*
Y289454D01*
X1496898D01*
Y289962D01*
X1497068D01*
Y290301D01*
X1497237D01*
Y290809D01*
X1497406D01*
Y291148D01*
X1497576D01*
Y291656D01*
X1497745D01*
Y291994D01*
X1497914D01*
Y292502D01*
X1498084D01*
Y292841D01*
X1498253D01*
Y293180D01*
X1498422D01*
Y293688D01*
X1498592D01*
Y294026D01*
X1498761D01*
Y294534D01*
X1498930D01*
Y294873D01*
X1499100D01*
Y295042D01*
X1501978D01*
Y294704D01*
D02*
G37*
G36*
X1493173Y285560D02*
X1489956D01*
Y287761D01*
Y287930D01*
Y290132D01*
X1493173D01*
Y285560D01*
D02*
G37*
G36*
X1578299Y717014D02*
X1581646D01*
Y716509D01*
X1578299D01*
Y715258D01*
X1577849D01*
Y718265D01*
X1578299D01*
Y717014D01*
D02*
G37*
G36*
X1581646Y712010D02*
X1577849D01*
Y714759D01*
X1578299D01*
Y712515D01*
X1579456D01*
Y714616D01*
X1579906D01*
Y712515D01*
X1581196D01*
Y714847D01*
X1581646D01*
Y712010D01*
D02*
G37*
G36*
X1580691Y711302D02*
X1580768Y711291D01*
X1580856Y711270D01*
X1580949Y711242D01*
X1581048Y711198D01*
X1581152Y711138D01*
X1581157D01*
X1581163Y711132D01*
X1581196Y711105D01*
X1581245Y711067D01*
X1581300Y711012D01*
X1581366Y710940D01*
X1581437Y710853D01*
X1581503Y710754D01*
X1581563Y710639D01*
Y710633D01*
X1581569Y710622D01*
X1581574Y710606D01*
X1581585Y710584D01*
X1581596Y710551D01*
X1581613Y710512D01*
X1581635Y710425D01*
X1581662Y710320D01*
X1581689Y710194D01*
X1581706Y710057D01*
X1581711Y709909D01*
Y709821D01*
X1581706Y709777D01*
Y709728D01*
X1581700Y709673D01*
X1581695Y709607D01*
X1581673Y709470D01*
X1581651Y709327D01*
X1581613Y709185D01*
X1581563Y709047D01*
Y709042D01*
X1581558Y709031D01*
X1581547Y709015D01*
X1581536Y708993D01*
X1581503Y708927D01*
X1581454Y708850D01*
X1581388Y708762D01*
X1581311Y708669D01*
X1581218Y708581D01*
X1581113Y708499D01*
X1581108D01*
X1581097Y708488D01*
X1581080Y708482D01*
X1581059Y708466D01*
X1581031Y708455D01*
X1580998Y708438D01*
X1580916Y708400D01*
X1580812Y708362D01*
X1580696Y708329D01*
X1580565Y708307D01*
X1580428Y708296D01*
X1580384Y708768D01*
X1580389D01*
X1580395D01*
X1580411Y708773D01*
X1580433D01*
X1580482Y708784D01*
X1580554Y708801D01*
X1580625Y708823D01*
X1580707Y708845D01*
X1580784Y708883D01*
X1580856Y708921D01*
X1580861Y708927D01*
X1580883Y708943D01*
X1580921Y708971D01*
X1580960Y709015D01*
X1581009Y709069D01*
X1581059Y709130D01*
X1581108Y709212D01*
X1581152Y709300D01*
Y709305D01*
X1581157Y709311D01*
X1581163Y709327D01*
X1581168Y709344D01*
X1581185Y709399D01*
X1581207Y709470D01*
X1581228Y709558D01*
X1581245Y709657D01*
X1581256Y709766D01*
X1581261Y709887D01*
Y709936D01*
X1581256Y709991D01*
X1581250Y710057D01*
X1581239Y710134D01*
X1581228Y710222D01*
X1581207Y710309D01*
X1581179Y710392D01*
X1581174Y710403D01*
X1581163Y710430D01*
X1581141Y710469D01*
X1581119Y710518D01*
X1581080Y710567D01*
X1581042Y710622D01*
X1580998Y710677D01*
X1580943Y710721D01*
X1580938Y710726D01*
X1580916Y710737D01*
X1580888Y710754D01*
X1580845Y710776D01*
X1580801Y710798D01*
X1580746Y710814D01*
X1580685Y710825D01*
X1580620Y710831D01*
X1580614D01*
X1580587D01*
X1580554Y710825D01*
X1580510Y710820D01*
X1580466Y710803D01*
X1580411Y710787D01*
X1580356Y710759D01*
X1580307Y710721D01*
X1580301Y710715D01*
X1580285Y710699D01*
X1580263Y710677D01*
X1580230Y710639D01*
X1580197Y710595D01*
X1580159Y710534D01*
X1580120Y710463D01*
X1580087Y710381D01*
X1580082Y710375D01*
X1580076Y710348D01*
X1580060Y710304D01*
X1580054Y710276D01*
X1580043Y710238D01*
X1580027Y710200D01*
X1580016Y710150D01*
X1580000Y710095D01*
X1579983Y710030D01*
X1579967Y709964D01*
X1579945Y709887D01*
X1579923Y709799D01*
X1579901Y709706D01*
Y709700D01*
X1579895Y709684D01*
X1579890Y709657D01*
X1579879Y709624D01*
X1579868Y709580D01*
X1579857Y709530D01*
X1579824Y709421D01*
X1579786Y709300D01*
X1579747Y709174D01*
X1579709Y709064D01*
X1579687Y709015D01*
X1579665Y708971D01*
Y708965D01*
X1579659Y708960D01*
X1579637Y708927D01*
X1579610Y708877D01*
X1579566Y708823D01*
X1579517Y708757D01*
X1579456Y708691D01*
X1579385Y708625D01*
X1579308Y708570D01*
X1579297Y708565D01*
X1579270Y708548D01*
X1579226Y708526D01*
X1579171Y708504D01*
X1579100Y708482D01*
X1579017Y708460D01*
X1578930Y708444D01*
X1578837Y708438D01*
X1578831D01*
X1578826D01*
X1578809D01*
X1578787D01*
X1578732Y708449D01*
X1578661Y708460D01*
X1578579Y708477D01*
X1578485Y708504D01*
X1578392Y708543D01*
X1578299Y708598D01*
X1578293D01*
X1578288Y708603D01*
X1578255Y708631D01*
X1578211Y708669D01*
X1578156Y708718D01*
X1578096Y708784D01*
X1578030Y708867D01*
X1577970Y708965D01*
X1577915Y709075D01*
Y709080D01*
X1577909Y709091D01*
X1577904Y709108D01*
X1577893Y709130D01*
X1577882Y709157D01*
X1577871Y709196D01*
X1577849Y709278D01*
X1577827Y709382D01*
X1577805Y709503D01*
X1577789Y709629D01*
X1577783Y709772D01*
Y709843D01*
X1577789Y709881D01*
Y709920D01*
X1577800Y710024D01*
X1577816Y710139D01*
X1577843Y710260D01*
X1577876Y710392D01*
X1577920Y710512D01*
Y710518D01*
X1577926Y710529D01*
X1577937Y710545D01*
X1577948Y710567D01*
X1577975Y710622D01*
X1578024Y710693D01*
X1578079Y710776D01*
X1578151Y710858D01*
X1578233Y710935D01*
X1578326Y711006D01*
X1578332D01*
X1578337Y711012D01*
X1578354Y711023D01*
X1578370Y711034D01*
X1578425Y711061D01*
X1578496Y711094D01*
X1578584Y711132D01*
X1578688Y711160D01*
X1578798Y711187D01*
X1578919Y711198D01*
X1578957Y710715D01*
X1578952D01*
X1578941D01*
X1578924Y710710D01*
X1578897Y710704D01*
X1578837Y710688D01*
X1578754Y710666D01*
X1578666Y710633D01*
X1578579Y710584D01*
X1578496Y710523D01*
X1578419Y710446D01*
X1578414Y710436D01*
X1578392Y710408D01*
X1578359Y710353D01*
X1578326Y710282D01*
X1578293Y710189D01*
X1578260Y710079D01*
X1578238Y709942D01*
X1578233Y709788D01*
Y709711D01*
X1578238Y709678D01*
X1578244Y709634D01*
X1578255Y709536D01*
X1578277Y709426D01*
X1578304Y709316D01*
X1578348Y709212D01*
X1578376Y709168D01*
X1578403Y709124D01*
X1578409Y709113D01*
X1578430Y709091D01*
X1578469Y709059D01*
X1578513Y709026D01*
X1578573Y708987D01*
X1578639Y708954D01*
X1578716Y708932D01*
X1578804Y708921D01*
X1578815D01*
X1578837D01*
X1578875Y708927D01*
X1578919Y708938D01*
X1578974Y708954D01*
X1579028Y708982D01*
X1579083Y709015D01*
X1579138Y709064D01*
X1579144Y709069D01*
X1579160Y709097D01*
X1579177Y709119D01*
X1579188Y709141D01*
X1579204Y709174D01*
X1579226Y709212D01*
X1579243Y709261D01*
X1579264Y709316D01*
X1579286Y709377D01*
X1579314Y709448D01*
X1579336Y709525D01*
X1579363Y709613D01*
X1579385Y709711D01*
X1579413Y709821D01*
Y709827D01*
X1579418Y709848D01*
X1579424Y709881D01*
X1579435Y709920D01*
X1579445Y709969D01*
X1579462Y710030D01*
X1579478Y710090D01*
X1579495Y710156D01*
X1579533Y710298D01*
X1579572Y710436D01*
X1579594Y710501D01*
X1579615Y710562D01*
X1579632Y710617D01*
X1579654Y710660D01*
Y710666D01*
X1579659Y710677D01*
X1579670Y710693D01*
X1579681Y710715D01*
X1579714Y710776D01*
X1579758Y710847D01*
X1579819Y710929D01*
X1579884Y711012D01*
X1579961Y711088D01*
X1580043Y711154D01*
X1580054Y711160D01*
X1580082Y711182D01*
X1580131Y711204D01*
X1580197Y711237D01*
X1580274Y711264D01*
X1580367Y711291D01*
X1580471Y711308D01*
X1580581Y711313D01*
X1580587D01*
X1580592D01*
X1580609D01*
X1580630D01*
X1580691Y711302D01*
D02*
G37*
G36*
X1581646Y704933D02*
X1577849D01*
Y707681D01*
X1578299D01*
Y705437D01*
X1579456D01*
Y707539D01*
X1579906D01*
Y705437D01*
X1581196D01*
Y707769D01*
X1581646D01*
Y704933D01*
D02*
G37*
G36*
Y703813D02*
X1580856Y703314D01*
X1580850D01*
X1580839Y703303D01*
X1580822Y703292D01*
X1580801Y703276D01*
X1580740Y703237D01*
X1580663Y703188D01*
X1580581Y703128D01*
X1580493Y703067D01*
X1580411Y703007D01*
X1580334Y702952D01*
X1580329Y702947D01*
X1580307Y702930D01*
X1580274Y702903D01*
X1580235Y702864D01*
X1580153Y702782D01*
X1580115Y702738D01*
X1580082Y702694D01*
X1580076Y702689D01*
X1580071Y702678D01*
X1580060Y702656D01*
X1580043Y702623D01*
X1580027Y702590D01*
X1580011Y702552D01*
X1579983Y702464D01*
Y702458D01*
X1579978Y702447D01*
Y702425D01*
X1579972Y702398D01*
X1579967Y702360D01*
Y702316D01*
X1579961Y702255D01*
Y701608D01*
X1581646D01*
Y701103D01*
X1577849D01*
Y702864D01*
X1577854Y702908D01*
Y702958D01*
X1577860Y703073D01*
X1577876Y703194D01*
X1577893Y703325D01*
X1577920Y703446D01*
X1577937Y703506D01*
X1577953Y703556D01*
Y703561D01*
X1577959Y703567D01*
X1577975Y703599D01*
X1577997Y703649D01*
X1578035Y703709D01*
X1578085Y703775D01*
X1578151Y703846D01*
X1578228Y703912D01*
X1578315Y703978D01*
X1578321D01*
X1578326Y703984D01*
X1578359Y704006D01*
X1578414Y704027D01*
X1578485Y704060D01*
X1578568Y704088D01*
X1578666Y704115D01*
X1578771Y704132D01*
X1578886Y704137D01*
X1578891D01*
X1578902D01*
X1578924D01*
X1578952Y704132D01*
X1578990D01*
X1579028Y704126D01*
X1579122Y704104D01*
X1579232Y704071D01*
X1579347Y704027D01*
X1579462Y703962D01*
X1579517Y703918D01*
X1579572Y703874D01*
X1579577Y703868D01*
X1579583Y703863D01*
X1579599Y703846D01*
X1579615Y703824D01*
X1579637Y703797D01*
X1579659Y703764D01*
X1579687Y703720D01*
X1579720Y703676D01*
X1579747Y703622D01*
X1579775Y703561D01*
X1579808Y703495D01*
X1579835Y703424D01*
X1579857Y703342D01*
X1579884Y703259D01*
X1579901Y703166D01*
X1579917Y703067D01*
X1579923Y703078D01*
X1579934Y703100D01*
X1579956Y703133D01*
X1579978Y703177D01*
X1580038Y703276D01*
X1580076Y703325D01*
X1580109Y703369D01*
X1580120Y703380D01*
X1580148Y703408D01*
X1580192Y703451D01*
X1580246Y703506D01*
X1580323Y703567D01*
X1580406Y703638D01*
X1580504Y703709D01*
X1580614Y703786D01*
X1581646Y704439D01*
Y703813D01*
D02*
G37*
G36*
X1579034Y698975D02*
X1579072Y698969D01*
X1579122Y698963D01*
X1579177Y698952D01*
X1579237Y698942D01*
X1579363Y698903D01*
X1579429Y698881D01*
X1579500Y698848D01*
X1579572Y698810D01*
X1579637Y698772D01*
X1579703Y698722D01*
X1579769Y698667D01*
X1579775Y698662D01*
X1579786Y698651D01*
X1579802Y698634D01*
X1579819Y698607D01*
X1579846Y698574D01*
X1579873Y698530D01*
X1579906Y698475D01*
X1579934Y698415D01*
X1579967Y698344D01*
X1580000Y698261D01*
X1580027Y698174D01*
X1580049Y698069D01*
X1580071Y697960D01*
X1580087Y697839D01*
X1580098Y697702D01*
X1580104Y697559D01*
Y696588D01*
X1581646D01*
Y696083D01*
X1577849D01*
Y697641D01*
X1577854Y697724D01*
X1577860Y697817D01*
X1577865Y697916D01*
X1577876Y698009D01*
X1577887Y698091D01*
Y698102D01*
X1577898Y698140D01*
X1577909Y698190D01*
X1577926Y698256D01*
X1577953Y698327D01*
X1577986Y698404D01*
X1578024Y698486D01*
X1578068Y698558D01*
X1578074Y698568D01*
X1578090Y698590D01*
X1578123Y698623D01*
X1578162Y698667D01*
X1578211Y698717D01*
X1578277Y698766D01*
X1578348Y698821D01*
X1578430Y698865D01*
X1578441Y698870D01*
X1578469Y698881D01*
X1578518Y698903D01*
X1578584Y698925D01*
X1578661Y698942D01*
X1578749Y698963D01*
X1578847Y698975D01*
X1578952Y698980D01*
X1578957D01*
X1578974D01*
X1578996D01*
X1579034Y698975D01*
D02*
G37*
G36*
X1580691Y695381D02*
X1580768Y695370D01*
X1580856Y695348D01*
X1580949Y695321D01*
X1581048Y695277D01*
X1581152Y695216D01*
X1581157D01*
X1581163Y695211D01*
X1581196Y695183D01*
X1581245Y695145D01*
X1581300Y695090D01*
X1581366Y695019D01*
X1581437Y694931D01*
X1581503Y694832D01*
X1581563Y694717D01*
Y694712D01*
X1581569Y694701D01*
X1581574Y694684D01*
X1581585Y694662D01*
X1581596Y694629D01*
X1581613Y694591D01*
X1581635Y694503D01*
X1581662Y694399D01*
X1581689Y694273D01*
X1581706Y694136D01*
X1581711Y693987D01*
Y693900D01*
X1581706Y693856D01*
Y693806D01*
X1581700Y693751D01*
X1581695Y693686D01*
X1581673Y693548D01*
X1581651Y693406D01*
X1581613Y693263D01*
X1581563Y693126D01*
Y693120D01*
X1581558Y693110D01*
X1581547Y693093D01*
X1581536Y693071D01*
X1581503Y693005D01*
X1581454Y692928D01*
X1581388Y692841D01*
X1581311Y692747D01*
X1581218Y692660D01*
X1581113Y692577D01*
X1581108D01*
X1581097Y692566D01*
X1581080Y692561D01*
X1581059Y692544D01*
X1581031Y692533D01*
X1580998Y692517D01*
X1580916Y692479D01*
X1580812Y692440D01*
X1580696Y692407D01*
X1580565Y692385D01*
X1580428Y692374D01*
X1580384Y692846D01*
X1580389D01*
X1580395D01*
X1580411Y692852D01*
X1580433D01*
X1580482Y692863D01*
X1580554Y692879D01*
X1580625Y692901D01*
X1580707Y692923D01*
X1580784Y692961D01*
X1580856Y693000D01*
X1580861Y693005D01*
X1580883Y693022D01*
X1580921Y693049D01*
X1580960Y693093D01*
X1581009Y693148D01*
X1581059Y693208D01*
X1581108Y693291D01*
X1581152Y693378D01*
Y693384D01*
X1581157Y693389D01*
X1581163Y693406D01*
X1581168Y693422D01*
X1581185Y693477D01*
X1581207Y693548D01*
X1581228Y693636D01*
X1581245Y693735D01*
X1581256Y693845D01*
X1581261Y693965D01*
Y694015D01*
X1581256Y694070D01*
X1581250Y694136D01*
X1581239Y694212D01*
X1581228Y694300D01*
X1581207Y694388D01*
X1581179Y694470D01*
X1581174Y694481D01*
X1581163Y694509D01*
X1581141Y694547D01*
X1581119Y694596D01*
X1581080Y694646D01*
X1581042Y694701D01*
X1580998Y694755D01*
X1580943Y694799D01*
X1580938Y694805D01*
X1580916Y694816D01*
X1580888Y694832D01*
X1580845Y694854D01*
X1580801Y694876D01*
X1580746Y694893D01*
X1580685Y694904D01*
X1580620Y694909D01*
X1580614D01*
X1580587D01*
X1580554Y694904D01*
X1580510Y694898D01*
X1580466Y694882D01*
X1580411Y694865D01*
X1580356Y694838D01*
X1580307Y694799D01*
X1580301Y694794D01*
X1580285Y694777D01*
X1580263Y694755D01*
X1580230Y694717D01*
X1580197Y694673D01*
X1580159Y694613D01*
X1580120Y694541D01*
X1580087Y694459D01*
X1580082Y694454D01*
X1580076Y694426D01*
X1580060Y694382D01*
X1580054Y694355D01*
X1580043Y694316D01*
X1580027Y694278D01*
X1580016Y694229D01*
X1580000Y694174D01*
X1579983Y694108D01*
X1579967Y694042D01*
X1579945Y693965D01*
X1579923Y693878D01*
X1579901Y693784D01*
Y693779D01*
X1579895Y693762D01*
X1579890Y693735D01*
X1579879Y693702D01*
X1579868Y693658D01*
X1579857Y693609D01*
X1579824Y693499D01*
X1579786Y693378D01*
X1579747Y693252D01*
X1579709Y693142D01*
X1579687Y693093D01*
X1579665Y693049D01*
Y693044D01*
X1579659Y693038D01*
X1579637Y693005D01*
X1579610Y692956D01*
X1579566Y692901D01*
X1579517Y692835D01*
X1579456Y692769D01*
X1579385Y692703D01*
X1579308Y692649D01*
X1579297Y692643D01*
X1579270Y692627D01*
X1579226Y692605D01*
X1579171Y692583D01*
X1579100Y692561D01*
X1579017Y692539D01*
X1578930Y692523D01*
X1578837Y692517D01*
X1578831D01*
X1578826D01*
X1578809D01*
X1578787D01*
X1578732Y692528D01*
X1578661Y692539D01*
X1578579Y692555D01*
X1578485Y692583D01*
X1578392Y692621D01*
X1578299Y692676D01*
X1578293D01*
X1578288Y692682D01*
X1578255Y692709D01*
X1578211Y692747D01*
X1578156Y692797D01*
X1578096Y692863D01*
X1578030Y692945D01*
X1577970Y693044D01*
X1577915Y693153D01*
Y693159D01*
X1577909Y693170D01*
X1577904Y693186D01*
X1577893Y693208D01*
X1577882Y693236D01*
X1577871Y693274D01*
X1577849Y693356D01*
X1577827Y693461D01*
X1577805Y693581D01*
X1577789Y693708D01*
X1577783Y693850D01*
Y693922D01*
X1577789Y693960D01*
Y693998D01*
X1577800Y694102D01*
X1577816Y694218D01*
X1577843Y694339D01*
X1577876Y694470D01*
X1577920Y694591D01*
Y694596D01*
X1577926Y694607D01*
X1577937Y694624D01*
X1577948Y694646D01*
X1577975Y694701D01*
X1578024Y694772D01*
X1578079Y694854D01*
X1578151Y694937D01*
X1578233Y695013D01*
X1578326Y695085D01*
X1578332D01*
X1578337Y695090D01*
X1578354Y695101D01*
X1578370Y695112D01*
X1578425Y695139D01*
X1578496Y695172D01*
X1578584Y695211D01*
X1578688Y695238D01*
X1578798Y695266D01*
X1578919Y695277D01*
X1578957Y694794D01*
X1578952D01*
X1578941D01*
X1578924Y694788D01*
X1578897Y694783D01*
X1578837Y694766D01*
X1578754Y694744D01*
X1578666Y694712D01*
X1578579Y694662D01*
X1578496Y694602D01*
X1578419Y694525D01*
X1578414Y694514D01*
X1578392Y694487D01*
X1578359Y694432D01*
X1578326Y694360D01*
X1578293Y694267D01*
X1578260Y694157D01*
X1578238Y694020D01*
X1578233Y693867D01*
Y693790D01*
X1578238Y693757D01*
X1578244Y693713D01*
X1578255Y693614D01*
X1578277Y693504D01*
X1578304Y693395D01*
X1578348Y693291D01*
X1578376Y693247D01*
X1578403Y693203D01*
X1578409Y693192D01*
X1578430Y693170D01*
X1578469Y693137D01*
X1578513Y693104D01*
X1578573Y693066D01*
X1578639Y693033D01*
X1578716Y693011D01*
X1578804Y693000D01*
X1578815D01*
X1578837D01*
X1578875Y693005D01*
X1578919Y693016D01*
X1578974Y693033D01*
X1579028Y693060D01*
X1579083Y693093D01*
X1579138Y693142D01*
X1579144Y693148D01*
X1579160Y693175D01*
X1579177Y693197D01*
X1579188Y693219D01*
X1579204Y693252D01*
X1579226Y693291D01*
X1579243Y693340D01*
X1579264Y693395D01*
X1579286Y693455D01*
X1579314Y693527D01*
X1579336Y693603D01*
X1579363Y693691D01*
X1579385Y693790D01*
X1579413Y693900D01*
Y693905D01*
X1579418Y693927D01*
X1579424Y693960D01*
X1579435Y693998D01*
X1579445Y694048D01*
X1579462Y694108D01*
X1579478Y694168D01*
X1579495Y694234D01*
X1579533Y694377D01*
X1579572Y694514D01*
X1579594Y694580D01*
X1579615Y694640D01*
X1579632Y694695D01*
X1579654Y694739D01*
Y694744D01*
X1579659Y694755D01*
X1579670Y694772D01*
X1579681Y694794D01*
X1579714Y694854D01*
X1579758Y694926D01*
X1579819Y695008D01*
X1579884Y695090D01*
X1579961Y695167D01*
X1580043Y695233D01*
X1580054Y695238D01*
X1580082Y695260D01*
X1580131Y695282D01*
X1580197Y695315D01*
X1580274Y695342D01*
X1580367Y695370D01*
X1580471Y695386D01*
X1580581Y695392D01*
X1580587D01*
X1580592D01*
X1580609D01*
X1580630D01*
X1580691Y695381D01*
D02*
G37*
G36*
X1581646Y689011D02*
X1577849D01*
Y691760D01*
X1578299D01*
Y689516D01*
X1579456D01*
Y691617D01*
X1579906D01*
Y689516D01*
X1581196D01*
Y691848D01*
X1581646D01*
Y689011D01*
D02*
G37*
%LPC*%
G36*
X1288445Y420516D02*
X1284032D01*
Y420271D01*
Y420026D01*
Y416348D01*
X1288445D01*
Y420516D01*
D02*
G37*
G36*
X1232299Y333956D02*
X1211753D01*
Y333731D01*
X1210624D01*
Y333505D01*
X1209947D01*
Y333279D01*
X1209495D01*
Y333053D01*
X1209044D01*
Y332827D01*
X1208818D01*
Y332602D01*
X1208592D01*
Y332376D01*
X1208366D01*
Y332150D01*
X1207915D01*
Y331699D01*
X1207689D01*
Y331473D01*
X1207463D01*
Y331247D01*
X1207238D01*
Y331021D01*
X1207012D01*
Y330570D01*
X1206786D01*
Y330118D01*
X1206560D01*
Y329441D01*
X1206334D01*
Y328764D01*
X1206109D01*
Y326280D01*
X1206334D01*
Y325603D01*
X1206560D01*
Y324925D01*
X1206786D01*
Y324474D01*
X1207012D01*
Y324022D01*
X1207238D01*
Y323796D01*
X1207463D01*
Y323571D01*
X1207689D01*
Y323345D01*
X1207915D01*
Y322893D01*
X1208366D01*
Y322668D01*
X1208592D01*
Y322442D01*
X1208818D01*
Y322216D01*
X1209270D01*
Y321990D01*
X1209495D01*
Y321764D01*
X1209947D01*
Y321539D01*
X1210624D01*
Y321313D01*
X1211753D01*
Y321087D01*
X1232299D01*
Y321313D01*
X1233428D01*
Y321539D01*
X1233879D01*
Y321764D01*
X1234331D01*
Y321990D01*
X1234782D01*
Y322216D01*
X1235234D01*
Y322442D01*
X1235460D01*
Y322668D01*
X1235686D01*
Y322893D01*
X1235911D01*
Y323119D01*
X1236137D01*
Y323345D01*
X1236363D01*
Y323571D01*
X1236589D01*
Y323796D01*
X1236814D01*
Y324248D01*
X1237040D01*
Y324700D01*
X1237266D01*
Y325151D01*
X1237492D01*
Y325603D01*
X1237718D01*
Y326731D01*
X1237943D01*
Y328312D01*
X1237718D01*
Y329441D01*
X1237492D01*
Y329892D01*
X1237266D01*
Y330344D01*
X1237040D01*
Y330796D01*
X1236814D01*
Y331247D01*
X1236589D01*
Y331473D01*
X1236363D01*
Y331699D01*
X1236137D01*
Y331924D01*
X1235911D01*
Y332150D01*
X1235686D01*
Y332376D01*
X1235460D01*
Y332602D01*
X1235234D01*
Y332827D01*
X1234782D01*
Y333053D01*
X1234331D01*
Y333279D01*
X1233879D01*
Y333505D01*
X1233428D01*
Y333731D01*
X1232299D01*
Y333956D01*
D02*
G37*
%LPD*%
G36*
Y328764D02*
X1232525D01*
Y328538D01*
X1232750D01*
Y328312D01*
X1232976D01*
Y326731D01*
X1232750D01*
Y326506D01*
X1232525D01*
Y326280D01*
X1232299D01*
Y326054D01*
X1211753D01*
Y326280D01*
X1211527D01*
Y326506D01*
X1211302D01*
Y326731D01*
X1211076D01*
Y327183D01*
X1210850D01*
Y327860D01*
X1211076D01*
Y328312D01*
X1211302D01*
Y328538D01*
X1211527D01*
Y328764D01*
X1211753D01*
Y328989D01*
X1232299D01*
Y328764D01*
D02*
G37*
%LPC*%
G36*
X1080682Y279838D02*
X1080046D01*
Y279521D01*
X1079729D01*
Y279203D01*
X1079411D01*
Y278886D01*
X1079094D01*
Y278568D01*
X1078776D01*
Y278251D01*
X1078459D01*
Y277933D01*
X1078141D01*
Y277616D01*
X1077824D01*
Y277298D01*
X1077506D01*
Y276981D01*
X1077189D01*
Y276663D01*
X1076871D01*
Y276346D01*
X1076554D01*
Y276028D01*
X1076236D01*
Y275711D01*
X1075919D01*
Y275393D01*
X1075602D01*
Y275076D01*
X1075284D01*
Y274758D01*
X1074967D01*
Y274441D01*
X1074649D01*
Y274123D01*
X1074332D01*
Y273806D01*
X1074014D01*
Y273488D01*
X1073697D01*
Y272853D01*
X1074014D01*
Y272536D01*
X1074332D01*
Y272218D01*
X1074649D01*
Y271901D01*
X1074967D01*
Y271583D01*
X1075284D01*
Y271266D01*
X1075602D01*
Y270948D01*
X1075919D01*
Y270631D01*
X1076236D01*
Y270313D01*
X1076554D01*
Y269996D01*
X1076871D01*
Y269678D01*
X1077189D01*
Y269361D01*
X1077506D01*
Y269043D01*
X1077824D01*
Y268726D01*
X1078141D01*
Y268408D01*
X1078459D01*
Y268091D01*
X1078776D01*
Y267773D01*
X1079094D01*
Y267456D01*
X1079411D01*
Y267138D01*
X1079729D01*
Y266821D01*
X1080046D01*
Y266186D01*
X1080364D01*
Y266503D01*
X1080682D01*
Y266821D01*
X1080999D01*
Y267138D01*
X1081317D01*
Y267456D01*
X1081634D01*
Y267773D01*
X1081952D01*
Y268091D01*
X1082269D01*
Y268408D01*
X1082587D01*
Y268726D01*
X1082904D01*
Y269043D01*
X1083222D01*
Y269361D01*
X1083539D01*
Y269678D01*
X1083857D01*
Y269996D01*
X1084174D01*
Y270313D01*
X1084492D01*
Y270631D01*
X1084809D01*
Y270948D01*
X1085126D01*
Y271266D01*
X1085444D01*
Y271583D01*
X1085761D01*
Y271901D01*
X1086079D01*
Y272218D01*
X1086396D01*
Y272536D01*
X1086714D01*
Y272853D01*
X1087031D01*
Y273488D01*
X1086714D01*
Y273806D01*
X1086396D01*
Y274123D01*
X1086079D01*
Y274441D01*
X1085761D01*
Y274758D01*
X1085444D01*
Y275076D01*
X1085126D01*
Y275393D01*
X1084809D01*
Y275711D01*
X1084492D01*
Y276028D01*
X1084174D01*
Y276346D01*
X1083857D01*
Y276663D01*
X1083539D01*
Y276981D01*
X1083222D01*
Y277298D01*
X1082904D01*
Y277616D01*
X1082587D01*
Y277933D01*
X1082269D01*
Y278251D01*
X1081952D01*
Y278568D01*
X1081634D01*
Y278886D01*
X1081317D01*
Y279203D01*
X1080999D01*
Y279521D01*
X1080682D01*
Y279838D01*
D02*
G37*
%LPD*%
G36*
X1084492Y272536D02*
Y272218D01*
X1076236D01*
Y274123D01*
X1084492D01*
Y272536D01*
D02*
G37*
%LPC*%
G36*
X1125132Y280156D02*
X1124497D01*
Y279838D01*
X1124179D01*
Y279521D01*
X1123861D01*
Y279203D01*
X1123544D01*
Y278886D01*
X1123226D01*
Y278568D01*
X1122909D01*
Y278251D01*
X1122591D01*
Y277933D01*
X1122274D01*
Y277616D01*
X1121956D01*
Y277298D01*
X1121639D01*
Y276981D01*
X1121321D01*
Y276663D01*
X1121004D01*
Y276346D01*
X1120686D01*
Y276028D01*
X1120369D01*
Y275711D01*
X1120051D01*
Y275393D01*
X1119734D01*
Y275076D01*
X1119417D01*
Y274758D01*
X1119099D01*
Y274441D01*
X1118782D01*
Y274123D01*
X1118464D01*
Y273806D01*
X1118147D01*
Y273488D01*
X1117829D01*
Y273171D01*
X1118147D01*
Y272853D01*
X1118464D01*
Y272536D01*
X1118782D01*
Y272218D01*
X1119099D01*
Y271901D01*
X1119417D01*
Y271583D01*
X1119734D01*
Y271266D01*
X1120051D01*
Y270948D01*
X1120369D01*
Y270631D01*
X1120686D01*
Y270313D01*
X1121004D01*
Y269996D01*
X1121321D01*
Y269678D01*
X1121639D01*
Y269361D01*
X1121956D01*
Y269043D01*
X1122274D01*
Y268726D01*
X1122591D01*
Y268408D01*
X1122909D01*
Y268091D01*
X1123226D01*
Y267773D01*
X1123544D01*
Y267456D01*
X1123861D01*
Y267138D01*
X1124179D01*
Y266821D01*
X1124497D01*
Y266503D01*
X1125132D01*
Y266821D01*
X1125449D01*
Y267138D01*
X1125767D01*
Y267456D01*
X1126084D01*
Y267773D01*
X1126402D01*
Y268091D01*
X1126719D01*
Y268408D01*
X1127037D01*
Y268726D01*
X1127354D01*
Y269043D01*
X1127672D01*
Y269361D01*
X1127989D01*
Y269678D01*
X1128307D01*
Y269996D01*
X1128624D01*
Y270313D01*
X1128941D01*
Y270631D01*
X1129259D01*
Y270948D01*
X1129576D01*
Y271266D01*
X1129894D01*
Y271583D01*
X1130211D01*
Y271901D01*
X1130529D01*
Y272218D01*
X1130846D01*
Y272536D01*
X1131164D01*
Y272853D01*
X1131481D01*
Y273171D01*
X1131799D01*
Y273488D01*
X1131481D01*
Y273806D01*
X1131164D01*
Y274123D01*
X1130846D01*
Y274441D01*
X1130529D01*
Y274758D01*
X1130211D01*
Y275076D01*
X1129894D01*
Y275393D01*
X1129576D01*
Y275711D01*
X1129259D01*
Y276028D01*
X1128941D01*
Y276346D01*
X1128624D01*
Y276663D01*
X1128307D01*
Y276981D01*
X1127989D01*
Y277298D01*
X1127672D01*
Y277616D01*
X1127354D01*
Y277933D01*
X1127037D01*
Y278251D01*
X1126719D01*
Y278568D01*
X1126402D01*
Y278886D01*
X1126084D01*
Y279203D01*
X1125767D01*
Y279521D01*
X1125449D01*
Y279838D01*
X1125132D01*
Y280156D01*
D02*
G37*
%LPD*%
G36*
X1125767Y274123D02*
X1128941D01*
Y272218D01*
X1125767D01*
Y269043D01*
X1123861D01*
Y272218D01*
X1120686D01*
Y273806D01*
Y274123D01*
X1123861D01*
Y277298D01*
X1125767D01*
Y274123D01*
D02*
G37*
%LPC*%
G36*
X1754971Y619284D02*
X1753109D01*
Y618776D01*
X1753278D01*
Y618099D01*
X1753447D01*
Y617252D01*
X1753278D01*
Y616405D01*
X1753109D01*
Y616067D01*
X1752939D01*
Y615728D01*
X1752770D01*
Y615390D01*
X1752601D01*
Y615220D01*
X1752431D01*
Y615051D01*
X1752262D01*
Y614882D01*
X1752093D01*
Y614712D01*
X1751923D01*
Y614543D01*
X1751754D01*
Y614374D01*
X1751585D01*
Y614204D01*
X1751415D01*
Y614035D01*
X1751246D01*
Y613866D01*
X1750907D01*
Y613696D01*
X1750569D01*
Y613527D01*
X1750230D01*
Y613358D01*
X1749891D01*
Y613188D01*
X1749553D01*
Y613019D01*
X1749214D01*
Y612850D01*
X1748706D01*
Y612680D01*
X1748198D01*
Y612511D01*
X1747351D01*
Y612341D01*
X1746505D01*
Y612172D01*
X1744981D01*
Y612003D01*
X1742779D01*
Y612172D01*
X1741255D01*
Y612341D01*
X1740239D01*
Y612511D01*
X1739562D01*
Y612680D01*
X1739054D01*
Y612850D01*
X1738546D01*
Y613019D01*
X1738207D01*
Y613188D01*
X1737869D01*
Y613358D01*
X1737530D01*
Y613527D01*
X1737191D01*
Y613696D01*
X1736853D01*
Y613866D01*
X1736514D01*
Y614035D01*
X1736345D01*
Y614204D01*
X1736175D01*
Y614374D01*
X1736006D01*
Y614543D01*
X1735667D01*
Y614712D01*
X1735498D01*
Y615051D01*
X1735329D01*
Y615220D01*
X1735159D01*
Y615390D01*
X1734990D01*
Y615728D01*
X1734821D01*
Y616067D01*
X1734651D01*
Y616405D01*
X1734482D01*
Y617252D01*
X1734313D01*
Y618099D01*
X1734482D01*
Y618776D01*
X1734651D01*
Y619284D01*
X1732789D01*
Y619115D01*
X1732619D01*
Y618438D01*
X1732450D01*
Y617591D01*
X1732281D01*
Y616744D01*
X1732111D01*
Y615897D01*
X1731942D01*
Y615051D01*
X1731773D01*
Y614204D01*
X1731603D01*
Y613358D01*
X1731434D01*
Y612511D01*
X1731265D01*
Y611664D01*
X1731095D01*
Y611325D01*
X1731265D01*
Y611156D01*
X1756495D01*
Y611325D01*
X1756665D01*
Y611664D01*
X1756495D01*
Y612511D01*
X1756326D01*
Y613358D01*
X1756157D01*
Y614204D01*
X1755987D01*
Y615051D01*
X1755818D01*
Y615897D01*
X1755649D01*
Y616744D01*
X1755479D01*
Y617591D01*
X1755310D01*
Y618438D01*
X1755141D01*
Y619115D01*
X1754971D01*
Y619284D01*
D02*
G37*
G36*
X1754805Y392581D02*
X1752632D01*
Y391989D01*
X1752829D01*
Y391199D01*
X1753027D01*
Y390211D01*
X1752829D01*
Y389223D01*
X1752632D01*
Y388828D01*
X1752434D01*
Y388433D01*
X1752236D01*
Y388038D01*
X1752039D01*
Y387840D01*
X1751841D01*
Y387643D01*
X1751644D01*
Y387445D01*
X1751446D01*
Y387248D01*
X1751249D01*
Y387050D01*
X1751051D01*
Y386852D01*
X1750853D01*
Y386655D01*
X1750656D01*
Y386457D01*
X1750458D01*
Y386260D01*
X1750063D01*
Y386062D01*
X1749668D01*
Y385865D01*
X1749273D01*
Y385667D01*
X1748878D01*
Y385470D01*
X1748483D01*
Y385272D01*
X1748088D01*
Y385074D01*
X1747495D01*
Y384877D01*
X1746902D01*
Y384679D01*
X1745915D01*
Y384482D01*
X1744927D01*
Y384284D01*
X1743149D01*
Y384087D01*
X1740581D01*
Y384284D01*
X1738803D01*
Y384482D01*
X1737617D01*
Y384679D01*
X1736827D01*
Y384877D01*
X1736234D01*
Y385074D01*
X1735642D01*
Y385272D01*
X1735247D01*
Y385470D01*
X1734852D01*
Y385667D01*
X1734456D01*
Y385865D01*
X1734061D01*
Y386062D01*
X1733666D01*
Y386260D01*
X1733271D01*
Y386457D01*
X1733073D01*
Y386655D01*
X1732876D01*
Y386852D01*
X1732678D01*
Y387050D01*
X1732283D01*
Y387248D01*
X1732086D01*
Y387643D01*
X1731888D01*
Y387840D01*
X1731691D01*
Y388038D01*
X1731493D01*
Y388433D01*
X1731295D01*
Y388828D01*
X1731098D01*
Y389223D01*
X1730900D01*
Y390211D01*
X1730703D01*
Y391199D01*
X1730900D01*
Y391989D01*
X1731098D01*
Y392581D01*
X1728925D01*
Y392384D01*
X1728727D01*
Y391594D01*
X1728530D01*
Y390606D01*
X1728332D01*
Y389618D01*
X1728135D01*
Y388630D01*
X1727937D01*
Y387643D01*
X1727740D01*
Y386655D01*
X1727542D01*
Y385667D01*
X1727344D01*
Y384679D01*
X1727147D01*
Y383691D01*
X1726949D01*
Y383296D01*
X1727147D01*
Y383099D01*
X1756583D01*
Y383296D01*
X1756780D01*
Y383691D01*
X1756583D01*
Y384679D01*
X1756385D01*
Y385667D01*
X1756187D01*
Y386655D01*
X1755990D01*
Y387643D01*
X1755792D01*
Y388630D01*
X1755595D01*
Y389618D01*
X1755397D01*
Y390606D01*
X1755200D01*
Y391594D01*
X1755002D01*
Y392384D01*
X1754805D01*
Y392581D01*
D02*
G37*
G36*
X1518912Y293180D02*
X1517388D01*
Y293010D01*
X1517218D01*
Y292672D01*
X1517049D01*
Y292333D01*
X1516880D01*
Y291994D01*
Y291825D01*
X1516710D01*
Y291486D01*
X1516541D01*
Y291148D01*
X1516372D01*
Y290978D01*
X1518404D01*
Y291148D01*
X1518742D01*
Y291317D01*
X1518912D01*
Y291486D01*
X1519081D01*
Y291825D01*
X1519250D01*
Y292672D01*
X1519081D01*
Y293010D01*
X1518912D01*
Y293180D01*
D02*
G37*
G36*
X1500624Y292333D02*
X1500454D01*
Y291994D01*
X1500285D01*
Y291486D01*
X1500116D01*
Y291148D01*
X1499946D01*
Y290640D01*
X1499777D01*
Y290132D01*
X1499608D01*
Y289793D01*
X1499438D01*
Y289285D01*
X1499269D01*
Y289116D01*
X1501640D01*
Y288946D01*
X1501809D01*
Y289454D01*
X1501640D01*
Y289793D01*
X1501470D01*
Y290301D01*
X1501301D01*
Y290640D01*
X1501132D01*
Y290978D01*
X1500962D01*
Y291486D01*
X1500793D01*
Y291825D01*
X1500624D01*
Y292333D01*
D02*
G37*
G36*
X1578891Y703622D02*
X1578886D01*
X1578880D01*
X1578847Y703616D01*
X1578798Y703611D01*
X1578732Y703599D01*
X1578666Y703572D01*
X1578590Y703539D01*
X1578518Y703490D01*
X1578447Y703424D01*
X1578441Y703413D01*
X1578419Y703385D01*
X1578392Y703342D01*
X1578359Y703270D01*
X1578326Y703188D01*
X1578299Y703078D01*
X1578277Y702952D01*
X1578271Y702804D01*
Y701608D01*
X1579528D01*
Y702738D01*
X1579522Y702804D01*
X1579517Y702881D01*
X1579511Y702969D01*
X1579500Y703056D01*
X1579484Y703144D01*
X1579462Y703221D01*
X1579456Y703232D01*
X1579445Y703254D01*
X1579429Y703287D01*
X1579407Y703331D01*
X1579374Y703380D01*
X1579336Y703429D01*
X1579286Y703479D01*
X1579232Y703517D01*
X1579226Y703523D01*
X1579204Y703534D01*
X1579171Y703550D01*
X1579127Y703572D01*
X1579078Y703588D01*
X1579023Y703605D01*
X1578957Y703616D01*
X1578891Y703622D01*
D02*
G37*
G36*
X1578968Y698464D02*
X1578963D01*
X1578957D01*
X1578930D01*
X1578880Y698459D01*
X1578826Y698448D01*
X1578765Y698437D01*
X1578694Y698415D01*
X1578628Y698382D01*
X1578562Y698344D01*
X1578557Y698338D01*
X1578535Y698322D01*
X1578507Y698294D01*
X1578469Y698261D01*
X1578430Y698212D01*
X1578398Y698157D01*
X1578365Y698097D01*
X1578337Y698025D01*
Y698020D01*
X1578332Y697998D01*
X1578326Y697965D01*
X1578315Y697921D01*
X1578310Y697855D01*
X1578304Y697773D01*
X1578299Y697674D01*
Y696588D01*
X1579654D01*
Y697608D01*
X1579648Y697647D01*
Y697685D01*
X1579643Y697729D01*
X1579632Y697833D01*
X1579610Y697949D01*
X1579577Y698064D01*
X1579533Y698168D01*
X1579506Y698217D01*
X1579473Y698256D01*
X1579462Y698267D01*
X1579440Y698289D01*
X1579396Y698322D01*
X1579341Y698360D01*
X1579270Y698398D01*
X1579182Y698431D01*
X1579083Y698453D01*
X1578968Y698464D01*
D02*
G37*
%LPD*%
D10*
X1166050Y545350D02*
G03*
X1166050Y545350I-1250J0D01*
G01*
X1151795Y495555D02*
G03*
X1151795Y495555I-1250J0D01*
G01*
X1464290Y634030D02*
G03*
X1464290Y634030I-1250J0D01*
G01*
X1023876Y400158D02*
G03*
X1023876Y400158I-1250J0D01*
G01*
X1857245Y486873D02*
G03*
X1857245Y486873I-1250J0D01*
G01*
X1856839Y356210D02*
G03*
X1856839Y356210I-1250J0D01*
G01*
X1557450Y368150D02*
G03*
X1557450Y368150I-1250J0D01*
G01*
X1426378Y392580D02*
G03*
X1426378Y392580I-1250J0D01*
G01*
X1425450Y406087D02*
G03*
X1425450Y406087I-1250J0D01*
G01*
X1444850Y520636D02*
G03*
X1444850Y520636I-1250J0D01*
G01*
X1075804Y495196D02*
G03*
X1075804Y495196I-1250J0D01*
G01*
X1557450Y596750D02*
G03*
X1557450Y596750I-1250J0D01*
G01*
X1295188Y317959D02*
G03*
X1295188Y317959I-1250J0D01*
G01*
X1581039Y669489D02*
G03*
X1581039Y669489I-1250J0D01*
G01*
X1182950Y319300D02*
G03*
X1182950Y319300I-1250J0D01*
G01*
X1098108Y582450D02*
G03*
X1098108Y582450I-1250J0D01*
G01*
X1444900Y580449D02*
G03*
X1444900Y580449I-1250J0D01*
G01*
D11*
X1487640Y622930D02*
G03*
X1487640Y622930I-3000J0D01*
G01*
D12*
X1494790Y632930D02*
G03*
X1507490Y632930I6350J0D01*
G01*
X1448378Y377830D02*
G03*
X1440128Y386080I-8250J0D01*
G01*
X1410128Y386080D02*
G03*
X1401878Y377830I0J-8250D01*
G01*
Y280830D02*
G03*
X1410128Y272580I8250J-0D01*
G01*
X1440128Y272580D02*
G03*
X1448378Y280830I0J8250D01*
G01*
X1666988Y491774D02*
X1693888D01*
Y697974D01*
X1666988D02*
X1693888D01*
X1666988Y491774D02*
Y697974D01*
X1310327Y687083D02*
X1414927D01*
Y660183D02*
Y687083D01*
X1310327Y660183D02*
X1414927D01*
X1310327D02*
Y687083D01*
X1264393Y659619D02*
Y683741D01*
X1242893Y659619D02*
Y683741D01*
X1293450Y659619D02*
Y683741D01*
X1271950Y659619D02*
Y683741D01*
X1177050Y554350D02*
Y621500D01*
Y365500D02*
Y372750D01*
X1332950Y365500D02*
X1358050D01*
X1177050D02*
X1202150D01*
X1358050Y554350D02*
Y621500D01*
Y365500D02*
Y372750D01*
X1177050Y621500D02*
X1358050D01*
X1083020Y480130D02*
X1148070D01*
X1083020Y445080D02*
Y480130D01*
Y445080D02*
X1148070D01*
Y480130D01*
X1474640Y278930D02*
X1527640D01*
X1507490Y632930D02*
X1527640D01*
X1474640D02*
X1494790D01*
X1527640Y278930D02*
Y632930D01*
X1474640Y278930D02*
Y632930D01*
X988626Y393408D02*
X1046126D01*
X988626Y319408D02*
Y393408D01*
Y319408D02*
X1046126D01*
Y393408D01*
X1788231Y697736D02*
X1815131D01*
X1788231Y491536D02*
Y697736D01*
Y491536D02*
X1815131D01*
Y697736D01*
X1670477Y265450D02*
X1697377D01*
Y471650D01*
X1670477D02*
X1697377D01*
X1670477Y265450D02*
Y471650D01*
X1788928Y473521D02*
X1815828D01*
X1788928Y267321D02*
Y473521D01*
Y267321D02*
X1815828D01*
Y473521D01*
X1827776Y627746D02*
Y682746D01*
Y627746D02*
X1850776D01*
X1872776D02*
X1895776D01*
Y682746D01*
X1840776Y695746D02*
X1850776D01*
X1827776Y682746D02*
X1840776Y695746D01*
X1882776D02*
X1895776Y682746D01*
X1872776Y695746D02*
X1882776D01*
X1889995Y492373D02*
Y616373D01*
X1832495Y492373D02*
X1889995D01*
X1832495D02*
Y616373D01*
X1889995D01*
X1889589Y361710D02*
Y485710D01*
X1832089Y361710D02*
X1889589D01*
X1832089D02*
Y485710D01*
X1889589D01*
X1829630Y274229D02*
Y329229D01*
Y274229D02*
X1852630D01*
X1874630D02*
X1897630D01*
Y329229D01*
X1842630Y342229D02*
X1852630D01*
X1829630Y329229D02*
X1842630Y342229D01*
X1884630D02*
X1897630Y329229D01*
X1874630Y342229D02*
X1884630D01*
X1530539Y643540D02*
X1532539D01*
X1530539Y655040D02*
X1532539D01*
X1559419Y420965D02*
Y429935D01*
X1577481Y420965D02*
Y429935D01*
X1602193Y438211D02*
X1604194D01*
X1602193Y425711D02*
X1604194D01*
X1645550Y378500D02*
Y393150D01*
Y353100D02*
Y358100D01*
Y327700D02*
Y332700D01*
Y302300D02*
Y307300D01*
Y267250D02*
Y281900D01*
X1567550Y267250D02*
X1645550D01*
X1567550Y378500D02*
Y393150D01*
Y353100D02*
Y358100D01*
Y327700D02*
Y332700D01*
Y302300D02*
Y307300D01*
Y267250D02*
Y281900D01*
Y393150D02*
X1645550D01*
X1327903Y346437D02*
X1329903D01*
X1327903Y334937D02*
X1329903D01*
X1293038D02*
X1295038D01*
X1293038Y346437D02*
X1295038D01*
X1374267Y349468D02*
Y371469D01*
X1395767Y349468D02*
Y371469D01*
X1374267Y280769D02*
Y302769D01*
X1395767Y280769D02*
Y302769D01*
X1401878Y280830D02*
Y377830D01*
X1448378Y280830D02*
Y377830D01*
X1410128Y272580D02*
X1440128D01*
X1410128Y386080D02*
X1440128D01*
X1410128Y386080D02*
X1410128Y386080D01*
X1385100Y411837D02*
Y493037D01*
X1437900D01*
Y411837D02*
Y493037D01*
X1385100Y411837D02*
X1437900D01*
X1385100Y505386D02*
X1437200D01*
Y561286D01*
X1385100D02*
X1437200D01*
X1385100Y505386D02*
Y561286D01*
X1448314Y657927D02*
Y666897D01*
X1430252Y657927D02*
Y666897D01*
X1473867Y644881D02*
X1475867D01*
X1473867Y657381D02*
X1475867D01*
X1068579Y538016D02*
X1077548D01*
X1068579Y556078D02*
X1077548D01*
X1018554D02*
X1027523D01*
X1018554Y538016D02*
X1027523D01*
X1157483Y554152D02*
Y556152D01*
X1145983Y554152D02*
Y556152D01*
X1104815Y510031D02*
X1113784D01*
X1104815Y528093D02*
X1113784D01*
X1072079Y444721D02*
Y479771D01*
X1007029Y444721D02*
X1072079D01*
X1007029D02*
Y479771D01*
X1072079D01*
X1123680Y410921D02*
X1132649D01*
X1123680Y392859D02*
X1132649D01*
X1057233Y263567D02*
Y381852D01*
X1079233D01*
X1125233D02*
X1147233D01*
Y264583D02*
Y319851D01*
Y365852D02*
Y381852D01*
X1143000Y260350D02*
X1147233Y264583D01*
X1057233Y263567D02*
X1060450Y260350D01*
X1645550Y607100D02*
Y621750D01*
Y581700D02*
Y586700D01*
Y556300D02*
Y561300D01*
Y530900D02*
Y535900D01*
Y495850D02*
Y510500D01*
X1567550Y495850D02*
X1645550D01*
X1567550Y607100D02*
Y621750D01*
Y581700D02*
Y586700D01*
Y556300D02*
Y561300D01*
Y530900D02*
Y535900D01*
Y495850D02*
Y510500D01*
Y621750D02*
X1645550D01*
X1300938Y305959D02*
Y322709D01*
Y271709D02*
Y288459D01*
X1351688Y271709D02*
X1351938D01*
X1314688D02*
X1338188D01*
X1300938D02*
X1301188D01*
X1351938Y305959D02*
Y322709D01*
Y271709D02*
Y288459D01*
X1351688Y322709D02*
X1351938D01*
X1314688D02*
X1338188D01*
X1300938D02*
X1301188D01*
X1572789Y664739D02*
Y681489D01*
Y698989D02*
Y715739D01*
X1521789D02*
X1522039D01*
X1535539D02*
X1559039D01*
X1572539D02*
X1572789D01*
X1521789Y664739D02*
Y681489D01*
Y698989D02*
Y715739D01*
Y664739D02*
X1522039D01*
X1535539D02*
X1559039D01*
X1572539D02*
X1572789D01*
X1126192Y598416D02*
X1135161D01*
X1126192Y580354D02*
X1135161D01*
X1163900Y316800D02*
X1176450D01*
X1261950D02*
X1274500D01*
Y262350D02*
Y316800D01*
X1163900Y262350D02*
Y316800D01*
X1014857Y564050D02*
X1078858D01*
X1014857Y619350D02*
Y626250D01*
Y564050D02*
Y570950D01*
Y626250D02*
X1078858D01*
Y619350D02*
Y626250D01*
Y564050D02*
Y570950D01*
X1436650Y575699D02*
Y592449D01*
Y609949D02*
Y626699D01*
X1385650D02*
X1385900D01*
X1399400D02*
X1422900D01*
X1436400D02*
X1436650D01*
X1385650Y575699D02*
Y592449D01*
Y609949D02*
Y626699D01*
Y575699D02*
X1385900D01*
X1399400D02*
X1422900D01*
X1436400D02*
X1436650D01*
X1122476Y660183D02*
X1227076D01*
X1122476D02*
Y687083D01*
X1227076D01*
Y660183D02*
Y687083D01*
D13*
X1596519Y400050D02*
X1623184D01*
X1622584Y419100D02*
X1625600Y416084D01*
X1593850Y419100D02*
X1622584D01*
X1593850Y400050D02*
X1596519D01*
D14*
X1623184D02*
X1625600Y402466D01*
Y416084D01*
X1827776Y707745D02*
X1895776D01*
X1829630Y354228D02*
X1897630D01*
D15*
X1697438Y684975D02*
Y682435D01*
Y683705D01*
X1705056D01*
X1703786Y684975D01*
Y509775D02*
X1705056Y508505D01*
Y505966D01*
X1703786Y504696D01*
X1702517D01*
X1701247Y505966D01*
X1699978Y504696D01*
X1698708D01*
X1697438Y505966D01*
Y508505D01*
X1698708Y509775D01*
X1699978D01*
X1701247Y508505D01*
X1702517Y509775D01*
X1703786D01*
X1701247Y508505D02*
Y505966D01*
X988892Y401097D02*
Y396018D01*
X991431D01*
X992278Y396865D01*
Y397711D01*
X991431Y398557D01*
X988892D01*
X991431D01*
X992278Y399404D01*
Y400250D01*
X991431Y401097D01*
X988892D01*
X993971D02*
Y396865D01*
X994817Y396018D01*
X996510D01*
X997356Y396865D01*
Y401097D01*
X999049D02*
X1002434D01*
Y400250D01*
X999049Y396865D01*
Y396018D01*
X1002434D01*
X1004127Y401097D02*
X1007513D01*
Y400250D01*
X1004127Y396865D01*
Y396018D01*
X1007513D01*
X1012591Y401097D02*
X1009206D01*
Y396018D01*
X1012591D01*
X1009206Y398557D02*
X1010898D01*
X1014284Y396018D02*
Y401097D01*
X1016823D01*
X1017670Y400250D01*
Y398557D01*
X1016823Y397711D01*
X1014284D01*
X1015977D02*
X1017670Y396018D01*
X1784681Y504536D02*
Y507075D01*
Y505806D01*
X1777064D01*
X1778333Y504536D01*
Y679736D02*
X1777064Y681006D01*
Y683545D01*
X1778333Y684814D01*
X1779603D01*
X1780873Y683545D01*
X1782142Y684814D01*
X1783412D01*
X1784681Y683545D01*
Y681006D01*
X1783412Y679736D01*
X1782142D01*
X1780873Y681006D01*
X1779603Y679736D01*
X1778333D01*
X1780873Y681006D02*
Y683545D01*
X1700927Y458649D02*
Y456110D01*
Y457380D01*
X1708544D01*
X1707275Y458649D01*
Y283449D02*
X1708544Y282180D01*
Y279641D01*
X1707275Y278371D01*
X1706005D01*
X1704736Y279641D01*
X1703466Y278371D01*
X1702196D01*
X1700927Y279641D01*
Y282180D01*
X1702196Y283449D01*
X1703466D01*
X1704736Y282180D01*
X1706005Y283449D01*
X1707275D01*
X1704736Y282180D02*
Y279641D01*
X1785378Y280322D02*
Y282861D01*
Y281591D01*
X1777760D01*
X1779030Y280322D01*
Y455522D02*
X1777760Y456791D01*
Y459330D01*
X1779030Y460600D01*
X1780300D01*
X1781569Y459330D01*
X1782839Y460600D01*
X1784108D01*
X1785378Y459330D01*
Y456791D01*
X1784108Y455522D01*
X1782839D01*
X1781569Y456791D01*
X1780300Y455522D01*
X1779030D01*
X1781569Y456791D02*
Y459330D01*
X1000324Y630549D02*
Y638167D01*
X1004133D01*
X1005403Y636897D01*
Y634358D01*
X1004133Y633088D01*
X1000324D01*
X1009211Y630549D02*
X1011751D01*
X1013020Y631819D01*
Y634358D01*
X1011751Y635628D01*
X1009211D01*
X1007942Y634358D01*
Y631819D01*
X1009211Y630549D01*
X1015559Y635628D02*
Y631819D01*
X1016829Y630549D01*
X1018099Y631819D01*
X1019368Y630549D01*
X1020638Y631819D01*
Y635628D01*
X1026986Y630549D02*
X1024446D01*
X1023177Y631819D01*
Y634358D01*
X1024446Y635628D01*
X1026986D01*
X1028255Y634358D01*
Y633088D01*
X1023177D01*
X1030794Y635628D02*
Y630549D01*
Y633088D01*
X1032064Y634358D01*
X1033334Y635628D01*
X1034603D01*
X1051108Y636897D02*
X1049838Y638167D01*
X1047299D01*
X1046030Y636897D01*
Y635628D01*
X1047299Y634358D01*
X1049838D01*
X1051108Y633088D01*
Y631819D01*
X1049838Y630549D01*
X1047299D01*
X1046030Y631819D01*
X1054917Y630549D02*
X1057456D01*
X1058725Y631819D01*
Y634358D01*
X1057456Y635628D01*
X1054917D01*
X1053647Y634358D01*
Y631819D01*
X1054917Y630549D01*
X1061264Y635628D02*
Y631819D01*
X1062534Y630549D01*
X1066343D01*
Y635628D01*
X1068882D02*
Y630549D01*
Y633088D01*
X1070152Y634358D01*
X1071421Y635628D01*
X1072691D01*
X1081578D02*
X1077769D01*
X1076500Y634358D01*
Y631819D01*
X1077769Y630549D01*
X1081578D01*
X1087926D02*
X1085387D01*
X1084117Y631819D01*
Y634358D01*
X1085387Y635628D01*
X1087926D01*
X1089195Y634358D01*
Y633088D01*
X1084117D01*
X1462484Y266761D02*
Y271840D01*
X1465023Y274379D01*
X1467562Y271840D01*
Y266761D01*
Y270570D01*
X1462484D01*
X1470102Y274379D02*
X1475180D01*
X1472641D01*
Y266761D01*
X1477719D02*
Y274379D01*
X1480258Y271840D01*
X1482798Y274379D01*
Y266761D01*
X1490415Y274379D02*
X1485337D01*
Y266761D01*
X1490415D01*
X1485337Y270570D02*
X1487876D01*
X1498033Y273109D02*
X1496763Y274379D01*
X1494224D01*
X1492954Y273109D01*
Y268031D01*
X1494224Y266761D01*
X1496763D01*
X1498033Y268031D01*
Y270570D01*
X1495493D01*
X1500572Y266761D02*
Y271840D01*
X1503111Y274379D01*
X1505650Y271840D01*
Y266761D01*
Y270570D01*
X1500572D01*
X1508189Y273109D02*
X1509459Y274379D01*
X1511998D01*
X1513268Y273109D01*
Y271840D01*
X1511998Y270570D01*
X1510728D01*
X1511998D01*
X1513268Y269300D01*
Y268031D01*
X1511998Y266761D01*
X1509459D01*
X1508189Y268031D01*
X1520885Y266761D02*
X1515807D01*
X1520885Y271840D01*
Y273109D01*
X1519616Y274379D01*
X1517076D01*
X1515807Y273109D01*
X1523424D02*
X1524694Y274379D01*
X1527233D01*
X1528503Y273109D01*
Y271840D01*
X1527233Y270570D01*
X1528503Y269300D01*
Y268031D01*
X1527233Y266761D01*
X1524694D01*
X1523424Y268031D01*
Y269300D01*
X1524694Y270570D01*
X1523424Y271840D01*
Y273109D01*
X1524694Y270570D02*
X1527233D01*
X1531042Y266761D02*
Y274379D01*
X1534851D01*
X1536120Y273109D01*
Y270570D01*
X1534851Y269300D01*
X1531042D01*
X1538659Y274379D02*
Y268031D01*
X1539929Y266761D01*
X1542468D01*
X1543738Y268031D01*
Y274379D01*
X1597642Y445204D02*
Y452822D01*
X1601451D01*
X1602720Y451552D01*
Y449013D01*
X1601451Y447744D01*
X1597642D01*
X1600181D02*
X1602720Y445204D01*
X1610338Y452822D02*
X1607799Y451552D01*
X1605260Y449013D01*
Y446474D01*
X1606529Y445204D01*
X1609068D01*
X1610338Y446474D01*
Y447744D01*
X1609068Y449013D01*
X1605260D01*
X1323076Y349942D02*
Y357559D01*
X1326885D01*
X1328155Y356290D01*
Y353751D01*
X1326885Y352481D01*
X1323076D01*
X1325616D02*
X1328155Y349942D01*
X1335772Y357559D02*
X1330694D01*
Y353751D01*
X1333233Y355020D01*
X1334503D01*
X1335772Y353751D01*
Y351212D01*
X1334503Y349942D01*
X1331964D01*
X1330694Y351212D01*
X1514626Y640064D02*
X1507009D01*
Y643873D01*
X1508278Y645143D01*
X1510817D01*
X1512087Y643873D01*
Y640064D01*
Y642604D02*
X1514626Y645143D01*
Y651491D02*
X1507009D01*
X1510817Y647682D01*
Y652760D01*
X1287476Y349423D02*
Y357040D01*
X1291285D01*
X1292555Y355771D01*
Y353232D01*
X1291285Y351962D01*
X1287476D01*
X1290016D02*
X1292555Y349423D01*
X1295094Y355771D02*
X1296364Y357040D01*
X1298903D01*
X1300172Y355771D01*
Y354501D01*
X1298903Y353232D01*
X1297633D01*
X1298903D01*
X1300172Y351962D01*
Y350692D01*
X1298903Y349423D01*
X1296364D01*
X1295094Y350692D01*
X1367096Y332165D02*
X1365827Y330895D01*
Y328356D01*
X1367096Y327086D01*
X1372175D01*
X1373444Y328356D01*
Y330895D01*
X1372175Y332165D01*
X1373444Y334704D02*
Y337243D01*
Y335973D01*
X1365827D01*
X1367096Y334704D01*
X1372175Y341052D02*
X1373444Y342321D01*
Y344861D01*
X1372175Y346130D01*
X1367096D01*
X1365827Y344861D01*
Y342321D01*
X1367096Y341052D01*
X1368366D01*
X1369635Y342321D01*
Y346130D01*
X1556984Y636368D02*
X1555714Y637637D01*
X1553175D01*
X1551905Y636368D01*
Y631289D01*
X1553175Y630020D01*
X1555714D01*
X1556984Y631289D01*
X1559523Y630020D02*
X1562062D01*
X1560792D01*
Y637637D01*
X1559523Y636368D01*
X1565871D02*
X1567140Y637637D01*
X1569680D01*
X1570949Y636368D01*
Y635098D01*
X1569680Y633829D01*
X1570949Y632559D01*
Y631289D01*
X1569680Y630020D01*
X1567140D01*
X1565871Y631289D01*
Y632559D01*
X1567140Y633829D01*
X1565871Y635098D01*
Y636368D01*
X1567140Y633829D02*
X1569680D01*
X1113026Y614678D02*
X1111757Y615947D01*
X1109218D01*
X1107948Y614678D01*
Y609600D01*
X1109218Y608330D01*
X1111757D01*
X1113026Y609600D01*
X1120644Y615947D02*
X1118105Y614678D01*
X1115565Y612139D01*
Y609600D01*
X1116835Y608330D01*
X1119374D01*
X1120644Y609600D01*
Y610869D01*
X1119374Y612139D01*
X1115565D01*
X1160448Y503928D02*
X1159178Y505198D01*
X1156639D01*
X1155370Y503928D01*
Y498850D01*
X1156639Y497580D01*
X1159178D01*
X1160448Y498850D01*
X1162987Y503928D02*
X1164257Y505198D01*
X1166796D01*
X1168065Y503928D01*
Y502659D01*
X1166796Y501389D01*
X1168065Y500119D01*
Y498850D01*
X1166796Y497580D01*
X1164257D01*
X1162987Y498850D01*
Y500119D01*
X1164257Y501389D01*
X1162987Y502659D01*
Y503928D01*
X1164257Y501389D02*
X1166796D01*
X1166738Y575842D02*
X1159120D01*
Y579650D01*
X1160390Y580920D01*
X1162929D01*
X1164199Y579650D01*
Y575842D01*
Y578381D02*
X1166738Y580920D01*
Y588538D02*
Y583459D01*
X1161660Y588538D01*
X1160390D01*
X1159120Y587268D01*
Y584729D01*
X1160390Y583459D01*
X1389113Y503658D02*
X1386574D01*
X1387843D01*
Y497310D01*
X1386574Y496041D01*
X1385304D01*
X1384034Y497310D01*
X1395461Y496041D02*
Y503658D01*
X1391652Y499850D01*
X1396730D01*
X1072339Y398690D02*
X1071070Y397420D01*
Y394881D01*
X1072339Y393611D01*
X1077418D01*
X1078687Y394881D01*
Y397420D01*
X1077418Y398690D01*
X1078687Y401229D02*
Y403768D01*
Y402499D01*
X1071070D01*
X1072339Y401229D01*
X1071070Y407577D02*
Y412655D01*
X1072339D01*
X1077418Y407577D01*
X1078687D01*
X1156673Y397368D02*
X1155404Y396098D01*
Y393559D01*
X1156673Y392289D01*
X1161751D01*
X1163021Y393559D01*
Y396098D01*
X1161751Y397368D01*
X1163021Y399907D02*
Y402446D01*
Y401176D01*
X1155404D01*
X1156673Y399907D01*
X1155404Y411333D02*
X1156673Y408794D01*
X1159212Y406255D01*
X1161751D01*
X1163021Y407524D01*
Y410063D01*
X1161751Y411333D01*
X1160482D01*
X1159212Y410063D01*
Y406255D01*
X1310489Y692069D02*
Y699686D01*
X1314298D01*
X1315568Y698417D01*
Y695878D01*
X1314298Y694608D01*
X1310489D01*
X1321916Y692069D02*
Y699686D01*
X1318107Y695878D01*
X1323185D01*
X1670074Y703585D02*
Y711203D01*
X1673883D01*
X1675153Y709933D01*
Y707394D01*
X1673883Y706124D01*
X1670074D01*
X1682770Y703585D02*
X1677692D01*
X1682770Y708664D01*
Y709933D01*
X1681501Y711203D01*
X1678961D01*
X1677692Y709933D01*
X1685309Y711203D02*
Y703585D01*
X1689118D01*
X1690388Y704855D01*
Y706124D01*
X1689118Y707394D01*
X1685309D01*
X1689118D01*
X1690388Y708664D01*
Y709933D01*
X1689118Y711203D01*
X1685309D01*
X994321Y457978D02*
X1000668D01*
X1001938Y459248D01*
Y461787D01*
X1000668Y463056D01*
X994321D01*
X995590Y465596D02*
X994321Y466865D01*
Y469404D01*
X995590Y470674D01*
X996860D01*
X998129Y469404D01*
Y468135D01*
Y469404D01*
X999399Y470674D01*
X1000668D01*
X1001938Y469404D01*
Y466865D01*
X1000668Y465596D01*
X1820702Y608801D02*
Y606261D01*
Y607531D01*
X1827050D01*
X1828320Y606261D01*
Y604992D01*
X1827050Y603722D01*
X1820702Y616418D02*
Y611340D01*
X1824511D01*
X1823241Y613879D01*
Y615149D01*
X1824511Y616418D01*
X1827050D01*
X1828320Y615149D01*
Y612609D01*
X1827050Y611340D01*
X1820702Y618957D02*
X1828320D01*
Y622766D01*
X1827050Y624036D01*
X1825780D01*
X1824511Y622766D01*
Y618957D01*
Y622766D01*
X1823241Y624036D01*
X1821972D01*
X1820702Y622766D01*
Y618957D01*
X1820509Y470141D02*
Y467602D01*
Y468872D01*
X1826857D01*
X1828127Y467602D01*
Y466333D01*
X1826857Y465063D01*
X1820509Y477759D02*
Y472681D01*
X1824318D01*
X1823048Y475220D01*
Y476489D01*
X1824318Y477759D01*
X1826857D01*
X1828127Y476489D01*
Y473950D01*
X1826857Y472681D01*
X1828127Y480298D02*
X1823048D01*
X1820509Y482837D01*
X1823048Y485377D01*
X1828127D01*
X1824318D01*
Y480298D01*
X1818973Y680007D02*
X1817704Y678738D01*
Y676198D01*
X1818973Y674929D01*
X1824052D01*
X1825321Y676198D01*
Y678738D01*
X1824052Y680007D01*
X1825321Y682546D02*
Y685086D01*
Y683816D01*
X1817704D01*
X1818973Y682546D01*
X1825321Y688894D02*
Y691433D01*
Y690164D01*
X1817704D01*
X1818973Y688894D01*
X1817704Y695242D02*
X1825321D01*
Y699051D01*
X1824052Y700321D01*
X1822782D01*
X1821512Y699051D01*
Y695242D01*
Y699051D01*
X1820243Y700321D01*
X1818973D01*
X1817704Y699051D01*
Y695242D01*
X1820297Y326054D02*
X1819027Y324785D01*
Y322245D01*
X1820297Y320976D01*
X1825375D01*
X1826645Y322245D01*
Y324785D01*
X1825375Y326054D01*
X1826645Y328593D02*
Y331133D01*
Y329863D01*
X1819027D01*
X1820297Y328593D01*
X1826645Y334941D02*
Y337481D01*
Y336211D01*
X1819027D01*
X1820297Y334941D01*
X1826645Y341289D02*
X1821566D01*
X1819027Y343829D01*
X1821566Y346368D01*
X1826645D01*
X1822836D01*
Y341289D01*
X1791395Y703851D02*
Y711469D01*
X1795204D01*
X1796474Y710199D01*
Y707660D01*
X1795204Y706390D01*
X1791395D01*
X1799013Y710199D02*
X1800282Y711469D01*
X1802822D01*
X1804091Y710199D01*
Y708930D01*
X1802822Y707660D01*
X1801552D01*
X1802822D01*
X1804091Y706390D01*
Y705121D01*
X1802822Y703851D01*
X1800282D01*
X1799013Y705121D01*
X1806630Y711469D02*
Y703851D01*
X1810439D01*
X1811709Y705121D01*
Y706390D01*
X1810439Y707660D01*
X1806630D01*
X1810439D01*
X1811709Y708930D01*
Y710199D01*
X1810439Y711469D01*
X1806630D01*
X1789426Y478731D02*
Y486349D01*
X1793235D01*
X1794505Y485079D01*
Y482540D01*
X1793235Y481271D01*
X1789426D01*
X1797044Y485079D02*
X1798313Y486349D01*
X1800853D01*
X1802122Y485079D01*
Y483810D01*
X1800853Y482540D01*
X1799583D01*
X1800853D01*
X1802122Y481271D01*
Y480001D01*
X1800853Y478731D01*
X1798313D01*
X1797044Y480001D01*
X1804661Y478731D02*
Y483810D01*
X1807200Y486349D01*
X1809740Y483810D01*
Y478731D01*
Y482540D01*
X1804661D01*
X1673593Y477934D02*
Y485552D01*
X1677402D01*
X1678671Y484282D01*
Y481743D01*
X1677402Y480473D01*
X1673593D01*
X1686289Y477934D02*
X1681210D01*
X1686289Y483012D01*
Y484282D01*
X1685019Y485552D01*
X1682480D01*
X1681210Y484282D01*
X1688828Y477934D02*
Y483012D01*
X1691367Y485552D01*
X1693906Y483012D01*
Y477934D01*
Y481743D01*
X1688828D01*
X1121410Y695706D02*
Y703324D01*
X1125219D01*
X1126488Y702054D01*
Y699515D01*
X1125219Y698245D01*
X1121410D01*
X1129027Y695706D02*
X1131567D01*
X1130297D01*
Y703324D01*
X1129027Y702054D01*
X1388335Y571684D02*
X1385795D01*
X1387065D01*
Y565336D01*
X1385795Y564067D01*
X1384526D01*
X1383256Y565336D01*
X1390874Y564067D02*
X1393413D01*
X1392143D01*
Y571684D01*
X1390874Y570415D01*
X1002946Y512922D02*
X1001676Y511652D01*
Y509113D01*
X1002946Y507843D01*
X1008024D01*
X1009294Y509113D01*
Y511652D01*
X1008024Y512922D01*
X1009294Y515461D02*
Y518000D01*
Y516731D01*
X1001676D01*
X1002946Y515461D01*
Y521809D02*
X1001676Y523078D01*
Y525618D01*
X1002946Y526887D01*
X1008024D01*
X1009294Y525618D01*
Y523078D01*
X1008024Y521809D01*
X1002946D01*
X1153249Y458064D02*
X1159596D01*
X1160866Y459334D01*
Y461873D01*
X1159596Y463143D01*
X1153249D01*
X1160866Y469491D02*
X1153249D01*
X1157057Y465682D01*
Y470760D01*
X1470088Y661546D02*
Y669163D01*
X1473897D01*
X1475167Y667894D01*
Y665355D01*
X1473897Y664085D01*
X1470088D01*
X1472628D02*
X1475167Y661546D01*
X1477706D02*
X1480245D01*
X1478976D01*
Y669163D01*
X1477706Y667894D01*
X1384318Y317302D02*
X1383049Y318571D01*
X1380509D01*
X1379240Y317302D01*
Y312224D01*
X1380509Y310954D01*
X1383049D01*
X1384318Y312224D01*
X1390666Y310954D02*
Y318571D01*
X1386857Y314763D01*
X1391936D01*
X1383678Y384824D02*
X1382408Y386094D01*
X1379869D01*
X1378600Y384824D01*
Y379746D01*
X1379869Y378477D01*
X1382408D01*
X1383678Y379746D01*
X1391296Y386094D02*
X1386217D01*
Y382285D01*
X1388757Y383555D01*
X1390026D01*
X1391296Y382285D01*
Y379746D01*
X1390026Y378477D01*
X1387487D01*
X1386217Y379746D01*
X1563643Y490681D02*
X1562373Y491950D01*
X1559834D01*
X1558564Y490681D01*
Y485602D01*
X1559834Y484333D01*
X1562373D01*
X1563643Y485602D01*
X1566182Y490681D02*
X1567451Y491950D01*
X1569991D01*
X1571260Y490681D01*
Y489411D01*
X1569991Y488142D01*
X1568721D01*
X1569991D01*
X1571260Y486872D01*
Y485602D01*
X1569991Y484333D01*
X1567451D01*
X1566182Y485602D01*
X1405325Y397274D02*
Y396004D01*
X1407864Y393465D01*
X1410403Y396004D01*
Y397274D01*
X1407864Y393465D02*
Y389656D01*
X1412943D02*
X1415482D01*
X1414212D01*
Y397274D01*
X1412943Y396004D01*
X1439107Y695899D02*
X1437837Y697168D01*
X1435298D01*
X1434029Y695899D01*
Y690820D01*
X1435298Y689551D01*
X1437837D01*
X1439107Y690820D01*
X1441646Y689551D02*
X1444185D01*
X1442916D01*
Y697168D01*
X1441646Y695899D01*
X1548977Y429435D02*
X1547707Y428165D01*
Y425626D01*
X1548977Y424356D01*
X1554055D01*
X1555325Y425626D01*
Y428165D01*
X1554055Y429435D01*
X1555325Y437052D02*
Y431974D01*
X1550246Y437052D01*
X1548977D01*
X1547707Y435783D01*
Y433243D01*
X1548977Y431974D01*
X1061426Y394921D02*
X1058887D01*
X1060157D01*
Y388573D01*
X1058887Y387304D01*
X1057618D01*
X1056348Y388573D01*
X1063966Y393652D02*
X1065235Y394921D01*
X1067774D01*
X1069044Y393652D01*
Y392382D01*
X1067774Y391113D01*
X1066505D01*
X1067774D01*
X1069044Y389843D01*
Y388573D01*
X1067774Y387304D01*
X1065235D01*
X1063966Y388573D01*
X1169160Y335785D02*
X1166621D01*
X1167891D01*
Y329438D01*
X1166621Y328168D01*
X1165352D01*
X1164082Y329438D01*
X1176778Y328168D02*
X1171700D01*
X1176778Y333246D01*
Y334516D01*
X1175508Y335785D01*
X1172969D01*
X1171700Y334516D01*
D16*
X1383999Y632102D02*
Y634641D01*
X1385268Y635911D01*
X1386538Y634641D01*
Y632102D01*
Y634007D01*
X1383999D01*
X1388442Y635276D02*
Y634641D01*
X1387807D01*
X1389077D01*
X1388442D01*
Y632737D01*
X1389077Y632102D01*
X1390981D02*
Y634641D01*
X1391616D01*
X1392251Y634007D01*
Y632102D01*
Y634007D01*
X1392886Y634641D01*
X1393521Y634007D01*
Y632102D01*
X1396695D02*
X1395425D01*
X1394790Y632737D01*
Y634007D01*
X1395425Y634641D01*
X1396695D01*
X1397329Y634007D01*
Y633372D01*
X1394790D01*
X1398599Y632102D02*
X1399869D01*
X1399234D01*
Y635911D01*
X1398599D01*
X1405582Y632102D02*
Y635911D01*
X1407486D01*
X1408121Y635276D01*
Y634007D01*
X1407486Y633372D01*
X1405582D01*
X1406851D02*
X1408121Y632102D01*
X1411295D02*
X1410025D01*
X1409391Y632737D01*
Y634007D01*
X1410025Y634641D01*
X1411295D01*
X1411930Y634007D01*
Y633372D01*
X1409391D01*
X1413199Y632102D02*
X1415104D01*
X1415739Y632737D01*
X1415104Y633372D01*
X1413834D01*
X1413199Y634007D01*
X1413834Y634641D01*
X1415739D01*
X1418913Y632102D02*
X1417643D01*
X1417008Y632737D01*
Y634007D01*
X1417643Y634641D01*
X1418913D01*
X1419547Y634007D01*
Y633372D01*
X1417008D01*
X1421452Y635276D02*
Y634641D01*
X1420817D01*
X1422086D01*
X1421452D01*
Y632737D01*
X1422086Y632102D01*
X1657500Y291830D02*
X1654807Y294523D01*
X1656602D01*
Y296318D01*
X1659295Y293625D01*
X1659744Y298563D02*
X1658846D01*
X1657949Y297665D01*
Y296767D01*
X1658398Y296318D01*
X1659295D01*
X1660193Y297216D01*
X1661091D01*
X1661540Y296767D01*
Y295869D01*
X1660642Y294972D01*
X1659744D01*
X1660642Y299460D02*
Y300358D01*
X1661540Y301256D01*
X1662437D01*
X1662886Y300807D01*
Y299909D01*
X1662437Y299460D01*
X1662886Y299909D01*
X1663784D01*
X1664233Y299460D01*
Y298563D01*
X1663335Y297665D01*
X1662437D01*
X1657046Y317103D02*
X1654353Y319796D01*
X1656148D01*
Y321591D01*
X1658841Y318898D01*
X1659290Y323836D02*
X1658392D01*
X1657495Y322938D01*
Y322040D01*
X1657944Y321591D01*
X1658841D01*
X1659739Y322489D01*
X1660637D01*
X1661086Y322040D01*
Y321143D01*
X1660188Y320245D01*
X1659290D01*
X1664228Y324285D02*
X1662432Y322489D01*
Y326080D01*
X1661983Y326529D01*
X1661086D01*
X1660188Y325631D01*
Y324734D01*
X1657651Y343133D02*
X1654958Y345826D01*
X1656753D01*
Y347621D01*
X1659447Y344928D01*
X1659895Y349866D02*
X1658998D01*
X1658100Y348968D01*
Y348070D01*
X1658549Y347621D01*
X1659447D01*
X1660344Y348519D01*
X1661242D01*
X1661691Y348070D01*
Y347173D01*
X1660793Y346275D01*
X1659895D01*
X1663038Y348519D02*
X1663935Y349417D01*
X1663486Y348968D01*
X1660793Y351661D01*
Y350764D01*
X1657359Y372289D02*
X1655563Y370494D01*
X1658256Y367801D01*
X1660052Y369596D01*
X1656910Y369147D02*
X1657808Y370045D01*
X1660950Y370494D02*
X1658256Y373187D01*
X1662745Y372289D01*
X1660052Y374982D01*
X1299105Y267194D02*
Y263386D01*
X1301010D01*
X1301644Y264020D01*
Y264655D01*
X1301010Y265290D01*
X1299105D01*
X1301010D01*
X1301644Y265925D01*
Y266559D01*
X1301010Y267194D01*
X1299105D01*
X1304818D02*
X1303549D01*
X1302914Y266559D01*
Y264020D01*
X1303549Y263386D01*
X1304818D01*
X1305453Y264020D01*
Y266559D01*
X1304818Y267194D01*
X1308627D02*
X1307358D01*
X1306723Y266559D01*
Y264020D01*
X1307358Y263386D01*
X1308627D01*
X1309262Y264020D01*
Y266559D01*
X1308627Y267194D01*
X1310532D02*
X1313071D01*
X1311801D01*
Y263386D01*
X1280220Y687358D02*
Y691167D01*
X1282124D01*
X1282759Y690532D01*
Y689263D01*
X1282124Y688628D01*
X1280220D01*
X1281489D02*
X1282759Y687358D01*
X1284028Y690532D02*
X1284663Y691167D01*
X1285933D01*
X1286568Y690532D01*
Y689898D01*
X1285933Y689263D01*
X1286568Y688628D01*
Y687993D01*
X1285933Y687358D01*
X1284663D01*
X1284028Y687993D01*
Y688628D01*
X1284663Y689263D01*
X1284028Y689898D01*
Y690532D01*
X1284663Y689263D02*
X1285933D01*
X1251634Y686777D02*
Y690586D01*
X1253538D01*
X1254173Y689951D01*
Y688682D01*
X1253538Y688047D01*
X1251634D01*
X1252903D02*
X1254173Y686777D01*
X1255443Y690586D02*
X1257982D01*
Y689951D01*
X1255443Y687412D01*
Y686777D01*
D17*
X1633546Y412356D02*
X1632699Y413202D01*
X1631006D01*
X1630160Y412356D01*
Y411509D01*
X1631006Y410663D01*
X1632699D01*
X1633546Y409817D01*
Y408970D01*
X1632699Y408124D01*
X1631006D01*
X1630160Y408970D01*
X1636085Y412356D02*
Y411509D01*
X1635238D01*
X1636931D01*
X1636085D01*
Y408970D01*
X1636931Y408124D01*
X1640317Y411509D02*
X1642009D01*
X1642856Y410663D01*
Y408124D01*
X1640317D01*
X1639470Y408970D01*
X1640317Y409817D01*
X1642856D01*
X1645395Y412356D02*
Y411509D01*
X1644549D01*
X1646241D01*
X1645395D01*
Y408970D01*
X1646241Y408124D01*
X1648781Y411509D02*
Y408970D01*
X1649627Y408124D01*
X1652166D01*
Y411509D01*
X1653859Y408124D02*
X1656398D01*
X1657245Y408970D01*
X1656398Y409817D01*
X1654705D01*
X1653859Y410663D01*
X1654705Y411509D01*
X1657245D01*
D18*
X1657185Y518334D02*
X1654153Y521366D01*
X1656174D01*
Y523388D01*
X1659207Y520356D01*
X1659712Y525915D02*
X1658701D01*
X1657690Y524904D01*
X1657690Y523894D01*
X1658196Y523388D01*
X1659207Y523388D01*
X1660217Y524399D01*
X1661228Y524399D01*
X1661734Y523894D01*
Y522883D01*
X1660723Y521872D01*
X1659712D01*
X1660723Y526926D02*
X1660723Y527937D01*
X1661734Y528948D01*
X1662745D01*
X1663250Y528442D01*
Y527431D01*
X1662745Y526926D01*
X1663250Y527431D01*
X1664261Y527431D01*
X1664766Y526926D01*
Y525915D01*
X1663755Y524904D01*
X1662745D01*
X1657622Y544100D02*
X1654589Y547132D01*
X1656611D01*
Y549154D01*
X1659643Y546122D01*
X1660149Y551681D02*
X1659138D01*
X1658127Y550670D01*
X1658127Y549660D01*
X1658633Y549154D01*
X1659643Y549154D01*
X1660654Y550165D01*
X1661665Y550165D01*
X1662171Y549660D01*
Y548649D01*
X1661160Y547638D01*
X1660149D01*
X1665708Y552187D02*
X1663687Y550165D01*
Y554208D01*
X1663181Y554714D01*
X1662171D01*
X1661160Y553703D01*
X1661160Y552692D01*
X1656611Y598939D02*
X1654589Y596918D01*
X1657622Y593885D01*
X1659643Y595907D01*
X1656105Y595401D02*
X1657116Y596412D01*
X1660654Y596918D02*
X1657622Y599950D01*
X1662676Y598939D01*
X1659643Y601972D01*
X1657767Y569866D02*
X1654735Y572898D01*
X1656756D01*
Y574920D01*
X1659789Y571888D01*
X1660294Y577447D02*
X1659284D01*
X1658273Y576437D01*
X1658273Y575426D01*
X1658778Y574920D01*
X1659789Y574920D01*
X1660800Y575931D01*
X1661811Y575931D01*
X1662316Y575426D01*
Y574415D01*
X1661305Y573404D01*
X1660294D01*
X1663832Y575931D02*
X1664843Y576942D01*
X1664338Y576437D01*
X1661305Y579469D01*
X1661305Y578458D01*
D19*
X1181721Y633544D02*
X1176642D01*
Y625926D01*
X1181721D01*
X1176642Y629735D02*
X1179182D01*
X1189338Y632274D02*
X1188069Y633544D01*
X1185529D01*
X1184260Y632274D01*
Y631004D01*
X1185529Y629735D01*
X1188069D01*
X1189338Y628465D01*
Y627196D01*
X1188069Y625926D01*
X1185529D01*
X1184260Y627196D01*
X1191878Y625926D02*
Y633544D01*
X1195686D01*
X1196956Y632274D01*
Y629735D01*
X1195686Y628465D01*
X1191878D01*
X1199495Y632274D02*
X1200765Y633544D01*
X1203304D01*
X1204573Y632274D01*
Y631004D01*
X1203304Y629735D01*
X1202034D01*
X1203304D01*
X1204573Y628465D01*
Y627196D01*
X1203304Y625926D01*
X1200765D01*
X1199495Y627196D01*
X1212191Y625926D02*
X1207113D01*
X1212191Y631004D01*
Y632274D01*
X1210921Y633544D01*
X1208382D01*
X1207113Y632274D01*
D20*
X1130979Y574852D02*
X1130027Y575804D01*
X1128123D01*
X1127171Y574852D01*
Y571043D01*
X1128123Y570091D01*
X1130027D01*
X1130979Y571043D01*
X1132884Y575804D02*
X1136693D01*
Y574852D01*
X1132884Y571043D01*
Y570091D01*
X1107803Y574968D02*
X1106851Y575920D01*
X1104947D01*
X1103995Y574968D01*
Y571160D01*
X1104947Y570207D01*
X1106851D01*
X1107803Y571160D01*
X1109708Y570207D02*
X1111612D01*
X1110660D01*
Y575920D01*
X1109708Y574968D01*
X1118278Y575920D02*
X1114469D01*
Y573064D01*
X1116373Y574016D01*
X1117325D01*
X1118278Y573064D01*
Y571160D01*
X1117325Y570207D01*
X1115421D01*
X1114469Y571160D01*
X1136072Y515891D02*
X1135120Y514939D01*
Y513035D01*
X1136072Y512083D01*
X1139881D01*
X1140833Y513035D01*
Y514939D01*
X1139881Y515891D01*
X1140833Y517796D02*
Y519700D01*
Y518748D01*
X1135120D01*
X1136072Y517796D01*
X1140833Y525413D02*
X1135120D01*
X1137977Y522557D01*
Y526366D01*
X1075108Y512740D02*
X1074156Y511788D01*
Y509884D01*
X1075108Y508932D01*
X1078917D01*
X1079869Y509884D01*
Y511788D01*
X1078917Y512740D01*
X1079869Y514645D02*
Y516549D01*
Y515597D01*
X1074156D01*
X1075108Y514645D01*
Y519406D02*
X1074156Y520358D01*
Y522262D01*
X1075108Y523214D01*
X1076060D01*
X1077012Y522262D01*
Y521310D01*
Y522262D01*
X1077964Y523214D01*
X1078917D01*
X1079869Y522262D01*
Y520358D01*
X1078917Y519406D01*
X1086899Y567253D02*
X1085947Y568205D01*
X1084043D01*
X1083090Y567253D01*
Y563444D01*
X1084043Y562492D01*
X1085947D01*
X1086899Y563444D01*
X1088803Y562492D02*
X1090708D01*
X1089756D01*
Y568205D01*
X1088803Y567253D01*
X1097373Y562492D02*
X1093564D01*
X1097373Y566300D01*
Y567253D01*
X1096421Y568205D01*
X1094517D01*
X1093564Y567253D01*
X992264Y546556D02*
X991312Y545604D01*
Y543700D01*
X992264Y542747D01*
X996073D01*
X997025Y543700D01*
Y545604D01*
X996073Y546556D01*
Y548461D02*
X997025Y549413D01*
Y551317D01*
X996073Y552269D01*
X992264D01*
X991312Y551317D01*
Y549413D01*
X992264Y548461D01*
X993216D01*
X994168Y549413D01*
Y552269D01*
M02*
