G04*
G04 #@! TF.GenerationSoftware,Altium Limited,Altium Designer,24.2.2 (26)*
G04*
G04 Layer_Color=8388736*
%FSLAX44Y44*%
%MOMM*%
G71*
G04*
G04 #@! TF.SameCoordinates,697C3EBA-3636-4A45-A11A-30362066544D*
G04*
G04*
G04 #@! TF.FilePolarity,Negative*
G04*
G01*
G75*
%ADD21R,1.2621X0.8581*%
%ADD22R,1.3300X1.3300*%
%ADD23R,0.9000X2.0000*%
%ADD24R,2.0000X0.9000*%
G04:AMPARAMS|DCode=25|XSize=1.0043mm|YSize=3.1821mm|CornerRadius=0.4369mm|HoleSize=0mm|Usage=FLASHONLY|Rotation=270.000|XOffset=0mm|YOffset=0mm|HoleType=Round|Shape=RoundedRectangle|*
%AMROUNDEDRECTD25*
21,1,1.0043,2.3084,0,0,270.0*
21,1,0.1306,3.1821,0,0,270.0*
1,1,0.8737,-1.1542,-0.0653*
1,1,0.8737,-1.1542,0.0653*
1,1,0.8737,1.1542,0.0653*
1,1,0.8737,1.1542,-0.0653*
%
%ADD25ROUNDEDRECTD25*%
G04:AMPARAMS|DCode=26|XSize=1.0043mm|YSize=0.8721mm|CornerRadius=0.4361mm|HoleSize=0mm|Usage=FLASHONLY|Rotation=270.000|XOffset=0mm|YOffset=0mm|HoleType=Round|Shape=RoundedRectangle|*
%AMROUNDEDRECTD26*
21,1,1.0043,0.0000,0,0,270.0*
21,1,0.1322,0.8721,0,0,270.0*
1,1,0.8721,0.0000,-0.0661*
1,1,0.8721,0.0000,0.0661*
1,1,0.8721,0.0000,0.0661*
1,1,0.8721,0.0000,-0.0661*
%
%ADD26ROUNDEDRECTD26*%
%ADD27R,0.8721X1.0043*%
%ADD32R,1.8062X1.3046*%
%ADD36R,1.3500X0.9500*%
%ADD37R,1.3046X1.8062*%
%ADD39R,0.6000X1.0000*%
%ADD40R,0.4500X1.0000*%
%ADD41R,0.3000X1.0000*%
%ADD42R,1.7500X3.3500*%
%ADD43R,1.0000X1.5000*%
%ADD44R,1.2500X1.5000*%
%ADD45R,1.5000X1.2500*%
%ADD46R,1.3500X1.6000*%
%ADD47R,1.3500X1.3500*%
%ADD48R,1.1500X1.5000*%
%ADD49R,1.5000X1.1500*%
%ADD50C,0.9000*%
%ADD51C,1.7500*%
G04:AMPARAMS|DCode=52|XSize=1.75mm|YSize=1.75mm|CornerRadius=0.475mm|HoleSize=0mm|Usage=FLASHONLY|Rotation=270.000|XOffset=0mm|YOffset=0mm|HoleType=Round|Shape=RoundedRectangle|*
%AMROUNDEDRECTD52*
21,1,1.7500,0.8000,0,0,270.0*
21,1,0.8000,1.7500,0,0,270.0*
1,1,0.9500,-0.4000,-0.4000*
1,1,0.9500,-0.4000,0.4000*
1,1,0.9500,0.4000,0.4000*
1,1,0.9500,0.4000,-0.4000*
%
%ADD52ROUNDEDRECTD52*%
G04:AMPARAMS|DCode=53|XSize=1.75mm|YSize=1.75mm|CornerRadius=0.475mm|HoleSize=0mm|Usage=FLASHONLY|Rotation=180.000|XOffset=0mm|YOffset=0mm|HoleType=Round|Shape=RoundedRectangle|*
%AMROUNDEDRECTD53*
21,1,1.7500,0.8000,0,0,180.0*
21,1,0.8000,1.7500,0,0,180.0*
1,1,0.9500,-0.4000,0.4000*
1,1,0.9500,0.4000,0.4000*
1,1,0.9500,0.4000,-0.4000*
1,1,0.9500,-0.4000,-0.4000*
%
%ADD53ROUNDEDRECTD53*%
%ADD54C,1.6500*%
%ADD55R,1.6500X1.6500*%
%ADD56C,1.5500*%
%ADD57R,1.5500X1.5500*%
%ADD58C,1.4000*%
%ADD59R,1.4000X1.4000*%
%ADD60R,1.2900X1.2900*%
%ADD61C,1.2900*%
%ADD62C,1.3500*%
%ADD63R,1.3500X1.3500*%
%ADD64R,1.5700X1.5700*%
%ADD65C,1.5700*%
G04:AMPARAMS|DCode=66|XSize=4.15mm|YSize=1.95mm|CornerRadius=0.525mm|HoleSize=0mm|Usage=FLASHONLY|Rotation=270.000|XOffset=0mm|YOffset=0mm|HoleType=Round|Shape=RoundedRectangle|*
%AMROUNDEDRECTD66*
21,1,4.1500,0.9000,0,0,270.0*
21,1,3.1000,1.9500,0,0,270.0*
1,1,1.0500,-0.4500,-1.5500*
1,1,1.0500,-0.4500,1.5500*
1,1,1.0500,0.4500,1.5500*
1,1,1.0500,0.4500,-1.5500*
%
%ADD66ROUNDEDRECTD66*%
G04:AMPARAMS|DCode=67|XSize=4.15mm|YSize=1.95mm|CornerRadius=0.525mm|HoleSize=0mm|Usage=FLASHONLY|Rotation=180.000|XOffset=0mm|YOffset=0mm|HoleType=Round|Shape=RoundedRectangle|*
%AMROUNDEDRECTD67*
21,1,4.1500,0.9000,0,0,180.0*
21,1,3.1000,1.9500,0,0,180.0*
1,1,1.0500,-1.5500,0.4500*
1,1,1.0500,1.5500,0.4500*
1,1,1.0500,1.5500,-0.4500*
1,1,1.0500,-1.5500,-0.4500*
%
%ADD67ROUNDEDRECTD67*%
G04:AMPARAMS|DCode=68|XSize=1.1mm|YSize=2.05mm|CornerRadius=0.55mm|HoleSize=0mm|Usage=FLASHONLY|Rotation=0.000|XOffset=0mm|YOffset=0mm|HoleType=Round|Shape=RoundedRectangle|*
%AMROUNDEDRECTD68*
21,1,1.1000,0.9500,0,0,0.0*
21,1,0.0000,2.0500,0,0,0.0*
1,1,1.1000,0.0000,-0.4750*
1,1,1.1000,0.0000,-0.4750*
1,1,1.1000,0.0000,0.4750*
1,1,1.1000,0.0000,0.4750*
%
%ADD68ROUNDEDRECTD68*%
%ADD69R,1.5500X1.5500*%
%ADD70C,5.2000*%
%ADD71C,1.4200*%
%ADD72C,0.7500*%
G36*
X1174931Y312789D02*
X1176592Y312227D01*
X1177996Y311177D01*
X1178500Y310460D01*
X1178500Y310460D01*
Y298640D01*
X1177996Y297923D01*
X1176592Y296873D01*
X1174931Y296311D01*
X1173179Y296294D01*
X1171507Y296822D01*
X1170082Y297844D01*
X1169046Y299258D01*
X1168500Y300924D01*
X1168500Y301800D01*
X1168500D01*
Y307300D01*
X1168500Y308176D01*
X1169046Y309842D01*
X1170082Y311256D01*
X1171507Y312278D01*
X1173179Y312806D01*
X1174931Y312789D01*
D02*
G37*
G36*
X1266893Y312278D02*
X1268318Y311256D01*
X1269354Y309842D01*
X1269900Y308176D01*
X1269900Y307300D01*
X1269900Y301800D01*
X1269900D01*
X1269900Y300924D01*
X1269354Y299258D01*
X1268318Y297844D01*
X1266893Y296822D01*
X1265221Y296294D01*
X1263468Y296311D01*
X1261808Y296873D01*
X1260404Y297923D01*
X1259900Y298640D01*
X1259900Y310460D01*
Y310460D01*
X1260404Y311177D01*
X1261808Y312227D01*
X1263468Y312789D01*
X1265221Y312806D01*
X1266893Y312278D01*
D02*
G37*
D21*
X1253643Y663910D02*
D03*
Y679450D02*
D03*
X1282700Y663910D02*
D03*
Y679450D02*
D03*
D22*
X1275900Y452750D02*
D03*
X1257550D02*
D03*
X1239200D02*
D03*
X1275900Y471100D02*
D03*
X1257550D02*
D03*
X1239200D02*
D03*
X1275900Y489450D02*
D03*
X1257550D02*
D03*
X1239200D02*
D03*
D23*
X1324700Y371000D02*
D03*
X1312000D02*
D03*
X1299300D02*
D03*
X1286600D02*
D03*
X1273900D02*
D03*
X1261200D02*
D03*
X1248500D02*
D03*
X1235800D02*
D03*
X1223100D02*
D03*
X1210400D02*
D03*
D24*
X1352550Y546100D02*
D03*
Y533400D02*
D03*
Y520700D02*
D03*
Y508000D02*
D03*
Y495300D02*
D03*
Y482600D02*
D03*
Y469900D02*
D03*
Y457200D02*
D03*
Y444500D02*
D03*
Y431800D02*
D03*
Y419100D02*
D03*
Y406400D02*
D03*
Y393700D02*
D03*
Y381000D02*
D03*
X1182550D02*
D03*
Y393700D02*
D03*
Y406400D02*
D03*
Y419100D02*
D03*
Y431800D02*
D03*
Y444500D02*
D03*
Y457200D02*
D03*
Y469900D02*
D03*
Y482600D02*
D03*
Y495300D02*
D03*
Y508000D02*
D03*
Y520700D02*
D03*
Y533400D02*
D03*
Y546100D02*
D03*
D25*
X1115545Y429655D02*
D03*
X1039554Y429296D02*
D03*
D26*
X1092645Y495555D02*
D03*
X1115545D02*
D03*
X1039554Y495196D02*
D03*
X1016654D02*
D03*
D27*
X1138445Y495555D02*
D03*
X1062454Y495196D02*
D03*
D32*
X1568450Y439458D02*
D03*
Y411442D02*
D03*
X1439283Y648404D02*
D03*
Y676420D02*
D03*
D36*
X1385017Y352968D02*
D03*
Y367969D02*
D03*
Y284268D02*
D03*
Y299269D02*
D03*
D37*
X1059056Y547047D02*
D03*
X1087071D02*
D03*
X1037047D02*
D03*
X1009031D02*
D03*
X1095292Y519062D02*
D03*
X1123308D02*
D03*
X1142172Y401890D02*
D03*
X1114156D02*
D03*
X1116668Y589385D02*
D03*
X1144684D02*
D03*
D39*
X1344938Y275209D02*
D03*
X1307938D02*
D03*
X1344938Y319209D02*
D03*
X1307938D02*
D03*
X1528789Y712239D02*
D03*
X1565789D02*
D03*
X1528789Y668239D02*
D03*
X1565789D02*
D03*
X1392650Y623199D02*
D03*
X1429650D02*
D03*
X1392650Y579199D02*
D03*
X1429650D02*
D03*
D40*
X1351688Y297209D02*
D03*
X1301188D02*
D03*
X1522039Y690239D02*
D03*
X1572539D02*
D03*
X1385900Y601199D02*
D03*
X1436400D02*
D03*
D41*
X1181700Y308550D02*
D03*
X1256700D02*
D03*
X1186700D02*
D03*
X1251700D02*
D03*
X1191700D02*
D03*
X1246700D02*
D03*
X1196700D02*
D03*
X1241700D02*
D03*
X1201700D02*
D03*
X1236700D02*
D03*
X1206700D02*
D03*
X1231700D02*
D03*
X1211700D02*
D03*
X1226700D02*
D03*
X1221700D02*
D03*
X1216700D02*
D03*
D42*
X1861776Y636746D02*
D03*
Y686746D02*
D03*
X1863630Y283229D02*
D03*
Y333229D02*
D03*
D43*
X1539789Y649290D02*
D03*
X1523289D02*
D03*
X1320653Y340687D02*
D03*
X1337153D02*
D03*
D44*
X1568431Y649290D02*
D03*
X1553931D02*
D03*
X1064176Y515854D02*
D03*
X1050176D02*
D03*
X1033089D02*
D03*
X1019089D02*
D03*
D45*
X1564669Y475077D02*
D03*
Y461077D02*
D03*
X1355497Y350371D02*
D03*
Y335871D02*
D03*
X1130676Y562151D02*
D03*
Y548152D02*
D03*
X1110486Y562151D02*
D03*
Y548152D02*
D03*
X1151244Y528605D02*
D03*
Y514605D02*
D03*
X1090608Y394890D02*
D03*
Y408890D02*
D03*
D46*
X1593194Y431961D02*
D03*
X1613194D02*
D03*
X1484867Y651131D02*
D03*
X1464867D02*
D03*
D47*
X1614328Y409890D02*
D03*
X1593328D02*
D03*
D48*
X1303038Y340687D02*
D03*
X1285038D02*
D03*
D49*
X1151733Y546152D02*
D03*
Y564152D02*
D03*
D50*
X1173500Y304550D02*
D03*
X1264900D02*
D03*
D51*
X1680438Y505975D02*
D03*
Y531375D02*
D03*
Y582174D02*
D03*
Y632975D02*
D03*
Y658374D02*
D03*
Y607575D02*
D03*
Y556774D02*
D03*
X1375327Y673633D02*
D03*
X1349927D02*
D03*
X1324527D02*
D03*
X1801681Y683536D02*
D03*
Y658136D02*
D03*
Y607336D02*
D03*
Y556536D02*
D03*
Y531136D02*
D03*
Y581936D02*
D03*
Y632736D02*
D03*
X1683927Y279650D02*
D03*
Y305049D02*
D03*
Y355849D02*
D03*
Y406650D02*
D03*
Y432049D02*
D03*
Y381250D02*
D03*
Y330449D02*
D03*
X1802378Y459322D02*
D03*
Y433922D02*
D03*
Y383121D02*
D03*
Y332322D02*
D03*
Y306922D02*
D03*
Y357721D02*
D03*
Y408521D02*
D03*
X1162076Y673633D02*
D03*
X1187476D02*
D03*
X1212876D02*
D03*
D52*
X1680438Y683774D02*
D03*
X1801681Y505736D02*
D03*
X1683927Y457449D02*
D03*
X1802378Y281521D02*
D03*
D53*
X1400727Y673633D02*
D03*
X1136676D02*
D03*
D54*
X1539240Y290830D02*
D03*
Y341630D02*
D03*
Y367030D02*
D03*
Y392430D02*
D03*
Y417830D02*
D03*
Y443230D02*
D03*
Y468630D02*
D03*
Y494030D02*
D03*
Y519430D02*
D03*
Y544830D02*
D03*
Y570230D02*
D03*
Y595630D02*
D03*
Y621030D02*
D03*
X1463040Y290830D02*
D03*
Y316230D02*
D03*
Y341630D02*
D03*
Y367030D02*
D03*
Y392430D02*
D03*
Y417830D02*
D03*
Y443230D02*
D03*
Y468630D02*
D03*
Y494030D02*
D03*
Y519430D02*
D03*
Y544830D02*
D03*
Y570230D02*
D03*
Y595630D02*
D03*
X1539240Y316230D02*
D03*
D55*
X1463040Y621030D02*
D03*
D56*
X1022626Y343908D02*
D03*
X1084958Y607850D02*
D03*
X1008757D02*
D03*
Y582450D02*
D03*
D57*
X1022626Y368908D02*
D03*
D58*
X1855995Y591873D02*
D03*
Y566873D02*
D03*
Y541873D02*
D03*
X1855589Y461210D02*
D03*
Y436210D02*
D03*
Y411210D02*
D03*
D59*
X1855995Y516873D02*
D03*
X1855589Y386210D02*
D03*
D60*
X1568450Y368300D02*
D03*
Y596900D02*
D03*
D61*
Y342900D02*
D03*
Y317500D02*
D03*
Y292100D02*
D03*
X1644650D02*
D03*
Y317500D02*
D03*
Y342900D02*
D03*
Y368300D02*
D03*
X1568450Y571500D02*
D03*
Y546100D02*
D03*
Y520700D02*
D03*
X1644650D02*
D03*
Y546100D02*
D03*
Y571500D02*
D03*
Y596900D02*
D03*
D62*
X1425128Y304930D02*
D03*
D63*
Y353730D02*
D03*
D64*
X1424200Y427037D02*
D03*
X1423850Y520636D02*
D03*
D65*
X1424200Y452437D02*
D03*
Y477837D02*
D03*
X1398800Y427037D02*
D03*
Y452437D02*
D03*
Y477837D02*
D03*
X1398450Y546036D02*
D03*
X1423850D02*
D03*
X1398450Y520636D02*
D03*
D66*
X1150233Y342851D02*
D03*
D67*
X1102233Y314851D02*
D03*
Y372851D02*
D03*
D68*
X1174000Y274550D02*
D03*
X1264400D02*
D03*
D69*
X1084958Y582450D02*
D03*
D70*
X1930400Y285750D02*
D03*
Y692150D02*
D03*
X1619250Y673100D02*
D03*
X1003300Y285750D02*
D03*
Y692150D02*
D03*
D71*
X1060450Y336550D02*
D03*
D72*
X1297309Y676164D02*
D03*
X1240212Y658527D02*
D03*
X1333500Y641350D02*
D03*
X1498600Y647700D02*
D03*
M02*
