M48
;Layer_Color=9474304
;FILE_FORMAT=4:4
METRIC,LZ
;TYPE=PLATED
T01F00S00C0.3000
T02F00S00C0.3555
T03F00S00C0.3556
T05F00S00C0.7000
T06F00S00C0.7112
T07F00S00C0.7900
T09F00S00C0.9000
T10F00S00C1.0000
T11F00S00C1.0200
T12F00S00C1.1000
T13F00S00C2.9972
%
T01
X01061721Y00358229
X01212701Y00520551
X0132715Y00508
X01370051Y0051756
X0141605Y004953
X013335Y0064135
X01297309Y00676164
X01240212Y00658527
X014986Y006477
X01539431Y0063707
X01111135Y00536335
T02
X011303Y0037465
X01143
X011557
X011684Y0036195
X011811Y0034925
X01190219Y00339683
X01200168Y00329947
X01214718Y00329199
X01231301Y00330054
X01245957Y00329841
X01259044Y0033008
X0127186Y00327103
X01280404Y00319595
X01285841Y0031131
X01286229Y00297718
X0128597Y00283737
X01289983Y00271698
X01298268Y00263155
X01309918Y00261213
X01324417Y00261083
X01337103Y00261083
X01349401Y00261472
X01361051Y00261213
X01373359Y00261011
X01387857Y00260882
X01400543Y00260882
X01412841Y0026127
X01424492Y00261011
X01436918Y00261213
X01451417Y00261083
X01464103Y00261083
X01476401Y00261472
X01488051Y00261213
X01500418
X01514917Y00261083
X01527603Y00261083
X01539901Y00261472
X01551551Y00261213
X01563918
X01578417Y00261083
X01591103Y00261083
X01603401Y00261472
X01615051Y00261213
X01627418
X01641917Y00261083
X01654603Y00261083
X01666901Y00261472
X01678551Y00261213
X01690918
X01705417Y00261083
X01718103Y00261083
X01730401Y00261472
X01742051Y00261213
X01754418
X01768917Y00261083
X01781603Y00261083
X01793901Y00261472
X01805551Y00261213
X01818068Y00262506
X01830951Y00273913
X01837148Y002836
X01835488Y00295688
X01841888Y00312279
X01853383Y00321049
X01877309Y00350873
X01880027Y00369462
X01880679Y00381529
X01880353Y00394248
X01879048Y00406858
X01880027Y00425447
Y00434143
X01880462Y00446862
X01879198Y00456559
X01878871Y00469278
X01877567Y00481888
X01870292Y00489238
X01852359Y00489829
X01839944Y00487465
X018228Y00478006
X01811954Y0046814
X01878545Y00500477
Y00509173
X0187898Y00521892
X01879904Y00529052
X01879578Y0054177
X01878273Y0055438
X01879252Y00572969
Y00581666
X01879686Y00594385
X01881696Y00606025
X01880392Y00618635
X0188137Y00637224
Y00645921
X018796Y006604
X01874108Y006671
X01841435Y00690382
X01819077Y00691046
T03
X009906Y002667
X01016
X010414
X010668
X010922
X011176
X01143
X011557Y002921
X011303
X011049
X010795
X010541
X010287
X010414Y003175
X010668
X01016
X009906
X010033Y003429
X009906Y003683
X010033Y003937
X010541
X010414Y003683
X011303Y003429
X011684Y003175
X011938Y003683
X013081Y003937
X013335
X013716Y003683
X01397
X013843Y003429
X01397Y003175
X014224
X014351Y003429
X014859
X015113
Y002921
X014351
X013589
X013716Y003175
X013208
X013081Y002921
X015875
X016002Y003175
X016129Y003429
X015875
Y003937
X016129
X016383
X016256Y003683
X017018
X017272
X017526
X017653Y003937
X017907
Y003429
X017653
X017399
X017145
X017272Y003175
X017526
X01778
X017907Y002921
X018161
X018288Y003175
X018415Y003429
X018288Y003683
X01905
X019304
X019431Y003937
X019177
X018923
Y003429
X019177
X019431
X019304Y003175
X01905
X018796
X018923Y002921
X01905Y002667
X018796
X017653Y002921
X017399
X017145
X016891
X016637
X017018Y003175
X017145Y003937
X017399
X016891
X017018Y004191
X017272
X017526
X017653Y004445
X017907
X018161
X018669
X018923
X019177
X019431
X019304Y004699
X019431Y004953
X019177
X018923
Y005461
X019177
X019431
X019304Y005715
X019431Y005969
X019304Y006223
X01905
X019177Y006477
X019431
X018923
X01905Y006731
X018288
X018415Y006477
X018161
X017907
X017653
X017399
X017145
X016891
X016637
X016383
X016129
X015875
X016002Y006223
X016256
X016129Y005969
X015875
X016002Y005715
X016256
X016129Y005461
X015875
X016256Y005207
X016383Y004953
X016637
X016891
X017145
X017399
X017653
X017907
X018161
X018288Y005207
X018161Y005461
X017907
X017653
X017399
X017145
X016891
X017018Y005715
X017272
X017526
X01778
X017907Y005969
X018161
X018669
X018923
X018669Y005461
X019304Y005207
Y004191
X017399Y004445
X017145
X016891
X017018Y004699
X017272
X017526
X016764
X016383Y004445
X016129
X015875
X016002Y004699
X016891Y005969
X017145
X017399
X017653
X01778Y006223
X017526
X017272
X017018
Y006731
X017272
X017526
X01778
X01651
X015748
X015494
X014986
X014732
X015113Y006477
X014986Y006223
X014859Y005969
X014986Y005715
X01524
X015113Y005461
X014859
X014986Y005207
X01524
Y004699
X015113Y004445
X01524Y004191
X015621Y004953
X014859
X013843
X013716Y004699
X013843Y004445
X013716Y004191
X013208
X012954
X0127
X012446
X012192
X012065Y004445
X012192Y004699
X012065Y004953
Y005461
X012446Y005207
X0127
X012954
X013208
X013335Y004953
X013081
X013208Y004699
X012954
X013081Y004445
X013335
X014224Y005715
X014478
Y006223
X015748
X0127Y006731
X012319Y006477
X011811
X011557
X011684Y006223
X01143
X011176
X010922
X010668
X010414
X010541Y006477
X010795
X011049
X011176Y006731
X010922
X010414
X01016
X009906
X010033Y006477
X010287
Y005969
X010541
X010414Y005715
X01016
X009906
Y006223
Y005207
X010033Y004953
X010287
X010795
X011049
X010922Y004699
X010668
X010795Y004445
X011049
X011557
X01143Y004191
X010668
X010414
X010541Y004445
X010287
X010033
X009906Y004699
Y004191
X011557Y004953
X011684Y005715
X011557Y005969
X011049
T05
X01425128Y0030493
Y0035373
T06
X0106045Y0033655
X01906709Y00388191
Y00407241
Y00426291
Y00445341
Y00464391
X01907411Y00516192
X01907769Y00537823
Y00556873
Y00575923
Y00594973
T07
X0156845Y002921
Y003175
Y003429
Y003683
X0164465
Y003429
Y003175
Y002921
Y005207
Y005461
Y005715
Y005969
X0156845
Y005715
Y005461
Y005207
T09
X0146304Y0029083
Y0031623
Y0034163
Y0036703
Y0039243
X0153924
Y0036703
Y0034163
Y0031623
Y0029083
X01855589Y0038621
Y0041121
Y0043621
Y0046121
X01855995Y00516873
Y00541873
Y00566873
Y00591873
X0153924Y0059563
Y0057023
Y0054483
Y0051943
Y0049403
Y0046863
Y0044323
Y0041783
X0146304
Y0044323
Y0046863
Y0049403
Y0051943
Y0054483
Y0057023
Y0059563
Y0062103
X0153924
T10
X01022626Y00343908
Y00368908
X01008757Y0058245
Y0060785
X01084958
Y0058245
T11
X013988Y00427037
X014242
Y00452437
Y00477837
X013988
Y00452437
X0139845Y00520636
Y00546036
X0142385
Y00520636
T12
X01683927Y0027965
Y00305049
Y00330449
Y00355849
Y0038125
X01802378Y00383121
Y00357721
Y00332322
Y00306922
Y00281521
Y00408521
Y00433922
Y00459322
X01801681Y00505736
Y00531136
Y00556536
Y00581936
Y00607336
Y00632736
Y00658136
Y00683536
X01680438Y00683774
Y00658374
Y00632975
Y00607575
Y00582174
Y00556774
Y00531375
Y00505975
X01683927Y00457449
Y00432049
Y0040665
X01400727Y00673633
X01375327
X01349927
X01324527
X01212876
X01187476
X01162076
X01136676
T13
X010033Y0028575
X019304
Y0069215
X0161925Y006731
X010033Y0069215
M30
