G04*
G04 #@! TF.GenerationSoftware,Altium Limited,Altium Designer,24.2.2 (26)*
G04*
G04 Layer_Physical_Order=1*
G04 Layer_Color=255*
%FSLAX44Y44*%
%MOMM*%
G71*
G04*
G04 #@! TF.SameCoordinates,697C3EBA-3636-4A45-A11A-30362066544D*
G04*
G04*
G04 #@! TF.FilePolarity,Positive*
G04*
G01*
G75*
%ADD13C,0.2540*%
%ADD14C,0.4000*%
%ADD21R,1.2621X0.8581*%
%ADD22R,1.3300X1.3300*%
%ADD23R,0.9000X2.0000*%
%ADD24R,2.0000X0.9000*%
G04:AMPARAMS|DCode=25|XSize=1.0043mm|YSize=3.1821mm|CornerRadius=0.4369mm|HoleSize=0mm|Usage=FLASHONLY|Rotation=270.000|XOffset=0mm|YOffset=0mm|HoleType=Round|Shape=RoundedRectangle|*
%AMROUNDEDRECTD25*
21,1,1.0043,2.3084,0,0,270.0*
21,1,0.1306,3.1821,0,0,270.0*
1,1,0.8737,-1.1542,-0.0653*
1,1,0.8737,-1.1542,0.0653*
1,1,0.8737,1.1542,0.0653*
1,1,0.8737,1.1542,-0.0653*
%
%ADD25ROUNDEDRECTD25*%
G04:AMPARAMS|DCode=26|XSize=1.0043mm|YSize=0.8721mm|CornerRadius=0.4361mm|HoleSize=0mm|Usage=FLASHONLY|Rotation=270.000|XOffset=0mm|YOffset=0mm|HoleType=Round|Shape=RoundedRectangle|*
%AMROUNDEDRECTD26*
21,1,1.0043,0.0000,0,0,270.0*
21,1,0.1322,0.8721,0,0,270.0*
1,1,0.8721,0.0000,-0.0661*
1,1,0.8721,0.0000,0.0661*
1,1,0.8721,0.0000,0.0661*
1,1,0.8721,0.0000,-0.0661*
%
%ADD26ROUNDEDRECTD26*%
%ADD27R,0.8721X1.0043*%
%ADD28R,1.6000X3.2000*%
%ADD29R,0.8500X1.3500*%
%ADD30R,1.1000X1.3500*%
%ADD31R,1.3500X1.1000*%
%ADD32R,1.8062X1.3046*%
%ADD33R,1.2000X1.4500*%
%ADD34R,1.2000X1.2000*%
%ADD35R,1.0000X1.3500*%
%ADD36R,1.3500X0.9500*%
%ADD37R,1.3046X1.8062*%
%ADD38R,1.3500X1.0000*%
%ADD39R,0.6000X1.0000*%
%ADD40R,0.4500X1.0000*%
%ADD41R,0.3000X1.0000*%
%ADD50C,0.9000*%
%ADD56C,1.5500*%
%ADD57R,1.5500X1.5500*%
%ADD58C,1.4000*%
%ADD59R,1.4000X1.4000*%
%ADD60R,1.2900X1.2900*%
%ADD61C,1.2900*%
%ADD64R,1.5700X1.5700*%
%ADD65C,1.5700*%
G04:AMPARAMS|DCode=68|XSize=1.1mm|YSize=2.05mm|CornerRadius=0.55mm|HoleSize=0mm|Usage=FLASHONLY|Rotation=0.000|XOffset=0mm|YOffset=0mm|HoleType=Round|Shape=RoundedRectangle|*
%AMROUNDEDRECTD68*
21,1,1.1000,0.9500,0,0,0.0*
21,1,0.0000,2.0500,0,0,0.0*
1,1,1.1000,0.0000,-0.4750*
1,1,1.1000,0.0000,-0.4750*
1,1,1.1000,0.0000,0.4750*
1,1,1.1000,0.0000,0.4750*
%
%ADD68ROUNDEDRECTD68*%
%ADD69R,1.5500X1.5500*%
%ADD73C,1.2000*%
%ADD74C,0.3000*%
%ADD75C,0.3000*%
%ADD76C,1.6000*%
G04:AMPARAMS|DCode=77|XSize=1.6mm|YSize=1.6mm|CornerRadius=0.4mm|HoleSize=0mm|Usage=FLASHONLY|Rotation=270.000|XOffset=0mm|YOffset=0mm|HoleType=Round|Shape=RoundedRectangle|*
%AMROUNDEDRECTD77*
21,1,1.6000,0.8000,0,0,270.0*
21,1,0.8000,1.6000,0,0,270.0*
1,1,0.8000,-0.4000,-0.4000*
1,1,0.8000,-0.4000,0.4000*
1,1,0.8000,0.4000,0.4000*
1,1,0.8000,0.4000,-0.4000*
%
%ADD77ROUNDEDRECTD77*%
G04:AMPARAMS|DCode=78|XSize=1.6mm|YSize=1.6mm|CornerRadius=0.4mm|HoleSize=0mm|Usage=FLASHONLY|Rotation=180.000|XOffset=0mm|YOffset=0mm|HoleType=Round|Shape=RoundedRectangle|*
%AMROUNDEDRECTD78*
21,1,1.6000,0.8000,0,0,180.0*
21,1,0.8000,1.6000,0,0,180.0*
1,1,0.8000,-0.4000,0.4000*
1,1,0.8000,0.4000,0.4000*
1,1,0.8000,0.4000,-0.4000*
1,1,0.8000,-0.4000,-0.4000*
%
%ADD78ROUNDEDRECTD78*%
%ADD79C,1.5000*%
%ADD80R,1.5000X1.5000*%
%ADD81C,1.2000*%
%ADD82R,1.2000X1.2000*%
G04:AMPARAMS|DCode=83|XSize=4mm|YSize=1.8mm|CornerRadius=0.45mm|HoleSize=0mm|Usage=FLASHONLY|Rotation=270.000|XOffset=0mm|YOffset=0mm|HoleType=Round|Shape=RoundedRectangle|*
%AMROUNDEDRECTD83*
21,1,4.0000,0.9000,0,0,270.0*
21,1,3.1000,1.8000,0,0,270.0*
1,1,0.9000,-0.4500,-1.5500*
1,1,0.9000,-0.4500,1.5500*
1,1,0.9000,0.4500,1.5500*
1,1,0.9000,0.4500,-1.5500*
%
%ADD83ROUNDEDRECTD83*%
G04:AMPARAMS|DCode=84|XSize=4mm|YSize=1.8mm|CornerRadius=0.45mm|HoleSize=0mm|Usage=FLASHONLY|Rotation=180.000|XOffset=0mm|YOffset=0mm|HoleType=Round|Shape=RoundedRectangle|*
%AMROUNDEDRECTD84*
21,1,4.0000,0.9000,0,0,180.0*
21,1,3.1000,1.8000,0,0,180.0*
1,1,0.9000,-1.5500,0.4500*
1,1,0.9000,1.5500,0.4500*
1,1,0.9000,1.5500,-0.4500*
1,1,0.9000,-1.5500,-0.4500*
%
%ADD84ROUNDEDRECTD84*%
%ADD85C,3.2000*%
%ADD86C,0.6350*%
%ADD87C,0.6000*%
%ADD88C,1.2700*%
G36*
X1531651Y713192D02*
X1531639Y712849D01*
X1531691Y712482D01*
X1531809Y712093D01*
X1531992Y711680D01*
X1532240Y711244D01*
X1532552Y710785D01*
X1532930Y710303D01*
X1533372Y709798D01*
X1533880Y709269D01*
X1533759Y705148D01*
X1533052Y705834D01*
X1531826Y706893D01*
X1531307Y707265D01*
X1530851Y707533D01*
X1530459Y707695D01*
X1530129Y707754D01*
X1529862Y707707D01*
X1529657Y707556D01*
X1529516Y707300D01*
X1531728Y713512D01*
X1531651Y713192D01*
D02*
G37*
G36*
X1333016Y683195D02*
X1332588Y682703D01*
X1332236Y682160D01*
X1331962Y681565D01*
X1331763Y680919D01*
X1331641Y680222D01*
X1331595Y679474D01*
X1331627Y678675D01*
X1331734Y677824D01*
X1331918Y676922D01*
X1332179Y675968D01*
X1322345Y681329D01*
X1323571Y681688D01*
X1327507Y683069D01*
X1328250Y683402D01*
X1329447Y684050D01*
X1329900Y684367D01*
X1330257Y684678D01*
X1333016Y683195D01*
D02*
G37*
G36*
X1533880Y671208D02*
X1533372Y670680D01*
X1532552Y669692D01*
X1532240Y669233D01*
X1531992Y668797D01*
X1531809Y668384D01*
X1531691Y667995D01*
X1531639Y667629D01*
X1531651Y667286D01*
X1531728Y666965D01*
X1529516Y673178D01*
X1529657Y672922D01*
X1529862Y672770D01*
X1530129Y672724D01*
X1530459Y672782D01*
X1530851Y672945D01*
X1531307Y673212D01*
X1531826Y673585D01*
X1532407Y674061D01*
X1533759Y675330D01*
X1533880Y671208D01*
D02*
G37*
G36*
X1530063Y663300D02*
X1529832Y663466D01*
X1529558Y663548D01*
X1529242Y663545D01*
X1528882Y663457D01*
X1528479Y663284D01*
X1528033Y663027D01*
X1527545Y662684D01*
X1527013Y662257D01*
X1525820Y661148D01*
X1523699Y663269D01*
X1524296Y663887D01*
X1525235Y664994D01*
X1525578Y665483D01*
X1525835Y665928D01*
X1526008Y666331D01*
X1526096Y666691D01*
X1526099Y667008D01*
X1526017Y667281D01*
X1525850Y667512D01*
X1530063Y663300D01*
D02*
G37*
G36*
X1403363Y665632D02*
X1403153Y665549D01*
X1402967Y665410D01*
X1402806Y665216D01*
X1402670Y664967D01*
X1402558Y664662D01*
X1402471Y664302D01*
X1402410Y663887D01*
X1402372Y663416D01*
X1402360Y662890D01*
X1399360D01*
X1399348Y663416D01*
X1399310Y663887D01*
X1399249Y664302D01*
X1399162Y664662D01*
X1399050Y664967D01*
X1398914Y665216D01*
X1398753Y665410D01*
X1398567Y665549D01*
X1398356Y665632D01*
X1398121Y665659D01*
X1403599D01*
X1403363Y665632D01*
D02*
G37*
G36*
X1433267Y657323D02*
X1433312Y656809D01*
X1433387Y656356D01*
X1433492Y655962D01*
X1433627Y655629D01*
X1433792Y655356D01*
X1433987Y655143D01*
X1434212Y654991D01*
X1434467Y654898D01*
X1434752Y654866D01*
X1430283Y654897D01*
X1430277Y654927D01*
X1430272Y655017D01*
X1430252Y657897D01*
X1433252D01*
X1433267Y657323D01*
D02*
G37*
G36*
X1549077Y657537D02*
X1550180Y656603D01*
X1550668Y656264D01*
X1551113Y656010D01*
X1551516Y655840D01*
X1551877Y655755D01*
X1552195D01*
X1552471Y655840D01*
X1552704Y656010D01*
X1548461Y651767D01*
X1548631Y652000D01*
X1548716Y652276D01*
Y652594D01*
X1548631Y652955D01*
X1548461Y653358D01*
X1548207Y653803D01*
X1547867Y654291D01*
X1547443Y654822D01*
X1546340Y656010D01*
X1548461Y658131D01*
X1549077Y657537D01*
D02*
G37*
G36*
X1524804Y658434D02*
X1524849Y657918D01*
X1524924Y657464D01*
X1525029Y657070D01*
X1525164Y656737D01*
X1525329Y656464D01*
X1525431Y656353D01*
X1525791Y656603D01*
X1526321Y657028D01*
X1527509Y658131D01*
X1529630Y656010D01*
X1529036Y655394D01*
X1528103Y654291D01*
X1527764Y653803D01*
X1527509Y653358D01*
X1527339Y652955D01*
X1527254Y652594D01*
Y652276D01*
X1527339Y652000D01*
X1527509Y651767D01*
X1523297Y655979D01*
X1520289D01*
X1520574Y656009D01*
X1520829Y656100D01*
X1521054Y656252D01*
X1521249Y656464D01*
X1521414Y656737D01*
X1521549Y657070D01*
X1521654Y657464D01*
X1521729Y657918D01*
X1521774Y658434D01*
X1521789Y659009D01*
X1524789D01*
X1524804Y658434D01*
D02*
G37*
G36*
X1458897Y645404D02*
X1458867Y645689D01*
X1458777Y645944D01*
X1458627Y646169D01*
X1458417Y646364D01*
X1458147Y646529D01*
X1457817Y646664D01*
X1457427Y646769D01*
X1456977Y646844D01*
X1456467Y646889D01*
X1455897Y646904D01*
Y649904D01*
X1456467Y649919D01*
X1456977Y649964D01*
X1457427Y650039D01*
X1457817Y650144D01*
X1458147Y650279D01*
X1458417Y650444D01*
X1458627Y650639D01*
X1458777Y650864D01*
X1458867Y651119D01*
X1458897Y651404D01*
Y645404D01*
D02*
G37*
G36*
X1448314Y651119D02*
X1448404Y650864D01*
X1448554Y650639D01*
X1448764Y650444D01*
X1449034Y650279D01*
X1449364Y650144D01*
X1449754Y650039D01*
X1450204Y649964D01*
X1450714Y649919D01*
X1451284Y649904D01*
Y646904D01*
X1450714Y646889D01*
X1450204Y646844D01*
X1449754Y646769D01*
X1449364Y646664D01*
X1449034Y646529D01*
X1448764Y646364D01*
X1448554Y646169D01*
X1448404Y645944D01*
X1448314Y645689D01*
X1448284Y645404D01*
Y651404D01*
X1448314Y651119D01*
D02*
G37*
G36*
X1470639Y647923D02*
X1470557Y647650D01*
X1470560Y647333D01*
X1470648Y646973D01*
X1470821Y646571D01*
X1471078Y646125D01*
X1471421Y645636D01*
X1471848Y645104D01*
X1472957Y643911D01*
X1470836Y641790D01*
X1470218Y642387D01*
X1469111Y643326D01*
X1468623Y643669D01*
X1468177Y643927D01*
X1467774Y644099D01*
X1467414Y644187D01*
X1467098Y644190D01*
X1466824Y644109D01*
X1466593Y643942D01*
X1470806Y648154D01*
X1470639Y647923D01*
D02*
G37*
G36*
X1428923Y618260D02*
X1428782Y618516D01*
X1428578Y618667D01*
X1428311Y618714D01*
X1427981Y618656D01*
X1427588Y618493D01*
X1427132Y618225D01*
X1426613Y617853D01*
X1426032Y617376D01*
X1424680Y616108D01*
X1424559Y620229D01*
X1425067Y620758D01*
X1425887Y621745D01*
X1426200Y622205D01*
X1426447Y622640D01*
X1426630Y623053D01*
X1426748Y623443D01*
X1426800Y623809D01*
X1426788Y624152D01*
X1426711Y624472D01*
X1428923Y618260D01*
D02*
G37*
G36*
X1569965Y605744D02*
X1570010Y605229D01*
X1570085Y604774D01*
X1570190Y604380D01*
X1570325Y604047D01*
X1570490Y603774D01*
X1570685Y603562D01*
X1570910Y603410D01*
X1571165Y603319D01*
X1571450Y603289D01*
X1565450D01*
X1565735Y603319D01*
X1565990Y603410D01*
X1566215Y603562D01*
X1566410Y603774D01*
X1566575Y604047D01*
X1566710Y604380D01*
X1566815Y604774D01*
X1566890Y605229D01*
X1566935Y605744D01*
X1566950Y606320D01*
X1569950D01*
X1569965Y605744D01*
D02*
G37*
G36*
X1533884Y590380D02*
X1533157Y591092D01*
X1531756Y592293D01*
X1531081Y592780D01*
X1530423Y593192D01*
X1529782Y593530D01*
X1529159Y593792D01*
X1528553Y593980D01*
X1527964Y594092D01*
X1527392Y594130D01*
Y597130D01*
X1527964Y597168D01*
X1528553Y597280D01*
X1529159Y597467D01*
X1529782Y597730D01*
X1530423Y598068D01*
X1531081Y598480D01*
X1531756Y598968D01*
X1532448Y599530D01*
X1533884Y600880D01*
Y590380D01*
D02*
G37*
G36*
X1122991Y584394D02*
X1122907Y584118D01*
Y583800D01*
X1122991Y583439D01*
X1123161Y583036D01*
X1123416Y582591D01*
X1123755Y582103D01*
X1124179Y581572D01*
X1125282Y580384D01*
X1123161Y578263D01*
X1122546Y578857D01*
X1121443Y579790D01*
X1120955Y580130D01*
X1120509Y580384D01*
X1120106Y580554D01*
X1119746Y580639D01*
X1119428D01*
X1119152Y580554D01*
X1118919Y580384D01*
X1123161Y584627D01*
X1122991Y584394D01*
D02*
G37*
G36*
X1425388Y585603D02*
X1426613Y584545D01*
X1427132Y584173D01*
X1427588Y583905D01*
X1427981Y583742D01*
X1428311Y583684D01*
X1428578Y583731D01*
X1428782Y583882D01*
X1428923Y584138D01*
X1426711Y577926D01*
X1426788Y578246D01*
X1426800Y578589D01*
X1426748Y578955D01*
X1426630Y579345D01*
X1426447Y579757D01*
X1426200Y580193D01*
X1425887Y580652D01*
X1425509Y581134D01*
X1425067Y581640D01*
X1424559Y582168D01*
X1424680Y586290D01*
X1425388Y585603D01*
D02*
G37*
G36*
X1132191Y570051D02*
X1132236Y569541D01*
X1132311Y569091D01*
X1132416Y568701D01*
X1132551Y568371D01*
X1132716Y568101D01*
X1132911Y567891D01*
X1133136Y567741D01*
X1133391Y567651D01*
X1133676Y567621D01*
X1127676D01*
X1127961Y567651D01*
X1128216Y567741D01*
X1128441Y567891D01*
X1128636Y568101D01*
X1128801Y568371D01*
X1128936Y568701D01*
X1129041Y569091D01*
X1129116Y569541D01*
X1129161Y570051D01*
X1129176Y570621D01*
X1132176D01*
X1132191Y570051D01*
D02*
G37*
G36*
X1145014Y559182D02*
X1144984Y559461D01*
X1144894Y559711D01*
X1144744Y559931D01*
X1144534Y560122D01*
X1144264Y560284D01*
X1143934Y560416D01*
X1143544Y560519D01*
X1143094Y560593D01*
X1142584Y560637D01*
X1142014Y560652D01*
Y563652D01*
X1142588Y563666D01*
X1143102Y563712D01*
X1143556Y563787D01*
X1143950Y563891D01*
X1144283Y564026D01*
X1144556Y564192D01*
X1144768Y564386D01*
X1144921Y564612D01*
X1145013Y564866D01*
X1145044Y565151D01*
X1145014Y559182D01*
D02*
G37*
G36*
X1137396Y564866D02*
X1137486Y564612D01*
X1137638Y564386D01*
X1137850Y564192D01*
X1138123Y564026D01*
X1138456Y563891D01*
X1138850Y563787D01*
X1139305Y563712D01*
X1139820Y563666D01*
X1140396Y563652D01*
Y560652D01*
X1139820Y560636D01*
X1139305Y560592D01*
X1138850Y560517D01*
X1138456Y560411D01*
X1138123Y560276D01*
X1137850Y560112D01*
X1137638Y559916D01*
X1137486Y559692D01*
X1137396Y559436D01*
X1137365Y559151D01*
Y565151D01*
X1137396Y564866D01*
D02*
G37*
G36*
X1127282Y556712D02*
X1127092Y556920D01*
X1126851Y557034D01*
X1126557Y557053D01*
X1126211Y556979D01*
X1125812Y556811D01*
X1125362Y556549D01*
X1124860Y556193D01*
X1124305Y555743D01*
X1123039Y554561D01*
X1120775Y556539D01*
X1121532Y557317D01*
X1123223Y559322D01*
X1123593Y559880D01*
X1123866Y560382D01*
X1124042Y560830D01*
X1124120Y561222D01*
X1124102Y561560D01*
X1123987Y561842D01*
X1127282Y556712D01*
D02*
G37*
G36*
X1108009Y542682D02*
X1107775Y542852D01*
X1107500Y542937D01*
X1107181D01*
X1106821Y542852D01*
X1106418Y542682D01*
X1105972Y542427D01*
X1105484Y542088D01*
X1104954Y541664D01*
X1103766Y540561D01*
X1101645Y542682D01*
X1102239Y543297D01*
X1103172Y544400D01*
X1103512Y544888D01*
X1103766Y545334D01*
X1103936Y545737D01*
X1104021Y546097D01*
Y546415D01*
X1103936Y546691D01*
X1103766Y546925D01*
X1108009Y542682D01*
D02*
G37*
G36*
X1113850Y542652D02*
X1113595Y542562D01*
X1113370Y542412D01*
X1113175Y542202D01*
X1113010Y541932D01*
X1112875Y541602D01*
X1112770Y541212D01*
X1112695Y540762D01*
X1112652Y540276D01*
X1112689Y539830D01*
X1112731Y539572D01*
X1112785Y539336D01*
X1112851Y539121D01*
X1112929Y538928D01*
X1113019Y538756D01*
X1113121Y538606D01*
X1113235Y538478D01*
X1109035D01*
X1109149Y538606D01*
X1109251Y538756D01*
X1109341Y538928D01*
X1109419Y539121D01*
X1109485Y539336D01*
X1109539Y539572D01*
X1109581Y539830D01*
X1109611Y540110D01*
X1109617Y540280D01*
X1109575Y540762D01*
X1109500Y541212D01*
X1109395Y541602D01*
X1109260Y541932D01*
X1109095Y542202D01*
X1108900Y542412D01*
X1108675Y542562D01*
X1108420Y542652D01*
X1108135Y542682D01*
X1114135D01*
X1113850Y542652D01*
D02*
G37*
G36*
X1153959Y541182D02*
X1153704Y541091D01*
X1153479Y540940D01*
X1153284Y540728D01*
X1153119Y540455D01*
X1152984Y540122D01*
X1152879Y539728D01*
X1152804Y539273D01*
X1152759Y538758D01*
X1152744Y538182D01*
X1149744D01*
X1149729Y538758D01*
X1149684Y539273D01*
X1149609Y539728D01*
X1149504Y540122D01*
X1149369Y540455D01*
X1149204Y540728D01*
X1149009Y540940D01*
X1148784Y541091D01*
X1148529Y541182D01*
X1148244Y541213D01*
X1154244D01*
X1153959Y541182D01*
D02*
G37*
G36*
X1152759Y536505D02*
X1152804Y535995D01*
X1152879Y535545D01*
X1152984Y535155D01*
X1153119Y534825D01*
X1153284Y534555D01*
X1153479Y534345D01*
X1153704Y534195D01*
X1153959Y534105D01*
X1154244Y534075D01*
X1148244D01*
X1148529Y534105D01*
X1148784Y534195D01*
X1149009Y534345D01*
X1149204Y534555D01*
X1149369Y534825D01*
X1149504Y535155D01*
X1149609Y535545D01*
X1149684Y535995D01*
X1149729Y536505D01*
X1149744Y537075D01*
X1152744D01*
X1152759Y536505D01*
D02*
G37*
G36*
X1172611Y532214D02*
X1172583Y532456D01*
X1172499Y532672D01*
X1172359Y532863D01*
X1172162Y533029D01*
X1171910Y533169D01*
X1171602Y533283D01*
X1171237Y533372D01*
X1170817Y533436D01*
X1170340Y533474D01*
X1169807Y533487D01*
Y536487D01*
X1170340Y536500D01*
X1170817Y536538D01*
X1171237Y536602D01*
X1171602Y536691D01*
X1171910Y536805D01*
X1172162Y536945D01*
X1172359Y537111D01*
X1172499Y537302D01*
X1172583Y537518D01*
X1172611Y537760D01*
Y532214D01*
D02*
G37*
G36*
X1192519Y536115D02*
X1192610Y535860D01*
X1192762Y535635D01*
X1192974Y535440D01*
X1193247Y535275D01*
X1193580Y535140D01*
X1193974Y535035D01*
X1194428Y534960D01*
X1194944Y534915D01*
X1195519Y534900D01*
Y531900D01*
X1194944Y531885D01*
X1194428Y531840D01*
X1193974Y531765D01*
X1193580Y531660D01*
X1193247Y531525D01*
X1192974Y531360D01*
X1192762Y531165D01*
X1192610Y530940D01*
X1192519Y530685D01*
X1192489Y530400D01*
Y536400D01*
X1192519Y536115D01*
D02*
G37*
G36*
X1096807Y530486D02*
X1096852Y529971D01*
X1096927Y529517D01*
X1097032Y529123D01*
X1097167Y528789D01*
X1097332Y528517D01*
X1097527Y528305D01*
X1097752Y528153D01*
X1098007Y528062D01*
X1098292Y528032D01*
X1092292D01*
X1092577Y528062D01*
X1092832Y528153D01*
X1093057Y528305D01*
X1093252Y528517D01*
X1093417Y528789D01*
X1093552Y529123D01*
X1093657Y529517D01*
X1093732Y529971D01*
X1093777Y530486D01*
X1093792Y531062D01*
X1096792D01*
X1096807Y530486D01*
D02*
G37*
G36*
X1157963Y529765D02*
X1158054Y529510D01*
X1158206Y529285D01*
X1158418Y529090D01*
X1158691Y528925D01*
X1159024Y528790D01*
X1159418Y528685D01*
X1159873Y528610D01*
X1160388Y528565D01*
X1160964Y528550D01*
Y525550D01*
X1160388Y525535D01*
X1159873Y525490D01*
X1159418Y525415D01*
X1159024Y525310D01*
X1158691Y525175D01*
X1158418Y525010D01*
X1158206Y524815D01*
X1158054Y524590D01*
X1157963Y524335D01*
X1157933Y524050D01*
Y530050D01*
X1157963Y529765D01*
D02*
G37*
G36*
X1141978Y559277D02*
X1142507Y559264D01*
X1142924Y559228D01*
X1143257Y559173D01*
X1143501Y559109D01*
X1143645Y559051D01*
X1143647Y559035D01*
X1143713Y558914D01*
Y557882D01*
X1144830D01*
X1145007Y557807D01*
X1145082Y557838D01*
X1145161Y557815D01*
X1145282Y557882D01*
X1156161D01*
X1156483Y557817D01*
X1158317D01*
X1162002Y554133D01*
Y539458D01*
X1162256Y538182D01*
X1162979Y537101D01*
X1167450Y532630D01*
X1168531Y531907D01*
X1169807Y531653D01*
X1170010Y531693D01*
X1171280Y530651D01*
Y527740D01*
X1171280Y527630D01*
Y526470D01*
X1171280Y526360D01*
Y523911D01*
X1171244Y523845D01*
X1171240Y523811D01*
X1171236Y523808D01*
X1171083Y523746D01*
X1170836Y523680D01*
X1170499Y523625D01*
X1170079Y523588D01*
X1169545Y523574D01*
X1169528Y523567D01*
X1164047Y529047D01*
X1163131Y529659D01*
X1162050Y529874D01*
X1162050Y529874D01*
X1161112D01*
X1161000Y529924D01*
X1160465Y529938D01*
X1160045Y529975D01*
X1159708Y530031D01*
X1159461Y530096D01*
X1159308Y530158D01*
X1159304Y530161D01*
X1159300Y530195D01*
X1159264Y530261D01*
Y535376D01*
X1154511D01*
X1154388Y535442D01*
X1154351Y535446D01*
X1154350Y535448D01*
X1154289Y535596D01*
X1154224Y535838D01*
X1154169Y536168D01*
X1154132Y536584D01*
X1154118Y537111D01*
X1154068Y537223D01*
Y538034D01*
X1154118Y538146D01*
X1154132Y538680D01*
X1154169Y539101D01*
X1154225Y539438D01*
X1154290Y539685D01*
X1154352Y539837D01*
X1154355Y539842D01*
X1154389Y539846D01*
X1154456Y539882D01*
X1159753D01*
Y552422D01*
X1143713D01*
Y539882D01*
X1148033D01*
X1148099Y539846D01*
X1148133Y539842D01*
X1148136Y539837D01*
X1148198Y539685D01*
X1148264Y539438D01*
X1148319Y539101D01*
X1148356Y538680D01*
X1148370Y538146D01*
X1148420Y538034D01*
Y537223D01*
X1148370Y537111D01*
X1148356Y536584D01*
X1148319Y536169D01*
X1148264Y535838D01*
X1148199Y535596D01*
X1148139Y535448D01*
X1148138Y535446D01*
X1148100Y535442D01*
X1147978Y535376D01*
X1143224D01*
Y522645D01*
X1143224Y521836D01*
X1143224Y520565D01*
Y515241D01*
X1151244D01*
X1159264D01*
Y520565D01*
X1159264Y521376D01*
X1159264Y523839D01*
X1159300Y523905D01*
X1159304Y523939D01*
X1159308Y523942D01*
X1159461Y524004D01*
X1159708Y524070D01*
X1160045Y524125D01*
X1160465Y524162D01*
X1160932Y524174D01*
X1166403Y518703D01*
X1166403Y518703D01*
X1167319Y518091D01*
X1168400Y517876D01*
X1169433D01*
X1169545Y517826D01*
X1170079Y517812D01*
X1170499Y517775D01*
X1170836Y517719D01*
X1171083Y517654D01*
X1171236Y517592D01*
X1171240Y517589D01*
X1171244Y517555D01*
X1171280Y517489D01*
Y515040D01*
X1171280Y514930D01*
Y513770D01*
X1171280Y513660D01*
Y502340D01*
X1171280Y502230D01*
Y501070D01*
X1171280Y500960D01*
Y489640D01*
X1171280Y489530D01*
Y488370D01*
X1171280Y488260D01*
Y476940D01*
X1171280Y476830D01*
Y475670D01*
X1171280Y475560D01*
Y464240D01*
X1171280Y464130D01*
Y462970D01*
X1171280Y462860D01*
Y451540D01*
X1171280Y451430D01*
Y450270D01*
X1171280Y450160D01*
Y438840D01*
X1171280Y438730D01*
Y437570D01*
X1171280Y437460D01*
Y426140D01*
X1171280Y426030D01*
Y424870D01*
X1171280Y424760D01*
Y413440D01*
X1171280Y413330D01*
Y412170D01*
X1171280Y412060D01*
Y400740D01*
X1171280Y400630D01*
Y399470D01*
X1171280Y399360D01*
Y388040D01*
X1171280Y387930D01*
Y386770D01*
X1171280Y386660D01*
Y379506D01*
X1170107Y379020D01*
X1159780Y389347D01*
X1158863Y389959D01*
X1157783Y390174D01*
X1157783Y390174D01*
X1119940D01*
X1119843Y390319D01*
X1120522Y391589D01*
X1121950D01*
Y412191D01*
X1118757D01*
X1118691Y412227D01*
X1118656Y412231D01*
X1118653Y412236D01*
X1118592Y412388D01*
X1118526Y412635D01*
X1118470Y412972D01*
X1118433Y413393D01*
X1118419Y413927D01*
X1118370Y414039D01*
Y421479D01*
X1118419Y421591D01*
X1118433Y422125D01*
X1118470Y422546D01*
X1118526Y422883D01*
X1118592Y423129D01*
X1118642Y423253D01*
X1127087D01*
X1129287Y423691D01*
X1131152Y424937D01*
X1132399Y426802D01*
X1132836Y429002D01*
Y430308D01*
X1132399Y432508D01*
X1131152Y434373D01*
X1129287Y435619D01*
X1127087Y436057D01*
X1118642D01*
X1118592Y436181D01*
X1118526Y436427D01*
X1118470Y436764D01*
X1118433Y437185D01*
X1118419Y437719D01*
X1118370Y437831D01*
Y487687D01*
X1118420Y487801D01*
X1118434Y488516D01*
X1118474Y489113D01*
X1118536Y489613D01*
X1118616Y490006D01*
X1118681Y490218D01*
X1119605Y490835D01*
X1120849Y492697D01*
X1121286Y494894D01*
Y496216D01*
X1120849Y498413D01*
X1119605Y500275D01*
X1117742Y501520D01*
X1115545Y501957D01*
X1114584Y502746D01*
Y507941D01*
X1115515Y508761D01*
X1122673D01*
Y519062D01*
Y529363D01*
X1117975D01*
X1117489Y530536D01*
X1121426Y534473D01*
X1121878Y534563D01*
X1122960Y535285D01*
X1123682Y536367D01*
X1123936Y537643D01*
Y541381D01*
X1130041D01*
Y548152D01*
X1130676D01*
Y548787D01*
X1138696D01*
Y554921D01*
X1138696Y554921D01*
Y555382D01*
X1138696D01*
X1138696Y556191D01*
Y558940D01*
X1138732Y559006D01*
X1138736Y559041D01*
X1138741Y559044D01*
X1138893Y559105D01*
X1139140Y559171D01*
X1139477Y559227D01*
X1139898Y559263D01*
X1140432Y559277D01*
X1140544Y559327D01*
X1141866D01*
X1141978Y559277D01*
D02*
G37*
G36*
X1210559Y518451D02*
X1210431Y518565D01*
X1210281Y518667D01*
X1210109Y518757D01*
X1209916Y518835D01*
X1209701Y518901D01*
X1209465Y518955D01*
X1209207Y518997D01*
X1208927Y519027D01*
X1208303Y519051D01*
Y522051D01*
X1208626Y522057D01*
X1209207Y522105D01*
X1209465Y522147D01*
X1209701Y522201D01*
X1209916Y522267D01*
X1210109Y522345D01*
X1210281Y522435D01*
X1210431Y522537D01*
X1210559Y522651D01*
Y518451D01*
D02*
G37*
G36*
X1172611Y517700D02*
X1172581Y517985D01*
X1172490Y518240D01*
X1172338Y518465D01*
X1172126Y518660D01*
X1171853Y518825D01*
X1171520Y518960D01*
X1171126Y519065D01*
X1170671Y519140D01*
X1170156Y519185D01*
X1169581Y519200D01*
Y522200D01*
X1170156Y522215D01*
X1170671Y522260D01*
X1171126Y522335D01*
X1171520Y522440D01*
X1171853Y522575D01*
X1172126Y522740D01*
X1172338Y522935D01*
X1172490Y523160D01*
X1172581Y523415D01*
X1172611Y523700D01*
Y517700D01*
D02*
G37*
G36*
X1192519Y523266D02*
X1192610Y523011D01*
X1192762Y522786D01*
X1192974Y522591D01*
X1193247Y522426D01*
X1193580Y522291D01*
X1193974Y522186D01*
X1194428Y522111D01*
X1194944Y522066D01*
X1195519Y522051D01*
Y519051D01*
X1194944Y519036D01*
X1194428Y518991D01*
X1193974Y518916D01*
X1193580Y518811D01*
X1193247Y518676D01*
X1192974Y518511D01*
X1192762Y518316D01*
X1192610Y518091D01*
X1192519Y517836D01*
X1192489Y517551D01*
Y523551D01*
X1192519Y523266D01*
D02*
G37*
G36*
X1406246Y513738D02*
Y502280D01*
X1406246Y502280D01*
X1406461Y501199D01*
X1407073Y500283D01*
X1411780Y495576D01*
Y494451D01*
X1412430Y492881D01*
X1413631Y491680D01*
X1415201Y491030D01*
X1416583D01*
X1417142Y490101D01*
X1417206Y489857D01*
X1410258Y482909D01*
X1409646Y481992D01*
X1409431Y480912D01*
X1409431Y480912D01*
Y467063D01*
X1405715Y463347D01*
X1405614Y463313D01*
X1405235Y462982D01*
X1404856Y462727D01*
X1404399Y462490D01*
X1403859Y462275D01*
X1403237Y462087D01*
X1402530Y461930D01*
X1401758Y461809D01*
X1399904Y461671D01*
X1398866Y461662D01*
X1398620Y461557D01*
X1397599D01*
X1395280Y460936D01*
X1393200Y459735D01*
X1391502Y458037D01*
X1390301Y455958D01*
X1389680Y453638D01*
Y451237D01*
X1390301Y448917D01*
X1391502Y446838D01*
X1393200Y445140D01*
X1395280Y443939D01*
X1397599Y443317D01*
X1400000D01*
X1402320Y443939D01*
X1404400Y445140D01*
X1406098Y446838D01*
X1407298Y448917D01*
X1407920Y451237D01*
Y452245D01*
X1408023Y452475D01*
X1408084Y454523D01*
X1408169Y455378D01*
X1408292Y456168D01*
X1408450Y456874D01*
X1408638Y457497D01*
X1408853Y458037D01*
X1409090Y458494D01*
X1409344Y458873D01*
X1409675Y459252D01*
X1409709Y459352D01*
X1414252Y463896D01*
X1414252Y463896D01*
X1414864Y464812D01*
X1415079Y465893D01*
Y472854D01*
X1416349Y473195D01*
X1416902Y472238D01*
X1418600Y470540D01*
X1420680Y469339D01*
X1422999Y468717D01*
X1425400D01*
X1427720Y469339D01*
X1429800Y470540D01*
X1431497Y472238D01*
X1432698Y474317D01*
X1433320Y476637D01*
Y479038D01*
X1432698Y481358D01*
X1431497Y483437D01*
X1429800Y485135D01*
X1427720Y486336D01*
X1425400Y486957D01*
X1424091D01*
X1423565Y488227D01*
X1443196Y507858D01*
X1444466Y507332D01*
Y411366D01*
X1430134Y397034D01*
X1363820D01*
Y399360D01*
X1363820Y399470D01*
Y400630D01*
X1363820Y400740D01*
Y412060D01*
X1363820Y412170D01*
Y413330D01*
X1363820Y413440D01*
Y424760D01*
X1363820Y424870D01*
Y426030D01*
X1363820Y426140D01*
Y437460D01*
X1363820Y437570D01*
Y438730D01*
X1363820Y438840D01*
Y450160D01*
X1363820Y450270D01*
Y451430D01*
X1363820Y451540D01*
Y462860D01*
X1363820Y462970D01*
Y464130D01*
X1363820Y464240D01*
Y475560D01*
X1363820Y475670D01*
Y476830D01*
X1363820Y476940D01*
Y488260D01*
X1363820Y488370D01*
Y489530D01*
X1363820Y489640D01*
Y492476D01*
X1371600D01*
X1372681Y492691D01*
X1373597Y493303D01*
X1393346Y513052D01*
X1394930Y512138D01*
X1397249Y511516D01*
X1399651D01*
X1401970Y512138D01*
X1404050Y513339D01*
X1404975Y514264D01*
X1406246Y513738D01*
D02*
G37*
G36*
X1098007Y510031D02*
X1097752Y509941D01*
X1097527Y509791D01*
X1097332Y509581D01*
X1097167Y509311D01*
X1097032Y508981D01*
X1096927Y508591D01*
X1096852Y508141D01*
X1096807Y507631D01*
X1096792Y507061D01*
X1093792D01*
X1093777Y507631D01*
X1093732Y508141D01*
X1093657Y508591D01*
X1093552Y508981D01*
X1093417Y509311D01*
X1093252Y509581D01*
X1093057Y509791D01*
X1092832Y509941D01*
X1092577Y510031D01*
X1092292Y510061D01*
X1098292D01*
X1098007Y510031D01*
D02*
G37*
G36*
X1325008Y505900D02*
X1324971Y505919D01*
X1324901Y505936D01*
X1324796Y505951D01*
X1324485Y505975D01*
X1323456Y505999D01*
X1323114Y506000D01*
Y510000D01*
X1325008Y510100D01*
Y505900D01*
D02*
G37*
G36*
X1112654Y501558D02*
X1113735Y500628D01*
X1113933Y500500D01*
X1114101Y500414D01*
X1114240Y500369D01*
X1114350Y500367D01*
X1114431Y500406D01*
X1111540Y497781D01*
X1111587Y497856D01*
X1111593Y497959D01*
X1111559Y498089D01*
X1111485Y498246D01*
X1111370Y498432D01*
X1111215Y498645D01*
X1111019Y498885D01*
X1110506Y499450D01*
X1110189Y499773D01*
X1112311Y501894D01*
X1112654Y501558D01*
D02*
G37*
G36*
X1118245Y491723D02*
X1117993Y491605D01*
X1117771Y491408D01*
X1117579Y491133D01*
X1117416Y490779D01*
X1117282Y490346D01*
X1117179Y489835D01*
X1117104Y489245D01*
X1117060Y488576D01*
X1117045Y487828D01*
X1114045D01*
X1114030Y488576D01*
X1113912Y489835D01*
X1113808Y490346D01*
X1113675Y490779D01*
X1113512Y491133D01*
X1113319Y491408D01*
X1113097Y491605D01*
X1112845Y491723D01*
X1112564Y491762D01*
X1118527D01*
X1118245Y491723D01*
D02*
G37*
G36*
X1408639Y460156D02*
X1408251Y459711D01*
X1407905Y459195D01*
X1407601Y458609D01*
X1407339Y457951D01*
X1407119Y457223D01*
X1406941Y456423D01*
X1406805Y455553D01*
X1406711Y454612D01*
X1406649Y452516D01*
X1398878Y460287D01*
X1399962Y460297D01*
X1401915Y460443D01*
X1402786Y460579D01*
X1403585Y460756D01*
X1404314Y460977D01*
X1404971Y461239D01*
X1405558Y461543D01*
X1406073Y461889D01*
X1406518Y462277D01*
X1408639Y460156D01*
D02*
G37*
G36*
X1117060Y437108D02*
X1117105Y436592D01*
X1117180Y436138D01*
X1117285Y435744D01*
X1117420Y435410D01*
X1117585Y435138D01*
X1117780Y434926D01*
X1118005Y434774D01*
X1118260Y434683D01*
X1118545Y434653D01*
X1112545D01*
X1112830Y434683D01*
X1113085Y434774D01*
X1113310Y434926D01*
X1113505Y435138D01*
X1113670Y435410D01*
X1113805Y435744D01*
X1113910Y436138D01*
X1113985Y436592D01*
X1114030Y437108D01*
X1114045Y437683D01*
X1117045D01*
X1117060Y437108D01*
D02*
G37*
G36*
X1118260Y424627D02*
X1118005Y424536D01*
X1117780Y424384D01*
X1117585Y424172D01*
X1117420Y423899D01*
X1117285Y423566D01*
X1117180Y423172D01*
X1117105Y422718D01*
X1117060Y422202D01*
X1117045Y421627D01*
X1114045D01*
X1114030Y422202D01*
X1113985Y422718D01*
X1113910Y423172D01*
X1113805Y423566D01*
X1113670Y423899D01*
X1113505Y424172D01*
X1113310Y424384D01*
X1113085Y424536D01*
X1112830Y424627D01*
X1112545Y424657D01*
X1118545D01*
X1118260Y424627D01*
D02*
G37*
G36*
X1117060Y413315D02*
X1117105Y412800D01*
X1117180Y412345D01*
X1117285Y411951D01*
X1117420Y411618D01*
X1117585Y411345D01*
X1117780Y411133D01*
X1118005Y410981D01*
X1118260Y410891D01*
X1118545Y410860D01*
X1112545D01*
X1112830Y410891D01*
X1113085Y410981D01*
X1113310Y411133D01*
X1113505Y411345D01*
X1113670Y411618D01*
X1113805Y411951D01*
X1113910Y412345D01*
X1113985Y412800D01*
X1114030Y413315D01*
X1114045Y413891D01*
X1117045D01*
X1117060Y413315D01*
D02*
G37*
G36*
X1107694Y399360D02*
X1107669Y399556D01*
X1107592Y399731D01*
X1107464Y399885D01*
X1107284Y400019D01*
X1107054Y400133D01*
X1106772Y400225D01*
X1106439Y400298D01*
X1106055Y400349D01*
X1105620Y400380D01*
X1105133Y400390D01*
Y403390D01*
X1105620Y403400D01*
X1106439Y403483D01*
X1106772Y403555D01*
X1107054Y403648D01*
X1107284Y403761D01*
X1107464Y403895D01*
X1107592Y404050D01*
X1107669Y404225D01*
X1107694Y404421D01*
Y399360D01*
D02*
G37*
G36*
X1097325Y399388D02*
X1097409Y399172D01*
X1097549Y398981D01*
X1097745Y398815D01*
X1097997Y398675D01*
X1098306Y398561D01*
X1098670Y398472D01*
X1099091Y398408D01*
X1099567Y398370D01*
X1100100Y398357D01*
Y395357D01*
X1099567Y395344D01*
X1099091Y395306D01*
X1098670Y395243D01*
X1098306Y395153D01*
X1097997Y395039D01*
X1097745Y394899D01*
X1097549Y394733D01*
X1097409Y394542D01*
X1097325Y394326D01*
X1097297Y394084D01*
Y399630D01*
X1097325Y399388D01*
D02*
G37*
G36*
X1117365Y392862D02*
X1117148Y392779D01*
X1116957Y392640D01*
X1116792Y392446D01*
X1116652Y392196D01*
X1116537Y391891D01*
X1116448Y391531D01*
X1116384Y391115D01*
X1116346Y390644D01*
X1116333Y390117D01*
X1113334D01*
X1113321Y390644D01*
X1113282Y391115D01*
X1113219Y391531D01*
X1113130Y391891D01*
X1113015Y392196D01*
X1112875Y392446D01*
X1112710Y392640D01*
X1112519Y392779D01*
X1112302Y392862D01*
X1112060Y392890D01*
X1117607D01*
X1117365Y392862D01*
D02*
G37*
G36*
X1348777Y341340D02*
X1348808Y337687D01*
X1348775Y337972D01*
X1348683Y338227D01*
X1348530Y338452D01*
X1348317Y338647D01*
X1348044Y338812D01*
X1347711Y338947D01*
X1347318Y339052D01*
X1346864Y339127D01*
X1346351Y339172D01*
X1345777Y339187D01*
Y342187D01*
X1348777Y341340D01*
D02*
G37*
G36*
X1341373Y343402D02*
X1341464Y343147D01*
X1341615Y342922D01*
X1341827Y342727D01*
X1342100Y342562D01*
X1342433Y342427D01*
X1342827Y342322D01*
X1343282Y342247D01*
X1343797Y342202D01*
X1344373Y342187D01*
Y339187D01*
X1343797Y339172D01*
X1343282Y339127D01*
X1342827Y339052D01*
X1342433Y338947D01*
X1342100Y338812D01*
X1341827Y338647D01*
X1341615Y338452D01*
X1341464Y338227D01*
X1341373Y337972D01*
X1341342Y337687D01*
Y343687D01*
X1341373Y343402D01*
D02*
G37*
G36*
X1316434Y337687D02*
X1316404Y337972D01*
X1316314Y338227D01*
X1316164Y338452D01*
X1315954Y338647D01*
X1315684Y338812D01*
X1315354Y338947D01*
X1314964Y339052D01*
X1314514Y339127D01*
X1314004Y339172D01*
X1313434Y339187D01*
Y342187D01*
X1314004Y342202D01*
X1314514Y342247D01*
X1314964Y342322D01*
X1315354Y342427D01*
X1315684Y342562D01*
X1315954Y342727D01*
X1316164Y342922D01*
X1316314Y343147D01*
X1316404Y343402D01*
X1316434Y343687D01*
Y337687D01*
D02*
G37*
G36*
X1308038Y343402D02*
X1308127Y343147D01*
X1308277Y342922D01*
X1308488Y342727D01*
X1308757Y342562D01*
X1309088Y342427D01*
X1309478Y342322D01*
X1309928Y342247D01*
X1310437Y342202D01*
X1311008Y342187D01*
Y339187D01*
X1310437Y339172D01*
X1309928Y339127D01*
X1309478Y339052D01*
X1309088Y338947D01*
X1308757Y338812D01*
X1308488Y338647D01*
X1308277Y338452D01*
X1308127Y338227D01*
X1308038Y337972D01*
X1308008Y337687D01*
Y343687D01*
X1308038Y343402D01*
D02*
G37*
G36*
X1358212Y330371D02*
X1357957Y330281D01*
X1357732Y330131D01*
X1357537Y329921D01*
X1357372Y329651D01*
X1357237Y329321D01*
X1357132Y328931D01*
X1357057Y328481D01*
X1357012Y327971D01*
X1356997Y327401D01*
X1353997D01*
X1353982Y327971D01*
X1353937Y328481D01*
X1353862Y328931D01*
X1353757Y329321D01*
X1353622Y329651D01*
X1353457Y329921D01*
X1353262Y330131D01*
X1353037Y330281D01*
X1352782Y330371D01*
X1352497Y330401D01*
X1358497D01*
X1358212Y330371D01*
D02*
G37*
G36*
X1347908Y321924D02*
X1347999Y321669D01*
X1348150Y321444D01*
X1348362Y321249D01*
X1348635Y321084D01*
X1348968Y320949D01*
X1349362Y320844D01*
X1349817Y320769D01*
X1350332Y320724D01*
X1350908Y320709D01*
Y317709D01*
X1350332Y317694D01*
X1349817Y317649D01*
X1349362Y317574D01*
X1348968Y317469D01*
X1348635Y317334D01*
X1348362Y317169D01*
X1348150Y316974D01*
X1347999Y316749D01*
X1347908Y316494D01*
X1347877Y316209D01*
Y322209D01*
X1347908Y321924D01*
D02*
G37*
G36*
X1266893Y312278D02*
X1268318Y311256D01*
X1269354Y309842D01*
X1269900Y308176D01*
X1269900Y307300D01*
X1269900Y301800D01*
X1269900D01*
X1269900Y300924D01*
X1269354Y299258D01*
X1268318Y297844D01*
X1266893Y296822D01*
X1265221Y296294D01*
X1263468Y296311D01*
X1261808Y296873D01*
X1260404Y297923D01*
X1259900Y298640D01*
X1259900Y310460D01*
Y310460D01*
X1260404Y311177D01*
X1261808Y312227D01*
X1263468Y312789D01*
X1265221Y312806D01*
X1266893Y312278D01*
D02*
G37*
G36*
X1245261Y310094D02*
X1245594Y310065D01*
X1246170Y310050D01*
Y307050D01*
X1245594Y307035D01*
X1245261Y307006D01*
Y305550D01*
X1245231Y305835D01*
X1245140Y306090D01*
X1244988Y306315D01*
X1244776Y306510D01*
X1244503Y306675D01*
X1244200Y306798D01*
X1243897Y306675D01*
X1243624Y306510D01*
X1243412Y306315D01*
X1243260Y306090D01*
X1243169Y305835D01*
X1243139Y305550D01*
Y307006D01*
X1242806Y307035D01*
X1242231Y307050D01*
Y310050D01*
X1242806Y310065D01*
X1243139Y310094D01*
Y311550D01*
X1243169Y311265D01*
X1243260Y311010D01*
X1243412Y310785D01*
X1243624Y310590D01*
X1243897Y310425D01*
X1244200Y310302D01*
X1244503Y310425D01*
X1244776Y310590D01*
X1244988Y310785D01*
X1245140Y311010D01*
X1245231Y311265D01*
X1245261Y311550D01*
Y310094D01*
D02*
G37*
G36*
X1195261D02*
X1195594Y310065D01*
X1196170Y310050D01*
Y307050D01*
X1195594Y307035D01*
X1195261Y307006D01*
Y305550D01*
X1195231Y305835D01*
X1195140Y306090D01*
X1194988Y306315D01*
X1194776Y306510D01*
X1194503Y306675D01*
X1194200Y306798D01*
X1193897Y306675D01*
X1193624Y306510D01*
X1193412Y306315D01*
X1193260Y306090D01*
X1193169Y305835D01*
X1193139Y305550D01*
Y307006D01*
X1192806Y307035D01*
X1192231Y307050D01*
Y310050D01*
X1192806Y310065D01*
X1193139Y310094D01*
Y311550D01*
X1193169Y311265D01*
X1193260Y311010D01*
X1193412Y310785D01*
X1193624Y310590D01*
X1193897Y310425D01*
X1194200Y310302D01*
X1194503Y310425D01*
X1194776Y310590D01*
X1194988Y310785D01*
X1195140Y311010D01*
X1195231Y311265D01*
X1195261Y311550D01*
Y310094D01*
D02*
G37*
G36*
X1174931Y312789D02*
X1176592Y312227D01*
X1177996Y311177D01*
X1178500Y310460D01*
X1178500Y310460D01*
Y298640D01*
X1177996Y297923D01*
X1176592Y296873D01*
X1174931Y296311D01*
X1173179Y296294D01*
X1171507Y296822D01*
X1170082Y297844D01*
X1169046Y299258D01*
X1168500Y300924D01*
X1168500Y301800D01*
X1168500D01*
Y307300D01*
X1168500Y308176D01*
X1169046Y309842D01*
X1170082Y311256D01*
X1171507Y312278D01*
X1173179Y312806D01*
X1174931Y312789D01*
D02*
G37*
G36*
X1470550Y289737D02*
X1470692Y287898D01*
X1470825Y287076D01*
X1470998Y286319D01*
X1471212Y285627D01*
X1471468Y285001D01*
X1471764Y284440D01*
X1472101Y283944D01*
X1472479Y283512D01*
X1470358Y281391D01*
X1469926Y281769D01*
X1469430Y282106D01*
X1468869Y282402D01*
X1468243Y282658D01*
X1467551Y282872D01*
X1466794Y283045D01*
X1465972Y283178D01*
X1465085Y283270D01*
X1463115Y283330D01*
X1470540Y290755D01*
X1470550Y289737D01*
D02*
G37*
G36*
X1678214Y274049D02*
X1677421Y274828D01*
X1675901Y276140D01*
X1675173Y276674D01*
X1674468Y277125D01*
X1673784Y277493D01*
X1673123Y277780D01*
X1672483Y277985D01*
X1671865Y278109D01*
X1671269Y278150D01*
Y281150D01*
X1671865Y281190D01*
X1672483Y281313D01*
X1673123Y281518D01*
X1673784Y281805D01*
X1674468Y282174D01*
X1675173Y282626D01*
X1675901Y283158D01*
X1676650Y283773D01*
X1678214Y285250D01*
Y274049D01*
D02*
G37*
G36*
X1930400Y721861D02*
X1932347Y721861D01*
X1936209Y721352D01*
X1939971Y720344D01*
X1943569Y718854D01*
X1946942Y716907D01*
X1950032Y714536D01*
X1952786Y711782D01*
X1955157Y708692D01*
X1957104Y705319D01*
X1958595Y701721D01*
X1959603Y697959D01*
X1960111Y694097D01*
X1960111Y692150D01*
X1960111Y285750D01*
X1960111Y283803D01*
X1959603Y279941D01*
X1958595Y276179D01*
X1957104Y272581D01*
X1955157Y269208D01*
X1952786Y266118D01*
X1950032Y263364D01*
X1946942Y260993D01*
X1943569Y259046D01*
X1939971Y257555D01*
X1936209Y256547D01*
X1932347Y256039D01*
X1930400D01*
X1823955Y256039D01*
X1823429Y257309D01*
X1842092Y275972D01*
X1842092Y275972D01*
X1843258Y277491D01*
X1843990Y279259D01*
X1844240Y281157D01*
Y302605D01*
X1857532Y315896D01*
X1861630D01*
X1862106Y315959D01*
X1872900D01*
Y335940D01*
X1874468Y336146D01*
X1876237Y336879D01*
X1877756Y338044D01*
X1884785Y345074D01*
X1884785Y345074D01*
X1885950Y346592D01*
X1886683Y348361D01*
X1886933Y350259D01*
X1886933Y350259D01*
Y489555D01*
Y500477D01*
Y509173D01*
Y521892D01*
Y529052D01*
Y541770D01*
Y554380D01*
Y572969D01*
Y581666D01*
Y594385D01*
Y606025D01*
Y618635D01*
Y637224D01*
Y645921D01*
Y660400D01*
X1886933Y660400D01*
X1886683Y662298D01*
X1885950Y664066D01*
X1884785Y665585D01*
X1884785Y665585D01*
X1881061Y669309D01*
X1880458Y670766D01*
X1879292Y672284D01*
X1879292Y672285D01*
X1879115Y672462D01*
X1877597Y673627D01*
X1877031Y673861D01*
X1871046Y679846D01*
Y704016D01*
X1852506D01*
Y699483D01*
X1810295D01*
X1808397Y699233D01*
X1806629Y698500D01*
X1805110Y697335D01*
X1805110Y697335D01*
X1800581Y692806D01*
X1800461D01*
X1798103Y692174D01*
X1795989Y690954D01*
X1794263Y689228D01*
X1793043Y687114D01*
X1792411Y684756D01*
Y682316D01*
X1793043Y679958D01*
X1794263Y677844D01*
X1795989Y676118D01*
X1797328Y675345D01*
X1798015Y674818D01*
X1799783Y674086D01*
X1801681Y673836D01*
X1803579Y674086D01*
X1805348Y674818D01*
X1806034Y675345D01*
X1807373Y676118D01*
X1809099Y677844D01*
X1810320Y679958D01*
X1810951Y682316D01*
Y682436D01*
X1813333Y684817D01*
X1852506D01*
Y669476D01*
X1860676D01*
X1867638Y662514D01*
X1867757Y662226D01*
X1868922Y660707D01*
X1872267Y657363D01*
Y654134D01*
X1871046Y654016D01*
X1870997Y654016D01*
X1862411D01*
Y636746D01*
Y619476D01*
X1870997D01*
X1871046Y619476D01*
X1872267Y619358D01*
Y606025D01*
Y594385D01*
Y581666D01*
Y572969D01*
Y554380D01*
Y541770D01*
Y529052D01*
Y521892D01*
Y509173D01*
Y496888D01*
X1835755D01*
X1833857Y496638D01*
X1832089Y495905D01*
X1830570Y494740D01*
X1830570Y494740D01*
X1804247Y468418D01*
X1803598Y468591D01*
X1801158D01*
X1798800Y467960D01*
X1796686Y466739D01*
X1794960Y465013D01*
X1793740Y462900D01*
X1793108Y460542D01*
Y458101D01*
X1793740Y455743D01*
X1794960Y453630D01*
X1796686Y451904D01*
X1798800Y450683D01*
X1801158Y450051D01*
X1803598D01*
X1805956Y450683D01*
X1808070Y451904D01*
X1809796Y453630D01*
X1809827Y453684D01*
X1809953Y453736D01*
X1811472Y454902D01*
X1838792Y482222D01*
X1872267D01*
Y353296D01*
X1869533Y350562D01*
X1865630D01*
X1865153Y350499D01*
X1854360D01*
Y339706D01*
X1854297Y339229D01*
Y330536D01*
X1852597Y330312D01*
X1850828Y329580D01*
X1849310Y328414D01*
X1831722Y310827D01*
X1830557Y309308D01*
X1829824Y307540D01*
X1829574Y305642D01*
Y284195D01*
X1814713Y269333D01*
X1686147D01*
X1685980Y270603D01*
X1687505Y271011D01*
X1689619Y272232D01*
X1691345Y273958D01*
X1692565Y276071D01*
X1693197Y278429D01*
Y280870D01*
X1692565Y283228D01*
X1691345Y285341D01*
X1689619Y287067D01*
X1687505Y288288D01*
X1685147Y288920D01*
X1682706D01*
X1680349Y288288D01*
X1678235Y287067D01*
X1677507Y286339D01*
X1677270Y286249D01*
X1675741Y284806D01*
X1675058Y284245D01*
X1674396Y283760D01*
X1673770Y283360D01*
X1673183Y283043D01*
X1672638Y282807D01*
X1672138Y282646D01*
X1671683Y282556D01*
X1671174Y282521D01*
X1671080Y282474D01*
X1544846D01*
X1544506Y283744D01*
X1544625Y283812D01*
X1546258Y285445D01*
X1547412Y287445D01*
X1548010Y289675D01*
Y291985D01*
X1547412Y294215D01*
X1546258Y296215D01*
X1544625Y297848D01*
X1542625Y299002D01*
X1540395Y299600D01*
X1538085D01*
X1535855Y299002D01*
X1533855Y297848D01*
X1532222Y296215D01*
X1531068Y294215D01*
X1530470Y291985D01*
Y289675D01*
X1531068Y287445D01*
X1532222Y285445D01*
X1533855Y283812D01*
X1533974Y283744D01*
X1533634Y282474D01*
X1475390D01*
X1473547Y284317D01*
X1473512Y284419D01*
X1473190Y284786D01*
X1472944Y285149D01*
X1472715Y285582D01*
X1472508Y286091D01*
X1472327Y286677D01*
X1472175Y287339D01*
X1472058Y288061D01*
X1471924Y289797D01*
X1471914Y290768D01*
X1471810Y291013D01*
Y291985D01*
X1471212Y294215D01*
X1470058Y296215D01*
X1468425Y297848D01*
X1466425Y299002D01*
X1464195Y299600D01*
X1461885D01*
X1459655Y299002D01*
X1457655Y297848D01*
X1456022Y296215D01*
X1454868Y294215D01*
X1454270Y291985D01*
Y289675D01*
X1454868Y287445D01*
X1456022Y285445D01*
X1457655Y283812D01*
X1459655Y282658D01*
X1461885Y282060D01*
X1462843D01*
X1463073Y281956D01*
X1464993Y281897D01*
X1465792Y281815D01*
X1466531Y281695D01*
X1467193Y281544D01*
X1467779Y281362D01*
X1468288Y281155D01*
X1468721Y280926D01*
X1469084Y280680D01*
X1469451Y280358D01*
X1469553Y280323D01*
X1472223Y277652D01*
X1472223Y277652D01*
X1473140Y277040D01*
X1474220Y276825D01*
X1474221Y276825D01*
X1671080D01*
X1671174Y276778D01*
X1671683Y276743D01*
X1672138Y276653D01*
X1672639Y276492D01*
X1673183Y276256D01*
X1673770Y275939D01*
X1674396Y275539D01*
X1675044Y275064D01*
X1676489Y273817D01*
X1677250Y273069D01*
X1677497Y272969D01*
X1678235Y272232D01*
X1680349Y271011D01*
X1681874Y270603D01*
X1681706Y269333D01*
X1349208D01*
Y281479D01*
X1343712D01*
X1343438Y281533D01*
X1343438Y281533D01*
X1342608D01*
X1342195Y281946D01*
Y312471D01*
X1342608Y312885D01*
X1343438D01*
X1343438Y312885D01*
X1343712Y312939D01*
X1349208D01*
Y315998D01*
X1349244Y316064D01*
X1349248Y316098D01*
X1349253Y316101D01*
X1349405Y316163D01*
X1349652Y316228D01*
X1349989Y316284D01*
X1350410Y316321D01*
X1350944Y316335D01*
X1351056Y316385D01*
X1352840D01*
X1352840Y316385D01*
X1353921Y316600D01*
X1354837Y317212D01*
X1357494Y319868D01*
X1357494Y319868D01*
X1358106Y320785D01*
X1358321Y321866D01*
X1358321Y321866D01*
Y327253D01*
X1358371Y327365D01*
X1358385Y327892D01*
X1358421Y328307D01*
X1358477Y328639D01*
X1358542Y328881D01*
X1358602Y329028D01*
X1358603Y329030D01*
X1358641Y329034D01*
X1358763Y329101D01*
X1363517D01*
Y342331D01*
X1363517Y342641D01*
Y343601D01*
X1363517Y343911D01*
Y349736D01*
X1347477D01*
X1347477Y343601D01*
X1346244Y343512D01*
X1345899D01*
X1345777Y343562D01*
X1345656Y343512D01*
X1344521D01*
X1344409Y343561D01*
X1343875Y343575D01*
X1343454Y343612D01*
X1343117Y343668D01*
X1342870Y343733D01*
X1342718Y343795D01*
X1342713Y343798D01*
X1342709Y343833D01*
X1342673Y343899D01*
Y348707D01*
X1333962D01*
X1333476Y349881D01*
X1348197Y364601D01*
X1348197Y364602D01*
X1348809Y365518D01*
X1349024Y366599D01*
Y375230D01*
X1363820D01*
Y386660D01*
X1363820Y386770D01*
Y387930D01*
X1363820Y388040D01*
Y390366D01*
X1431515D01*
X1432791Y390620D01*
X1433872Y391343D01*
X1450157Y407628D01*
X1450880Y408709D01*
X1451134Y409985D01*
Y528209D01*
X1459609Y536684D01*
X1459655Y536658D01*
X1461885Y536060D01*
X1464195D01*
X1466425Y536658D01*
X1468425Y537812D01*
X1470058Y539445D01*
X1471212Y541445D01*
X1471810Y543675D01*
Y545985D01*
X1471212Y548215D01*
X1470058Y550215D01*
X1468425Y551848D01*
X1466425Y553002D01*
X1464195Y553600D01*
X1461885D01*
X1459655Y553002D01*
X1457655Y551848D01*
X1456022Y550215D01*
X1454868Y548215D01*
X1454270Y545985D01*
Y543675D01*
X1454868Y541445D01*
X1454894Y541399D01*
X1446521Y533026D01*
X1445251Y533552D01*
Y566422D01*
X1445251Y566422D01*
X1445036Y567503D01*
X1444424Y568419D01*
X1444424Y568419D01*
X1433920Y578923D01*
Y585469D01*
X1427683D01*
X1427465Y585625D01*
X1426316Y586618D01*
X1425638Y587276D01*
X1425520Y587323D01*
X1424078Y588765D01*
Y613633D01*
X1425508Y615063D01*
X1425621Y615106D01*
X1426939Y616342D01*
X1427451Y616762D01*
X1427683Y616929D01*
X1433920D01*
Y624028D01*
X1434231Y624090D01*
X1435147Y624702D01*
X1436790Y626345D01*
X1453730D01*
X1454270Y625806D01*
Y612260D01*
X1471810D01*
Y625524D01*
X1472983Y626010D01*
X1505360Y593633D01*
X1505360Y593633D01*
X1506277Y593021D01*
X1507357Y592806D01*
X1527206D01*
X1527302Y592758D01*
X1527789Y592726D01*
X1528220Y592644D01*
X1528688Y592499D01*
X1529194Y592286D01*
X1529737Y592000D01*
X1530312Y591639D01*
X1530905Y591211D01*
X1532228Y590078D01*
X1532921Y589398D01*
X1533168Y589299D01*
X1533855Y588612D01*
X1535855Y587458D01*
X1538085Y586860D01*
X1540395D01*
X1542625Y587458D01*
X1544625Y588612D01*
X1546258Y590245D01*
X1547412Y592245D01*
X1548010Y594475D01*
Y596785D01*
X1547412Y599015D01*
X1546258Y601015D01*
X1544625Y602648D01*
X1542625Y603802D01*
X1540395Y604400D01*
X1538085D01*
X1535855Y603802D01*
X1533855Y602648D01*
X1533178Y601971D01*
X1532942Y601881D01*
X1531542Y600565D01*
X1530919Y600059D01*
X1530312Y599621D01*
X1529737Y599260D01*
X1529194Y598974D01*
X1528688Y598761D01*
X1528220Y598616D01*
X1527789Y598534D01*
X1527302Y598502D01*
X1527206Y598454D01*
X1508527D01*
X1471545Y635437D01*
X1470629Y636049D01*
X1469548Y636264D01*
X1469548Y636264D01*
X1431480D01*
X1404747Y662997D01*
X1404743Y663254D01*
X1405189Y664351D01*
X1406784Y664668D01*
X1408527Y665833D01*
X1409692Y667576D01*
X1410101Y669633D01*
Y676043D01*
X1411371Y676570D01*
X1428928Y659012D01*
Y658018D01*
X1428878Y657897D01*
X1428880Y657892D01*
X1428878Y657887D01*
X1428897Y655007D01*
X1428912Y654973D01*
X1428899Y654938D01*
X1428905Y654848D01*
X1428928Y654799D01*
Y654670D01*
X1428927Y654666D01*
X1428928Y654662D01*
Y653427D01*
X1428928Y653427D01*
X1428982Y653154D01*
Y640611D01*
X1449584D01*
Y645137D01*
X1449651Y645260D01*
X1449655Y645298D01*
X1449656Y645298D01*
X1449805Y645359D01*
X1450046Y645424D01*
X1450377Y645479D01*
X1450793Y645516D01*
X1451320Y645530D01*
X1451432Y645580D01*
X1455749D01*
X1455861Y645530D01*
X1456388Y645516D01*
X1456803Y645479D01*
X1457135Y645424D01*
X1457377Y645359D01*
X1457524Y645299D01*
X1457526Y645298D01*
X1457530Y645260D01*
X1457597Y645137D01*
Y642611D01*
X1466332D01*
X1466375Y642585D01*
X1466485Y642611D01*
X1466488D01*
X1466593Y642567D01*
X1466699Y642611D01*
X1467706D01*
X1467883Y642509D01*
X1468270Y642237D01*
X1469295Y641368D01*
X1469881Y640801D01*
X1469998Y640755D01*
X1481451Y629303D01*
X1482367Y628691D01*
X1483448Y628476D01*
X1532487D01*
X1533013Y627206D01*
X1532222Y626415D01*
X1531068Y624415D01*
X1530470Y622185D01*
Y619875D01*
X1531068Y617645D01*
X1532222Y615645D01*
X1533855Y614012D01*
X1535855Y612858D01*
X1538085Y612260D01*
X1540395D01*
X1542625Y612858D01*
X1544625Y614012D01*
X1546258Y615645D01*
X1547412Y617645D01*
X1548010Y619875D01*
Y622185D01*
X1547412Y624415D01*
X1546258Y626415D01*
X1545467Y627206D01*
X1545993Y628476D01*
X1551930D01*
X1565626Y614780D01*
Y606468D01*
X1565576Y606355D01*
X1565562Y605821D01*
X1565525Y605400D01*
X1565470Y605064D01*
X1565404Y604817D01*
X1565342Y604664D01*
X1565339Y604660D01*
X1565305Y604656D01*
X1565239Y604620D01*
X1560730D01*
Y589180D01*
X1576170D01*
Y604620D01*
X1571661D01*
X1571595Y604656D01*
X1571561Y604660D01*
X1571558Y604664D01*
X1571496Y604817D01*
X1571431Y605064D01*
X1571375Y605400D01*
X1571338Y605821D01*
X1571324Y606355D01*
X1571274Y606468D01*
Y615950D01*
X1571059Y617031D01*
X1570447Y617947D01*
X1555097Y633297D01*
X1554181Y633909D01*
X1553100Y634124D01*
X1553100Y634124D01*
X1544184D01*
X1543359Y635394D01*
X1543701Y636221D01*
Y637919D01*
X1543051Y639489D01*
X1542540Y640000D01*
X1542689Y641270D01*
X1545309D01*
Y652743D01*
X1546557Y653288D01*
X1547161Y652680D01*
Y651946D01*
X1547087Y651767D01*
X1547130Y651662D01*
X1547104Y651552D01*
X1547161Y651459D01*
Y641270D01*
X1560391D01*
X1560701Y641270D01*
X1561661D01*
X1561971Y641270D01*
X1567796D01*
Y649290D01*
Y657310D01*
X1561971D01*
X1561661Y657310D01*
X1560701D01*
X1560391Y657310D01*
X1553012D01*
X1552919Y657367D01*
X1552809Y657341D01*
X1552704Y657384D01*
X1552525Y657310D01*
X1551608D01*
X1551402Y657427D01*
X1551018Y657695D01*
X1549999Y658557D01*
X1549416Y659120D01*
X1549299Y659166D01*
X1547658Y660807D01*
X1546742Y661419D01*
X1545661Y661634D01*
X1545661Y661634D01*
X1534191D01*
X1533059Y661969D01*
Y667255D01*
X1533065Y667288D01*
X1533059Y667310D01*
Y667769D01*
X1533100Y667906D01*
X1533221Y668178D01*
X1533407Y668505D01*
X1533651Y668864D01*
X1534398Y669763D01*
X1534872Y670256D01*
X1534874Y670262D01*
X1534880Y670265D01*
X1534924Y670379D01*
X1538697Y674152D01*
X1538697Y674152D01*
X1539309Y675069D01*
X1539524Y676149D01*
X1539524Y676149D01*
Y704328D01*
X1539524Y704328D01*
X1539309Y705409D01*
X1538697Y706325D01*
X1538697Y706325D01*
X1534924Y710099D01*
X1534880Y710212D01*
X1534874Y710215D01*
X1534872Y710221D01*
X1534386Y710727D01*
X1533989Y711180D01*
X1533663Y711597D01*
X1533407Y711972D01*
X1533221Y712300D01*
X1533100Y712572D01*
X1533059Y712708D01*
Y713167D01*
X1533065Y713189D01*
X1533059Y713222D01*
Y718509D01*
X1524519D01*
Y705969D01*
X1530756D01*
X1530974Y705812D01*
X1532123Y704820D01*
X1532802Y704161D01*
X1532919Y704115D01*
X1533876Y703158D01*
Y677319D01*
X1532931Y676375D01*
X1532818Y676332D01*
X1531500Y675095D01*
X1530988Y674675D01*
X1530756Y674509D01*
X1524519D01*
Y667773D01*
X1524493Y667730D01*
X1524519Y667620D01*
Y667617D01*
X1524476Y667512D01*
X1524519Y667406D01*
Y666399D01*
X1524417Y666222D01*
X1524146Y665835D01*
X1523276Y664810D01*
X1522710Y664224D01*
X1522664Y664107D01*
X1521292Y662736D01*
X1520680Y661820D01*
X1520465Y660739D01*
X1520465Y660739D01*
Y659157D01*
X1520415Y659045D01*
X1520401Y658511D01*
X1520365Y658090D01*
X1520309Y657753D01*
X1520243Y657507D01*
X1520181Y657354D01*
X1520179Y657350D01*
X1520144Y657346D01*
X1520078Y657310D01*
X1517769D01*
Y641270D01*
X1528809D01*
Y651459D01*
X1528867Y651552D01*
X1528840Y651662D01*
X1528884Y651767D01*
X1528809Y651946D01*
Y652863D01*
X1528927Y653068D01*
X1529194Y653453D01*
X1530056Y654472D01*
X1530619Y655055D01*
X1530665Y655172D01*
X1531479Y655986D01*
X1534269D01*
Y641270D01*
X1535797D01*
X1536323Y640000D01*
X1535811Y639489D01*
X1535161Y637919D01*
Y636221D01*
X1535504Y635394D01*
X1534679Y634124D01*
X1484617D01*
X1477262Y641479D01*
X1477927Y642611D01*
X1478730Y642611D01*
X1492137D01*
Y648307D01*
X1493999D01*
X1494330Y647976D01*
Y646851D01*
X1494980Y645281D01*
X1496181Y644080D01*
X1497751Y643430D01*
X1499449D01*
X1501019Y644080D01*
X1502220Y645281D01*
X1502870Y646851D01*
Y648549D01*
X1502220Y650119D01*
X1501019Y651320D01*
X1499449Y651970D01*
X1498324D01*
X1497166Y653128D01*
X1496250Y653740D01*
X1495169Y653955D01*
X1492137D01*
Y659651D01*
X1477597D01*
Y643832D01*
X1477597Y642941D01*
X1476465Y642277D01*
X1474006Y644736D01*
X1473964Y644847D01*
X1472889Y646004D01*
X1472521Y646462D01*
X1472239Y646865D01*
X1472137Y647041D01*
Y648048D01*
X1472180Y648154D01*
X1472137Y648260D01*
Y648262D01*
X1472163Y648372D01*
X1472137Y648415D01*
Y659651D01*
X1457597D01*
Y651671D01*
X1457530Y651548D01*
X1457526Y651511D01*
X1457525Y651510D01*
X1457376Y651449D01*
X1457135Y651384D01*
X1456804Y651329D01*
X1456388Y651292D01*
X1455861Y651278D01*
X1455749Y651228D01*
X1451432D01*
X1451320Y651278D01*
X1450793Y651292D01*
X1450378Y651329D01*
X1450046Y651384D01*
X1449804Y651449D01*
X1449657Y651509D01*
X1449655Y651511D01*
X1449651Y651548D01*
X1449584Y651671D01*
Y656197D01*
X1434970D01*
X1434906Y656232D01*
X1434866Y656237D01*
X1434860Y656247D01*
X1434798Y656399D01*
X1434733Y656646D01*
X1434677Y656981D01*
X1434640Y657401D01*
X1434626Y657933D01*
X1434577Y658045D01*
Y660182D01*
X1434577Y660182D01*
X1434362Y661263D01*
X1433749Y662179D01*
X1433749Y662179D01*
X1428282Y667647D01*
X1429098Y668626D01*
X1430204Y668626D01*
X1438648D01*
Y675785D01*
X1428982D01*
Y669891D01*
X1428982Y668742D01*
X1428002Y667926D01*
X1401781Y694147D01*
X1400865Y694759D01*
X1399784Y694974D01*
X1399784Y694974D01*
X1339850D01*
X1339850Y694974D01*
X1338769Y694759D01*
X1337853Y694147D01*
X1329454Y685748D01*
X1329353Y685714D01*
X1329052Y685452D01*
X1328723Y685222D01*
X1327641Y684635D01*
X1326998Y684348D01*
X1323150Y682997D01*
X1321959Y682649D01*
X1321958Y682648D01*
X1321957Y682648D01*
X1321758Y682488D01*
X1320949Y682271D01*
X1318835Y681050D01*
X1317110Y679324D01*
X1315889Y677211D01*
X1315257Y674853D01*
Y672412D01*
X1315889Y670055D01*
X1317110Y667941D01*
X1318835Y666215D01*
X1320949Y664994D01*
X1323307Y664363D01*
X1325748D01*
X1328105Y664994D01*
X1330219Y666215D01*
X1331945Y667941D01*
X1333166Y670055D01*
X1333797Y672412D01*
Y674853D01*
X1333472Y676069D01*
X1333505Y676331D01*
X1333256Y677241D01*
X1333091Y678047D01*
X1332998Y678788D01*
X1332972Y679459D01*
X1333008Y680062D01*
X1333102Y680598D01*
X1333248Y681072D01*
X1333443Y681494D01*
X1333689Y681874D01*
X1334053Y682292D01*
X1334087Y682393D01*
X1341020Y689326D01*
X1398614D01*
X1403664Y684276D01*
X1403138Y683006D01*
X1396727D01*
X1394671Y682597D01*
X1392928Y681432D01*
X1391763Y679689D01*
X1391354Y677633D01*
Y669633D01*
X1391763Y667576D01*
X1392928Y665833D01*
X1394671Y664668D01*
X1396727Y664259D01*
X1397845D01*
X1397898Y664040D01*
X1397944Y663731D01*
X1397974Y663346D01*
X1397986Y662858D01*
X1398088Y662626D01*
X1398251Y661809D01*
X1398863Y660893D01*
X1428313Y631443D01*
X1428313Y631442D01*
X1429230Y630830D01*
X1429689Y630739D01*
X1429564Y629469D01*
X1425380D01*
Y624182D01*
X1425375Y624149D01*
X1425380Y624128D01*
Y623668D01*
X1425339Y623532D01*
X1425218Y623260D01*
X1425032Y622932D01*
X1424788Y622574D01*
X1424041Y621674D01*
X1423568Y621182D01*
X1423565Y621175D01*
X1423559Y621172D01*
X1423516Y621059D01*
X1419257Y616800D01*
X1418644Y615883D01*
X1418429Y614803D01*
X1418429Y614803D01*
Y587595D01*
X1418429Y587595D01*
X1418644Y586514D01*
X1419257Y585598D01*
X1423516Y581339D01*
X1423559Y581225D01*
X1423565Y581222D01*
X1423568Y581216D01*
X1424054Y580710D01*
X1424450Y580257D01*
X1424777Y579841D01*
X1425032Y579465D01*
X1425218Y579138D01*
X1425339Y578866D01*
X1425380Y578730D01*
Y578270D01*
X1425375Y578249D01*
X1425380Y578215D01*
Y572929D01*
X1431926D01*
X1439603Y565252D01*
Y512253D01*
X1421493Y494144D01*
X1421250Y494208D01*
X1420320Y494767D01*
Y496149D01*
X1419670Y497719D01*
X1418469Y498920D01*
X1416899Y499570D01*
X1415774D01*
X1411894Y503450D01*
Y618696D01*
X1411894Y618696D01*
X1411679Y619777D01*
X1411067Y620693D01*
X1411067Y620693D01*
X1380630Y651130D01*
Y665990D01*
X1381019Y666215D01*
X1382745Y667941D01*
X1383966Y670055D01*
X1384597Y672412D01*
Y674853D01*
X1383966Y677211D01*
X1382745Y679324D01*
X1381019Y681050D01*
X1378905Y682271D01*
X1376548Y682903D01*
X1374107D01*
X1371749Y682271D01*
X1369635Y681050D01*
X1367910Y679324D01*
X1366689Y677211D01*
X1366057Y674853D01*
Y672412D01*
X1366689Y670055D01*
X1367910Y667941D01*
X1369635Y666215D01*
X1371749Y664994D01*
X1374107Y664363D01*
X1374982D01*
Y649960D01*
X1374982Y649960D01*
X1375197Y648879D01*
X1375809Y647963D01*
X1393130Y630642D01*
X1392644Y629469D01*
X1388380D01*
Y623834D01*
X1392650D01*
X1396920D01*
Y625193D01*
X1398093Y625679D01*
X1406246Y617527D01*
Y552934D01*
X1404975Y552408D01*
X1404050Y553334D01*
X1401970Y554535D01*
X1399651Y555156D01*
X1397249D01*
X1394930Y554535D01*
X1392850Y553334D01*
X1391152Y551636D01*
X1391012Y551394D01*
X1389510Y551234D01*
X1380385Y560359D01*
Y626852D01*
X1380170Y627932D01*
X1379558Y628849D01*
X1356531Y651875D01*
X1355615Y652487D01*
X1354534Y652702D01*
X1294392D01*
X1289831Y657263D01*
X1290281Y658350D01*
X1290281D01*
Y669471D01*
X1276869D01*
X1276350Y669574D01*
X1275831Y669471D01*
X1275119D01*
Y669259D01*
X1274353Y668747D01*
X1273741Y667831D01*
X1273526Y666750D01*
X1273741Y665669D01*
X1274353Y664753D01*
X1275119Y663987D01*
Y658349D01*
X1280757D01*
X1291225Y647881D01*
X1292141Y647269D01*
X1293222Y647054D01*
X1353365D01*
X1374737Y625682D01*
Y559189D01*
X1374952Y558109D01*
X1375564Y557192D01*
X1386852Y545904D01*
X1387768Y545292D01*
X1388849Y545077D01*
X1389330D01*
Y544836D01*
X1389951Y542516D01*
X1391152Y540437D01*
X1392850Y538739D01*
X1393196Y538539D01*
Y536538D01*
X1375495Y518837D01*
X1374014Y519152D01*
X1373671Y519978D01*
X1372877Y520773D01*
Y623349D01*
X1372877Y623349D01*
X1372662Y624430D01*
X1372050Y625346D01*
X1354049Y643347D01*
X1353133Y643959D01*
X1352052Y644174D01*
X1352052Y644174D01*
X1336714D01*
X1335919Y644970D01*
X1334349Y645620D01*
X1332651D01*
X1331081Y644970D01*
X1329880Y643769D01*
X1329230Y642199D01*
Y640501D01*
X1329880Y638931D01*
X1331081Y637730D01*
X1332651Y637080D01*
X1334349D01*
X1335919Y637730D01*
X1336714Y638526D01*
X1350882D01*
X1367229Y622179D01*
Y520776D01*
X1366431Y519978D01*
X1365781Y518409D01*
Y516710D01*
X1366431Y515141D01*
X1367633Y513940D01*
X1368459Y513598D01*
X1368774Y512117D01*
X1367482Y510824D01*
X1363820D01*
Y513660D01*
X1363820Y513770D01*
Y514930D01*
X1363820Y515040D01*
Y526360D01*
X1363820Y526470D01*
Y527630D01*
X1363820Y527740D01*
Y539060D01*
X1363820Y539170D01*
Y540330D01*
X1363820Y540440D01*
Y545465D01*
X1352550D01*
Y546735D01*
X1363820D01*
Y551870D01*
X1361574D01*
X1361048Y553140D01*
X1364798Y556890D01*
X1365410Y557806D01*
X1365625Y558887D01*
Y619666D01*
X1365410Y620747D01*
X1364798Y621663D01*
X1351533Y634928D01*
X1350617Y635540D01*
X1349536Y635755D01*
X1287811D01*
X1261223Y662343D01*
Y669471D01*
X1246062D01*
Y658349D01*
X1257229D01*
X1284645Y630934D01*
X1285561Y630322D01*
X1286642Y630107D01*
X1348366D01*
X1354925Y623548D01*
X1354439Y622375D01*
X1177550D01*
X1176578Y621972D01*
X1176175Y621000D01*
Y558000D01*
X1176578Y557028D01*
X1177550Y556625D01*
X1338868D01*
X1339394Y555355D01*
X1334311Y550272D01*
X1333699Y549356D01*
X1333484Y548275D01*
Y505825D01*
X1333699Y504744D01*
X1334311Y503828D01*
X1339715Y498424D01*
X1340369Y497987D01*
X1341280Y497076D01*
Y489640D01*
X1341280Y489530D01*
Y488370D01*
X1341280Y488260D01*
Y476940D01*
X1341280Y476830D01*
Y475670D01*
X1341280Y475560D01*
Y464240D01*
X1341280Y464130D01*
Y462970D01*
X1341280Y462860D01*
Y451540D01*
X1341280Y451430D01*
Y450270D01*
X1341280Y450160D01*
Y438840D01*
X1341280Y438730D01*
Y437570D01*
X1341280Y437460D01*
Y426140D01*
X1341280Y426030D01*
Y424870D01*
X1341280Y424760D01*
Y413440D01*
X1341280Y413330D01*
Y412170D01*
X1341280Y412060D01*
Y400740D01*
X1341280Y400630D01*
Y399470D01*
X1341280Y399360D01*
Y388040D01*
X1341280Y387930D01*
Y386770D01*
X1341280Y386660D01*
Y375230D01*
X1343376D01*
Y367768D01*
X1324369Y348761D01*
X1323403D01*
X1323130Y348707D01*
X1315133D01*
Y343954D01*
X1315067Y343831D01*
X1315063Y343794D01*
X1315061Y343793D01*
X1314913Y343732D01*
X1314671Y343667D01*
X1314341Y343612D01*
X1313925Y343575D01*
X1313398Y343561D01*
X1313286Y343512D01*
X1311156D01*
X1311044Y343561D01*
X1310516Y343575D01*
X1310101Y343612D01*
X1309770Y343667D01*
X1309528Y343732D01*
X1309380Y343793D01*
X1309379Y343794D01*
X1309375Y343831D01*
X1309308Y343954D01*
Y348707D01*
X1296768D01*
Y332667D01*
X1309308D01*
Y337421D01*
X1309375Y337543D01*
X1309379Y337581D01*
X1309380Y337582D01*
X1309528Y337642D01*
X1309770Y337707D01*
X1310101Y337763D01*
X1310516Y337799D01*
X1311044Y337813D01*
X1311156Y337863D01*
X1313286D01*
X1313398Y337813D01*
X1313925Y337799D01*
X1314340Y337763D01*
X1314671Y337707D01*
X1314913Y337642D01*
X1315061Y337582D01*
X1315063Y337581D01*
X1315067Y337543D01*
X1315133Y337421D01*
Y332667D01*
X1326173D01*
Y343239D01*
X1326620Y343328D01*
X1327536Y343940D01*
X1330460Y346865D01*
X1331633Y346378D01*
Y332667D01*
X1342673D01*
Y337476D01*
X1342709Y337542D01*
X1342713Y337576D01*
X1342718Y337579D01*
X1342870Y337641D01*
X1343117Y337707D01*
X1343454Y337762D01*
X1343875Y337799D01*
X1344409Y337813D01*
X1344521Y337863D01*
X1345629D01*
X1345741Y337813D01*
X1346272Y337799D01*
X1346692Y337762D01*
X1347027Y337707D01*
X1347274Y337641D01*
X1347426Y337579D01*
X1347437Y337573D01*
X1347442Y337531D01*
X1347477Y337468D01*
Y329101D01*
X1352230D01*
X1352353Y329034D01*
X1352390Y329030D01*
X1352391Y329029D01*
X1352452Y328880D01*
X1352517Y328639D01*
X1352572Y328308D01*
X1352609Y327892D01*
X1352623Y327365D01*
X1352672Y327253D01*
Y323035D01*
X1351670Y322033D01*
X1351056D01*
X1350944Y322083D01*
X1350410Y322097D01*
X1349989Y322134D01*
X1349652Y322189D01*
X1349405Y322255D01*
X1349253Y322317D01*
X1349248Y322320D01*
X1349244Y322354D01*
X1349208Y322420D01*
Y325479D01*
X1340668D01*
Y318380D01*
X1340358Y318318D01*
X1339441Y317706D01*
X1339441Y317706D01*
X1337374Y315638D01*
X1336761Y314722D01*
X1336546Y313641D01*
X1336546Y313641D01*
Y280777D01*
X1336546Y280777D01*
X1336761Y279696D01*
X1337374Y278779D01*
X1339441Y276712D01*
X1339441Y276712D01*
X1340358Y276100D01*
X1340668Y276038D01*
Y269333D01*
X1312208D01*
Y274574D01*
X1303668D01*
Y270598D01*
X1302398Y270072D01*
X1293450Y279020D01*
Y314083D01*
X1293450Y314083D01*
X1293200Y315981D01*
X1292467Y317749D01*
X1291302Y319268D01*
X1291302Y319268D01*
X1279173Y331397D01*
X1279699Y332667D01*
X1291308D01*
Y348707D01*
X1278768D01*
Y343512D01*
X1205615D01*
X1175070Y374057D01*
X1175556Y375230D01*
X1193820D01*
Y386660D01*
X1193820Y386770D01*
Y387930D01*
X1193820Y388040D01*
Y399360D01*
X1193820Y399470D01*
Y400630D01*
X1193820Y400740D01*
Y412060D01*
X1193820Y412170D01*
Y413330D01*
X1193820Y413440D01*
Y424760D01*
X1193820Y424870D01*
Y426030D01*
X1193820Y426140D01*
Y437460D01*
X1193820Y437570D01*
Y438730D01*
X1193820Y438840D01*
Y450160D01*
X1193820Y450270D01*
Y451430D01*
X1193820Y451540D01*
Y462860D01*
X1193820Y462970D01*
Y464130D01*
X1193820Y464240D01*
Y475560D01*
X1193820Y475670D01*
Y476830D01*
X1193820Y476940D01*
Y488260D01*
X1193820Y488370D01*
Y489530D01*
X1193820Y489640D01*
Y500960D01*
X1193820Y501070D01*
Y502230D01*
X1193820Y502340D01*
Y513660D01*
X1193820Y513770D01*
Y514930D01*
X1193820Y515040D01*
Y517340D01*
X1193856Y517406D01*
X1193860Y517441D01*
X1193864Y517444D01*
X1194017Y517505D01*
X1194263Y517571D01*
X1194600Y517626D01*
X1195021Y517663D01*
X1195555Y517677D01*
X1195667Y517727D01*
X1208143D01*
X1208251Y517678D01*
X1208827Y517656D01*
X1209023Y517635D01*
X1209201Y517606D01*
X1209346Y517573D01*
X1209456Y517539D01*
X1209531Y517508D01*
X1209572Y517487D01*
X1209584Y517478D01*
X1209646Y517423D01*
X1209867Y517347D01*
X1210283Y516931D01*
X1211852Y516281D01*
X1213551D01*
X1215120Y516931D01*
X1216321Y518133D01*
X1216971Y519702D01*
Y521401D01*
X1216321Y522970D01*
X1215120Y524171D01*
X1213551Y524821D01*
X1211852D01*
X1210283Y524171D01*
X1209867Y523756D01*
X1209647Y523680D01*
X1209584Y523624D01*
X1209572Y523616D01*
X1209531Y523595D01*
X1209456Y523564D01*
X1209346Y523530D01*
X1209201Y523497D01*
X1209039Y523471D01*
X1208557Y523431D01*
X1208278Y523426D01*
X1208163Y523376D01*
X1195667D01*
X1195555Y523426D01*
X1195021Y523439D01*
X1194600Y523476D01*
X1194263Y523532D01*
X1194017Y523598D01*
X1193864Y523659D01*
X1193860Y523662D01*
X1193856Y523697D01*
X1193820Y523763D01*
Y526360D01*
X1193820Y526470D01*
Y527630D01*
X1193820Y527740D01*
Y530189D01*
X1193856Y530255D01*
X1193860Y530289D01*
X1193864Y530292D01*
X1194017Y530354D01*
X1194263Y530420D01*
X1194600Y530475D01*
X1195021Y530512D01*
X1195555Y530526D01*
X1195667Y530576D01*
X1210959D01*
X1235892Y505642D01*
X1236974Y504920D01*
X1238250Y504666D01*
X1323013D01*
X1323110Y504625D01*
X1323439Y504624D01*
X1324416Y504602D01*
X1324518Y504594D01*
X1324731Y504380D01*
X1326301Y503730D01*
X1327999D01*
X1329569Y504380D01*
X1330770Y505581D01*
X1331420Y507151D01*
Y508849D01*
X1330770Y510419D01*
X1329569Y511620D01*
X1327999Y512270D01*
X1326301D01*
X1324731Y511620D01*
X1324565Y511453D01*
X1323041Y511373D01*
X1322960Y511334D01*
X1239631D01*
X1215208Y535757D01*
X1214126Y536480D01*
X1212850Y536734D01*
X1211574Y536480D01*
X1211191Y536224D01*
X1195667D01*
X1195555Y536274D01*
X1195021Y536288D01*
X1194600Y536325D01*
X1194263Y536381D01*
X1194017Y536446D01*
X1193864Y536508D01*
X1193860Y536511D01*
X1193856Y536545D01*
X1193820Y536611D01*
Y539060D01*
X1193820Y539170D01*
Y540330D01*
X1193820Y540440D01*
Y545465D01*
X1171280D01*
Y540440D01*
X1171280Y540330D01*
Y540026D01*
X1170010Y539500D01*
X1168670Y540839D01*
Y555514D01*
X1168417Y556790D01*
X1167694Y557871D01*
X1162056Y563509D01*
X1160974Y564232D01*
X1159753Y564475D01*
Y570421D01*
X1143713D01*
Y565367D01*
X1143678Y565303D01*
X1143674Y565265D01*
X1143665Y565259D01*
X1143513Y565198D01*
X1143266Y565132D01*
X1142930Y565076D01*
X1142511Y565040D01*
X1141978Y565026D01*
X1141866Y564976D01*
X1140544D01*
X1140432Y565026D01*
X1139898Y565040D01*
X1139477Y565076D01*
X1139140Y565132D01*
X1138893Y565198D01*
X1138741Y565260D01*
X1138736Y565262D01*
X1138732Y565297D01*
X1138696Y565363D01*
Y568922D01*
X1133943D01*
X1133820Y568988D01*
X1133783Y568992D01*
X1133782Y568994D01*
X1133721Y569142D01*
X1133656Y569384D01*
X1133601Y569714D01*
X1133564Y570130D01*
X1133550Y570657D01*
X1133501Y570769D01*
Y572869D01*
X1133501Y572869D01*
X1133286Y573950D01*
X1132673Y574866D01*
X1132673Y574866D01*
X1126331Y581209D01*
X1126290Y581320D01*
X1125221Y582471D01*
X1124857Y582926D01*
X1124579Y583326D01*
X1124462Y583531D01*
Y584448D01*
X1124536Y584627D01*
X1124492Y584731D01*
X1124519Y584841D01*
X1124462Y584935D01*
Y599686D01*
X1108875D01*
Y579084D01*
X1118610D01*
X1118704Y579027D01*
X1118814Y579053D01*
X1118919Y579010D01*
X1119098Y579084D01*
X1120015D01*
X1120220Y578966D01*
X1120604Y578699D01*
X1121624Y577837D01*
X1122206Y577274D01*
X1122323Y577228D01*
X1127852Y571699D01*
Y570769D01*
X1127802Y570657D01*
X1127788Y570130D01*
X1127752Y569715D01*
X1127696Y569384D01*
X1127631Y569142D01*
X1127571Y568994D01*
X1127570Y568992D01*
X1127532Y568988D01*
X1127410Y568922D01*
X1122656D01*
Y562152D01*
X1122644Y562135D01*
X1122656Y562067D01*
Y561063D01*
X1122617Y560964D01*
X1122414Y560588D01*
X1122121Y560147D01*
X1120513Y558241D01*
X1119790Y557497D01*
X1118702Y558062D01*
X1118506Y558188D01*
Y561516D01*
X1102466D01*
Y555382D01*
X1102466Y555382D01*
Y554921D01*
X1102466D01*
X1102466Y554112D01*
Y547233D01*
X1102408Y547139D01*
X1102435Y547029D01*
X1102391Y546925D01*
X1102466Y546745D01*
Y545829D01*
X1102348Y545623D01*
X1102081Y545239D01*
X1101218Y544220D01*
X1100656Y543637D01*
X1100610Y543520D01*
X1096038Y538948D01*
X1094865Y539434D01*
Y546412D01*
X1087706D01*
Y536746D01*
X1092129D01*
X1092808Y535476D01*
X1092683Y535289D01*
X1092468Y534208D01*
X1092468Y534208D01*
Y531210D01*
X1092418Y531098D01*
X1092404Y530564D01*
X1092367Y530143D01*
X1092311Y529806D01*
X1092246Y529560D01*
X1092184Y529407D01*
X1092181Y529403D01*
X1092147Y529399D01*
X1092081Y529363D01*
X1087499D01*
Y508761D01*
X1092025D01*
X1092148Y508694D01*
X1092186Y508690D01*
X1092186Y508689D01*
X1092247Y508541D01*
X1092312Y508299D01*
X1092367Y507968D01*
X1092404Y507552D01*
X1092418Y507025D01*
X1092468Y506913D01*
Y501921D01*
X1090448Y501520D01*
X1088586Y500275D01*
X1087341Y498413D01*
X1086904Y496216D01*
Y494894D01*
X1087341Y492697D01*
X1088586Y490835D01*
X1090448Y489590D01*
X1092645Y489153D01*
X1094842Y489590D01*
X1096705Y490835D01*
X1097949Y492697D01*
X1098386Y494894D01*
Y496216D01*
X1097949Y498413D01*
X1097619Y498907D01*
X1097901Y499330D01*
X1098116Y500411D01*
X1098116Y500411D01*
Y506913D01*
X1098166Y507025D01*
X1098180Y507552D01*
X1098217Y507968D01*
X1098272Y508299D01*
X1098337Y508541D01*
X1098397Y508689D01*
X1098399Y508690D01*
X1098436Y508694D01*
X1098559Y508761D01*
X1103085D01*
Y529363D01*
X1098503D01*
X1098437Y529399D01*
X1098403Y529403D01*
X1098400Y529407D01*
X1098338Y529560D01*
X1098272Y529806D01*
X1098217Y530143D01*
X1098180Y530564D01*
X1098166Y531098D01*
X1098116Y531210D01*
Y533038D01*
X1104590Y539512D01*
X1104701Y539553D01*
X1105852Y540622D01*
X1106307Y540986D01*
X1106707Y541264D01*
X1106854Y541348D01*
X1108051Y540976D01*
X1108216Y540006D01*
X1108189Y539836D01*
X1108156Y539691D01*
X1108122Y539581D01*
X1108091Y539506D01*
X1108070Y539464D01*
X1108062Y539453D01*
X1108007Y539390D01*
X1107930Y539170D01*
X1107515Y538754D01*
X1106865Y537185D01*
Y535486D01*
X1107515Y533917D01*
X1108716Y532716D01*
X1109365Y532446D01*
X1109465Y531031D01*
X1108893Y530648D01*
X1108170Y529567D01*
X1107916Y528291D01*
Y500834D01*
X1108170Y499558D01*
X1108893Y498476D01*
X1109974Y497754D01*
X1110105Y497728D01*
X1109804Y496216D01*
Y494894D01*
X1110241Y492697D01*
X1111486Y490835D01*
X1112409Y490218D01*
X1112475Y490006D01*
X1112550Y489633D01*
X1112657Y488498D01*
X1112671Y487801D01*
X1112721Y487687D01*
Y437831D01*
X1112671Y437719D01*
X1112657Y437185D01*
X1112620Y436764D01*
X1112565Y436427D01*
X1112499Y436181D01*
X1112449Y436057D01*
X1104003D01*
X1101803Y435619D01*
X1099938Y434373D01*
X1098692Y432508D01*
X1098254Y430308D01*
Y429002D01*
X1098692Y426802D01*
X1099938Y424937D01*
X1101803Y423691D01*
X1104003Y423253D01*
X1112449D01*
X1112499Y423129D01*
X1112565Y422883D01*
X1112620Y422546D01*
X1112657Y422125D01*
X1112671Y421591D01*
X1112721Y421479D01*
Y414039D01*
X1112671Y413927D01*
X1112657Y413393D01*
X1112620Y412972D01*
X1112565Y412635D01*
X1112499Y412388D01*
X1112437Y412236D01*
X1112434Y412231D01*
X1112400Y412227D01*
X1112334Y412191D01*
X1106363D01*
Y404873D01*
X1106224Y404843D01*
X1105536Y404774D01*
X1105104Y404765D01*
X1104872Y404663D01*
X1104053Y404500D01*
X1103136Y403887D01*
X1103136Y403887D01*
X1099898Y400649D01*
X1098627Y401175D01*
Y401660D01*
X1098627Y402930D01*
Y408255D01*
X1082588D01*
Y402930D01*
X1082588Y402120D01*
X1082588Y400850D01*
Y388120D01*
X1098627D01*
Y393806D01*
X1098710Y393837D01*
X1098937Y393893D01*
X1099249Y393940D01*
X1099639Y393971D01*
X1100133Y393983D01*
X1100365Y394085D01*
X1101181Y394248D01*
X1102097Y394860D01*
X1105093Y397856D01*
X1106363Y397330D01*
Y391589D01*
X1111775D01*
X1111815Y391483D01*
X1111870Y391261D01*
X1111916Y390955D01*
X1111947Y390571D01*
X1111959Y390083D01*
X1112062Y389851D01*
X1112224Y389036D01*
X1112836Y388120D01*
X1115603Y385353D01*
X1116519Y384741D01*
X1117600Y384526D01*
X1156613D01*
X1158577Y382561D01*
X1157858Y381484D01*
X1157258Y381733D01*
X1155360Y381983D01*
X1121188D01*
X1119985Y382787D01*
X1117733Y383234D01*
X1086733D01*
X1084482Y382787D01*
X1082573Y381511D01*
X1081298Y379603D01*
X1080850Y377351D01*
Y376208D01*
X1059778D01*
X1019829Y416157D01*
Y489885D01*
X1020713Y490475D01*
X1021958Y492338D01*
X1022395Y494535D01*
Y495857D01*
X1022004Y497820D01*
X1022626Y498750D01*
X1022880Y500026D01*
Y506936D01*
X1023778Y507834D01*
X1025859Y507834D01*
X1027129Y507834D01*
X1032454D01*
Y515854D01*
Y523874D01*
X1027129D01*
X1026319Y523874D01*
X1025049Y523874D01*
X1022423D01*
Y527708D01*
X1031397Y536682D01*
X1032523D01*
X1032846Y536746D01*
X1044840D01*
Y557348D01*
X1029253D01*
Y543198D01*
X1028740Y543096D01*
X1027658Y542373D01*
X1016732Y531447D01*
X1016009Y530365D01*
X1015755Y529089D01*
Y523874D01*
X1012319D01*
Y507834D01*
X1016211D01*
Y501509D01*
X1014457Y501160D01*
X1012594Y499916D01*
X1011350Y498053D01*
X1010913Y495857D01*
Y494535D01*
X1011350Y492338D01*
X1012594Y490475D01*
X1013161Y490097D01*
Y414776D01*
X1013415Y413500D01*
X1014138Y412418D01*
X1056039Y370517D01*
X1057121Y369794D01*
X1058397Y369540D01*
X1080850D01*
Y368352D01*
X1081298Y366100D01*
X1082573Y364192D01*
X1084482Y362916D01*
X1086733Y362468D01*
X1117733D01*
X1119985Y362916D01*
X1121893Y364192D01*
X1123169Y366100D01*
X1123411Y367317D01*
X1152323D01*
X1154136Y365504D01*
X1153609Y364235D01*
X1150868D01*
Y343487D01*
X1160616D01*
Y357228D01*
X1161886Y357754D01*
X1162292Y357348D01*
X1163215Y356145D01*
X1194345Y325015D01*
X1195864Y323850D01*
X1197632Y323117D01*
X1199530Y322867D01*
X1266963D01*
X1278784Y311045D01*
Y275983D01*
X1279034Y274085D01*
X1279767Y272316D01*
X1280932Y270798D01*
X1294421Y257309D01*
X1293895Y256039D01*
X1257575D01*
Y265488D01*
X1258845Y265919D01*
X1259572Y264972D01*
X1260986Y263886D01*
X1262633Y263204D01*
X1264400Y262972D01*
X1266167Y263204D01*
X1267814Y263886D01*
X1269228Y264972D01*
X1270314Y266386D01*
X1270996Y268033D01*
X1271228Y269800D01*
Y279300D01*
X1270996Y281067D01*
X1270314Y282714D01*
X1269228Y284128D01*
X1267814Y285214D01*
X1266167Y285896D01*
X1264400Y286128D01*
X1262633Y285896D01*
X1260986Y285214D01*
X1259572Y284128D01*
X1258845Y283181D01*
X1257575Y283612D01*
Y296930D01*
X1257792Y297083D01*
X1259036Y297124D01*
X1259562Y296854D01*
X1259581Y296822D01*
X1260984Y295772D01*
X1261200Y295717D01*
X1261367Y295571D01*
X1263028Y295009D01*
X1263250Y295024D01*
X1263455Y294937D01*
X1265208Y294919D01*
X1265414Y295002D01*
X1265636Y294983D01*
X1267307Y295511D01*
X1267477Y295654D01*
X1267694Y295705D01*
X1269119Y296726D01*
X1269236Y296915D01*
X1269426Y297031D01*
X1270463Y298445D01*
X1270516Y298661D01*
X1270660Y298830D01*
X1271206Y300496D01*
X1271189Y300717D01*
X1271274Y300923D01*
X1271275Y301799D01*
X1271274Y301800D01*
X1271275Y301800D01*
X1271275Y307300D01*
X1271274Y307300D01*
X1271275Y307301D01*
X1271274Y308177D01*
X1271189Y308382D01*
X1271206Y308604D01*
X1270660Y310270D01*
X1270516Y310439D01*
X1270463Y310655D01*
X1269426Y312069D01*
X1269236Y312185D01*
X1269119Y312373D01*
X1267694Y313395D01*
X1267477Y313446D01*
X1267307Y313589D01*
X1265636Y314117D01*
X1265414Y314098D01*
X1265208Y314181D01*
X1263455Y314163D01*
X1263250Y314076D01*
X1263028Y314091D01*
X1261367Y313529D01*
X1261200Y313383D01*
X1260984Y313328D01*
X1260740Y313145D01*
X1259470Y313781D01*
Y314820D01*
X1257335D01*
Y308550D01*
X1256065D01*
Y314820D01*
X1252335D01*
Y308550D01*
X1251065D01*
Y314820D01*
X1244355D01*
X1244309Y315048D01*
X1243697Y315964D01*
X1241344Y318317D01*
X1240428Y318929D01*
X1239347Y319144D01*
X1239347Y319144D01*
X1199053D01*
X1197972Y318929D01*
X1197628Y318699D01*
X1188517Y327809D01*
X1187601Y328422D01*
X1186520Y328637D01*
X1186520Y328637D01*
X1164877D01*
X1163796Y328422D01*
X1162879Y327809D01*
X1162879Y327809D01*
X1161785Y326715D01*
X1160614Y327340D01*
X1160616Y327351D01*
Y342216D01*
X1150233D01*
X1139850D01*
Y327351D01*
X1140048Y326357D01*
X1138878Y325731D01*
X1136799Y327809D01*
X1135883Y328422D01*
X1134802Y328637D01*
X1134802Y328637D01*
X1131367D01*
X1119712Y340293D01*
X1118795Y340905D01*
X1117715Y341120D01*
X1117714Y341120D01*
X1085274D01*
X1066742Y359652D01*
X1065826Y360264D01*
X1065471Y360335D01*
X1065341Y360648D01*
X1064140Y361849D01*
X1062571Y362499D01*
X1060872D01*
X1059303Y361849D01*
X1058101Y360648D01*
X1057451Y359078D01*
Y357379D01*
X1058101Y355810D01*
X1059303Y354609D01*
X1060872Y353959D01*
X1062571D01*
X1063897Y354508D01*
X1082107Y336298D01*
X1082107Y336298D01*
X1083024Y335686D01*
X1084105Y335471D01*
X1084105Y335471D01*
X1116545D01*
X1128201Y323815D01*
X1128201Y323815D01*
X1129117Y323203D01*
X1130198Y322988D01*
X1133633D01*
X1140130Y316490D01*
X1140130Y316490D01*
X1141047Y315878D01*
X1142127Y315663D01*
X1157551D01*
X1157552Y315663D01*
X1158632Y315878D01*
X1159549Y316490D01*
X1166047Y322988D01*
X1185350D01*
X1192345Y315993D01*
X1191859Y314820D01*
X1187335D01*
Y308550D01*
X1186065D01*
Y314820D01*
X1182335D01*
Y308550D01*
X1181065D01*
Y314820D01*
X1178930D01*
Y313781D01*
X1177660Y313145D01*
X1177415Y313328D01*
X1177200Y313383D01*
X1177032Y313529D01*
X1175372Y314091D01*
X1175150Y314076D01*
X1174945Y314163D01*
X1173192Y314181D01*
X1172986Y314098D01*
X1172764Y314117D01*
X1171093Y313589D01*
X1170922Y313446D01*
X1170706Y313395D01*
X1169281Y312373D01*
X1169164Y312185D01*
X1168974Y312069D01*
X1167937Y310655D01*
X1167885Y310439D01*
X1167740Y310270D01*
X1167194Y308604D01*
X1167211Y308382D01*
X1167126Y308177D01*
X1167125Y307301D01*
X1167125Y307300D01*
X1167125Y307300D01*
Y301800D01*
X1167125Y301800D01*
X1167125Y301799D01*
X1167126Y300923D01*
X1167211Y300717D01*
X1167194Y300496D01*
X1167740Y298830D01*
X1167885Y298661D01*
X1167937Y298445D01*
X1168974Y297031D01*
X1169164Y296915D01*
X1169281Y296727D01*
X1170706Y295705D01*
X1170922Y295654D01*
X1171093Y295511D01*
X1172764Y294983D01*
X1172986Y295002D01*
X1173192Y294919D01*
X1174945Y294937D01*
X1175150Y295024D01*
X1175372Y295009D01*
X1177032Y295571D01*
X1177200Y295717D01*
X1177415Y295772D01*
X1178819Y296822D01*
X1178838Y296854D01*
X1179364Y297124D01*
X1180608Y297083D01*
X1180825Y296930D01*
Y283612D01*
X1179555Y283181D01*
X1178828Y284128D01*
X1177414Y285214D01*
X1175767Y285896D01*
X1174000Y286128D01*
X1172233Y285896D01*
X1170586Y285214D01*
X1169172Y284128D01*
X1168086Y282714D01*
X1167404Y281067D01*
X1167172Y279300D01*
Y269800D01*
X1167404Y268033D01*
X1168086Y266386D01*
X1169172Y264972D01*
X1170586Y263886D01*
X1172233Y263204D01*
X1174000Y262972D01*
X1175767Y263204D01*
X1177414Y263886D01*
X1178828Y264972D01*
X1179555Y265919D01*
X1180825Y265488D01*
Y256039D01*
X1003299Y256039D01*
X1001352Y256039D01*
X997490Y256547D01*
X993728Y257555D01*
X990130Y259046D01*
X986757Y260993D01*
X983668Y263364D01*
X980913Y266118D01*
X978543Y269208D01*
X976596Y272581D01*
X975105Y276179D01*
X974097Y279941D01*
X973589Y283803D01*
X973589Y285750D01*
Y692150D01*
Y694097D01*
X974097Y697959D01*
X975105Y701721D01*
X976596Y705319D01*
X978543Y708692D01*
X980914Y711782D01*
X983668Y714536D01*
X986758Y716907D01*
X990131Y718854D01*
X993729Y720345D01*
X997491Y721353D01*
X1001353Y721861D01*
X1003300D01*
X1930400Y721861D01*
D02*
G37*
%LPC*%
G36*
X1524785Y655979D02*
X1523308D01*
X1523500Y655840D01*
X1523775Y655755D01*
X1524094D01*
X1524454Y655840D01*
X1524785Y655979D01*
D02*
G37*
G36*
X1138696Y547517D02*
X1131311D01*
Y541381D01*
X1138696D01*
Y547517D01*
D02*
G37*
G36*
X1131101Y529363D02*
X1123943D01*
Y519697D01*
X1131101D01*
Y529363D01*
D02*
G37*
G36*
Y518427D02*
X1123943D01*
Y508761D01*
X1131101D01*
Y518427D01*
D02*
G37*
G36*
X1159264Y513970D02*
X1151879D01*
Y507836D01*
X1159264D01*
Y513970D01*
D02*
G37*
G36*
X1150609D02*
X1143224D01*
Y507836D01*
X1150609D01*
Y513970D01*
D02*
G37*
G36*
X1144076Y501846D02*
X1139080D01*
Y496190D01*
X1144076D01*
Y501846D01*
D02*
G37*
G36*
X1137810D02*
X1132815D01*
Y496190D01*
X1137810D01*
Y501846D01*
D02*
G37*
G36*
X1144076Y494920D02*
X1139080D01*
Y489263D01*
X1144076D01*
Y494920D01*
D02*
G37*
G36*
X1137810D02*
X1132815D01*
Y489263D01*
X1137810D01*
Y494920D01*
D02*
G37*
G36*
X1149965Y412191D02*
X1142807D01*
Y402525D01*
X1149965D01*
Y412191D01*
D02*
G37*
G36*
X1141537D02*
X1134379D01*
Y402525D01*
X1141537D01*
Y412191D01*
D02*
G37*
G36*
X1149965Y401255D02*
X1142807D01*
Y391589D01*
X1149965D01*
Y401255D01*
D02*
G37*
G36*
X1141537D02*
X1134379D01*
Y391589D01*
X1141537D01*
Y401255D01*
D02*
G37*
G36*
X1400000Y486957D02*
X1399435D01*
Y478472D01*
X1407920D01*
Y479038D01*
X1407298Y481358D01*
X1406098Y483437D01*
X1404400Y485135D01*
X1402320Y486336D01*
X1400000Y486957D01*
D02*
G37*
G36*
X1398165D02*
X1397599D01*
X1395280Y486336D01*
X1393200Y485135D01*
X1391502Y483437D01*
X1390301Y481358D01*
X1389680Y479038D01*
Y478472D01*
X1398165D01*
Y486957D01*
D02*
G37*
G36*
X1407920Y477202D02*
X1399435D01*
Y468717D01*
X1400000D01*
X1402320Y469339D01*
X1404400Y470540D01*
X1406098Y472238D01*
X1407298Y474317D01*
X1407920Y476637D01*
Y477202D01*
D02*
G37*
G36*
X1398165D02*
X1389680D01*
Y476637D01*
X1390301Y474317D01*
X1391502Y472238D01*
X1393200Y470540D01*
X1395280Y469339D01*
X1397599Y468717D01*
X1398165D01*
Y477202D01*
D02*
G37*
G36*
X1425400Y461557D02*
X1422999D01*
X1420680Y460936D01*
X1418600Y459735D01*
X1416902Y458037D01*
X1415701Y455958D01*
X1415080Y453638D01*
Y451237D01*
X1415701Y448917D01*
X1416902Y446838D01*
X1418600Y445140D01*
X1420680Y443939D01*
X1422999Y443317D01*
X1425400D01*
X1427720Y443939D01*
X1429800Y445140D01*
X1431497Y446838D01*
X1432698Y448917D01*
X1433320Y451237D01*
Y453638D01*
X1432698Y455958D01*
X1431497Y458037D01*
X1429800Y459735D01*
X1427720Y460936D01*
X1425400Y461557D01*
D02*
G37*
G36*
X1433320Y436157D02*
X1415080D01*
Y417917D01*
X1433320D01*
Y436157D01*
D02*
G37*
G36*
X1400000D02*
X1397599D01*
X1395280Y435536D01*
X1393200Y434335D01*
X1391502Y432637D01*
X1390301Y430558D01*
X1389680Y428238D01*
Y425837D01*
X1390301Y423517D01*
X1391502Y421438D01*
X1393200Y419740D01*
X1395280Y418539D01*
X1397599Y417917D01*
X1400000D01*
X1402320Y418539D01*
X1404400Y419740D01*
X1406098Y421438D01*
X1407298Y423517D01*
X1407920Y425837D01*
Y428238D01*
X1407298Y430558D01*
X1406098Y432637D01*
X1404400Y434335D01*
X1402320Y435536D01*
X1400000Y436157D01*
D02*
G37*
G36*
X1570059Y718509D02*
X1566424D01*
Y712874D01*
X1570059D01*
Y718509D01*
D02*
G37*
G36*
X1565154D02*
X1561519D01*
Y712874D01*
X1565154D01*
Y718509D01*
D02*
G37*
G36*
X1570059Y711604D02*
X1566424D01*
Y705969D01*
X1570059D01*
Y711604D01*
D02*
G37*
G36*
X1565154D02*
X1561519D01*
Y705969D01*
X1565154D01*
Y711604D01*
D02*
G37*
G36*
X1932101Y709420D02*
X1931035D01*
Y692785D01*
X1947670D01*
Y693851D01*
X1947006Y697188D01*
X1945704Y700330D01*
X1943815Y703159D01*
X1941409Y705564D01*
X1938580Y707455D01*
X1935437Y708756D01*
X1932101Y709420D01*
D02*
G37*
G36*
X1929765D02*
X1928699D01*
X1925363Y708756D01*
X1922220Y707455D01*
X1919391Y705564D01*
X1916985Y703159D01*
X1915096Y700330D01*
X1913794Y697188D01*
X1913130Y693851D01*
Y692785D01*
X1929765D01*
Y709420D01*
D02*
G37*
G36*
X1005001D02*
X1003935D01*
Y692785D01*
X1020570D01*
Y693851D01*
X1019906Y697188D01*
X1018605Y700330D01*
X1016714Y703159D01*
X1014309Y705564D01*
X1011480Y707455D01*
X1008337Y708756D01*
X1005001Y709420D01*
D02*
G37*
G36*
X1002665D02*
X1001599D01*
X998262Y708756D01*
X995120Y707455D01*
X992291Y705564D01*
X989885Y703159D01*
X987996Y700330D01*
X986694Y697188D01*
X986030Y693851D01*
Y692785D01*
X1002665D01*
Y709420D01*
D02*
G37*
G36*
X1576059Y696509D02*
X1573174D01*
Y690874D01*
X1576059D01*
Y696509D01*
D02*
G37*
G36*
X1525559D02*
X1522674D01*
Y690874D01*
X1525559D01*
Y696509D01*
D02*
G37*
G36*
X1521404D02*
X1518519D01*
Y690874D01*
X1521404D01*
Y696509D01*
D02*
G37*
G36*
X1571904D02*
X1569019D01*
Y690874D01*
X1571904D01*
Y696509D01*
D02*
G37*
G36*
X1576059Y689604D02*
X1573174D01*
Y683969D01*
X1576059D01*
Y689604D01*
D02*
G37*
G36*
X1571904D02*
X1569019D01*
Y683969D01*
X1571904D01*
Y689604D01*
D02*
G37*
G36*
X1525559D02*
X1522674D01*
Y683969D01*
X1525559D01*
Y689604D01*
D02*
G37*
G36*
X1521404D02*
X1518519D01*
Y683969D01*
X1521404D01*
Y689604D01*
D02*
G37*
G36*
X1449584Y684213D02*
X1439918D01*
Y677055D01*
X1449584D01*
Y684213D01*
D02*
G37*
G36*
X1438648D02*
X1428982D01*
Y677055D01*
X1438648D01*
Y684213D01*
D02*
G37*
G36*
X1947670Y691515D02*
X1931035D01*
Y674880D01*
X1932101D01*
X1935437Y675544D01*
X1938580Y676845D01*
X1941409Y678736D01*
X1943815Y681141D01*
X1945704Y683970D01*
X1947006Y687113D01*
X1947670Y690449D01*
Y691515D01*
D02*
G37*
G36*
X1929765D02*
X1913130D01*
Y690449D01*
X1913794Y687113D01*
X1915096Y683970D01*
X1916985Y681141D01*
X1919391Y678736D01*
X1922220Y676845D01*
X1925363Y675544D01*
X1928699Y674880D01*
X1929765D01*
Y691515D01*
D02*
G37*
G36*
X1020570D02*
X1003935D01*
Y674880D01*
X1005001D01*
X1008337Y675544D01*
X1011480Y676845D01*
X1014309Y678736D01*
X1016714Y681141D01*
X1018605Y683970D01*
X1019906Y687113D01*
X1020570Y690449D01*
Y691515D01*
D02*
G37*
G36*
X1002665D02*
X986030D01*
Y690449D01*
X986694Y687113D01*
X987996Y683970D01*
X989885Y681141D01*
X992291Y678736D01*
X995120Y676845D01*
X998262Y675544D01*
X1001599Y674880D01*
X1002665D01*
Y691515D01*
D02*
G37*
G36*
X1684438Y693148D02*
X1676438D01*
X1674382Y692739D01*
X1672639Y691574D01*
X1671474Y689831D01*
X1671065Y687775D01*
Y679774D01*
X1671474Y677718D01*
X1672639Y675975D01*
X1674382Y674810D01*
X1676438Y674401D01*
X1684438D01*
X1686495Y674810D01*
X1688238Y675975D01*
X1689403Y677718D01*
X1689812Y679774D01*
Y687775D01*
X1689403Y689831D01*
X1688238Y691574D01*
X1686495Y692739D01*
X1684438Y693148D01*
D02*
G37*
G36*
X1351148Y682903D02*
X1350562D01*
Y674268D01*
X1359197D01*
Y674853D01*
X1358566Y677211D01*
X1357345Y679324D01*
X1355619Y681050D01*
X1353505Y682271D01*
X1351148Y682903D01*
D02*
G37*
G36*
X1140676Y683006D02*
X1137311D01*
Y674268D01*
X1146049D01*
Y677633D01*
X1145640Y679689D01*
X1144475Y681432D01*
X1142732Y682597D01*
X1140676Y683006D01*
D02*
G37*
G36*
X1136041D02*
X1132676D01*
X1130620Y682597D01*
X1128877Y681432D01*
X1127712Y679689D01*
X1127303Y677633D01*
Y674268D01*
X1136041D01*
Y683006D01*
D02*
G37*
G36*
X1349292Y682903D02*
X1348707D01*
X1346349Y682271D01*
X1344235Y681050D01*
X1342509Y679324D01*
X1341289Y677211D01*
X1340657Y674853D01*
Y674268D01*
X1349292D01*
Y682903D01*
D02*
G37*
G36*
X1261223Y685011D02*
X1246062D01*
Y682274D01*
X1244072D01*
X1242992Y682059D01*
X1242076Y681447D01*
X1238215Y677586D01*
X1237603Y676670D01*
X1237388Y675589D01*
Y661741D01*
X1236592Y660946D01*
X1235942Y659376D01*
Y657678D01*
X1236592Y656108D01*
X1237793Y654907D01*
X1239362Y654257D01*
X1241061D01*
X1242630Y654907D01*
X1243832Y656108D01*
X1244482Y657678D01*
Y659376D01*
X1243832Y660946D01*
X1243036Y661741D01*
Y674419D01*
X1244792Y676176D01*
X1246062Y675650D01*
Y673889D01*
X1261223D01*
Y685011D01*
D02*
G37*
G36*
X1620951Y690370D02*
X1619885D01*
Y673735D01*
X1636520D01*
Y674801D01*
X1635856Y678138D01*
X1634554Y681280D01*
X1632664Y684109D01*
X1630259Y686515D01*
X1627430Y688404D01*
X1624288Y689706D01*
X1620951Y690370D01*
D02*
G37*
G36*
X1618615D02*
X1617549D01*
X1614212Y689706D01*
X1611070Y688404D01*
X1608241Y686515D01*
X1605836Y684109D01*
X1603945Y681280D01*
X1602644Y678138D01*
X1601980Y674801D01*
Y673735D01*
X1618615D01*
Y690370D01*
D02*
G37*
G36*
X1290281Y685011D02*
X1275119D01*
Y673889D01*
X1290281D01*
Y676626D01*
X1292341D01*
X1293039Y675927D01*
Y675315D01*
X1293689Y673745D01*
X1294890Y672544D01*
X1296460Y671894D01*
X1298158D01*
X1299728Y672544D01*
X1300929Y673745D01*
X1301579Y675315D01*
Y677013D01*
X1300929Y678583D01*
X1299728Y679784D01*
X1298158Y680434D01*
X1296520D01*
X1295507Y681447D01*
X1294591Y682059D01*
X1293510Y682274D01*
X1290281D01*
Y685011D01*
D02*
G37*
G36*
X1570059Y674509D02*
X1566424D01*
Y668874D01*
X1570059D01*
Y674509D01*
D02*
G37*
G36*
X1565154D02*
X1561519D01*
Y668874D01*
X1565154D01*
Y674509D01*
D02*
G37*
G36*
X1449584Y675785D02*
X1439918D01*
Y668626D01*
X1449584D01*
Y675785D01*
D02*
G37*
G36*
X1359197Y672998D02*
X1350562D01*
Y664363D01*
X1351148D01*
X1353505Y664994D01*
X1355619Y666215D01*
X1357345Y667941D01*
X1358566Y670055D01*
X1359197Y672412D01*
Y672998D01*
D02*
G37*
G36*
X1349292D02*
X1340657D01*
Y672412D01*
X1341289Y670055D01*
X1342509Y667941D01*
X1344235Y666215D01*
X1346349Y664994D01*
X1348707Y664363D01*
X1349292D01*
Y672998D01*
D02*
G37*
G36*
X1214096Y682903D02*
X1211656D01*
X1209298Y682271D01*
X1207184Y681050D01*
X1205458Y679324D01*
X1204238Y677211D01*
X1203606Y674853D01*
Y672412D01*
X1204238Y670055D01*
X1205458Y667941D01*
X1207184Y666215D01*
X1209298Y664994D01*
X1211656Y664363D01*
X1214096D01*
X1216454Y664994D01*
X1218568Y666215D01*
X1220294Y667941D01*
X1221514Y670055D01*
X1222146Y672412D01*
Y674853D01*
X1221514Y677211D01*
X1220294Y679324D01*
X1218568Y681050D01*
X1216454Y682271D01*
X1214096Y682903D01*
D02*
G37*
G36*
X1188696D02*
X1186256D01*
X1183898Y682271D01*
X1181784Y681050D01*
X1180058Y679324D01*
X1178838Y677211D01*
X1178206Y674853D01*
Y672412D01*
X1178838Y670055D01*
X1180058Y667941D01*
X1181784Y666215D01*
X1183898Y664994D01*
X1186256Y664363D01*
X1188696D01*
X1191054Y664994D01*
X1193168Y666215D01*
X1194894Y667941D01*
X1196114Y670055D01*
X1196746Y672412D01*
Y674853D01*
X1196114Y677211D01*
X1194894Y679324D01*
X1193168Y681050D01*
X1191054Y682271D01*
X1188696Y682903D01*
D02*
G37*
G36*
X1163296D02*
X1160856D01*
X1158498Y682271D01*
X1156384Y681050D01*
X1154658Y679324D01*
X1153438Y677211D01*
X1152806Y674853D01*
Y672412D01*
X1153438Y670055D01*
X1154658Y667941D01*
X1156384Y666215D01*
X1158498Y664994D01*
X1160856Y664363D01*
X1163296D01*
X1165654Y664994D01*
X1167768Y666215D01*
X1169494Y667941D01*
X1170714Y670055D01*
X1171346Y672412D01*
Y674853D01*
X1170714Y677211D01*
X1169494Y679324D01*
X1167768Y681050D01*
X1165654Y682271D01*
X1163296Y682903D01*
D02*
G37*
G36*
X1146049Y672998D02*
X1137311D01*
Y664259D01*
X1140676D01*
X1142732Y664668D01*
X1144475Y665833D01*
X1145640Y667576D01*
X1146049Y669633D01*
Y672998D01*
D02*
G37*
G36*
X1136041D02*
X1127303D01*
Y669633D01*
X1127712Y667576D01*
X1128877Y665833D01*
X1130620Y664668D01*
X1132676Y664259D01*
X1136041D01*
Y672998D01*
D02*
G37*
G36*
X1570059Y667604D02*
X1566424D01*
Y661969D01*
X1570059D01*
Y667604D01*
D02*
G37*
G36*
X1565154D02*
X1561519D01*
Y661969D01*
X1565154D01*
Y667604D01*
D02*
G37*
G36*
X1802902Y667406D02*
X1802316D01*
Y658771D01*
X1810951D01*
Y659356D01*
X1810320Y661714D01*
X1809099Y663828D01*
X1807373Y665554D01*
X1805259Y666774D01*
X1802902Y667406D01*
D02*
G37*
G36*
X1801046D02*
X1800461D01*
X1798103Y666774D01*
X1795989Y665554D01*
X1794263Y663828D01*
X1793043Y661714D01*
X1792411Y659356D01*
Y658771D01*
X1801046D01*
Y667406D01*
D02*
G37*
G36*
X1636520Y672465D02*
X1619885D01*
Y655830D01*
X1620951D01*
X1624288Y656494D01*
X1627430Y657795D01*
X1630259Y659686D01*
X1632664Y662091D01*
X1634554Y664920D01*
X1635856Y668063D01*
X1636520Y671399D01*
Y672465D01*
D02*
G37*
G36*
X1618615D02*
X1601980D01*
Y671399D01*
X1602644Y668063D01*
X1603945Y664920D01*
X1605836Y662091D01*
X1608241Y659686D01*
X1611070Y657795D01*
X1614212Y656494D01*
X1617549Y655830D01*
X1618615D01*
Y672465D01*
D02*
G37*
G36*
X1569066Y657310D02*
Y649925D01*
X1575201D01*
Y657310D01*
X1569066D01*
D02*
G37*
G36*
X1681659Y667645D02*
X1679218D01*
X1676860Y667013D01*
X1674747Y665792D01*
X1673021Y664066D01*
X1671800Y661953D01*
X1671168Y659595D01*
Y657154D01*
X1671800Y654796D01*
X1673021Y652683D01*
X1674747Y650957D01*
X1676860Y649736D01*
X1679218Y649105D01*
X1681659D01*
X1684017Y649736D01*
X1686130Y650957D01*
X1687856Y652683D01*
X1689077Y654796D01*
X1689708Y657154D01*
Y659595D01*
X1689077Y661953D01*
X1687856Y664066D01*
X1686130Y665792D01*
X1684017Y667013D01*
X1681659Y667645D01*
D02*
G37*
G36*
X1810951Y657501D02*
X1802316D01*
Y648866D01*
X1802902D01*
X1805259Y649498D01*
X1807373Y650718D01*
X1809099Y652444D01*
X1810320Y654558D01*
X1810951Y656916D01*
Y657501D01*
D02*
G37*
G36*
X1801046D02*
X1792411D01*
Y656916D01*
X1793043Y654558D01*
X1794263Y652444D01*
X1795989Y650718D01*
X1798103Y649498D01*
X1800461Y648866D01*
X1801046D01*
Y657501D01*
D02*
G37*
G36*
X1575201Y648655D02*
X1569066D01*
Y641270D01*
X1575201D01*
Y648655D01*
D02*
G37*
G36*
X1861141Y654016D02*
X1852506D01*
Y637381D01*
X1861141D01*
Y654016D01*
D02*
G37*
G36*
X1681659Y642244D02*
X1679218D01*
X1676860Y641613D01*
X1674747Y640392D01*
X1673021Y638666D01*
X1671800Y636553D01*
X1671168Y634195D01*
Y631754D01*
X1671800Y629396D01*
X1673021Y627283D01*
X1674747Y625557D01*
X1676860Y624336D01*
X1679218Y623704D01*
X1681659D01*
X1684017Y624336D01*
X1686130Y625557D01*
X1687856Y627283D01*
X1689077Y629396D01*
X1689708Y631754D01*
Y634195D01*
X1689077Y636553D01*
X1687856Y638666D01*
X1686130Y640392D01*
X1684017Y641613D01*
X1681659Y642244D01*
D02*
G37*
G36*
X1802902Y642006D02*
X1800461D01*
X1798103Y641374D01*
X1795989Y640154D01*
X1794263Y638428D01*
X1793043Y636314D01*
X1792411Y633956D01*
Y631516D01*
X1793043Y629158D01*
X1794263Y627044D01*
X1795989Y625318D01*
X1798103Y624098D01*
X1800461Y623466D01*
X1802902D01*
X1805259Y624098D01*
X1807373Y625318D01*
X1809099Y627044D01*
X1810320Y629158D01*
X1810951Y631516D01*
Y633956D01*
X1810320Y636314D01*
X1809099Y638428D01*
X1807373Y640154D01*
X1805259Y641374D01*
X1802902Y642006D01*
D02*
G37*
G36*
X1861141Y636111D02*
X1852506D01*
Y619476D01*
X1861141D01*
Y636111D01*
D02*
G37*
G36*
X1396920Y622564D02*
X1393285D01*
Y616929D01*
X1396920D01*
Y622564D01*
D02*
G37*
G36*
X1392015D02*
X1388380D01*
Y616929D01*
X1392015D01*
Y622564D01*
D02*
G37*
G36*
X1439920Y607469D02*
X1437035D01*
Y601834D01*
X1439920D01*
Y607469D01*
D02*
G37*
G36*
X1389420D02*
X1386535D01*
Y601834D01*
X1389420D01*
Y607469D01*
D02*
G37*
G36*
X1435765D02*
X1432880D01*
Y601834D01*
X1435765D01*
Y607469D01*
D02*
G37*
G36*
X1385265D02*
X1382380D01*
Y601834D01*
X1385265D01*
Y607469D01*
D02*
G37*
G36*
X1009945Y616870D02*
X1007570D01*
X1005276Y616255D01*
X1003219Y615068D01*
X1001540Y613388D01*
X1000352Y611332D01*
X999737Y609038D01*
Y606663D01*
X1000352Y604369D01*
X1001540Y602312D01*
X1003219Y600632D01*
X1005276Y599445D01*
X1007570Y598830D01*
X1009945D01*
X1012239Y599445D01*
X1014296Y600632D01*
X1015975Y602312D01*
X1017163Y604369D01*
X1017777Y606663D01*
Y609038D01*
X1017163Y611332D01*
X1015975Y613388D01*
X1014296Y615068D01*
X1012239Y616255D01*
X1009945Y616870D01*
D02*
G37*
G36*
X1681659Y616844D02*
X1679218D01*
X1676860Y616213D01*
X1674747Y614992D01*
X1673021Y613266D01*
X1671800Y611153D01*
X1671168Y608795D01*
Y606354D01*
X1671800Y603996D01*
X1673021Y601883D01*
X1674747Y600157D01*
X1676860Y598936D01*
X1679218Y598304D01*
X1681659D01*
X1684017Y598936D01*
X1686130Y600157D01*
X1687856Y601883D01*
X1689077Y603996D01*
X1689708Y606354D01*
Y608795D01*
X1689077Y611153D01*
X1687856Y613266D01*
X1686130Y614992D01*
X1684017Y616213D01*
X1681659Y616844D01*
D02*
G37*
G36*
X1802902Y616606D02*
X1800461D01*
X1798103Y615974D01*
X1795989Y614754D01*
X1794263Y613028D01*
X1793043Y610914D01*
X1792411Y608556D01*
Y606116D01*
X1793043Y603758D01*
X1794263Y601644D01*
X1795989Y599918D01*
X1798103Y598698D01*
X1800461Y598066D01*
X1802902D01*
X1805259Y598698D01*
X1807373Y599918D01*
X1809099Y601644D01*
X1810320Y603758D01*
X1810951Y606116D01*
Y608556D01*
X1810320Y610914D01*
X1809099Y613028D01*
X1807373Y614754D01*
X1805259Y615974D01*
X1802902Y616606D01*
D02*
G37*
G36*
X1439920Y600564D02*
X1437035D01*
Y594929D01*
X1439920D01*
Y600564D01*
D02*
G37*
G36*
X1435765D02*
X1432880D01*
Y594929D01*
X1435765D01*
Y600564D01*
D02*
G37*
G36*
X1389420D02*
X1386535D01*
Y594929D01*
X1389420D01*
Y600564D01*
D02*
G37*
G36*
X1385265D02*
X1382380D01*
Y594929D01*
X1385265D01*
Y600564D01*
D02*
G37*
G36*
X1152477Y599686D02*
X1145319D01*
Y590020D01*
X1152477D01*
Y599686D01*
D02*
G37*
G36*
X1144049D02*
X1136891D01*
Y590020D01*
X1144049D01*
Y599686D01*
D02*
G37*
G36*
X1645666Y604620D02*
X1643634D01*
X1641670Y604094D01*
X1639910Y603078D01*
X1638472Y601640D01*
X1637456Y599880D01*
X1636930Y597916D01*
Y595884D01*
X1637456Y593920D01*
X1638472Y592160D01*
X1639910Y590723D01*
X1641670Y589706D01*
X1643634Y589180D01*
X1645666D01*
X1647630Y589706D01*
X1649390Y590723D01*
X1650827Y592160D01*
X1651844Y593920D01*
X1652370Y595884D01*
Y597916D01*
X1651844Y599880D01*
X1650827Y601640D01*
X1649390Y603078D01*
X1647630Y604094D01*
X1645666Y604620D01*
D02*
G37*
G36*
X1464195Y604400D02*
X1461885D01*
X1459655Y603802D01*
X1457655Y602648D01*
X1456022Y601015D01*
X1454868Y599015D01*
X1454270Y596785D01*
Y594475D01*
X1454868Y592245D01*
X1456022Y590245D01*
X1457655Y588612D01*
X1459655Y587458D01*
X1461885Y586860D01*
X1464195D01*
X1466425Y587458D01*
X1468425Y588612D01*
X1470058Y590245D01*
X1471212Y592245D01*
X1471810Y594475D01*
Y596785D01*
X1471212Y599015D01*
X1470058Y601015D01*
X1468425Y602648D01*
X1466425Y603802D01*
X1464195Y604400D01*
D02*
G37*
G36*
X1857083Y600143D02*
X1854906D01*
X1852803Y599580D01*
X1850917Y598491D01*
X1849377Y596951D01*
X1848288Y595065D01*
X1847725Y592962D01*
Y590784D01*
X1848288Y588681D01*
X1849377Y586795D01*
X1850917Y585256D01*
X1852803Y584167D01*
X1854906Y583603D01*
X1857083D01*
X1859187Y584167D01*
X1861073Y585256D01*
X1862612Y586795D01*
X1863701Y588681D01*
X1864265Y590784D01*
Y592962D01*
X1863701Y595065D01*
X1862612Y596951D01*
X1861073Y598491D01*
X1859187Y599580D01*
X1857083Y600143D01*
D02*
G37*
G36*
X1396920Y585469D02*
X1393285D01*
Y579834D01*
X1396920D01*
Y585469D01*
D02*
G37*
G36*
X1392015D02*
X1388380D01*
Y579834D01*
X1392015D01*
Y585469D01*
D02*
G37*
G36*
X1152477Y588750D02*
X1145319D01*
Y579084D01*
X1152477D01*
Y588750D01*
D02*
G37*
G36*
X1144049D02*
X1136891D01*
Y579084D01*
X1144049D01*
Y588750D01*
D02*
G37*
G36*
X1009945Y591470D02*
X1007570D01*
X1005276Y590855D01*
X1003219Y589668D01*
X1001540Y587989D01*
X1000352Y585932D01*
X999737Y583638D01*
Y581263D01*
X1000352Y578969D01*
X1001540Y576912D01*
X1003219Y575232D01*
X1005276Y574045D01*
X1007570Y573430D01*
X1009945D01*
X1012239Y574045D01*
X1014296Y575232D01*
X1015975Y576912D01*
X1017163Y578969D01*
X1017777Y581263D01*
Y583638D01*
X1017163Y585932D01*
X1015975Y587989D01*
X1014296Y589668D01*
X1012239Y590855D01*
X1009945Y591470D01*
D02*
G37*
G36*
X1396920Y578564D02*
X1393285D01*
Y572929D01*
X1396920D01*
Y578564D01*
D02*
G37*
G36*
X1392015D02*
X1388380D01*
Y572929D01*
X1392015D01*
Y578564D01*
D02*
G37*
G36*
X1802902Y591206D02*
X1800461D01*
X1798103Y590574D01*
X1795989Y589354D01*
X1794263Y587628D01*
X1793043Y585514D01*
X1792411Y583156D01*
Y580716D01*
X1793043Y578358D01*
X1794263Y576244D01*
X1795989Y574518D01*
X1798103Y573298D01*
X1800461Y572666D01*
X1802902D01*
X1805259Y573298D01*
X1807373Y574518D01*
X1809099Y576244D01*
X1810320Y578358D01*
X1810951Y580716D01*
Y583156D01*
X1810320Y585514D01*
X1809099Y587628D01*
X1807373Y589354D01*
X1805259Y590574D01*
X1802902Y591206D01*
D02*
G37*
G36*
X1681659Y591445D02*
X1679218D01*
X1676860Y590813D01*
X1674747Y589592D01*
X1673021Y587866D01*
X1671800Y585753D01*
X1671168Y583395D01*
Y580954D01*
X1671800Y578596D01*
X1673021Y576483D01*
X1674747Y574757D01*
X1676860Y573536D01*
X1679218Y572905D01*
X1681659D01*
X1684017Y573536D01*
X1685116Y574171D01*
X1686276Y573011D01*
Y566465D01*
X1684782Y564971D01*
X1684017Y565413D01*
X1681659Y566045D01*
X1679218D01*
X1676860Y565413D01*
X1674747Y564192D01*
X1673021Y562466D01*
X1671800Y560353D01*
X1671168Y557995D01*
Y555554D01*
X1671800Y553196D01*
X1673021Y551083D01*
X1674747Y549357D01*
X1676860Y548136D01*
X1679218Y547505D01*
X1681659D01*
X1684017Y548136D01*
X1686130Y549357D01*
X1687856Y551083D01*
X1689077Y553196D01*
X1689708Y555554D01*
Y557995D01*
X1689077Y560353D01*
X1688738Y560939D01*
X1691097Y563298D01*
X1691709Y564215D01*
X1691924Y565295D01*
Y574181D01*
X1691709Y575261D01*
X1691097Y576178D01*
X1688931Y578344D01*
X1689077Y578596D01*
X1689708Y580954D01*
Y583395D01*
X1689077Y585753D01*
X1687856Y587866D01*
X1686130Y589592D01*
X1684017Y590813D01*
X1681659Y591445D01*
D02*
G37*
G36*
X1645666Y579220D02*
X1643634D01*
X1641670Y578694D01*
X1639910Y577677D01*
X1638472Y576240D01*
X1637456Y574480D01*
X1636930Y572516D01*
Y570484D01*
X1637456Y568520D01*
X1638472Y566760D01*
X1639910Y565322D01*
X1641670Y564306D01*
X1643634Y563780D01*
X1645666D01*
X1647630Y564306D01*
X1649390Y565322D01*
X1650827Y566760D01*
X1651844Y568520D01*
X1652370Y570484D01*
Y572516D01*
X1651844Y574480D01*
X1650827Y576240D01*
X1649390Y577677D01*
X1647630Y578694D01*
X1645666Y579220D01*
D02*
G37*
G36*
X1569466D02*
X1567434D01*
X1565470Y578694D01*
X1563710Y577677D01*
X1562272Y576240D01*
X1561256Y574480D01*
X1560730Y572516D01*
Y570484D01*
X1561256Y568520D01*
X1562272Y566760D01*
X1563710Y565322D01*
X1565470Y564306D01*
X1567434Y563780D01*
X1569466D01*
X1571430Y564306D01*
X1573190Y565322D01*
X1574628Y566760D01*
X1575644Y568520D01*
X1576170Y570484D01*
Y572516D01*
X1575644Y574480D01*
X1574628Y576240D01*
X1573190Y577677D01*
X1571430Y578694D01*
X1569466Y579220D01*
D02*
G37*
G36*
X1118506Y568922D02*
X1111121D01*
Y562786D01*
X1118506D01*
Y568922D01*
D02*
G37*
G36*
X1109851D02*
X1102466D01*
Y562786D01*
X1109851D01*
Y568922D01*
D02*
G37*
G36*
X1540395Y579000D02*
X1538085D01*
X1535855Y578402D01*
X1533855Y577248D01*
X1532222Y575615D01*
X1531068Y573615D01*
X1530470Y571385D01*
Y569075D01*
X1531068Y566845D01*
X1532222Y564845D01*
X1533855Y563212D01*
X1535855Y562058D01*
X1538085Y561460D01*
X1540395D01*
X1542625Y562058D01*
X1544625Y563212D01*
X1546258Y564845D01*
X1547412Y566845D01*
X1548010Y569075D01*
Y571385D01*
X1547412Y573615D01*
X1546258Y575615D01*
X1544625Y577248D01*
X1542625Y578402D01*
X1540395Y579000D01*
D02*
G37*
G36*
X1464195D02*
X1461885D01*
X1459655Y578402D01*
X1457655Y577248D01*
X1456022Y575615D01*
X1454868Y573615D01*
X1454270Y571385D01*
Y569075D01*
X1454868Y566845D01*
X1456022Y564845D01*
X1457655Y563212D01*
X1459655Y562058D01*
X1461885Y561460D01*
X1464195D01*
X1466425Y562058D01*
X1468425Y563212D01*
X1470058Y564845D01*
X1471212Y566845D01*
X1471810Y569075D01*
Y571385D01*
X1471212Y573615D01*
X1470058Y575615D01*
X1468425Y577248D01*
X1466425Y578402D01*
X1464195Y579000D01*
D02*
G37*
G36*
X1857083Y575143D02*
X1854906D01*
X1852803Y574580D01*
X1850917Y573491D01*
X1849377Y571951D01*
X1848288Y570065D01*
X1847725Y567962D01*
Y565784D01*
X1848288Y563681D01*
X1849377Y561795D01*
X1850917Y560256D01*
X1852803Y559167D01*
X1854906Y558603D01*
X1857083D01*
X1859187Y559167D01*
X1861073Y560256D01*
X1862612Y561795D01*
X1863701Y563681D01*
X1864265Y565784D01*
Y567962D01*
X1863701Y570065D01*
X1862612Y571951D01*
X1861073Y573491D01*
X1859187Y574580D01*
X1857083Y575143D01*
D02*
G37*
G36*
X1086145Y616870D02*
X1083770D01*
X1081476Y616255D01*
X1079419Y615068D01*
X1077740Y613388D01*
X1076552Y611332D01*
X1075938Y609038D01*
Y608044D01*
X1075834Y607814D01*
X1075774Y605802D01*
X1075689Y604963D01*
X1075567Y604188D01*
X1075412Y603494D01*
X1075225Y602882D01*
X1075012Y602351D01*
X1074778Y601901D01*
X1074526Y601527D01*
X1074197Y601151D01*
X1074163Y601050D01*
X1071325Y598212D01*
X1070713Y597296D01*
X1070498Y596215D01*
X1070498Y596215D01*
Y564991D01*
X1064724Y559217D01*
X1064612Y559175D01*
X1063456Y558100D01*
X1062998Y557732D01*
X1062595Y557450D01*
X1062419Y557348D01*
X1061411D01*
X1061306Y557392D01*
X1061200Y557348D01*
X1061198D01*
X1061087Y557374D01*
X1061045Y557348D01*
X1051263D01*
Y540740D01*
X1048179Y537656D01*
X1047566Y536740D01*
X1047351Y535659D01*
X1047351Y535659D01*
Y525722D01*
X1047301Y525609D01*
X1047288Y525075D01*
X1047251Y524654D01*
X1047195Y524317D01*
X1047130Y524071D01*
X1047068Y523918D01*
X1047065Y523914D01*
X1047030Y523910D01*
X1046964Y523874D01*
X1043406D01*
Y507834D01*
X1046452D01*
X1046908Y506619D01*
X1046899Y506535D01*
X1043167Y502803D01*
X1043087Y502781D01*
X1043052Y502718D01*
X1042984Y502691D01*
X1042469Y502196D01*
X1042023Y501806D01*
X1041636Y501506D01*
X1041316Y501296D01*
X1041246Y501261D01*
X1040535Y501402D01*
X1040428Y501465D01*
X1040339Y501441D01*
X1040311Y501447D01*
X1040237Y501477D01*
X1040212Y501466D01*
X1039554Y501597D01*
X1037357Y501160D01*
X1035494Y499916D01*
X1034250Y498053D01*
X1033813Y495857D01*
Y494535D01*
X1034250Y492338D01*
X1035494Y490475D01*
X1036730Y489650D01*
Y437472D01*
X1036680Y437360D01*
X1036666Y436826D01*
X1036629Y436405D01*
X1036573Y436068D01*
X1036508Y435821D01*
X1036457Y435698D01*
X1028012D01*
X1025812Y435260D01*
X1023947Y434014D01*
X1022700Y432149D01*
X1022263Y429948D01*
Y428643D01*
X1022700Y426443D01*
X1023947Y424578D01*
X1025812Y423331D01*
X1028012Y422894D01*
X1051096D01*
X1053296Y423331D01*
X1055161Y424578D01*
X1056407Y426443D01*
X1056845Y428643D01*
Y429948D01*
X1056407Y432149D01*
X1055161Y434014D01*
X1053296Y435260D01*
X1051096Y435698D01*
X1042650D01*
X1042600Y435821D01*
X1042534Y436068D01*
X1042479Y436405D01*
X1042442Y436826D01*
X1042428Y437360D01*
X1042378Y437472D01*
Y489650D01*
X1043613Y490475D01*
X1044858Y492338D01*
X1045295Y494535D01*
Y495857D01*
X1045191Y496379D01*
X1045320Y496615D01*
X1045549Y496955D01*
X1046303Y497860D01*
X1046795Y498372D01*
X1046841Y498488D01*
X1052173Y503820D01*
X1052173Y503820D01*
X1052785Y504737D01*
X1053000Y505817D01*
Y505987D01*
X1053050Y506099D01*
X1053064Y506633D01*
X1053101Y507053D01*
X1053156Y507391D01*
X1053222Y507637D01*
X1053284Y507790D01*
X1053286Y507794D01*
X1053321Y507798D01*
X1053387Y507834D01*
X1056946Y507834D01*
X1058216Y507834D01*
X1063541D01*
Y515854D01*
Y523874D01*
X1058216D01*
X1057406Y523874D01*
X1056136Y523874D01*
X1053387D01*
X1053321Y523910D01*
X1053286Y523914D01*
X1053284Y523918D01*
X1053222Y524071D01*
X1053156Y524317D01*
X1053101Y524654D01*
X1053064Y525075D01*
X1053050Y525609D01*
X1053000Y525722D01*
Y534489D01*
X1055257Y536746D01*
X1066849D01*
Y551544D01*
X1066875Y551586D01*
X1066849Y551697D01*
Y551699D01*
X1066893Y551805D01*
X1066849Y551910D01*
Y552918D01*
X1066951Y553094D01*
X1067223Y553482D01*
X1068092Y554506D01*
X1068658Y555092D01*
X1068705Y555209D01*
X1075320Y561824D01*
X1075932Y562741D01*
X1076147Y563821D01*
Y573430D01*
X1093978D01*
Y591470D01*
X1076147D01*
Y595045D01*
X1078158Y597056D01*
X1078258Y597090D01*
X1078634Y597418D01*
X1079008Y597670D01*
X1079459Y597905D01*
X1079989Y598118D01*
X1080602Y598304D01*
X1081296Y598460D01*
X1082053Y598579D01*
X1083874Y598717D01*
X1084893Y598726D01*
X1085138Y598830D01*
X1086145D01*
X1088439Y599445D01*
X1090496Y600632D01*
X1092175Y602312D01*
X1093363Y604369D01*
X1093978Y606663D01*
Y609038D01*
X1093363Y611332D01*
X1092175Y613388D01*
X1090496Y615068D01*
X1088439Y616255D01*
X1086145Y616870D01*
D02*
G37*
G36*
X1016824Y557348D02*
X1009666D01*
Y547682D01*
X1016824D01*
Y557348D01*
D02*
G37*
G36*
X1094865D02*
X1087706D01*
Y547682D01*
X1094865D01*
Y557348D01*
D02*
G37*
G36*
X1086436D02*
X1079278D01*
Y547682D01*
X1086436D01*
Y557348D01*
D02*
G37*
G36*
X1008396D02*
X1001238D01*
Y547682D01*
X1008396D01*
Y557348D01*
D02*
G37*
G36*
X1802902Y565806D02*
X1800461D01*
X1798103Y565174D01*
X1795989Y563954D01*
X1794263Y562228D01*
X1793043Y560114D01*
X1792411Y557756D01*
Y555316D01*
X1793043Y552958D01*
X1794263Y550844D01*
X1795989Y549118D01*
X1798103Y547898D01*
X1800461Y547266D01*
X1802902D01*
X1805259Y547898D01*
X1807373Y549118D01*
X1809099Y550844D01*
X1810320Y552958D01*
X1810951Y555316D01*
Y557756D01*
X1810320Y560114D01*
X1809099Y562228D01*
X1807373Y563954D01*
X1805259Y565174D01*
X1802902Y565806D01*
D02*
G37*
G36*
X1193820Y551870D02*
X1183185D01*
Y546735D01*
X1193820D01*
Y551870D01*
D02*
G37*
G36*
X1181915D02*
X1171280D01*
Y546735D01*
X1181915D01*
Y551870D01*
D02*
G37*
G36*
X1425051Y555156D02*
X1424485D01*
Y546671D01*
X1432970D01*
Y547237D01*
X1432348Y549557D01*
X1431148Y551636D01*
X1429450Y553334D01*
X1427370Y554535D01*
X1425051Y555156D01*
D02*
G37*
G36*
X1423215D02*
X1422649D01*
X1420330Y554535D01*
X1418250Y553334D01*
X1416552Y551636D01*
X1415351Y549557D01*
X1414730Y547237D01*
Y546671D01*
X1423215D01*
Y555156D01*
D02*
G37*
G36*
X1645666Y553820D02*
X1643634D01*
X1641670Y553294D01*
X1639910Y552277D01*
X1638472Y550840D01*
X1637456Y549080D01*
X1636930Y547116D01*
Y545084D01*
X1637456Y543120D01*
X1638472Y541360D01*
X1639910Y539922D01*
X1641670Y538906D01*
X1643634Y538380D01*
X1645666D01*
X1647630Y538906D01*
X1649390Y539922D01*
X1650827Y541360D01*
X1651844Y543120D01*
X1652370Y545084D01*
Y547116D01*
X1651844Y549080D01*
X1650827Y550840D01*
X1649390Y552277D01*
X1647630Y553294D01*
X1645666Y553820D01*
D02*
G37*
G36*
X1569466D02*
X1567434D01*
X1565470Y553294D01*
X1563710Y552277D01*
X1562272Y550840D01*
X1561256Y549080D01*
X1560730Y547116D01*
Y545084D01*
X1561256Y543120D01*
X1562272Y541360D01*
X1563710Y539922D01*
X1565470Y538906D01*
X1567434Y538380D01*
X1569466D01*
X1571430Y538906D01*
X1573190Y539922D01*
X1574628Y541360D01*
X1575644Y543120D01*
X1576170Y545084D01*
Y547116D01*
X1575644Y549080D01*
X1574628Y550840D01*
X1573190Y552277D01*
X1571430Y553294D01*
X1569466Y553820D01*
D02*
G37*
G36*
X1432970Y545401D02*
X1424485D01*
Y536916D01*
X1425051D01*
X1427370Y537538D01*
X1429450Y538739D01*
X1431148Y540437D01*
X1432348Y542516D01*
X1432970Y544836D01*
Y545401D01*
D02*
G37*
G36*
X1423215D02*
X1414730D01*
Y544836D01*
X1415351Y542516D01*
X1416552Y540437D01*
X1418250Y538739D01*
X1420330Y537538D01*
X1422649Y536916D01*
X1423215D01*
Y545401D01*
D02*
G37*
G36*
X1086436Y546412D02*
X1079278D01*
Y536746D01*
X1086436D01*
Y546412D01*
D02*
G37*
G36*
X1016824D02*
X1009666D01*
Y536746D01*
X1016824D01*
Y546412D01*
D02*
G37*
G36*
X1008396D02*
X1001238D01*
Y536746D01*
X1008396D01*
Y546412D01*
D02*
G37*
G36*
X1540395Y553600D02*
X1538085D01*
X1535855Y553002D01*
X1533855Y551848D01*
X1532222Y550215D01*
X1531068Y548215D01*
X1530470Y545985D01*
Y543675D01*
X1531068Y541445D01*
X1532222Y539445D01*
X1533855Y537812D01*
X1535855Y536658D01*
X1538085Y536060D01*
X1540395D01*
X1542625Y536658D01*
X1544625Y537812D01*
X1546258Y539445D01*
X1547412Y541445D01*
X1548010Y543675D01*
Y545985D01*
X1547412Y548215D01*
X1546258Y550215D01*
X1544625Y551848D01*
X1542625Y553002D01*
X1540395Y553600D01*
D02*
G37*
G36*
X1857083Y550143D02*
X1854906D01*
X1852803Y549580D01*
X1850917Y548491D01*
X1849377Y546951D01*
X1848288Y545065D01*
X1847725Y542962D01*
Y540784D01*
X1848288Y538681D01*
X1849377Y536795D01*
X1850917Y535256D01*
X1852803Y534167D01*
X1854906Y533603D01*
X1857083D01*
X1859187Y534167D01*
X1861073Y535256D01*
X1862612Y536795D01*
X1863701Y538681D01*
X1864265Y540784D01*
Y542962D01*
X1863701Y545065D01*
X1862612Y546951D01*
X1861073Y548491D01*
X1859187Y549580D01*
X1857083Y550143D01*
D02*
G37*
G36*
X1064811Y523874D02*
Y516489D01*
X1070946D01*
Y523874D01*
X1064811D01*
D02*
G37*
G36*
X1033724D02*
Y516489D01*
X1039859D01*
Y523874D01*
X1033724D01*
D02*
G37*
G36*
X1681659Y540644D02*
X1679218D01*
X1676860Y540013D01*
X1674747Y538792D01*
X1673021Y537066D01*
X1671800Y534953D01*
X1671168Y532595D01*
Y530154D01*
X1671800Y527796D01*
X1672476Y526626D01*
X1659371Y513521D01*
X1650040D01*
X1649659Y514791D01*
X1650827Y515960D01*
X1651844Y517720D01*
X1652370Y519684D01*
Y521716D01*
X1651844Y523680D01*
X1650827Y525440D01*
X1649390Y526878D01*
X1647630Y527894D01*
X1645666Y528420D01*
X1643634D01*
X1641670Y527894D01*
X1639910Y526878D01*
X1638472Y525440D01*
X1637456Y523680D01*
X1636930Y521716D01*
Y519684D01*
X1637456Y517720D01*
X1638472Y515960D01*
X1639641Y514791D01*
X1639260Y513521D01*
X1612159D01*
X1593763Y531917D01*
X1592847Y532529D01*
X1591766Y532744D01*
X1591766Y532744D01*
X1564631D01*
X1563550Y532529D01*
X1562634Y531917D01*
X1562634Y531917D01*
X1549280Y518563D01*
X1548010Y519089D01*
Y520585D01*
X1547412Y522815D01*
X1546258Y524815D01*
X1544625Y526448D01*
X1542625Y527602D01*
X1540395Y528200D01*
X1538085D01*
X1535855Y527602D01*
X1533855Y526448D01*
X1532222Y524815D01*
X1531068Y522815D01*
X1530470Y520585D01*
Y518275D01*
X1531068Y516045D01*
X1532222Y514045D01*
X1533855Y512412D01*
X1535855Y511258D01*
X1538085Y510660D01*
X1538180D01*
X1538859Y509390D01*
X1538781Y509273D01*
X1527005D01*
X1525924Y509058D01*
X1525007Y508445D01*
X1525007Y508445D01*
X1496740Y480177D01*
X1496127Y479261D01*
X1495912Y478180D01*
X1495912Y478180D01*
Y404651D01*
X1469083Y377822D01*
X1468981Y377787D01*
X1468626Y377475D01*
X1468266Y377228D01*
X1467827Y376989D01*
X1467306Y376763D01*
X1466703Y376556D01*
X1466020Y376370D01*
X1465271Y376212D01*
X1463479Y375965D01*
X1462474Y375886D01*
X1462304Y375800D01*
X1461885D01*
X1459655Y375202D01*
X1457655Y374048D01*
X1456022Y372415D01*
X1454868Y370415D01*
X1454270Y368185D01*
Y365875D01*
X1454868Y363645D01*
X1456022Y361645D01*
X1457655Y360012D01*
X1459655Y358858D01*
X1461885Y358260D01*
X1464195D01*
X1466425Y358858D01*
X1468425Y360012D01*
X1470058Y361645D01*
X1471212Y363645D01*
X1471810Y365875D01*
Y367496D01*
X1471888Y367719D01*
X1471832Y368672D01*
X1471824Y369526D01*
X1471861Y370308D01*
X1471941Y371020D01*
X1472061Y371658D01*
X1472217Y372223D01*
X1472407Y372717D01*
X1472625Y373143D01*
X1472868Y373505D01*
X1473199Y373882D01*
X1473200Y373887D01*
X1473204Y373889D01*
X1473237Y373988D01*
X1500733Y401484D01*
X1500734Y401484D01*
X1501346Y402401D01*
X1501561Y403481D01*
X1501561Y403481D01*
Y477010D01*
X1528174Y503624D01*
X1536254D01*
X1536421Y502354D01*
X1535855Y502202D01*
X1533855Y501048D01*
X1532222Y499415D01*
X1531068Y497415D01*
X1530470Y495185D01*
Y492875D01*
X1531068Y490645D01*
X1532222Y488645D01*
X1533855Y487012D01*
X1535855Y485858D01*
X1538085Y485260D01*
X1540395D01*
X1542625Y485858D01*
X1544625Y487012D01*
X1546258Y488645D01*
X1547412Y490645D01*
X1548010Y492875D01*
Y495185D01*
X1547412Y497415D01*
X1546258Y499415D01*
X1544625Y501048D01*
X1542625Y502202D01*
X1541729Y502443D01*
X1541772Y503746D01*
X1542240Y503839D01*
X1543156Y504451D01*
X1559460Y520755D01*
X1560730Y520229D01*
Y519684D01*
X1561256Y517720D01*
X1562272Y515960D01*
X1563710Y514523D01*
X1565470Y513506D01*
X1567434Y512980D01*
X1569466D01*
X1569491Y512986D01*
X1581496Y500981D01*
Y453990D01*
X1574757Y447251D01*
X1558149D01*
Y435659D01*
X1545981Y423491D01*
X1544625Y424848D01*
X1542625Y426002D01*
X1540395Y426600D01*
X1538085D01*
X1535855Y426002D01*
X1533855Y424848D01*
X1532222Y423215D01*
X1531068Y421215D01*
X1530470Y418985D01*
Y416675D01*
X1531068Y414445D01*
X1532222Y412445D01*
X1533855Y410812D01*
X1535855Y409658D01*
X1538085Y409060D01*
X1540395D01*
X1542625Y409658D01*
X1544625Y410812D01*
X1546258Y412445D01*
X1547412Y414445D01*
X1548010Y416675D01*
Y417730D01*
X1548607Y418129D01*
X1562143Y431665D01*
X1578751D01*
Y443257D01*
X1586317Y450823D01*
X1586317Y450823D01*
X1586930Y451740D01*
X1587145Y452820D01*
Y502151D01*
X1586930Y503232D01*
X1586317Y504148D01*
X1586317Y504148D01*
X1574566Y515899D01*
X1574628Y515960D01*
X1575644Y517720D01*
X1576170Y519684D01*
Y521716D01*
X1575644Y523680D01*
X1574628Y525440D01*
X1574242Y525826D01*
X1574768Y527096D01*
X1590596D01*
X1608992Y508700D01*
X1608992Y508700D01*
X1609908Y508088D01*
X1610989Y507873D01*
X1610989Y507873D01*
X1660541D01*
X1660541Y507873D01*
X1661622Y508088D01*
X1662538Y508700D01*
X1676679Y522841D01*
X1676860Y522736D01*
X1679218Y522104D01*
X1681659D01*
X1684017Y522736D01*
X1686130Y523957D01*
X1687856Y525683D01*
X1689077Y527796D01*
X1689708Y530154D01*
Y532595D01*
X1689077Y534953D01*
X1687856Y537066D01*
X1686130Y538792D01*
X1684017Y540013D01*
X1681659Y540644D01*
D02*
G37*
G36*
X1432970Y529756D02*
X1414730D01*
Y511516D01*
X1432970D01*
Y529756D01*
D02*
G37*
G36*
X1464195Y528200D02*
X1461885D01*
X1459655Y527602D01*
X1457655Y526448D01*
X1456022Y524815D01*
X1454868Y522815D01*
X1454270Y520585D01*
Y518275D01*
X1454868Y516045D01*
X1456022Y514045D01*
X1457655Y512412D01*
X1459655Y511258D01*
X1461885Y510660D01*
X1464195D01*
X1466425Y511258D01*
X1468425Y512412D01*
X1470058Y514045D01*
X1471212Y516045D01*
X1471810Y518275D01*
Y520585D01*
X1471212Y522815D01*
X1470058Y524815D01*
X1468425Y526448D01*
X1466425Y527602D01*
X1464195Y528200D01*
D02*
G37*
G36*
X1864265Y525143D02*
X1847725D01*
Y508603D01*
X1864265D01*
Y525143D01*
D02*
G37*
G36*
X1070946Y515219D02*
X1064811D01*
Y507834D01*
X1070946D01*
Y515219D01*
D02*
G37*
G36*
X1039859D02*
X1033724D01*
Y507834D01*
X1039859D01*
Y515219D01*
D02*
G37*
G36*
X1805681Y515109D02*
X1802316D01*
Y506371D01*
X1811055D01*
Y509736D01*
X1810646Y511792D01*
X1809481Y513535D01*
X1807738Y514700D01*
X1805681Y515109D01*
D02*
G37*
G36*
X1801046D02*
X1797681D01*
X1795625Y514700D01*
X1793882Y513535D01*
X1792717Y511792D01*
X1792308Y509736D01*
Y506371D01*
X1801046D01*
Y515109D01*
D02*
G37*
G36*
X1681659Y515244D02*
X1679218D01*
X1676860Y514613D01*
X1674747Y513392D01*
X1673021Y511666D01*
X1671800Y509553D01*
X1671168Y507195D01*
Y504754D01*
X1671800Y502396D01*
X1673021Y500283D01*
X1674747Y498557D01*
X1676860Y497336D01*
X1679218Y496704D01*
X1681659D01*
X1684017Y497336D01*
X1686130Y498557D01*
X1687856Y500283D01*
X1689077Y502396D01*
X1689708Y504754D01*
Y507195D01*
X1689077Y509553D01*
X1687856Y511666D01*
X1686130Y513392D01*
X1684017Y514613D01*
X1681659Y515244D01*
D02*
G37*
G36*
X1811055Y505101D02*
X1802316D01*
Y496363D01*
X1805681D01*
X1807738Y496772D01*
X1809481Y497937D01*
X1810646Y499680D01*
X1811055Y501736D01*
Y505101D01*
D02*
G37*
G36*
X1801046D02*
X1792308D01*
Y501736D01*
X1792717Y499680D01*
X1793882Y497937D01*
X1795625Y496772D01*
X1797681Y496363D01*
X1801046D01*
Y505101D01*
D02*
G37*
G36*
X1068084Y501487D02*
X1063089D01*
Y495831D01*
X1068084D01*
Y501487D01*
D02*
G37*
G36*
X1061819D02*
X1056823D01*
Y495831D01*
X1061819D01*
Y501487D01*
D02*
G37*
G36*
X1283820Y497370D02*
X1276535D01*
Y490085D01*
X1283820D01*
Y497370D01*
D02*
G37*
G36*
X1275265D02*
X1267980D01*
Y490085D01*
X1275265D01*
Y497370D01*
D02*
G37*
G36*
X1265470D02*
X1258185D01*
Y490085D01*
X1265470D01*
Y497370D01*
D02*
G37*
G36*
X1256915D02*
X1249630D01*
Y490085D01*
X1256915D01*
Y497370D01*
D02*
G37*
G36*
X1247120D02*
X1239835D01*
Y490085D01*
X1247120D01*
Y497370D01*
D02*
G37*
G36*
X1238565D02*
X1231280D01*
Y490085D01*
X1238565D01*
Y497370D01*
D02*
G37*
G36*
X1068084Y494561D02*
X1063089D01*
Y488904D01*
X1068084D01*
Y494561D01*
D02*
G37*
G36*
X1061819D02*
X1056823D01*
Y488904D01*
X1061819D01*
Y494561D01*
D02*
G37*
G36*
X1464195Y502800D02*
X1461885D01*
X1459655Y502202D01*
X1457655Y501048D01*
X1456022Y499415D01*
X1454868Y497415D01*
X1454270Y495185D01*
Y492875D01*
X1454868Y490645D01*
X1456022Y488645D01*
X1457655Y487012D01*
X1459655Y485858D01*
X1461885Y485260D01*
X1464195D01*
X1466425Y485858D01*
X1468425Y487012D01*
X1470058Y488645D01*
X1471212Y490645D01*
X1471810Y492875D01*
Y495185D01*
X1471212Y497415D01*
X1470058Y499415D01*
X1468425Y501048D01*
X1466425Y502202D01*
X1464195Y502800D01*
D02*
G37*
G36*
X1283820Y488815D02*
X1276535D01*
Y481530D01*
X1283820D01*
Y488815D01*
D02*
G37*
G36*
X1275265D02*
X1267980D01*
Y481530D01*
X1275265D01*
Y488815D01*
D02*
G37*
G36*
X1265470D02*
X1258185D01*
Y481530D01*
X1265470D01*
Y488815D01*
D02*
G37*
G36*
X1256915D02*
X1249630D01*
Y481530D01*
X1256915D01*
Y488815D01*
D02*
G37*
G36*
X1247120D02*
X1239835D01*
Y481530D01*
X1247120D01*
Y488815D01*
D02*
G37*
G36*
X1238565D02*
X1231280D01*
Y481530D01*
X1238565D01*
Y488815D01*
D02*
G37*
G36*
X1572689Y481847D02*
X1565304D01*
Y475712D01*
X1572689D01*
Y481847D01*
D02*
G37*
G36*
X1564034D02*
X1556649D01*
Y475712D01*
X1564034D01*
Y481847D01*
D02*
G37*
G36*
X1283820Y479020D02*
X1276535D01*
Y471735D01*
X1283820D01*
Y479020D01*
D02*
G37*
G36*
X1275265D02*
X1267980D01*
Y471735D01*
X1275265D01*
Y479020D01*
D02*
G37*
G36*
X1265470D02*
X1258185D01*
Y471735D01*
X1265470D01*
Y479020D01*
D02*
G37*
G36*
X1256915D02*
X1249630D01*
Y471735D01*
X1256915D01*
Y479020D01*
D02*
G37*
G36*
X1247120D02*
X1239835D01*
Y471735D01*
X1247120D01*
Y479020D01*
D02*
G37*
G36*
X1238565D02*
X1231280D01*
Y471735D01*
X1238565D01*
Y479020D01*
D02*
G37*
G36*
X1540395Y477400D02*
X1539875D01*
Y469265D01*
X1548010D01*
Y469785D01*
X1547412Y472015D01*
X1546258Y474015D01*
X1544625Y475648D01*
X1542625Y476802D01*
X1540395Y477400D01*
D02*
G37*
G36*
X1538605D02*
X1538085D01*
X1535855Y476802D01*
X1533855Y475648D01*
X1532222Y474015D01*
X1531068Y472015D01*
X1530470Y469785D01*
Y469265D01*
X1538605D01*
Y477400D01*
D02*
G37*
G36*
X1283820Y470465D02*
X1276535D01*
Y463180D01*
X1283820D01*
Y470465D01*
D02*
G37*
G36*
X1275265D02*
X1267980D01*
Y463180D01*
X1275265D01*
Y470465D01*
D02*
G37*
G36*
X1265470D02*
X1258185D01*
Y463180D01*
X1265470D01*
Y470465D01*
D02*
G37*
G36*
X1256915D02*
X1249630D01*
Y463180D01*
X1256915D01*
Y470465D01*
D02*
G37*
G36*
X1247120D02*
X1239835D01*
Y463180D01*
X1247120D01*
Y470465D01*
D02*
G37*
G36*
X1238565D02*
X1231280D01*
Y463180D01*
X1238565D01*
Y470465D01*
D02*
G37*
G36*
X1548010Y467995D02*
X1539875D01*
Y459860D01*
X1540395D01*
X1542625Y460458D01*
X1544625Y461612D01*
X1546258Y463245D01*
X1547412Y465245D01*
X1548010Y467475D01*
Y467995D01*
D02*
G37*
G36*
X1538605D02*
X1530470D01*
Y467475D01*
X1531068Y465245D01*
X1532222Y463245D01*
X1533855Y461612D01*
X1535855Y460458D01*
X1538085Y459860D01*
X1538605D01*
Y467995D01*
D02*
G37*
G36*
X1464195Y477400D02*
X1461885D01*
X1459655Y476802D01*
X1457655Y475648D01*
X1456022Y474015D01*
X1454868Y472015D01*
X1454270Y469785D01*
Y467475D01*
X1454868Y465245D01*
X1456022Y463245D01*
X1457655Y461612D01*
X1459655Y460458D01*
X1461885Y459860D01*
X1464195D01*
X1466425Y460458D01*
X1468425Y461612D01*
X1470058Y463245D01*
X1471212Y465245D01*
X1471810Y467475D01*
Y469785D01*
X1471212Y472015D01*
X1470058Y474015D01*
X1468425Y475648D01*
X1466425Y476802D01*
X1464195Y477400D01*
D02*
G37*
G36*
X1572689Y474442D02*
X1556649D01*
Y469117D01*
X1556649Y468307D01*
X1556649Y467037D01*
Y460159D01*
X1556592Y460065D01*
X1556618Y459955D01*
X1556575Y459851D01*
X1556649Y459671D01*
Y458754D01*
X1556532Y458549D01*
X1556264Y458164D01*
X1555402Y457146D01*
X1554839Y456563D01*
X1554793Y456446D01*
X1547445Y449098D01*
X1546258Y448615D01*
X1544625Y450248D01*
X1542625Y451402D01*
X1540395Y452000D01*
X1538085D01*
X1535855Y451402D01*
X1533855Y450248D01*
X1532222Y448615D01*
X1531068Y446615D01*
X1530470Y444385D01*
Y442075D01*
X1531068Y439845D01*
X1532222Y437845D01*
X1533855Y436212D01*
X1535855Y435058D01*
X1538085Y434460D01*
X1540395D01*
X1542625Y435058D01*
X1544625Y436212D01*
X1546258Y437845D01*
X1547412Y439845D01*
X1548010Y442075D01*
Y442706D01*
X1548114Y442751D01*
X1548949Y442917D01*
X1549865Y443529D01*
X1558774Y452438D01*
X1558885Y452479D01*
X1560036Y453548D01*
X1560491Y453912D01*
X1560891Y454190D01*
X1561096Y454307D01*
X1562013D01*
X1562192Y454233D01*
X1562296Y454277D01*
X1562406Y454250D01*
X1562500Y454307D01*
X1572689D01*
Y467037D01*
X1572689Y467847D01*
X1572689Y469117D01*
Y474442D01*
D02*
G37*
G36*
X1283820Y460670D02*
X1276535D01*
Y453385D01*
X1283820D01*
Y460670D01*
D02*
G37*
G36*
X1275265D02*
X1267980D01*
Y453385D01*
X1275265D01*
Y460670D01*
D02*
G37*
G36*
X1265470D02*
X1258185D01*
Y453385D01*
X1265470D01*
Y460670D01*
D02*
G37*
G36*
X1256915D02*
X1249630D01*
Y453385D01*
X1256915D01*
Y460670D01*
D02*
G37*
G36*
X1247120D02*
X1239835D01*
Y453385D01*
X1247120D01*
Y460670D01*
D02*
G37*
G36*
X1238565D02*
X1231280D01*
Y453385D01*
X1238565D01*
Y460670D01*
D02*
G37*
G36*
X1856678Y469480D02*
X1854500D01*
X1852397Y468916D01*
X1850511Y467827D01*
X1848972Y466287D01*
X1847883Y464402D01*
X1847319Y462298D01*
Y460121D01*
X1847883Y458018D01*
X1848972Y456132D01*
X1850511Y454592D01*
X1852397Y453503D01*
X1854500Y452940D01*
X1856678D01*
X1858781Y453503D01*
X1860667Y454592D01*
X1862207Y456132D01*
X1863296Y458018D01*
X1863859Y460121D01*
Y462298D01*
X1863296Y464402D01*
X1862207Y466287D01*
X1860667Y467827D01*
X1858781Y468916D01*
X1856678Y469480D01*
D02*
G37*
G36*
X1687927Y466823D02*
X1679927D01*
X1677870Y466414D01*
X1676127Y465249D01*
X1674962Y463506D01*
X1674554Y461450D01*
Y453450D01*
X1674962Y451393D01*
X1676127Y449650D01*
X1677870Y448485D01*
X1679927Y448076D01*
X1687927D01*
X1689983Y448485D01*
X1691726Y449650D01*
X1692891Y451393D01*
X1693300Y453450D01*
Y461450D01*
X1692891Y463506D01*
X1691726Y465249D01*
X1689983Y466414D01*
X1687927Y466823D01*
D02*
G37*
G36*
X1283820Y452115D02*
X1276535D01*
Y444830D01*
X1283820D01*
Y452115D01*
D02*
G37*
G36*
X1275265D02*
X1267980D01*
Y444830D01*
X1275265D01*
Y452115D01*
D02*
G37*
G36*
X1265470D02*
X1258185D01*
Y444830D01*
X1265470D01*
Y452115D01*
D02*
G37*
G36*
X1256915D02*
X1249630D01*
Y444830D01*
X1256915D01*
Y452115D01*
D02*
G37*
G36*
X1247120D02*
X1239835D01*
Y444830D01*
X1247120D01*
Y452115D01*
D02*
G37*
G36*
X1238565D02*
X1231280D01*
Y444830D01*
X1238565D01*
Y452115D01*
D02*
G37*
G36*
X1464195Y452000D02*
X1463675D01*
Y443865D01*
X1471810D01*
Y444385D01*
X1471212Y446615D01*
X1470058Y448615D01*
X1468425Y450248D01*
X1466425Y451402D01*
X1464195Y452000D01*
D02*
G37*
G36*
X1462405D02*
X1461885D01*
X1459655Y451402D01*
X1457655Y450248D01*
X1456022Y448615D01*
X1454868Y446615D01*
X1454270Y444385D01*
Y443865D01*
X1462405D01*
Y452000D01*
D02*
G37*
G36*
X1803598Y443191D02*
X1803013D01*
Y434557D01*
X1811648D01*
Y435142D01*
X1811016Y437500D01*
X1809796Y439613D01*
X1808070Y441339D01*
X1805956Y442560D01*
X1803598Y443191D01*
D02*
G37*
G36*
X1801743D02*
X1801158D01*
X1798800Y442560D01*
X1796686Y441339D01*
X1794960Y439613D01*
X1793740Y437500D01*
X1793108Y435142D01*
Y434557D01*
X1801743D01*
Y443191D01*
D02*
G37*
G36*
X1471810Y442595D02*
X1463675D01*
Y434460D01*
X1464195D01*
X1466425Y435058D01*
X1468425Y436212D01*
X1470058Y437845D01*
X1471212Y439845D01*
X1471810Y442075D01*
Y442595D01*
D02*
G37*
G36*
X1462405D02*
X1454270D01*
Y442075D01*
X1454868Y439845D01*
X1456022Y437845D01*
X1457655Y436212D01*
X1459655Y435058D01*
X1461885Y434460D01*
X1462405D01*
Y442595D01*
D02*
G37*
G36*
X1600464Y440481D02*
X1593829D01*
Y432596D01*
X1600464D01*
Y440481D01*
D02*
G37*
G36*
X1592559D02*
X1585923D01*
Y432596D01*
X1592559D01*
Y440481D01*
D02*
G37*
G36*
X1856678Y444480D02*
X1854500D01*
X1852397Y443916D01*
X1850511Y442827D01*
X1848972Y441287D01*
X1847883Y439402D01*
X1847319Y437298D01*
Y435121D01*
X1847883Y433018D01*
X1848972Y431132D01*
X1850511Y429592D01*
X1852397Y428503D01*
X1854500Y427940D01*
X1856678D01*
X1858781Y428503D01*
X1860667Y429592D01*
X1862207Y431132D01*
X1863296Y433018D01*
X1863859Y435121D01*
Y437298D01*
X1863296Y439402D01*
X1862207Y441287D01*
X1860667Y442827D01*
X1858781Y443916D01*
X1856678Y444480D01*
D02*
G37*
G36*
X1811648Y433287D02*
X1803013D01*
Y424651D01*
X1803598D01*
X1805956Y425283D01*
X1808070Y426504D01*
X1809796Y428230D01*
X1811016Y430343D01*
X1811648Y432701D01*
Y433287D01*
D02*
G37*
G36*
X1801743D02*
X1793108D01*
Y432701D01*
X1793740Y430343D01*
X1794960Y428230D01*
X1796686Y426504D01*
X1798800Y425283D01*
X1801158Y424651D01*
X1801743D01*
Y433287D01*
D02*
G37*
G36*
X1600464Y431326D02*
X1593829D01*
Y423441D01*
X1600464D01*
Y431326D01*
D02*
G37*
G36*
X1592559D02*
X1585923D01*
Y423441D01*
X1592559D01*
Y431326D01*
D02*
G37*
G36*
X1685147Y441320D02*
X1682706D01*
X1680349Y440688D01*
X1678235Y439467D01*
X1676509Y437741D01*
X1675289Y435628D01*
X1674657Y433270D01*
Y430829D01*
X1675289Y428471D01*
X1676509Y426358D01*
X1678235Y424632D01*
X1680349Y423411D01*
X1682706Y422780D01*
X1685147D01*
X1687505Y423411D01*
X1689619Y424632D01*
X1691345Y426358D01*
X1692565Y428471D01*
X1693197Y430829D01*
Y433270D01*
X1692565Y435628D01*
X1691345Y437741D01*
X1689619Y439467D01*
X1687505Y440688D01*
X1685147Y441320D01*
D02*
G37*
G36*
X1578751Y419235D02*
X1569085D01*
Y412077D01*
X1578751D01*
Y419235D01*
D02*
G37*
G36*
X1567815D02*
X1558149D01*
Y412077D01*
X1567815D01*
Y419235D01*
D02*
G37*
G36*
X1098627Y415660D02*
X1091243D01*
Y409525D01*
X1098627D01*
Y415660D01*
D02*
G37*
G36*
X1089973D02*
X1082588D01*
Y409525D01*
X1089973D01*
Y415660D01*
D02*
G37*
G36*
X1464195Y426600D02*
X1461885D01*
X1459655Y426002D01*
X1457655Y424848D01*
X1456022Y423215D01*
X1454868Y421215D01*
X1454270Y418985D01*
Y416675D01*
X1454868Y414445D01*
X1456022Y412445D01*
X1457655Y410812D01*
X1459655Y409658D01*
X1461885Y409060D01*
X1464195D01*
X1466425Y409658D01*
X1468425Y410812D01*
X1470058Y412445D01*
X1471212Y414445D01*
X1471810Y416675D01*
Y418985D01*
X1471212Y421215D01*
X1470058Y423215D01*
X1468425Y424848D01*
X1466425Y426002D01*
X1464195Y426600D01*
D02*
G37*
G36*
X1578751Y410807D02*
X1569085D01*
Y403649D01*
X1578751D01*
Y410807D01*
D02*
G37*
G36*
X1567815D02*
X1558149D01*
Y403649D01*
X1567815D01*
Y410807D01*
D02*
G37*
G36*
X1856678Y419480D02*
X1854500D01*
X1852397Y418916D01*
X1850511Y417827D01*
X1848972Y416287D01*
X1847883Y414402D01*
X1847319Y412298D01*
Y410121D01*
X1847883Y408018D01*
X1848972Y406132D01*
X1850511Y404592D01*
X1852397Y403503D01*
X1854500Y402940D01*
X1856678D01*
X1858781Y403503D01*
X1860667Y404592D01*
X1862207Y406132D01*
X1863296Y408018D01*
X1863859Y410121D01*
Y412298D01*
X1863296Y414402D01*
X1862207Y416287D01*
X1860667Y417827D01*
X1858781Y418916D01*
X1856678Y419480D01*
D02*
G37*
G36*
X1620464Y440481D02*
X1605924D01*
Y423441D01*
X1609982D01*
X1610048Y423405D01*
X1610083Y423401D01*
X1610086Y423397D01*
X1610147Y423244D01*
X1610213Y422998D01*
X1610269Y422660D01*
X1610305Y422240D01*
X1610319Y421706D01*
X1610369Y421594D01*
Y419008D01*
X1610319Y418895D01*
X1610305Y418362D01*
X1610269Y417941D01*
X1610213Y417604D01*
X1610147Y417357D01*
X1610086Y417205D01*
X1610083Y417200D01*
X1610048Y417196D01*
X1609982Y417160D01*
X1607058D01*
Y402620D01*
X1621598D01*
Y417160D01*
X1616405D01*
X1616339Y417196D01*
X1616304Y417200D01*
X1616302Y417205D01*
X1616240Y417357D01*
X1616174Y417604D01*
X1616118Y417941D01*
X1616082Y418362D01*
X1616068Y418895D01*
X1616018Y419008D01*
Y421594D01*
X1616068Y421706D01*
X1616082Y422240D01*
X1616118Y422660D01*
X1616174Y422998D01*
X1616240Y423244D01*
X1616302Y423397D01*
X1616304Y423401D01*
X1616339Y423405D01*
X1616405Y423441D01*
X1620464D01*
Y440481D01*
D02*
G37*
G36*
X1600598Y417160D02*
X1586058D01*
Y408471D01*
X1586001Y408378D01*
X1586027Y408268D01*
X1585984Y408163D01*
X1586058Y407984D01*
Y407067D01*
X1585941Y406862D01*
X1585673Y406477D01*
X1584811Y405458D01*
X1584248Y404875D01*
X1584202Y404758D01*
X1574698Y395254D01*
X1551275D01*
X1551178Y395302D01*
X1550691Y395334D01*
X1550260Y395416D01*
X1549792Y395561D01*
X1549286Y395774D01*
X1548743Y396060D01*
X1548168Y396421D01*
X1547575Y396849D01*
X1546252Y397982D01*
X1545559Y398661D01*
X1545312Y398761D01*
X1544625Y399448D01*
X1542625Y400602D01*
X1540395Y401200D01*
X1538085D01*
X1535855Y400602D01*
X1533855Y399448D01*
X1532222Y397815D01*
X1531068Y395815D01*
X1530470Y393585D01*
Y391275D01*
X1531068Y389045D01*
X1532222Y387045D01*
X1533855Y385412D01*
X1535855Y384258D01*
X1538085Y383660D01*
X1540395D01*
X1542625Y384258D01*
X1544625Y385412D01*
X1545302Y386089D01*
X1545538Y386179D01*
X1546938Y387495D01*
X1547561Y388001D01*
X1548168Y388439D01*
X1548743Y388800D01*
X1549286Y389086D01*
X1549792Y389299D01*
X1550260Y389444D01*
X1550691Y389526D01*
X1551178Y389558D01*
X1551275Y389606D01*
X1575868D01*
X1575868Y389606D01*
X1576949Y389821D01*
X1577865Y390433D01*
X1588183Y400751D01*
X1588294Y400792D01*
X1589445Y401861D01*
X1589900Y402225D01*
X1590300Y402503D01*
X1590505Y402620D01*
X1591422D01*
X1591601Y402546D01*
X1591705Y402589D01*
X1591815Y402563D01*
X1591909Y402620D01*
X1600598D01*
Y417160D01*
D02*
G37*
G36*
X1803598Y417791D02*
X1801158D01*
X1798800Y417160D01*
X1796686Y415939D01*
X1794960Y414213D01*
X1793740Y412100D01*
X1793108Y409742D01*
Y407301D01*
X1793740Y404943D01*
X1794960Y402830D01*
X1796686Y401104D01*
X1798800Y399883D01*
X1801158Y399252D01*
X1803598D01*
X1805956Y399883D01*
X1808070Y401104D01*
X1809796Y402830D01*
X1811016Y404943D01*
X1811648Y407301D01*
Y409742D01*
X1811016Y412100D01*
X1809796Y414213D01*
X1808070Y415939D01*
X1805956Y417160D01*
X1803598Y417791D01*
D02*
G37*
G36*
X1685147Y415919D02*
X1682706D01*
X1680349Y415288D01*
X1678235Y414067D01*
X1676509Y412341D01*
X1675289Y410228D01*
X1674657Y407870D01*
Y405429D01*
X1675289Y403071D01*
X1676509Y400958D01*
X1678235Y399232D01*
X1680349Y398011D01*
X1682706Y397379D01*
X1685147D01*
X1687505Y398011D01*
X1689619Y399232D01*
X1691345Y400958D01*
X1692565Y403071D01*
X1693197Y405429D01*
Y407870D01*
X1692565Y410228D01*
X1691345Y412341D01*
X1689619Y414067D01*
X1687505Y415288D01*
X1685147Y415919D01*
D02*
G37*
G36*
X1464195Y401200D02*
X1461885D01*
X1459655Y400602D01*
X1457655Y399448D01*
X1456022Y397815D01*
X1454868Y395815D01*
X1454270Y393585D01*
Y391275D01*
X1454868Y389045D01*
X1456022Y387045D01*
X1457655Y385412D01*
X1459655Y384258D01*
X1461885Y383660D01*
X1464195D01*
X1466425Y384258D01*
X1468425Y385412D01*
X1470058Y387045D01*
X1471212Y389045D01*
X1471810Y391275D01*
Y393585D01*
X1471212Y395815D01*
X1470058Y397815D01*
X1468425Y399448D01*
X1466425Y400602D01*
X1464195Y401200D01*
D02*
G37*
G36*
X1318930Y382270D02*
X1317770D01*
X1317660Y382270D01*
X1306340D01*
X1306230Y382270D01*
X1305070D01*
X1304960Y382270D01*
X1293640D01*
X1293530Y382270D01*
X1292370D01*
X1292260Y382270D01*
X1280940D01*
X1280830Y382270D01*
X1279670D01*
X1279560Y382270D01*
X1268240D01*
X1268130Y382270D01*
X1266970D01*
X1266860Y382270D01*
X1255540D01*
X1255430Y382270D01*
X1254270D01*
X1254160Y382270D01*
X1242840D01*
X1242730Y382270D01*
X1241570D01*
X1241460Y382270D01*
X1230140D01*
X1230030Y382270D01*
X1228870D01*
X1228760Y382270D01*
X1217440D01*
X1217330Y382270D01*
X1216170D01*
X1216060Y382270D01*
X1211035D01*
Y371000D01*
Y359730D01*
X1216060D01*
X1216170Y359730D01*
X1217330D01*
X1217440Y359730D01*
X1228760D01*
X1228870Y359730D01*
X1230030D01*
X1230140Y359730D01*
X1241460D01*
X1241570Y359730D01*
X1242730D01*
X1242840Y359730D01*
X1254160D01*
X1254270Y359730D01*
X1255430D01*
X1255540Y359730D01*
X1266860D01*
X1266970Y359730D01*
X1268130D01*
X1268240Y359730D01*
X1279560D01*
X1279670Y359730D01*
X1280830D01*
X1280940Y359730D01*
X1292260D01*
X1292370Y359730D01*
X1293530D01*
X1293640Y359730D01*
X1304960D01*
X1305070Y359730D01*
X1306230D01*
X1306340Y359730D01*
X1317660D01*
X1317770Y359730D01*
X1318930D01*
X1319040Y359730D01*
X1330470D01*
Y382270D01*
X1319040D01*
X1318930Y382270D01*
D02*
G37*
G36*
X1863859Y394480D02*
X1847319D01*
Y377940D01*
X1863859D01*
Y394480D01*
D02*
G37*
G36*
X1803598Y392392D02*
X1801158D01*
X1798800Y391760D01*
X1796686Y390539D01*
X1794960Y388813D01*
X1793740Y386700D01*
X1793108Y384342D01*
Y381901D01*
X1793740Y379543D01*
X1794960Y377430D01*
X1796686Y375704D01*
X1798800Y374483D01*
X1801158Y373852D01*
X1803598D01*
X1805956Y374483D01*
X1808070Y375704D01*
X1809796Y377430D01*
X1811016Y379543D01*
X1811648Y381901D01*
Y384342D01*
X1811016Y386700D01*
X1809796Y388813D01*
X1808070Y390539D01*
X1805956Y391760D01*
X1803598Y392392D01*
D02*
G37*
G36*
X1685147Y390519D02*
X1682706D01*
X1680349Y389888D01*
X1678235Y388667D01*
X1676509Y386941D01*
X1675289Y384828D01*
X1674657Y382470D01*
Y380029D01*
X1675289Y377671D01*
X1676509Y375558D01*
X1678235Y373832D01*
X1680349Y372611D01*
X1682706Y371979D01*
X1685147D01*
X1687505Y372611D01*
X1689619Y373832D01*
X1691345Y375558D01*
X1692565Y377671D01*
X1693197Y380029D01*
Y382470D01*
X1692565Y384828D01*
X1691345Y386941D01*
X1689619Y388667D01*
X1687505Y389888D01*
X1685147Y390519D01*
D02*
G37*
G36*
X1209765Y382270D02*
X1204630D01*
Y371635D01*
X1209765D01*
Y382270D01*
D02*
G37*
G36*
X1393037Y373989D02*
X1385652D01*
Y368604D01*
X1393037D01*
Y373989D01*
D02*
G37*
G36*
X1384382D02*
X1376997D01*
Y368604D01*
X1384382D01*
Y373989D01*
D02*
G37*
G36*
X1393037Y367334D02*
X1385652D01*
Y361949D01*
X1393037D01*
Y367334D01*
D02*
G37*
G36*
X1384382D02*
X1376997D01*
Y361949D01*
X1384382D01*
Y367334D01*
D02*
G37*
G36*
X1645666Y376020D02*
X1643634D01*
X1641670Y375494D01*
X1639910Y374478D01*
X1638472Y373040D01*
X1637456Y371280D01*
X1636930Y369316D01*
Y367284D01*
X1637456Y365320D01*
X1638472Y363560D01*
X1639910Y362122D01*
X1641670Y361106D01*
X1643634Y360580D01*
X1645666D01*
X1647630Y361106D01*
X1649390Y362122D01*
X1650827Y363560D01*
X1651844Y365320D01*
X1652370Y367284D01*
Y369316D01*
X1651844Y371280D01*
X1650827Y373040D01*
X1649390Y374478D01*
X1647630Y375494D01*
X1645666Y376020D01*
D02*
G37*
G36*
X1576170D02*
X1560730D01*
Y360580D01*
X1576170D01*
Y376020D01*
D02*
G37*
G36*
X1209765Y370365D02*
X1204630D01*
Y359730D01*
X1209765D01*
Y370365D01*
D02*
G37*
G36*
X1540395Y375800D02*
X1538085D01*
X1535855Y375202D01*
X1533855Y374048D01*
X1532222Y372415D01*
X1531068Y370415D01*
X1530470Y368185D01*
Y365875D01*
X1531068Y363645D01*
X1532222Y361645D01*
X1533855Y360012D01*
X1535855Y358858D01*
X1538085Y358260D01*
X1540395D01*
X1542625Y358858D01*
X1544625Y360012D01*
X1546258Y361645D01*
X1547412Y363645D01*
X1548010Y365875D01*
Y368185D01*
X1547412Y370415D01*
X1546258Y372415D01*
X1544625Y374048D01*
X1542625Y375202D01*
X1540395Y375800D01*
D02*
G37*
G36*
X1363517Y357141D02*
X1356132D01*
Y351006D01*
X1363517D01*
Y357141D01*
D02*
G37*
G36*
X1354862D02*
X1347477D01*
Y351006D01*
X1354862D01*
Y357141D01*
D02*
G37*
G36*
X1803598Y366992D02*
X1801158D01*
X1798800Y366360D01*
X1796686Y365139D01*
X1794960Y363413D01*
X1793740Y361300D01*
X1793108Y358942D01*
Y356501D01*
X1793740Y354143D01*
X1794960Y352030D01*
X1796686Y350304D01*
X1798800Y349083D01*
X1801158Y348451D01*
X1803598D01*
X1805956Y349083D01*
X1808070Y350304D01*
X1809796Y352030D01*
X1811016Y354143D01*
X1811648Y356501D01*
Y358942D01*
X1811016Y361300D01*
X1809796Y363413D01*
X1808070Y365139D01*
X1805956Y366360D01*
X1803598Y366992D01*
D02*
G37*
G36*
X1685147Y365120D02*
X1682706D01*
X1680349Y364488D01*
X1678235Y363267D01*
X1676509Y361541D01*
X1675289Y359428D01*
X1674657Y357070D01*
Y354629D01*
X1675289Y352271D01*
X1676509Y350158D01*
X1678235Y348432D01*
X1680349Y347211D01*
X1682706Y346580D01*
X1685147D01*
X1687505Y347211D01*
X1689619Y348432D01*
X1691345Y350158D01*
X1692565Y352271D01*
X1693197Y354629D01*
Y357070D01*
X1692565Y359428D01*
X1691345Y361541D01*
X1689619Y363267D01*
X1687505Y364488D01*
X1685147Y365120D01*
D02*
G37*
G36*
X1432398Y361000D02*
X1417858D01*
Y352312D01*
X1417801Y352218D01*
X1417827Y352108D01*
X1417784Y352004D01*
X1417858Y351824D01*
Y350907D01*
X1417741Y350702D01*
X1417473Y350318D01*
X1416611Y349299D01*
X1416048Y348716D01*
X1416002Y348599D01*
X1413128Y345724D01*
X1396255D01*
X1394903Y347077D01*
X1394860Y347189D01*
X1393623Y348508D01*
X1393203Y349020D01*
X1393037Y349252D01*
Y358988D01*
X1376997D01*
Y346949D01*
X1385783D01*
X1385817Y346943D01*
X1385838Y346949D01*
X1386298D01*
X1386434Y346907D01*
X1386706Y346787D01*
X1387033Y346601D01*
X1387392Y346356D01*
X1388291Y345610D01*
X1388784Y345136D01*
X1388790Y345134D01*
X1388793Y345127D01*
X1388907Y345084D01*
X1393088Y340903D01*
X1394005Y340291D01*
X1395085Y340076D01*
X1395085Y340076D01*
X1414298D01*
X1414298Y340076D01*
X1415379Y340291D01*
X1416295Y340903D01*
X1419983Y344591D01*
X1420094Y344632D01*
X1421245Y345701D01*
X1421700Y346065D01*
X1422100Y346343D01*
X1422305Y346460D01*
X1423222D01*
X1423401Y346386D01*
X1423506Y346429D01*
X1423616Y346403D01*
X1423709Y346460D01*
X1432398D01*
Y361000D01*
D02*
G37*
G36*
X1023813Y352928D02*
X1023261D01*
Y344543D01*
X1031646D01*
Y345096D01*
X1031031Y347390D01*
X1029843Y349447D01*
X1028164Y351126D01*
X1026107Y352314D01*
X1023813Y352928D01*
D02*
G37*
G36*
X1021991D02*
X1021438D01*
X1019144Y352314D01*
X1017087Y351126D01*
X1015408Y349447D01*
X1014220Y347390D01*
X1013606Y345096D01*
Y344543D01*
X1021991D01*
Y352928D01*
D02*
G37*
G36*
X1149598Y364235D02*
X1145733D01*
X1143482Y363787D01*
X1141573Y362511D01*
X1140298Y360603D01*
X1139850Y358352D01*
Y343487D01*
X1149598D01*
Y364235D01*
D02*
G37*
G36*
X1645666Y350620D02*
X1643634D01*
X1641670Y350094D01*
X1639910Y349077D01*
X1638472Y347640D01*
X1637456Y345880D01*
X1636930Y343916D01*
Y341884D01*
X1637456Y339920D01*
X1638472Y338160D01*
X1639910Y336722D01*
X1641670Y335706D01*
X1643634Y335180D01*
X1645666D01*
X1647630Y335706D01*
X1649390Y336722D01*
X1650827Y338160D01*
X1651844Y339920D01*
X1652370Y341884D01*
Y343916D01*
X1651844Y345880D01*
X1650827Y347640D01*
X1649390Y349077D01*
X1647630Y350094D01*
X1645666Y350620D01*
D02*
G37*
G36*
X1569466D02*
X1567434D01*
X1565470Y350094D01*
X1563710Y349077D01*
X1562272Y347640D01*
X1561256Y345880D01*
X1560730Y343916D01*
Y341884D01*
X1561256Y339920D01*
X1562272Y338160D01*
X1563710Y336722D01*
X1565470Y335706D01*
X1567434Y335180D01*
X1569466D01*
X1571430Y335706D01*
X1573190Y336722D01*
X1574628Y338160D01*
X1575644Y339920D01*
X1576170Y341884D01*
Y343916D01*
X1575644Y345880D01*
X1574628Y347640D01*
X1573190Y349077D01*
X1571430Y350094D01*
X1569466Y350620D01*
D02*
G37*
G36*
X1031646Y343273D02*
X1023261D01*
Y334888D01*
X1023813D01*
X1026107Y335503D01*
X1028164Y336691D01*
X1029843Y338370D01*
X1031031Y340427D01*
X1031646Y342721D01*
Y343273D01*
D02*
G37*
G36*
X1021991D02*
X1013606D01*
Y342721D01*
X1014220Y340427D01*
X1015408Y338370D01*
X1017087Y336691D01*
X1019144Y335503D01*
X1021438Y334888D01*
X1021991D01*
Y343273D01*
D02*
G37*
G36*
X1540395Y350400D02*
X1538085D01*
X1535855Y349802D01*
X1533855Y348648D01*
X1532222Y347015D01*
X1531068Y345015D01*
X1530470Y342785D01*
Y340475D01*
X1531068Y338245D01*
X1532222Y336245D01*
X1533855Y334612D01*
X1535855Y333458D01*
X1538085Y332860D01*
X1540395D01*
X1542625Y333458D01*
X1544625Y334612D01*
X1546258Y336245D01*
X1547412Y338245D01*
X1548010Y340475D01*
Y342785D01*
X1547412Y345015D01*
X1546258Y347015D01*
X1544625Y348648D01*
X1542625Y349802D01*
X1540395Y350400D01*
D02*
G37*
G36*
X1031646Y377928D02*
X1013606D01*
Y359888D01*
X1027983D01*
X1051209Y336663D01*
X1052049Y336101D01*
X1052830Y335946D01*
Y335547D01*
X1053349Y333609D01*
X1054352Y331871D01*
X1055771Y330452D01*
X1057509Y329449D01*
X1059447Y328930D01*
X1061453D01*
X1063391Y329449D01*
X1065129Y330452D01*
X1066547Y331871D01*
X1067551Y333609D01*
X1068070Y335547D01*
Y337553D01*
X1067551Y339491D01*
X1066547Y341229D01*
X1065129Y342648D01*
X1063391Y343651D01*
X1061453Y344170D01*
X1059447D01*
X1057509Y343651D01*
X1055771Y342648D01*
X1054352Y341229D01*
X1053298Y341899D01*
X1031646Y363551D01*
Y377928D01*
D02*
G37*
G36*
X1803598Y341591D02*
X1801158D01*
X1798800Y340960D01*
X1796686Y339739D01*
X1794960Y338013D01*
X1793740Y335900D01*
X1793108Y333542D01*
Y331101D01*
X1793740Y328743D01*
X1794960Y326630D01*
X1796686Y324904D01*
X1798800Y323683D01*
X1801158Y323051D01*
X1803598D01*
X1805956Y323683D01*
X1808070Y324904D01*
X1809796Y326630D01*
X1811016Y328743D01*
X1811648Y331101D01*
Y333542D01*
X1811016Y335900D01*
X1809796Y338013D01*
X1808070Y339739D01*
X1805956Y340960D01*
X1803598Y341591D01*
D02*
G37*
G36*
X1685147Y339720D02*
X1682706D01*
X1680349Y339088D01*
X1678235Y337867D01*
X1676509Y336141D01*
X1675289Y334028D01*
X1674657Y331670D01*
Y329229D01*
X1675289Y326871D01*
X1676509Y324758D01*
X1678235Y323032D01*
X1680349Y321811D01*
X1682706Y321180D01*
X1685147D01*
X1687505Y321811D01*
X1689619Y323032D01*
X1691345Y324758D01*
X1692565Y326871D01*
X1693197Y329229D01*
Y331670D01*
X1692565Y334028D01*
X1691345Y336141D01*
X1689619Y337867D01*
X1687505Y339088D01*
X1685147Y339720D01*
D02*
G37*
G36*
X1312208Y325479D02*
X1308573D01*
Y319844D01*
X1312208D01*
Y325479D01*
D02*
G37*
G36*
X1307303D02*
X1303668D01*
Y319844D01*
X1307303D01*
Y325479D01*
D02*
G37*
G36*
X1117733Y325234D02*
X1102868D01*
Y315487D01*
X1123616D01*
Y319352D01*
X1123169Y321603D01*
X1121893Y323511D01*
X1119985Y324787D01*
X1117733Y325234D01*
D02*
G37*
G36*
X1101598D02*
X1086733D01*
X1084482Y324787D01*
X1082573Y323511D01*
X1081298Y321603D01*
X1080850Y319352D01*
Y315487D01*
X1101598D01*
Y325234D01*
D02*
G37*
G36*
X1312208Y318574D02*
X1308573D01*
Y312939D01*
X1312208D01*
Y318574D01*
D02*
G37*
G36*
X1307303D02*
X1303668D01*
Y312939D01*
X1307303D01*
Y318574D01*
D02*
G37*
G36*
X1645666Y325220D02*
X1643634D01*
X1641670Y324694D01*
X1639910Y323677D01*
X1638472Y322240D01*
X1637456Y320480D01*
X1636930Y318516D01*
Y316484D01*
X1637456Y314520D01*
X1638472Y312760D01*
X1639910Y311322D01*
X1641670Y310306D01*
X1643634Y309780D01*
X1645666D01*
X1647630Y310306D01*
X1649390Y311322D01*
X1650827Y312760D01*
X1651844Y314520D01*
X1652370Y316484D01*
Y318516D01*
X1651844Y320480D01*
X1650827Y322240D01*
X1649390Y323677D01*
X1647630Y324694D01*
X1645666Y325220D01*
D02*
G37*
G36*
X1569466D02*
X1567434D01*
X1565470Y324694D01*
X1563710Y323677D01*
X1562272Y322240D01*
X1561256Y320480D01*
X1560730Y318516D01*
Y316484D01*
X1561256Y314520D01*
X1562272Y312760D01*
X1563710Y311322D01*
X1565470Y310306D01*
X1567434Y309780D01*
X1569466D01*
X1571430Y310306D01*
X1573190Y311322D01*
X1574628Y312760D01*
X1575644Y314520D01*
X1576170Y316484D01*
Y318516D01*
X1575644Y320480D01*
X1574628Y322240D01*
X1573190Y323677D01*
X1571430Y324694D01*
X1569466Y325220D01*
D02*
G37*
G36*
X1464195Y325000D02*
X1461885D01*
X1459655Y324402D01*
X1457655Y323248D01*
X1456022Y321615D01*
X1454868Y319615D01*
X1454270Y317385D01*
Y315075D01*
X1454868Y312845D01*
X1456022Y310845D01*
X1457655Y309212D01*
X1459655Y308058D01*
X1461885Y307460D01*
X1464195D01*
X1466425Y308058D01*
X1468425Y309212D01*
X1470058Y310845D01*
X1471212Y312845D01*
X1471810Y315075D01*
Y317385D01*
X1471212Y319615D01*
X1470058Y321615D01*
X1468425Y323248D01*
X1466425Y324402D01*
X1464195Y325000D01*
D02*
G37*
G36*
X1123616Y314216D02*
X1102868D01*
Y304468D01*
X1117733D01*
X1119985Y304916D01*
X1121893Y306192D01*
X1123169Y308100D01*
X1123616Y310352D01*
Y314216D01*
D02*
G37*
G36*
X1101598D02*
X1080850D01*
Y310352D01*
X1081298Y308100D01*
X1082573Y306192D01*
X1084482Y304916D01*
X1086733Y304468D01*
X1101598D01*
Y314216D01*
D02*
G37*
G36*
X1426085Y312200D02*
X1424171D01*
X1422322Y311705D01*
X1420664Y310748D01*
X1419311Y309394D01*
X1418354Y307736D01*
X1418208Y307194D01*
X1418053Y307010D01*
X1417584Y305526D01*
X1417358Y304910D01*
X1416875Y303780D01*
X1416645Y303328D01*
X1416411Y302921D01*
X1416182Y302574D01*
X1415961Y302287D01*
X1415784Y302093D01*
X1394884D01*
X1394772Y302143D01*
X1394238Y302157D01*
X1393817Y302193D01*
X1393480Y302249D01*
X1393234Y302315D01*
X1393081Y302376D01*
X1393076Y302379D01*
X1393073Y302414D01*
X1393037Y302480D01*
Y305289D01*
X1376997D01*
Y293249D01*
X1393037D01*
Y296057D01*
X1393073Y296123D01*
X1393076Y296158D01*
X1393081Y296161D01*
X1393233Y296222D01*
X1393480Y296288D01*
X1393817Y296344D01*
X1394238Y296381D01*
X1394772Y296394D01*
X1394884Y296444D01*
X1417031D01*
X1417031Y296444D01*
X1418112Y296659D01*
X1418737Y297077D01*
X1418825Y297085D01*
X1418920Y297199D01*
X1418963Y297228D01*
X1419101Y297276D01*
X1419435Y297574D01*
X1419718Y297772D01*
X1420014Y297927D01*
X1420328Y298044D01*
X1420668Y298125D01*
X1421042Y298167D01*
X1421454Y298169D01*
X1421908Y298125D01*
X1422404Y298032D01*
X1422989Y297874D01*
X1423250Y297907D01*
X1424171Y297660D01*
X1426085D01*
X1427934Y298156D01*
X1429592Y299113D01*
X1430946Y300466D01*
X1431903Y302124D01*
X1432398Y303973D01*
Y305888D01*
X1431903Y307736D01*
X1430946Y309394D01*
X1429592Y310748D01*
X1427934Y311705D01*
X1426085Y312200D01*
D02*
G37*
G36*
X1355208Y303479D02*
X1352323D01*
Y297844D01*
X1355208D01*
Y303479D01*
D02*
G37*
G36*
X1351053D02*
X1348168D01*
Y297844D01*
X1351053D01*
Y303479D01*
D02*
G37*
G36*
X1304708D02*
X1301823D01*
Y297844D01*
X1304708D01*
Y303479D01*
D02*
G37*
G36*
X1300553D02*
X1297668D01*
Y297844D01*
X1300553D01*
Y303479D01*
D02*
G37*
G36*
X1802902Y540406D02*
X1800461D01*
X1798103Y539774D01*
X1795989Y538554D01*
X1794263Y536828D01*
X1793043Y534714D01*
X1792411Y532356D01*
Y531327D01*
X1792308Y531096D01*
X1792247Y528994D01*
X1792160Y528114D01*
X1792036Y527304D01*
X1791876Y526578D01*
X1791685Y525939D01*
X1791467Y525386D01*
X1791226Y524919D01*
X1790968Y524533D01*
X1790634Y524149D01*
X1790600Y524049D01*
X1776003Y509452D01*
X1775391Y508535D01*
X1775176Y507455D01*
X1775176Y507455D01*
Y331300D01*
X1775176Y331299D01*
X1775391Y330219D01*
X1776003Y329302D01*
X1791297Y314009D01*
X1791330Y313908D01*
X1791665Y313524D01*
X1791923Y313138D01*
X1792163Y312671D01*
X1792381Y312118D01*
X1792572Y311479D01*
X1792732Y310754D01*
X1792854Y309960D01*
X1792994Y308056D01*
X1793004Y306989D01*
X1793108Y306744D01*
Y305701D01*
X1793740Y303343D01*
X1794960Y301230D01*
X1796686Y299504D01*
X1798800Y298283D01*
X1801158Y297652D01*
X1803598D01*
X1805956Y298283D01*
X1808070Y299504D01*
X1809796Y301230D01*
X1811016Y303343D01*
X1811648Y305701D01*
Y308142D01*
X1811016Y310500D01*
X1809796Y312613D01*
X1808070Y314339D01*
X1805956Y315560D01*
X1803598Y316192D01*
X1802569D01*
X1802338Y316295D01*
X1800236Y316356D01*
X1799356Y316442D01*
X1798546Y316567D01*
X1797820Y316727D01*
X1797181Y316918D01*
X1796628Y317136D01*
X1796161Y317377D01*
X1795775Y317634D01*
X1795391Y317969D01*
X1795291Y318003D01*
X1780824Y332469D01*
Y506285D01*
X1794594Y520055D01*
X1794694Y520088D01*
X1795079Y520423D01*
X1795464Y520681D01*
X1795932Y520921D01*
X1796484Y521140D01*
X1797123Y521331D01*
X1797849Y521490D01*
X1798642Y521613D01*
X1800547Y521752D01*
X1801613Y521762D01*
X1801859Y521866D01*
X1802902D01*
X1805259Y522498D01*
X1807373Y523718D01*
X1809099Y525444D01*
X1810320Y527558D01*
X1810951Y529916D01*
Y532356D01*
X1810320Y534714D01*
X1809099Y536828D01*
X1807373Y538554D01*
X1805259Y539774D01*
X1802902Y540406D01*
D02*
G37*
G36*
X1464195Y350400D02*
X1461885D01*
X1459655Y349802D01*
X1457655Y348648D01*
X1456022Y347015D01*
X1454868Y345015D01*
X1454270Y342785D01*
Y340475D01*
X1454868Y338245D01*
X1456022Y336245D01*
X1457655Y334612D01*
X1459655Y333458D01*
X1461885Y332860D01*
X1462843D01*
X1463073Y332756D01*
X1464993Y332697D01*
X1465792Y332615D01*
X1466531Y332495D01*
X1467193Y332343D01*
X1467779Y332162D01*
X1468288Y331955D01*
X1468721Y331726D01*
X1469084Y331480D01*
X1469451Y331158D01*
X1469553Y331123D01*
X1497623Y303053D01*
X1497623Y303052D01*
X1498540Y302440D01*
X1499621Y302225D01*
X1671080D01*
X1671174Y302178D01*
X1671683Y302143D01*
X1672138Y302052D01*
X1672639Y301892D01*
X1673183Y301656D01*
X1673770Y301339D01*
X1674396Y300939D01*
X1675044Y300464D01*
X1676489Y299217D01*
X1677250Y298469D01*
X1677497Y298369D01*
X1678235Y297632D01*
X1680349Y296411D01*
X1682706Y295779D01*
X1685147D01*
X1687505Y296411D01*
X1689619Y297632D01*
X1691345Y299358D01*
X1692565Y301471D01*
X1693197Y303829D01*
Y306270D01*
X1692565Y308628D01*
X1691345Y310741D01*
X1689619Y312467D01*
X1687505Y313688D01*
X1685147Y314319D01*
X1682706D01*
X1680349Y313688D01*
X1678235Y312467D01*
X1677507Y311739D01*
X1677270Y311649D01*
X1675741Y310206D01*
X1675058Y309645D01*
X1674396Y309160D01*
X1673770Y308760D01*
X1673183Y308443D01*
X1672638Y308207D01*
X1672138Y308046D01*
X1671683Y307956D01*
X1671174Y307921D01*
X1671080Y307874D01*
X1544846D01*
X1544506Y309144D01*
X1544625Y309212D01*
X1546258Y310845D01*
X1547412Y312845D01*
X1548010Y315075D01*
Y317385D01*
X1547412Y319615D01*
X1546258Y321615D01*
X1544625Y323248D01*
X1542625Y324402D01*
X1540395Y325000D01*
X1538085D01*
X1535855Y324402D01*
X1533855Y323248D01*
X1532222Y321615D01*
X1531068Y319615D01*
X1530470Y317385D01*
Y315075D01*
X1531068Y312845D01*
X1532222Y310845D01*
X1533855Y309212D01*
X1533974Y309144D01*
X1533634Y307874D01*
X1500790D01*
X1473547Y335117D01*
X1473512Y335219D01*
X1473190Y335586D01*
X1472944Y335949D01*
X1472715Y336382D01*
X1472508Y336891D01*
X1472327Y337477D01*
X1472175Y338139D01*
X1472058Y338861D01*
X1471924Y340597D01*
X1471914Y341568D01*
X1471810Y341813D01*
Y342785D01*
X1471212Y345015D01*
X1470058Y347015D01*
X1468425Y348648D01*
X1466425Y349802D01*
X1464195Y350400D01*
D02*
G37*
G36*
X1355208Y296574D02*
X1352323D01*
Y290939D01*
X1355208D01*
Y296574D01*
D02*
G37*
G36*
X1351053D02*
X1348168D01*
Y290939D01*
X1351053D01*
Y296574D01*
D02*
G37*
G36*
X1304708D02*
X1301823D01*
Y290939D01*
X1304708D01*
Y296574D01*
D02*
G37*
G36*
X1300553D02*
X1297668D01*
Y290939D01*
X1300553D01*
Y296574D01*
D02*
G37*
G36*
X1932101Y303020D02*
X1931035D01*
Y286385D01*
X1947670D01*
Y287451D01*
X1947006Y290788D01*
X1945704Y293930D01*
X1943815Y296759D01*
X1941409Y299165D01*
X1938580Y301054D01*
X1935437Y302356D01*
X1932101Y303020D01*
D02*
G37*
G36*
X1929765D02*
X1928699D01*
X1925363Y302356D01*
X1922220Y301054D01*
X1919391Y299165D01*
X1916985Y296759D01*
X1915096Y293930D01*
X1913794Y290788D01*
X1913130Y287451D01*
Y286385D01*
X1929765D01*
Y303020D01*
D02*
G37*
G36*
X1005001D02*
X1003935D01*
Y286385D01*
X1020570D01*
Y287451D01*
X1019906Y290788D01*
X1018605Y293930D01*
X1016714Y296759D01*
X1014309Y299165D01*
X1011480Y301054D01*
X1008337Y302356D01*
X1005001Y303020D01*
D02*
G37*
G36*
X1002665D02*
X1001599D01*
X998262Y302356D01*
X995120Y301054D01*
X992291Y299165D01*
X989885Y296759D01*
X987996Y293930D01*
X986694Y290788D01*
X986030Y287451D01*
Y286385D01*
X1002665D01*
Y303020D01*
D02*
G37*
G36*
X1393037Y290289D02*
X1385652D01*
Y284904D01*
X1393037D01*
Y290289D01*
D02*
G37*
G36*
X1384382D02*
X1376997D01*
Y284904D01*
X1384382D01*
Y290289D01*
D02*
G37*
G36*
X1645666Y299820D02*
X1643634D01*
X1641670Y299294D01*
X1639910Y298277D01*
X1638472Y296840D01*
X1637456Y295080D01*
X1636930Y293116D01*
Y291084D01*
X1637456Y289120D01*
X1638472Y287360D01*
X1639910Y285923D01*
X1641670Y284906D01*
X1643634Y284380D01*
X1645666D01*
X1647630Y284906D01*
X1649390Y285923D01*
X1650827Y287360D01*
X1651844Y289120D01*
X1652370Y291084D01*
Y293116D01*
X1651844Y295080D01*
X1650827Y296840D01*
X1649390Y298277D01*
X1647630Y299294D01*
X1645666Y299820D01*
D02*
G37*
G36*
X1569466D02*
X1567434D01*
X1565470Y299294D01*
X1563710Y298277D01*
X1562272Y296840D01*
X1561256Y295080D01*
X1560730Y293116D01*
Y291084D01*
X1561256Y289120D01*
X1562272Y287360D01*
X1563710Y285923D01*
X1565470Y284906D01*
X1567434Y284380D01*
X1569466D01*
X1571430Y284906D01*
X1573190Y285923D01*
X1574628Y287360D01*
X1575644Y289120D01*
X1576170Y291084D01*
Y293116D01*
X1575644Y295080D01*
X1574628Y296840D01*
X1573190Y298277D01*
X1571430Y299294D01*
X1569466Y299820D01*
D02*
G37*
G36*
X1872900Y300499D02*
X1864265D01*
Y283864D01*
X1872900D01*
Y300499D01*
D02*
G37*
G36*
X1862995D02*
X1854360D01*
Y283864D01*
X1862995D01*
Y300499D01*
D02*
G37*
G36*
X1806378Y290895D02*
X1803013D01*
Y282157D01*
X1811751D01*
Y285522D01*
X1811342Y287578D01*
X1810177Y289321D01*
X1808434Y290486D01*
X1806378Y290895D01*
D02*
G37*
G36*
X1801743D02*
X1798378D01*
X1796322Y290486D01*
X1794579Y289321D01*
X1793414Y287578D01*
X1793005Y285522D01*
Y282157D01*
X1801743D01*
Y290895D01*
D02*
G37*
G36*
X1393037Y283633D02*
X1385652D01*
Y278249D01*
X1393037D01*
Y283633D01*
D02*
G37*
G36*
X1384382D02*
X1376997D01*
Y278249D01*
X1384382D01*
Y283633D01*
D02*
G37*
G36*
X1312208Y281479D02*
X1308573D01*
Y275844D01*
X1312208D01*
Y281479D01*
D02*
G37*
G36*
X1307303D02*
X1303668D01*
Y275844D01*
X1307303D01*
Y281479D01*
D02*
G37*
G36*
X1811751Y280886D02*
X1803013D01*
Y272148D01*
X1806378D01*
X1808434Y272557D01*
X1810177Y273722D01*
X1811342Y275465D01*
X1811751Y277521D01*
Y280886D01*
D02*
G37*
G36*
X1801743D02*
X1793005D01*
Y277521D01*
X1793414Y275465D01*
X1794579Y273722D01*
X1796322Y272557D01*
X1798378Y272148D01*
X1801743D01*
Y280886D01*
D02*
G37*
G36*
X1947670Y285115D02*
X1931035D01*
Y268480D01*
X1932101D01*
X1935437Y269144D01*
X1938580Y270445D01*
X1941409Y272335D01*
X1943815Y274741D01*
X1945704Y277570D01*
X1947006Y280713D01*
X1947670Y284049D01*
Y285115D01*
D02*
G37*
G36*
X1929765D02*
X1913130D01*
Y284049D01*
X1913794Y280713D01*
X1915096Y277570D01*
X1916985Y274741D01*
X1919391Y272335D01*
X1922220Y270445D01*
X1925363Y269144D01*
X1928699Y268480D01*
X1929765D01*
Y285115D01*
D02*
G37*
G36*
X1020570D02*
X1003935D01*
Y268480D01*
X1005001D01*
X1008337Y269144D01*
X1011480Y270445D01*
X1014309Y272335D01*
X1016714Y274741D01*
X1018605Y277570D01*
X1019906Y280713D01*
X1020570Y284049D01*
Y285115D01*
D02*
G37*
G36*
X1002665D02*
X986030D01*
Y284049D01*
X986694Y280713D01*
X987996Y277570D01*
X989885Y274741D01*
X992291Y272335D01*
X995120Y270445D01*
X998262Y269144D01*
X1001599Y268480D01*
X1002665D01*
Y285115D01*
D02*
G37*
G36*
X1872900Y282594D02*
X1864265D01*
Y265959D01*
X1872900D01*
Y282594D01*
D02*
G37*
G36*
X1862995D02*
X1854360D01*
Y265959D01*
X1862995D01*
Y282594D01*
D02*
G37*
%LPD*%
G36*
X1084880Y600101D02*
X1083816Y600091D01*
X1081894Y599946D01*
X1081038Y599811D01*
X1080250Y599634D01*
X1079533Y599416D01*
X1078884Y599156D01*
X1078305Y598854D01*
X1077794Y598510D01*
X1077354Y598125D01*
X1075232Y600246D01*
X1075618Y600687D01*
X1075961Y601197D01*
X1076263Y601776D01*
X1076523Y602425D01*
X1076741Y603143D01*
X1076918Y603930D01*
X1077053Y604787D01*
X1077147Y605713D01*
X1077208Y607773D01*
X1084880Y600101D01*
D02*
G37*
G36*
X1067670Y556047D02*
X1067073Y555429D01*
X1066133Y554323D01*
X1065791Y553834D01*
X1065533Y553388D01*
X1065360Y552985D01*
X1065273Y552626D01*
X1065269Y552309D01*
X1065351Y552035D01*
X1065518Y551805D01*
X1061306Y556017D01*
X1061536Y555850D01*
X1061810Y555768D01*
X1062127Y555771D01*
X1062486Y555859D01*
X1062889Y556032D01*
X1063335Y556290D01*
X1063824Y556632D01*
X1064356Y557060D01*
X1065548Y558169D01*
X1067670Y556047D01*
D02*
G37*
G36*
X1051691Y524998D02*
X1051736Y524482D01*
X1051811Y524028D01*
X1051916Y523634D01*
X1052051Y523301D01*
X1052216Y523028D01*
X1052411Y522816D01*
X1052636Y522664D01*
X1052891Y522573D01*
X1053176Y522543D01*
X1047176D01*
X1047461Y522573D01*
X1047716Y522664D01*
X1047941Y522816D01*
X1048136Y523028D01*
X1048301Y523301D01*
X1048436Y523634D01*
X1048541Y524028D01*
X1048616Y524482D01*
X1048661Y524998D01*
X1048676Y525574D01*
X1051676D01*
X1051691Y524998D01*
D02*
G37*
G36*
X1052891Y509135D02*
X1052636Y509044D01*
X1052411Y508892D01*
X1052216Y508680D01*
X1052051Y508407D01*
X1051916Y508074D01*
X1051811Y507680D01*
X1051736Y507225D01*
X1051691Y506710D01*
X1051676Y506134D01*
X1048676D01*
X1048661Y506710D01*
X1048616Y507225D01*
X1048541Y507680D01*
X1048436Y508074D01*
X1048301Y508407D01*
X1048136Y508680D01*
X1047941Y508892D01*
X1047716Y509044D01*
X1047461Y509135D01*
X1047176Y509165D01*
X1053176D01*
X1052891Y509135D01*
D02*
G37*
G36*
X1045804Y499325D02*
X1045278Y498777D01*
X1044448Y497781D01*
X1044145Y497331D01*
X1043917Y496915D01*
X1043763Y496531D01*
X1043683Y496179D01*
X1043678Y495860D01*
X1043747Y495574D01*
X1043891Y495321D01*
X1040244Y500102D01*
X1040444Y499904D01*
X1040682Y499786D01*
X1040957Y499747D01*
X1041270Y499787D01*
X1041620Y499907D01*
X1042009Y500107D01*
X1042434Y500386D01*
X1042898Y500745D01*
X1043399Y501183D01*
X1043937Y501700D01*
X1045804Y499325D01*
D02*
G37*
G36*
X1041069Y436748D02*
X1041114Y436233D01*
X1041189Y435779D01*
X1041294Y435385D01*
X1041429Y435051D01*
X1041594Y434779D01*
X1041789Y434566D01*
X1042014Y434415D01*
X1042269Y434324D01*
X1042554Y434294D01*
X1036554D01*
X1036839Y434324D01*
X1037094Y434415D01*
X1037319Y434566D01*
X1037514Y434779D01*
X1037679Y435051D01*
X1037814Y435385D01*
X1037919Y435779D01*
X1037994Y436233D01*
X1038039Y436748D01*
X1038054Y437324D01*
X1041054D01*
X1041069Y436748D01*
D02*
G37*
G36*
X1472164Y374788D02*
X1471776Y374345D01*
X1471438Y373842D01*
X1471149Y373278D01*
X1470910Y372654D01*
X1470721Y371969D01*
X1470580Y371224D01*
X1470490Y370418D01*
X1470449Y369552D01*
X1470457Y368625D01*
X1470515Y367639D01*
X1462581Y374516D01*
X1463626Y374598D01*
X1465507Y374856D01*
X1466342Y375033D01*
X1467108Y375241D01*
X1467804Y375481D01*
X1468430Y375752D01*
X1468986Y376055D01*
X1469472Y376389D01*
X1469889Y376755D01*
X1472164Y374788D01*
D02*
G37*
G36*
X1562192Y455608D02*
X1561959Y455778D01*
X1561683Y455862D01*
X1561365D01*
X1561004Y455778D01*
X1560601Y455608D01*
X1560156Y455353D01*
X1559668Y455014D01*
X1559137Y454590D01*
X1557949Y453487D01*
X1555828Y455608D01*
X1556422Y456223D01*
X1557355Y457326D01*
X1557695Y457814D01*
X1557949Y458260D01*
X1558119Y458663D01*
X1558204Y459023D01*
Y459341D01*
X1558119Y459617D01*
X1557949Y459851D01*
X1562192Y455608D01*
D02*
G37*
G36*
X1545687Y447099D02*
X1545761Y447084D01*
X1545877Y447070D01*
X1546235Y447049D01*
X1547868Y447026D01*
Y444026D01*
X1547646Y444024D01*
X1546997Y443972D01*
X1546893Y443949D01*
X1546814Y443921D01*
X1546758Y443889D01*
X1546726Y443852D01*
X1546717Y443811D01*
X1545655Y447116D01*
X1545687Y447099D01*
D02*
G37*
G36*
X1615909Y424742D02*
X1615654Y424651D01*
X1615428Y424499D01*
X1615233Y424287D01*
X1615069Y424014D01*
X1614933Y423681D01*
X1614828Y423287D01*
X1614754Y422832D01*
X1614709Y422317D01*
X1614693Y421741D01*
X1611694D01*
X1611678Y422317D01*
X1611634Y422832D01*
X1611559Y423287D01*
X1611454Y423681D01*
X1611319Y424014D01*
X1611154Y424287D01*
X1610959Y424499D01*
X1610734Y424651D01*
X1610479Y424742D01*
X1610194Y424772D01*
X1616194D01*
X1615909Y424742D01*
D02*
G37*
G36*
X1614709Y418284D02*
X1614754Y417769D01*
X1614828Y417314D01*
X1614933Y416920D01*
X1615069Y416587D01*
X1615233Y416314D01*
X1615428Y416102D01*
X1615654Y415950D01*
X1615909Y415859D01*
X1616194Y415829D01*
X1610194D01*
X1610479Y415859D01*
X1610734Y415950D01*
X1610959Y416102D01*
X1611154Y416314D01*
X1611319Y416587D01*
X1611454Y416920D01*
X1611559Y417314D01*
X1611634Y417769D01*
X1611678Y418284D01*
X1611694Y418860D01*
X1614693D01*
X1614709Y418284D01*
D02*
G37*
G36*
X1591601Y403921D02*
X1591368Y404090D01*
X1591092Y404175D01*
X1590774D01*
X1590413Y404090D01*
X1590010Y403921D01*
X1589565Y403666D01*
X1589077Y403327D01*
X1588546Y402902D01*
X1587358Y401799D01*
X1585237Y403921D01*
X1585831Y404536D01*
X1586764Y405639D01*
X1587104Y406127D01*
X1587358Y406572D01*
X1587528Y406975D01*
X1587613Y407336D01*
Y407654D01*
X1587528Y407930D01*
X1587358Y408163D01*
X1591601Y403921D01*
D02*
G37*
G36*
X1545323Y396968D02*
X1546724Y395768D01*
X1547399Y395280D01*
X1548057Y394868D01*
X1548698Y394530D01*
X1549321Y394268D01*
X1549927Y394080D01*
X1550517Y393968D01*
X1551089Y393930D01*
Y390930D01*
X1550517Y390892D01*
X1549927Y390780D01*
X1549321Y390592D01*
X1548698Y390330D01*
X1548057Y389992D01*
X1547399Y389580D01*
X1546724Y389092D01*
X1546032Y388530D01*
X1544596Y387180D01*
Y397680D01*
X1545323Y396968D01*
D02*
G37*
G36*
X1423401Y347761D02*
X1423168Y347931D01*
X1422892Y348016D01*
X1422574D01*
X1422213Y347931D01*
X1421810Y347761D01*
X1421365Y347506D01*
X1420877Y347167D01*
X1420347Y346743D01*
X1419159Y345640D01*
X1417037Y347761D01*
X1417631Y348376D01*
X1418565Y349479D01*
X1418904Y349967D01*
X1419159Y350412D01*
X1419328Y350816D01*
X1419413Y351176D01*
Y351494D01*
X1419328Y351770D01*
X1419159Y352004D01*
X1423401Y347761D01*
D02*
G37*
G36*
X1391450Y350350D02*
X1391299Y350146D01*
X1391252Y349879D01*
X1391310Y349549D01*
X1391473Y349156D01*
X1391740Y348701D01*
X1392113Y348182D01*
X1392590Y347601D01*
X1393858Y346249D01*
X1389736Y346128D01*
X1389208Y346635D01*
X1388220Y347456D01*
X1387761Y347768D01*
X1387325Y348016D01*
X1386913Y348199D01*
X1386523Y348316D01*
X1386157Y348369D01*
X1385814Y348357D01*
X1385494Y348279D01*
X1391706Y350492D01*
X1391450Y350350D01*
D02*
G37*
G36*
X1423349Y299200D02*
X1422711Y299373D01*
X1422101Y299488D01*
X1421517Y299544D01*
X1420961Y299542D01*
X1420431Y299481D01*
X1419928Y299362D01*
X1419452Y299185D01*
X1419003Y298949D01*
X1418581Y298655D01*
X1418186Y298302D01*
X1416725Y301084D01*
X1417017Y301404D01*
X1417302Y301776D01*
X1417581Y302199D01*
X1417854Y302673D01*
X1418121Y303198D01*
X1418636Y304403D01*
X1418885Y305082D01*
X1419364Y306595D01*
X1423349Y299200D01*
D02*
G37*
G36*
X1391736Y301984D02*
X1391827Y301729D01*
X1391979Y301504D01*
X1392191Y301309D01*
X1392464Y301144D01*
X1392797Y301009D01*
X1393191Y300904D01*
X1393645Y300829D01*
X1394160Y300784D01*
X1394736Y300769D01*
Y297769D01*
X1394160Y297754D01*
X1393645Y297709D01*
X1393191Y297634D01*
X1392797Y297529D01*
X1392464Y297394D01*
X1392191Y297229D01*
X1391979Y297034D01*
X1391827Y296809D01*
X1391736Y296554D01*
X1391706Y296269D01*
Y302269D01*
X1391736Y301984D01*
D02*
G37*
G36*
X1801601Y523136D02*
X1800490Y523127D01*
X1798487Y522980D01*
X1797596Y522842D01*
X1796778Y522662D01*
X1796034Y522440D01*
X1795363Y522175D01*
X1794766Y521867D01*
X1794242Y521517D01*
X1793791Y521125D01*
X1791670Y523246D01*
X1792063Y523697D01*
X1792413Y524221D01*
X1792720Y524818D01*
X1792985Y525489D01*
X1793208Y526233D01*
X1793387Y527051D01*
X1793525Y527942D01*
X1793620Y528907D01*
X1793682Y531056D01*
X1801601Y523136D01*
D02*
G37*
G36*
X1794939Y316540D02*
X1795462Y316190D01*
X1796060Y315883D01*
X1796731Y315618D01*
X1797475Y315395D01*
X1798293Y315215D01*
X1799184Y315078D01*
X1800148Y314983D01*
X1802298Y314921D01*
X1794378Y307001D01*
X1794368Y308113D01*
X1794221Y310116D01*
X1794084Y311007D01*
X1793904Y311824D01*
X1793682Y312569D01*
X1793417Y313239D01*
X1793109Y313837D01*
X1792759Y314361D01*
X1792367Y314811D01*
X1794488Y316933D01*
X1794939Y316540D01*
D02*
G37*
G36*
X1470550Y340537D02*
X1470692Y338698D01*
X1470825Y337876D01*
X1470998Y337119D01*
X1471212Y336427D01*
X1471468Y335801D01*
X1471764Y335240D01*
X1472101Y334743D01*
X1472479Y334313D01*
X1470358Y332191D01*
X1469926Y332569D01*
X1469430Y332906D01*
X1468869Y333202D01*
X1468243Y333457D01*
X1467551Y333672D01*
X1466794Y333845D01*
X1465972Y333978D01*
X1465085Y334070D01*
X1463115Y334130D01*
X1470540Y341555D01*
X1470550Y340537D01*
D02*
G37*
G36*
X1678214Y299450D02*
X1677421Y300229D01*
X1675901Y301541D01*
X1675173Y302073D01*
X1674468Y302525D01*
X1673784Y302894D01*
X1673123Y303181D01*
X1672483Y303386D01*
X1671865Y303508D01*
X1671269Y303549D01*
Y306549D01*
X1671865Y306590D01*
X1672483Y306714D01*
X1673123Y306919D01*
X1673784Y307206D01*
X1674468Y307575D01*
X1675173Y308025D01*
X1675901Y308559D01*
X1676650Y309174D01*
X1678214Y310650D01*
Y299450D01*
D02*
G37*
D13*
X1058506Y338494D02*
X1060450Y336550D01*
X1022626Y368908D02*
X1053040Y338494D01*
X1058506D01*
D14*
X1447800Y529590D02*
X1463040Y544830D01*
X1431515Y393700D02*
X1447800Y409985D01*
X1352550Y393700D02*
X1431515D01*
X1447800Y409985D02*
Y529590D01*
X1058397Y372874D02*
X1102211D01*
X1016495Y414776D02*
X1058397Y372874D01*
X1016495Y414776D02*
Y495037D01*
X1037047Y544539D02*
Y547047D01*
X1032523Y540016D02*
X1037047Y544539D01*
X1019089Y529089D02*
X1030016Y540016D01*
X1019089Y515854D02*
Y529089D01*
X1030016Y540016D02*
X1032523D01*
X1016654Y495196D02*
Y497134D01*
X1019546Y500026D02*
Y515397D01*
X1019089Y515854D02*
X1019546Y515397D01*
X1016654Y497134D02*
X1019546Y500026D01*
X1111250Y500834D02*
Y528291D01*
X1165336Y539458D02*
Y555514D01*
X1238250Y508000D02*
X1327150D01*
X1155215Y562420D02*
X1156483Y561152D01*
X1155215Y562420D02*
Y565635D01*
X1120602Y537643D02*
Y554245D01*
X1212850Y533400D02*
X1238250Y508000D01*
X1159698Y561152D02*
X1165336Y555514D01*
Y539458D02*
X1169807Y534987D01*
X1156483Y561152D02*
X1159698D01*
D21*
X1253643Y663910D02*
D03*
Y679450D02*
D03*
X1282700Y663910D02*
D03*
Y679450D02*
D03*
D22*
X1275900Y452750D02*
D03*
X1257550D02*
D03*
X1239200D02*
D03*
X1275900Y471100D02*
D03*
X1257550D02*
D03*
X1239200D02*
D03*
X1275900Y489450D02*
D03*
X1257550D02*
D03*
X1239200D02*
D03*
D23*
X1324700Y371000D02*
D03*
X1312000D02*
D03*
X1299300D02*
D03*
X1286600D02*
D03*
X1273900D02*
D03*
X1261200D02*
D03*
X1248500D02*
D03*
X1235800D02*
D03*
X1223100D02*
D03*
X1210400D02*
D03*
D24*
X1352550Y546100D02*
D03*
Y533400D02*
D03*
Y520700D02*
D03*
Y508000D02*
D03*
Y495300D02*
D03*
Y482600D02*
D03*
Y469900D02*
D03*
Y457200D02*
D03*
Y444500D02*
D03*
Y431800D02*
D03*
Y419100D02*
D03*
Y406400D02*
D03*
Y393700D02*
D03*
Y381000D02*
D03*
X1182550D02*
D03*
Y393700D02*
D03*
Y406400D02*
D03*
Y419100D02*
D03*
Y431800D02*
D03*
Y444500D02*
D03*
Y457200D02*
D03*
Y469900D02*
D03*
Y482600D02*
D03*
Y495300D02*
D03*
Y508000D02*
D03*
Y520700D02*
D03*
Y533400D02*
D03*
Y546100D02*
D03*
D25*
X1115545Y429655D02*
D03*
X1039554Y429296D02*
D03*
D26*
X1092645Y495555D02*
D03*
X1115545D02*
D03*
X1039554Y495196D02*
D03*
X1016654D02*
D03*
D27*
X1138445Y495555D02*
D03*
X1062454Y495196D02*
D03*
D28*
X1861776Y636746D02*
D03*
Y686746D02*
D03*
X1863630Y283229D02*
D03*
Y333229D02*
D03*
D29*
X1539789Y649290D02*
D03*
X1523289D02*
D03*
X1320653Y340687D02*
D03*
X1337153D02*
D03*
D30*
X1568431Y649290D02*
D03*
X1553931D02*
D03*
X1064176Y515854D02*
D03*
X1050176D02*
D03*
X1033089D02*
D03*
X1019089D02*
D03*
D31*
X1564669Y475077D02*
D03*
Y461077D02*
D03*
X1355497Y350371D02*
D03*
Y335871D02*
D03*
X1130676Y562151D02*
D03*
Y548152D02*
D03*
X1110486Y562151D02*
D03*
Y548152D02*
D03*
X1151244Y528605D02*
D03*
Y514605D02*
D03*
X1090608Y394890D02*
D03*
Y408890D02*
D03*
D32*
X1568450Y439458D02*
D03*
Y411442D02*
D03*
X1439283Y648404D02*
D03*
Y676420D02*
D03*
D33*
X1593194Y431961D02*
D03*
X1613194D02*
D03*
X1484867Y651131D02*
D03*
X1464867D02*
D03*
D34*
X1614328Y409890D02*
D03*
X1593328D02*
D03*
D35*
X1303038Y340687D02*
D03*
X1285038D02*
D03*
D36*
X1385017Y352968D02*
D03*
Y367969D02*
D03*
Y284268D02*
D03*
Y299269D02*
D03*
D37*
X1059056Y547047D02*
D03*
X1087071D02*
D03*
X1037047D02*
D03*
X1009031D02*
D03*
X1095292Y519062D02*
D03*
X1123308D02*
D03*
X1142172Y401890D02*
D03*
X1114156D02*
D03*
X1116668Y589385D02*
D03*
X1144684D02*
D03*
D38*
X1151733Y546152D02*
D03*
Y564152D02*
D03*
D39*
X1344938Y275209D02*
D03*
X1307938D02*
D03*
X1344938Y319209D02*
D03*
X1307938D02*
D03*
X1528789Y712239D02*
D03*
X1565789D02*
D03*
X1528789Y668239D02*
D03*
X1565789D02*
D03*
X1392650Y623199D02*
D03*
X1429650D02*
D03*
X1392650Y579199D02*
D03*
X1429650D02*
D03*
D40*
X1351688Y297209D02*
D03*
X1301188D02*
D03*
X1522039Y690239D02*
D03*
X1572539D02*
D03*
X1385900Y601199D02*
D03*
X1436400D02*
D03*
D41*
X1181700Y308550D02*
D03*
X1256700D02*
D03*
X1186700D02*
D03*
X1251700D02*
D03*
X1191700D02*
D03*
X1246700D02*
D03*
X1196700D02*
D03*
X1241700D02*
D03*
X1201700D02*
D03*
X1236700D02*
D03*
X1206700D02*
D03*
X1231700D02*
D03*
X1211700D02*
D03*
X1226700D02*
D03*
X1221700D02*
D03*
X1216700D02*
D03*
D50*
X1173500Y304550D02*
D03*
X1264900D02*
D03*
D56*
X1022626Y343908D02*
D03*
X1084958Y607850D02*
D03*
X1008757D02*
D03*
Y582450D02*
D03*
D57*
X1022626Y368908D02*
D03*
D58*
X1855995Y591873D02*
D03*
Y566873D02*
D03*
Y541873D02*
D03*
X1855589Y461210D02*
D03*
Y436210D02*
D03*
Y411210D02*
D03*
D59*
X1855995Y516873D02*
D03*
X1855589Y386210D02*
D03*
D60*
X1568450Y368300D02*
D03*
Y596900D02*
D03*
D61*
Y342900D02*
D03*
Y317500D02*
D03*
Y292100D02*
D03*
X1644650D02*
D03*
Y317500D02*
D03*
Y342900D02*
D03*
Y368300D02*
D03*
X1568450Y571500D02*
D03*
Y546100D02*
D03*
Y520700D02*
D03*
X1644650D02*
D03*
Y546100D02*
D03*
Y571500D02*
D03*
Y596900D02*
D03*
D64*
X1424200Y427037D02*
D03*
X1423850Y520636D02*
D03*
D65*
X1424200Y452437D02*
D03*
Y477837D02*
D03*
X1398800Y427037D02*
D03*
Y452437D02*
D03*
Y477837D02*
D03*
X1398450Y546036D02*
D03*
X1423850D02*
D03*
X1398450Y520636D02*
D03*
D68*
X1174000Y274550D02*
D03*
X1264400D02*
D03*
D69*
X1084958Y582450D02*
D03*
D73*
X1873246Y667277D02*
X1873930D01*
X1874108Y665892D02*
Y667100D01*
Y665892D02*
X1879600Y660400D01*
X1861072Y679450D02*
X1873246Y667277D01*
X1873930D02*
X1874108Y667100D01*
X1879600Y541770D02*
Y554380D01*
Y618635D02*
Y637224D01*
Y645921D02*
Y660400D01*
Y509173D02*
Y521892D01*
Y606025D02*
Y618635D01*
Y594385D02*
Y606025D01*
Y500477D02*
Y509173D01*
Y581666D02*
Y594385D01*
Y521892D02*
Y529052D01*
Y541770D01*
Y572969D02*
Y581666D01*
Y554380D02*
Y572969D01*
Y489555D02*
Y500477D01*
Y637224D02*
Y645921D01*
X1168060Y361950D02*
X1168400D01*
X1199530Y330200D02*
X1270000D01*
X1168400Y361330D02*
X1199530Y330200D01*
X1168400Y361330D02*
Y361950D01*
X1155360Y374650D02*
X1168060Y361950D01*
X1102233Y372851D02*
X1104032Y374650D01*
X1155360D01*
X1835755Y489555D02*
X1879600D01*
X1861630Y323229D02*
Y339229D01*
X1802378Y459322D02*
X1803143Y460087D01*
X1806287D01*
X1835755Y489555D01*
X1879600Y350259D02*
Y489555D01*
X1801681Y681169D02*
Y683536D01*
X1810295Y692150D01*
X1856372D01*
X1861630Y339229D02*
X1865630Y343229D01*
X1872570D02*
X1879600Y350259D01*
X1865630Y343229D02*
X1872570D01*
X1836907Y281157D02*
Y305642D01*
X1854495Y323229D01*
X1861630D01*
X1817750Y262000D02*
X1836907Y281157D01*
X1286117Y275983D02*
X1300100Y262000D01*
X1817750D01*
X1856372Y692150D02*
X1861776Y686746D01*
X1270000Y330200D02*
X1286117Y314083D01*
Y275983D02*
Y314083D01*
D74*
X1164877Y325812D02*
X1186520D01*
X1142127Y318487D02*
X1157552D01*
X1164877Y325812D01*
X1134802D02*
X1142127Y318487D01*
X1130198Y325812D02*
X1134802D01*
X1186520D02*
X1197533Y314800D01*
X1117715Y338295D02*
X1130198Y325812D01*
X1429650Y579199D02*
X1442427Y566422D01*
Y511083D02*
Y566422D01*
X1412255Y480912D02*
X1442427Y511083D01*
X1660541Y510697D02*
X1680438Y530595D01*
X1591766Y529920D02*
X1610989Y510697D01*
X1660541D01*
X1680438Y530595D02*
Y531375D01*
X1564631Y529920D02*
X1591766D01*
X1204445Y340687D02*
X1285038D01*
X1157783Y387350D02*
X1204445Y340687D01*
X1117600Y387350D02*
X1157783D01*
X1084105Y338295D02*
X1117715D01*
X1061721Y358229D02*
X1062295Y357655D01*
X1064745D01*
X1084105Y338295D01*
X1114834Y390117D02*
X1117600Y387350D01*
X1092574Y396857D02*
X1100100D01*
X1169807Y534987D02*
X1180963D01*
X1111250Y500834D02*
X1115545Y496539D01*
X1090608Y394890D02*
X1092574Y396857D01*
X1149733Y562151D02*
X1153217Y565635D01*
X1114834Y390117D02*
Y401213D01*
X1115545Y403279D02*
Y429655D01*
X1180963Y534987D02*
X1182550Y533400D01*
X1114156Y401890D02*
X1114834Y401213D01*
X1115545Y429655D02*
Y496539D01*
X1130676Y562151D02*
Y572869D01*
X1114156Y401890D02*
X1115545Y403279D01*
X1116668Y586877D02*
Y589385D01*
X1182550Y533400D02*
X1212850D01*
X1105133Y401890D02*
X1114156D01*
X1111250Y528291D02*
X1120602Y537643D01*
X1126676Y558152D02*
X1130676Y562151D01*
X1149733D01*
X1116668Y586877D02*
X1130676Y572869D01*
X1153217Y565635D02*
X1155215D01*
X1100100Y396857D02*
X1105133Y401890D01*
X1120602Y554245D02*
X1124509Y558152D01*
X1126676D01*
X1584320Y452820D02*
Y502151D01*
X1568450Y518021D02*
X1584320Y502151D01*
X1570958Y439458D02*
X1584320Y452820D01*
X1565942Y439458D02*
X1570958D01*
X1568450Y518021D02*
Y520700D01*
X1541159Y506448D02*
X1564631Y529920D01*
X1527005Y506448D02*
X1541159D01*
X1352052Y641350D02*
X1370053Y623349D01*
Y517561D02*
Y623349D01*
X1324527Y676827D02*
X1339850Y692150D01*
X1399784D01*
X1431752Y660182D01*
X1539610Y649111D02*
X1539789Y649290D01*
X1539431Y637070D02*
X1539610Y637249D01*
Y649111D01*
X1568450Y596900D02*
Y615950D01*
X1553100Y631300D02*
X1568450Y615950D01*
X1483448Y631300D02*
X1553100D01*
X1464867Y649881D02*
X1483448Y631300D01*
X1333500Y641350D02*
X1352052D01*
X1377806Y649960D02*
X1409070Y618696D01*
Y502280D02*
X1416050Y495300D01*
X1409070Y502280D02*
Y618696D01*
X1421254Y587595D02*
Y614803D01*
Y587595D02*
X1429650Y579199D01*
X1377806Y649960D02*
Y671154D01*
X1375327Y673633D02*
X1377806Y671154D01*
X1412255Y465893D02*
Y480912D01*
X1421254Y614803D02*
X1429650Y623199D01*
X1199053Y316320D02*
X1239347D01*
X1196700Y313967D02*
X1199053Y316320D01*
X1196700Y308550D02*
Y313967D01*
X1498737Y478180D02*
X1527005Y506448D01*
X1498737Y403481D02*
Y478180D01*
X1463040Y367785D02*
X1498737Y403481D01*
X1463040Y367030D02*
Y367785D01*
X1499621Y305049D02*
X1683927D01*
X1463040Y341630D02*
X1499621Y305049D01*
X1182699Y520551D02*
X1212701D01*
X1110486Y548152D02*
X1111135Y547503D01*
Y536335D02*
Y547503D01*
X1429650Y623199D02*
Y625199D01*
X1528789Y666239D02*
Y668239D01*
X1536700Y676149D02*
Y704328D01*
X1528789Y712239D02*
X1536700Y704328D01*
X1528789Y668239D02*
X1536700Y676149D01*
X1349200Y381000D02*
X1352550D01*
X1346200Y378000D02*
X1349200Y381000D01*
X1346200Y366599D02*
Y378000D01*
X1325539Y345937D02*
X1346200Y366599D01*
X1385017Y352968D02*
X1395085Y342900D01*
X1414298D02*
X1425128Y353730D01*
X1395085Y342900D02*
X1414298D01*
X1151244Y528605D02*
X1152800Y527050D01*
X1168400Y520700D02*
X1182550D01*
X1162050Y527050D02*
X1168400Y520700D01*
X1152800Y527050D02*
X1162050D01*
X1182550Y520700D02*
X1182699Y520551D01*
X1191700Y308550D02*
X1196700D01*
X1324527Y673633D02*
Y676827D01*
X1431752Y653427D02*
Y660182D01*
Y653427D02*
X1436775Y648404D01*
X1439283D01*
X1541536Y445526D02*
X1547868D01*
X1563419Y461077D01*
X1539240Y443230D02*
X1541536Y445526D01*
X1778000Y331299D02*
Y507455D01*
X1801681Y531136D01*
X1778000Y331299D02*
X1802378Y306922D01*
X1563419Y461077D02*
X1564669D01*
X1546610Y420126D02*
X1565942Y439458D01*
X1541536Y420126D02*
X1546610D01*
X1539240Y417830D02*
X1541536Y420126D01*
X1575868Y392430D02*
X1593328Y409890D01*
X1539240Y392430D02*
X1575868D01*
X1613194Y411025D02*
Y431961D01*
Y411025D02*
X1614328Y409890D01*
X1400727Y673633D02*
X1400860Y673500D01*
Y662890D02*
Y673500D01*
Y662890D02*
X1430310Y633440D01*
X1469548D01*
X1398800Y452437D02*
X1412255Y465893D01*
X1469548Y633440D02*
X1507357Y595630D01*
X1539240D01*
X1523289Y660739D02*
X1528789Y666239D01*
X1523289Y651790D02*
Y660739D01*
Y649290D02*
Y651790D01*
X1530309Y658810D02*
X1545661D01*
X1553931Y649290D02*
Y650540D01*
X1545661Y658810D02*
X1553931Y650540D01*
X1523289Y651790D02*
X1530309Y658810D01*
X1464867Y649881D02*
Y651131D01*
X1439283Y648404D02*
X1462140D01*
X1464867Y651131D01*
X1073322Y563821D02*
Y596215D01*
X1084958Y607850D01*
X1092645Y497764D02*
X1095292Y500411D01*
X1092645Y495555D02*
Y497764D01*
X1095292Y500411D02*
Y519062D01*
Y534208D01*
X1109236Y548152D02*
X1110486D01*
X1095292Y534208D02*
X1109236Y548152D01*
X1463040Y290830D02*
X1474220Y279650D01*
X1683927D01*
X1151244Y528605D02*
Y545662D01*
X1151733Y546152D01*
X1303038Y340687D02*
X1320653D01*
Y343187D01*
X1339371Y280777D02*
Y313641D01*
X1343438Y278709D02*
X1344938Y277209D01*
X1339371Y280777D02*
X1341438Y278709D01*
Y315709D02*
X1343438D01*
X1344938Y317209D02*
Y319209D01*
Y275209D02*
Y277209D01*
X1341438Y278709D02*
X1343438D01*
X1339371Y313641D02*
X1341438Y315709D01*
X1343438D02*
X1344938Y317209D01*
Y319209D02*
X1352840D01*
X1431150Y626699D02*
X1433150D01*
X1454900Y629170D02*
X1463040Y621030D01*
X1435621Y629170D02*
X1454900D01*
X1429650Y625199D02*
X1431150Y626699D01*
X1433150D02*
X1435621Y629170D01*
X1059056Y547047D02*
Y549555D01*
X1073322Y563821D01*
X1050176Y535659D02*
X1059056Y544539D01*
X1050176Y515854D02*
Y535659D01*
X1059056Y544539D02*
Y547047D01*
X1039554Y495196D02*
X1050176Y505817D01*
Y515854D01*
X1039554Y429296D02*
Y495196D01*
X1417031Y299269D02*
X1422693Y304930D01*
X1385017Y299269D02*
X1417031D01*
X1422693Y304930D02*
X1425128D01*
X1355497Y321866D02*
Y335871D01*
X1352840Y319209D02*
X1355497Y321866D01*
X1349430Y340687D02*
X1354247Y335871D01*
X1337153Y340687D02*
X1349430D01*
X1323403Y345937D02*
X1325539D01*
X1320653Y343187D02*
X1323403Y345937D01*
X1241700Y308550D02*
X1246700D01*
X1241700D02*
Y313967D01*
X1239347Y316320D02*
X1241700Y313967D01*
D75*
X1282700Y679450D02*
X1293510D01*
X1296796Y676164D01*
X1297309D01*
X1279935Y663165D02*
X1293222Y649878D01*
X1354534D01*
X1377561Y626852D01*
X1240212Y675589D02*
X1244072Y679450D01*
X1240212Y658527D02*
Y675589D01*
X1244072Y679450D02*
X1253643D01*
X1255663Y663910D02*
X1286642Y632931D01*
X1349536D01*
X1362801Y619666D01*
X1336308Y505825D02*
X1341711Y500421D01*
X1336308Y548275D02*
X1342333Y554300D01*
X1336308Y505825D02*
Y548275D01*
X1342333Y554300D02*
X1358214D01*
X1362801Y558887D01*
Y619666D01*
X1377561Y559189D02*
Y626852D01*
X1253643Y663910D02*
X1255663D01*
X1341711Y500421D02*
X1341929D01*
X1347050Y495300D01*
X1352550D01*
X1388849Y547901D02*
X1396585D01*
X1398450Y546036D01*
X1377561Y559189D02*
X1388849Y547901D01*
X1276350Y666750D02*
X1279935Y663165D01*
X1396936Y520636D02*
X1398450D01*
X1368651Y508000D02*
X1396020Y535368D01*
X1371600Y495300D02*
X1396936Y520636D01*
X1396020Y543606D02*
X1398450Y546036D01*
X1396020Y535368D02*
Y543606D01*
X1352550Y508000D02*
X1368651D01*
X1352550Y495300D02*
X1371600D01*
X1683190Y557038D02*
Y559385D01*
Y580091D02*
X1689100Y574181D01*
X1683190Y559385D02*
X1689100Y565295D01*
Y574181D01*
X1683190Y580091D02*
Y582438D01*
X1495169Y651131D02*
X1498600Y647700D01*
X1484867Y651131D02*
X1495169D01*
D76*
X1680438Y505975D02*
D03*
Y531375D02*
D03*
Y582174D02*
D03*
Y632975D02*
D03*
Y658374D02*
D03*
Y607575D02*
D03*
Y556774D02*
D03*
X1375327Y673633D02*
D03*
X1349927D02*
D03*
X1324527D02*
D03*
X1801681Y683536D02*
D03*
Y658136D02*
D03*
Y607336D02*
D03*
Y556536D02*
D03*
Y531136D02*
D03*
Y581936D02*
D03*
Y632736D02*
D03*
X1683927Y279650D02*
D03*
Y305049D02*
D03*
Y355849D02*
D03*
Y406650D02*
D03*
Y432049D02*
D03*
Y381250D02*
D03*
Y330449D02*
D03*
X1802378Y459322D02*
D03*
Y433922D02*
D03*
Y383121D02*
D03*
Y332322D02*
D03*
Y306922D02*
D03*
Y357721D02*
D03*
Y408521D02*
D03*
X1162076Y673633D02*
D03*
X1187476D02*
D03*
X1212876D02*
D03*
D77*
X1680438Y683774D02*
D03*
X1801681Y505736D02*
D03*
X1683927Y457449D02*
D03*
X1802378Y281521D02*
D03*
D78*
X1400727Y673633D02*
D03*
X1136676D02*
D03*
D79*
X1539240Y290830D02*
D03*
Y341630D02*
D03*
Y367030D02*
D03*
Y392430D02*
D03*
Y417830D02*
D03*
Y443230D02*
D03*
Y468630D02*
D03*
Y494030D02*
D03*
Y519430D02*
D03*
Y544830D02*
D03*
Y570230D02*
D03*
Y595630D02*
D03*
Y621030D02*
D03*
X1463040Y290830D02*
D03*
Y316230D02*
D03*
Y341630D02*
D03*
Y367030D02*
D03*
Y392430D02*
D03*
Y417830D02*
D03*
Y443230D02*
D03*
Y468630D02*
D03*
Y494030D02*
D03*
Y519430D02*
D03*
Y544830D02*
D03*
Y570230D02*
D03*
Y595630D02*
D03*
X1539240Y316230D02*
D03*
D80*
X1463040Y621030D02*
D03*
D81*
X1425128Y304930D02*
D03*
D82*
Y353730D02*
D03*
D83*
X1150233Y342851D02*
D03*
D84*
X1102233Y314851D02*
D03*
Y372851D02*
D03*
D85*
X1930400Y285750D02*
D03*
Y692150D02*
D03*
X1619250Y673100D02*
D03*
X1003300Y285750D02*
D03*
Y692150D02*
D03*
D86*
X1874108Y667100D02*
D03*
X1879600Y660400D02*
D03*
X1943100Y647700D02*
D03*
X1930400Y622300D02*
D03*
X1943100Y596900D02*
D03*
X1930400Y571500D02*
D03*
X1943100Y546100D02*
D03*
X1930400Y520700D02*
D03*
X1943100Y495300D02*
D03*
X1930400Y469900D02*
D03*
X1943100Y444500D02*
D03*
X1930400Y419100D02*
D03*
X1943100Y393700D02*
D03*
X1930400Y368300D02*
D03*
X1943100Y342900D02*
D03*
X1930400Y317500D02*
D03*
X1905000Y673100D02*
D03*
X1917700Y647700D02*
D03*
X1905000Y622300D02*
D03*
X1917700Y546100D02*
D03*
Y495300D02*
D03*
Y444500D02*
D03*
Y393700D02*
D03*
X1905000Y368300D02*
D03*
X1917700Y342900D02*
D03*
X1905000Y317500D02*
D03*
Y266700D02*
D03*
X1892300Y647700D02*
D03*
Y596900D02*
D03*
Y546100D02*
D03*
Y495300D02*
D03*
Y444500D02*
D03*
Y393700D02*
D03*
Y342900D02*
D03*
X1879600Y317500D02*
D03*
X1892300Y292100D02*
D03*
X1879600Y266700D02*
D03*
X1866900Y596900D02*
D03*
Y546100D02*
D03*
Y444500D02*
D03*
X1828800Y673100D02*
D03*
X1841500Y647700D02*
D03*
X1828800Y520700D02*
D03*
Y368300D02*
D03*
X1841500Y342900D02*
D03*
X1828800Y317500D02*
D03*
X1816100Y647700D02*
D03*
Y596900D02*
D03*
Y546100D02*
D03*
Y495300D02*
D03*
Y444500D02*
D03*
Y292100D02*
D03*
X1778000Y673100D02*
D03*
X1790700Y647700D02*
D03*
X1778000Y622300D02*
D03*
X1790700Y596900D02*
D03*
X1778000Y571500D02*
D03*
X1790700Y546100D02*
D03*
Y495300D02*
D03*
Y444500D02*
D03*
Y393700D02*
D03*
Y342900D02*
D03*
X1778000Y317500D02*
D03*
X1790700Y292100D02*
D03*
X1752600Y673100D02*
D03*
X1765300Y647700D02*
D03*
X1752600Y622300D02*
D03*
X1765300Y596900D02*
D03*
X1752600Y571500D02*
D03*
X1765300Y546100D02*
D03*
Y495300D02*
D03*
X1752600Y469900D02*
D03*
X1765300Y444500D02*
D03*
X1752600Y419100D02*
D03*
X1765300Y393700D02*
D03*
X1752600Y368300D02*
D03*
X1765300Y342900D02*
D03*
X1752600Y317500D02*
D03*
X1765300Y292100D02*
D03*
X1727200Y673100D02*
D03*
X1739900Y647700D02*
D03*
X1727200Y622300D02*
D03*
X1739900Y596900D02*
D03*
X1727200Y571500D02*
D03*
X1739900Y546100D02*
D03*
Y495300D02*
D03*
X1727200Y469900D02*
D03*
X1739900Y444500D02*
D03*
X1727200Y419100D02*
D03*
X1739900Y393700D02*
D03*
X1727200Y368300D02*
D03*
X1739900Y342900D02*
D03*
X1727200Y317500D02*
D03*
X1739900Y292100D02*
D03*
X1701800Y673100D02*
D03*
X1714500Y647700D02*
D03*
X1701800Y622300D02*
D03*
X1714500Y596900D02*
D03*
X1701800Y571500D02*
D03*
X1714500Y546100D02*
D03*
Y495300D02*
D03*
X1701800Y469900D02*
D03*
X1714500Y444500D02*
D03*
X1701800Y419100D02*
D03*
X1714500Y393700D02*
D03*
X1701800Y368300D02*
D03*
X1714500Y342900D02*
D03*
X1701800Y317500D02*
D03*
X1714500Y292100D02*
D03*
X1689100Y647700D02*
D03*
Y596900D02*
D03*
Y546100D02*
D03*
Y495300D02*
D03*
X1676400Y469900D02*
D03*
X1689100Y444500D02*
D03*
Y393700D02*
D03*
Y292100D02*
D03*
X1651000Y673100D02*
D03*
X1663700Y647700D02*
D03*
Y495300D02*
D03*
Y292100D02*
D03*
X1638300Y647700D02*
D03*
X1625600Y622300D02*
D03*
Y571500D02*
D03*
Y520700D02*
D03*
X1638300Y495300D02*
D03*
Y444500D02*
D03*
Y393700D02*
D03*
X1625600Y368300D02*
D03*
X1612900Y647700D02*
D03*
X1600200Y622300D02*
D03*
X1612900Y596900D02*
D03*
X1600200Y571500D02*
D03*
X1612900Y546100D02*
D03*
X1600200Y469900D02*
D03*
X1612900Y444500D02*
D03*
Y393700D02*
D03*
Y342900D02*
D03*
X1600200Y317500D02*
D03*
X1574800Y673100D02*
D03*
X1587500Y647700D02*
D03*
X1574800Y622300D02*
D03*
X1587500Y596900D02*
D03*
Y546100D02*
D03*
Y444500D02*
D03*
Y393700D02*
D03*
Y342900D02*
D03*
Y292100D02*
D03*
X1549400Y673100D02*
D03*
X1562100Y495300D02*
D03*
X1524000Y571500D02*
D03*
Y520700D02*
D03*
Y469900D02*
D03*
Y419100D02*
D03*
X1498600Y673100D02*
D03*
X1511300Y647700D02*
D03*
X1498600Y622300D02*
D03*
Y571500D02*
D03*
X1511300Y546100D02*
D03*
X1498600Y520700D02*
D03*
X1511300Y444500D02*
D03*
Y342900D02*
D03*
Y292100D02*
D03*
X1473200Y673100D02*
D03*
X1485900Y596900D02*
D03*
Y546100D02*
D03*
Y495300D02*
D03*
Y342900D02*
D03*
X1447800Y622300D02*
D03*
Y571500D02*
D03*
X1422400D02*
D03*
X1435100Y342900D02*
D03*
X1422400Y317500D02*
D03*
X1435100Y292100D02*
D03*
X1397000Y368300D02*
D03*
Y317500D02*
D03*
X1384300Y495300D02*
D03*
X1371600Y469900D02*
D03*
X1384300Y444500D02*
D03*
X1371600Y419100D02*
D03*
Y368300D02*
D03*
X1384300Y342900D02*
D03*
X1371600Y317500D02*
D03*
X1358900Y292100D02*
D03*
X1320800Y520700D02*
D03*
X1333500Y495300D02*
D03*
X1320800Y469900D02*
D03*
X1333500Y444500D02*
D03*
X1320800Y419100D02*
D03*
X1333500Y393700D02*
D03*
X1320800Y317500D02*
D03*
X1295400Y520700D02*
D03*
X1308100Y495300D02*
D03*
X1295400Y469900D02*
D03*
X1308100Y444500D02*
D03*
X1295400Y419100D02*
D03*
X1308100Y393700D02*
D03*
Y292100D02*
D03*
X1270000Y673100D02*
D03*
Y520700D02*
D03*
Y419100D02*
D03*
X1244600Y520700D02*
D03*
Y419100D02*
D03*
X1231900Y647700D02*
D03*
X1219200Y469900D02*
D03*
Y419100D02*
D03*
X1206500Y546100D02*
D03*
Y495300D02*
D03*
Y444500D02*
D03*
X1193800Y368300D02*
D03*
X1181100Y647700D02*
D03*
X1168400Y622300D02*
D03*
Y571500D02*
D03*
Y317500D02*
D03*
X1155700Y647700D02*
D03*
X1143000Y622300D02*
D03*
X1155700Y596900D02*
D03*
Y495300D02*
D03*
Y444500D02*
D03*
X1143000Y419100D02*
D03*
X1155700Y292100D02*
D03*
X1143000Y266700D02*
D03*
X1117600Y673100D02*
D03*
Y622300D02*
D03*
X1130300Y342900D02*
D03*
Y292100D02*
D03*
X1117600Y266700D02*
D03*
X1092200Y673100D02*
D03*
X1104900Y647700D02*
D03*
X1092200Y622300D02*
D03*
X1104900Y596900D02*
D03*
Y495300D02*
D03*
X1092200Y469900D02*
D03*
X1104900Y444500D02*
D03*
Y292100D02*
D03*
X1092200Y266700D02*
D03*
X1079500Y647700D02*
D03*
X1066800Y622300D02*
D03*
X1079500Y495300D02*
D03*
X1066800Y469900D02*
D03*
X1079500Y444500D02*
D03*
X1066800Y419100D02*
D03*
Y317500D02*
D03*
X1079500Y292100D02*
D03*
X1066800Y266700D02*
D03*
X1041400Y673100D02*
D03*
X1054100Y647700D02*
D03*
X1041400Y622300D02*
D03*
X1054100Y596900D02*
D03*
X1041400Y571500D02*
D03*
X1054100Y444500D02*
D03*
X1041400Y419100D02*
D03*
X1054100Y393700D02*
D03*
X1041400Y368300D02*
D03*
Y317500D02*
D03*
X1054100Y292100D02*
D03*
X1041400Y266700D02*
D03*
X1016000Y673100D02*
D03*
X1028700Y647700D02*
D03*
Y596900D02*
D03*
X1016000Y571500D02*
D03*
X1028700Y495300D02*
D03*
Y444500D02*
D03*
X1016000Y317500D02*
D03*
X1028700Y292100D02*
D03*
X1016000Y266700D02*
D03*
X990600Y673100D02*
D03*
X1003300Y647700D02*
D03*
X990600Y622300D02*
D03*
Y571500D02*
D03*
Y520700D02*
D03*
X1003300Y495300D02*
D03*
X990600Y469900D02*
D03*
X1003300Y444500D02*
D03*
X990600Y419100D02*
D03*
X1003300Y393700D02*
D03*
X990600Y368300D02*
D03*
X1003300Y342900D02*
D03*
X990600Y317500D02*
D03*
Y266700D02*
D03*
X1870292Y489238D02*
D03*
X1811954Y468140D02*
D03*
X1822800Y478006D02*
D03*
X1852359Y489829D02*
D03*
X1839944Y487465D02*
D03*
X1819077Y691046D02*
D03*
X1841435Y690382D02*
D03*
X1881696Y606025D02*
D03*
X1880392Y618635D02*
D03*
X1881370Y637224D02*
D03*
Y645921D02*
D03*
X1879904Y529052D02*
D03*
X1879578Y541770D02*
D03*
X1878273Y554380D02*
D03*
X1879686Y594385D02*
D03*
X1879252Y572969D02*
D03*
Y581666D02*
D03*
X1879198Y456559D02*
D03*
X1878871Y469278D02*
D03*
X1877567Y481888D02*
D03*
X1878980Y521892D02*
D03*
X1878545Y500477D02*
D03*
Y509173D02*
D03*
X1880027Y434143D02*
D03*
Y425447D02*
D03*
X1880462Y446862D02*
D03*
X1879048Y406858D02*
D03*
X1880353Y394248D02*
D03*
X1880679Y381529D02*
D03*
X1880027Y369462D02*
D03*
X1877309Y350873D02*
D03*
X1853383Y321049D02*
D03*
X1841888Y312279D02*
D03*
X1835488Y295688D02*
D03*
X1837148Y283600D02*
D03*
X1830951Y273913D02*
D03*
X1818068Y262506D02*
D03*
X1754418Y261213D02*
D03*
X1768917Y261083D02*
D03*
X1781603Y261083D02*
D03*
X1793901Y261472D02*
D03*
X1805551Y261213D02*
D03*
X1690918D02*
D03*
X1705417Y261083D02*
D03*
X1718103Y261083D02*
D03*
X1730401Y261472D02*
D03*
X1742051Y261213D02*
D03*
X1627418D02*
D03*
X1641917Y261083D02*
D03*
X1654603Y261083D02*
D03*
X1666901Y261472D02*
D03*
X1678551Y261213D02*
D03*
X1563918D02*
D03*
X1578417Y261083D02*
D03*
X1591103Y261083D02*
D03*
X1603401Y261472D02*
D03*
X1615051Y261213D02*
D03*
X1500418D02*
D03*
X1514917Y261083D02*
D03*
X1527603Y261083D02*
D03*
X1539901Y261472D02*
D03*
X1551551Y261213D02*
D03*
X1436918D02*
D03*
X1451417Y261083D02*
D03*
X1464103Y261083D02*
D03*
X1476401Y261472D02*
D03*
X1488051Y261213D02*
D03*
X1373359Y261011D02*
D03*
X1387857Y260882D02*
D03*
X1400543Y260882D02*
D03*
X1412841Y261270D02*
D03*
X1424492Y261011D02*
D03*
X1361051Y261213D02*
D03*
X1349401Y261472D02*
D03*
X1337103Y261083D02*
D03*
X1324417Y261083D02*
D03*
X1309918Y261213D02*
D03*
X1298268Y263155D02*
D03*
X1289983Y271698D02*
D03*
X1285970Y283737D02*
D03*
X1286229Y297718D02*
D03*
X1285841Y311310D02*
D03*
X1280404Y319595D02*
D03*
X1271860Y327103D02*
D03*
X1259044Y330080D02*
D03*
X1245957Y329841D02*
D03*
X1231301Y330054D02*
D03*
X1214718Y329199D02*
D03*
X1200168Y329947D02*
D03*
X1190219Y339683D02*
D03*
X1130300Y374650D02*
D03*
X1143000D02*
D03*
X1155700D02*
D03*
X1181100Y349250D02*
D03*
X1168400Y361950D02*
D03*
D87*
X1061721Y358229D02*
D03*
X1297309Y676164D02*
D03*
X1539431Y637070D02*
D03*
X1240212Y658527D02*
D03*
X1333500Y641350D02*
D03*
X1416050Y495300D02*
D03*
X1370051Y517560D02*
D03*
X1498600Y647700D02*
D03*
X1327150Y508000D02*
D03*
X1212701Y520551D02*
D03*
X1111135Y536335D02*
D03*
D88*
X1060450Y336550D02*
D03*
X1907769Y594973D02*
D03*
Y575923D02*
D03*
Y537823D02*
D03*
X1907411Y516192D02*
D03*
X1907769Y556873D02*
D03*
X1906709Y388191D02*
D03*
Y407241D02*
D03*
Y426291D02*
D03*
Y445341D02*
D03*
Y464391D02*
D03*
M02*
